M48
;Layer_Color=9474304
;FILE_FORMAT=2:4
INCH,TZ
;TYPE=PLATED
T1F00S00C0.0150
T2F00S00C0.0200
T3F00S00C0.0250
T4F00S00C0.0280
T5F00S00C0.0300
T6F00S00C0.0354
T7F00S00C0.0380
T8F00S00C0.0400
T9F00S00C0.0550
T10F00S00C0.0590
T11F00S00C0.0630
T12F00S00C0.0870
;TYPE=NON_PLATED
T13F00S00C0.1181
%
T01
X11111Y11111
X10811Y11811
X11111Y12511
X11811Y12811
X12511Y12511
X12811Y11811
X12511Y11111
X11811Y10811
X11560Y13930
X12008Y14449
X12333
X13484Y14459
X13819Y14449
X14567Y14370
Y15157
X14636Y15600
X14870Y12550
X14370Y12580
X13980Y12180
X15510Y12570
X11210Y15080
X11191Y15591
X15630
X15650Y15157
Y14370
X16457Y14409
X16850
X17913Y14370
X18228
X19094
Y15157
Y15591
X20039
X20079Y15157
Y14370
X20827Y14409
X21142
X22323Y14370
X22638
X23080Y14370
X23150Y14850
X23500Y15180
X23740Y13820
X21470Y12480
X20810
X19910Y12470
X18730Y12590
X18380Y12600
X17250Y12480
X16750Y12450
X29230Y12160
X29570Y12480
X29950Y12470
X30550Y12480
X30118Y14409
X29764
X31220
X28937Y15551
X32598Y15512
X32480Y14961
X33219Y15034
Y15394
Y14675
X32850Y14400
X31575Y14409
X31410Y12480
X31990
X32370
X33888Y11850
X34400Y14811
Y15157
Y15504
X44163Y15177
Y14468
X44518Y13317
X45335
X45659Y14488
X45748Y15000
X46663Y13071
X47520Y13297
X48513Y12511
X48213Y11811
X48513Y11111
X49213Y10811
X49913Y11111
X50213Y11811
X49913Y12511
X49213Y12811
X47362Y15669
X48218Y17795
Y18189
Y18583
Y18976
X48622Y18996
Y18583
Y18189
Y17795
X49026
X49429
X49833
Y18996
X49429Y18996
X49026Y19016
X49026Y20236
X48622
X49498
X49774Y21211
X49213Y21339
X48661
X48150Y20787
X47450Y20240
X47030Y19440
X47234Y22008
X47323Y22904
X47500Y24400
X47323Y24921
X47343Y25581
X48337Y26250
X48911
X49485
X50059
X50079Y27677
X49567
X49055
X48543
X49026Y24596
X48967Y23228
X48100Y23858
X50404Y21752
X45423Y22057
X45354Y23169
X45965Y22874
X46663Y23858
X46000Y24910
X45817Y27293
X46417Y28524
X46417Y30079
X44852
X45000Y30906
X43287Y30079
X41722
X40157
X39498Y29409
Y28287
X39528Y27283
X40787Y26998
X41024Y26260
Y25866
X41378Y26063
Y25669
X42047
X41811Y25433
X42323
X42559Y25669
X43032
X42795Y25433
X42959Y27015
X43359
Y27415
X42959
Y27815
X43359
Y28215
X42959
X42559
X42159
X41759
Y27815
X42159
Y27415
X41759
Y27015
X42159
X42559
Y27415
Y27815
X41378Y26457
X44449Y26378
X42480Y23927
X42530Y23228
X42215Y20423
Y20069
Y19715
X41795Y20423
X41375
X40955Y20423
Y20069
Y19715
X40581Y20837
X39941Y18632
X39350Y18996
X38435Y18258
X41211Y17894
X44055Y16614
X44670Y16200
X45512Y16142
X45890Y17370
X46520
X46610Y19300
X45810
X45360Y19500
X45080Y19760
X33800Y19200
X33500Y18550
X34100Y18500
X33500Y17150
X33268Y16457
Y16211
X34100Y16500
X34400Y16198
Y15851
X32156Y16988
X31890Y17913
X32087Y18898
X31378Y19213
X31663Y19518
X32766Y19242
X31650Y21800
X31496Y22913
X32000Y24400
X31339Y25039
X31700Y26750
X32402Y28189
X32244Y28799
X33937Y29331
X34449Y28937
X35020Y28031
X35059Y26083
X37126Y28789
X37530
X37126Y29311
X37185Y29872
X37569Y30236
X38110
Y29537
X37205Y30906
X32608Y31122
Y30659
X30789Y29014
X31024Y28150
X31240Y27687
X30787Y27598
Y27106
X30945Y26693
X30945Y25787
Y24921
X30394Y23396
X30000Y23100
X28514Y23957
X28248Y24508
X28701Y24636
X27362Y24331
X27362Y23819
X27283Y22756
X26811Y23071
X26214Y22963
X25689Y23071
X25710Y22570
X24596Y22854
X24163Y23120
X24488Y23533
X24045Y23829
X24596Y24232
X24449Y24833
X24754Y25335
X24419Y25709
X23927Y25807
X24055Y26339
X24488Y26614
X24744Y26122
X24115Y26999
X23953Y27360
X23583Y27362
X23543Y26653
X23799Y25197
X22447Y25709
X22314Y24686
X21772Y24606
X21753Y24214
X21712Y23810
X21400Y23470
X21500Y22810
X21811Y22480
X21794Y22103
X22600Y21880
X22009Y21271
X23169Y21093
X23584Y21074
X23465Y19974
X22920Y19920
X23199Y19183
X23583Y19173
X24350Y19150
X24903Y19588
X24902Y18553
X24882Y18032
X24892Y17520
X25640Y17451
Y18543
X26802Y18515
X27175Y18750
X26654Y19488
Y19882
X27500Y20000
X27441Y20965
X28072Y20581
X28783Y19683
X28950Y19150
X29600
X29900Y18800
X29600Y18300
Y17750
X28950Y18300
X28278Y17431
X27874Y16378
X28386Y15906
X28661
X30272Y16314
X30276Y16691
X30650
Y16319
X31033Y16317
X31024Y16691
Y17065
X30650
X30276
X30400Y19250
X30630Y20370
X29500Y20000
X26368Y21388
X25679Y21073
X24705Y21388
X22580Y19170
X21450Y19200
X20850Y19150
X20300
Y18400
X20850
X21100Y18750
X20750Y17800
X20364Y17057
X21395Y17134
Y16760
X21769
Y16388
X21392Y16383
X22153Y16386
X22143Y16760
Y17134
X21769
X23150Y17057
X23031Y17913
X24230Y16830
X24750Y16560
X23976Y16063
X26614Y16102
X26693Y16772
X26811Y17520
X26614Y18031
X21550Y20000
X20750Y19750
X19600Y19900
X19400Y20250
X18400Y20000
X18543Y19173
X18023Y19184
X17530Y19640
X17520Y20440
X17050Y19250
X16350Y19150
X15800
Y18450
X16350
Y17800
X16700Y18750
X17009Y17134
Y16760
X17383
Y16388
X17005Y16383
X17767Y16386
X17757Y16760
Y17134
X17383
X18730Y17057
X18701Y17913
X19094Y19173
X19449Y16496
X19724
X18041Y22028
Y22411
X17254Y22077
X18400Y23300
X18032Y23740
X18022Y24134
X18310Y24590
X18290Y25710
X17970Y25470
X17579Y25463
X16604Y25531
X16752Y25955
X15955Y26211
X15718Y25315
X15797Y23140
X15807Y28150
X17470Y28760
X18110Y29173
X18376Y29449
X18780Y30364
X19477Y28472
X20758Y28238
X20453Y27077
X20942Y26929
X21614
X21890Y27244
X22264Y27274
X22441Y27677
X23366Y28238
X23001Y31062
X27117Y29716
X27126Y29331
X27361Y27826
X27087Y27480
X26251Y27521
X20251Y26238
X20315Y25079
X20630Y24911
X20832Y24562
X22314Y23663
X19125Y25759
X19124Y27205
X18174Y27100
X17800
X17428
X17423Y27478
X17800Y27474
X18174
Y26726
X17800
X17426Y26716
X15000Y26430
X14720Y27150
X14380Y29370
X14468Y30600
X14882Y30591
X11526Y27943
X10778Y21870
X10600Y20000
X11500Y19750
X11600Y18950
X11100
Y18400
X11600
X11850Y17800
X11329Y17055
X10827Y16732
X10709Y16496
X12496Y16383
X12500Y16760
X12874
Y16388
X13258Y16386
X13248Y16760
Y17134
X12874
X12500
X14273Y17055
X14173Y17913
X14134Y19291
X13504Y19242
X12700Y19200
X12200Y18750
X13300Y20300
X13944Y20000
X14488
X15500Y20050
X15310Y20400
X15430Y19530
X14850Y19230
X14675Y21850
X15551Y22579
X15315Y16526
Y16220
X15010
Y16516
X12511Y35127
X12811Y35827
X12511Y36527
X11811Y36827
X11111Y36527
X10811Y35827
X11111Y35127
X11811Y34827
X17300Y33750
X18504Y32441
X20280Y31280
X24783Y31624
X25188Y31596
X28100Y31437
X31890Y33506
X32185Y33799
X32884Y34803
X36430Y34120
Y32660
X36100Y31800
X38485Y31380
X40370
X42255
X42220Y32580
X42341Y33372
X41947
X41553
Y33766
Y34159
X41947
X42341
Y33766
X41947
X42670Y34480
X43750Y35100
X43886Y35616
X44550Y35710
X44180Y36930
X43380Y36280
X42796Y36292
X42295Y36930
X40410
X38525
X36640
X36430Y35580
X40820Y34650
X44550Y34115
X45342Y33806
Y33406
Y33006
Y32606
X45742
X46142
Y33006
Y33406
Y33806
X45742
Y33406
Y33006
X46542
Y33406
Y33806
Y32606
X46378Y31339
X45906
X45394
X44921Y31417
Y31732
Y32047
X44550Y32520
X44140Y31380
X43290Y32040
X46942Y32606
Y33006
Y33406
Y33806
X48513Y35127
X48213Y35827
X48513Y36527
X49213Y36827
X49913Y36527
X50213Y35827
X49913Y35127
X49213Y34827
T02
X41130Y32600
T03
X39311Y30030
T04
X13642Y29429
X42460Y32160
X46575Y36811
T05
X35630Y12874
X36132Y13346
X36673Y13917
X39890Y32123
X41826Y34996
X41830Y36140
T06
X27496Y31785
Y32785
X28496
Y31785
X29496
Y32785
X30496
Y31785
X30516Y35457
X29516
X28516
X27516
Y36457
X28516
X29516
X30516
X31516
Y35457
X31496Y32785
Y31785
X33947Y33057
X34947
Y34057
X33947
Y35057
X34947
Y36057
X33947
Y37057
X34947
T07
X15695Y29676
Y30676
X16695
Y29676
X17695
Y30676
X21421
Y29676
X22421
Y30676
X23421
Y29676
X14458Y25689
X13668
Y24697
X14458
T08
X14642Y11417
X15642
X16642
X17642
X19760
X20760
X21760
X22760
X24878
X25878
X26878
X27878
X29996
X30996
X27878Y14173
X26878
X25878
X24878
X31996Y11417
X32996
X48484Y14851
X50207Y14055
X48484Y16251
X40640Y23050
Y24450
X38059Y25630
X37059
X37008Y27913
X38008
X33504Y28217
Y27217
Y25106
Y24106
Y21996
Y20996
X36476Y20945
X38445
X34528Y30366
X10927Y31000
Y32780
X14354Y33465
X15354
Y35827
X14354
X16354
X18488
X19488
X20488
X22622
X23622
X24622
Y33465
X23622
X22622
X20488
X19488
X18488
X16354
X34528Y31366
T09
X38821Y15108
X40821
X42821
X44821
X49210Y27000
Y29000
Y31000
Y33000
T10
X11907Y30510
Y33270
T11
X35275Y11691
X36615
X47324Y18551
Y23851
X45984
X44420Y23841
X43080
Y18541
X44420
X45984Y18551
X36615Y16991
X35275
T12
X12598Y22827
Y27559
T13
X11811Y11811
X49213
X11811Y35827
X49213
M30
