G04 Layer_Color=255*
%FSLAX24Y24*%
%MOIN*%
G70*
G01*
G75*
G04:AMPARAMS|DCode=11|XSize=29.1mil|YSize=39.4mil|CornerRadius=5.8mil|HoleSize=0mil|Usage=FLASHONLY|Rotation=270.000|XOffset=0mil|YOffset=0mil|HoleType=Round|Shape=RoundedRectangle|*
%AMROUNDEDRECTD11*
21,1,0.0291,0.0277,0,0,270.0*
21,1,0.0175,0.0394,0,0,270.0*
1,1,0.0117,-0.0139,-0.0087*
1,1,0.0117,-0.0139,0.0087*
1,1,0.0117,0.0139,0.0087*
1,1,0.0117,0.0139,-0.0087*
%
%ADD11ROUNDEDRECTD11*%
G04:AMPARAMS|DCode=12|XSize=29.1mil|YSize=39.4mil|CornerRadius=5.8mil|HoleSize=0mil|Usage=FLASHONLY|Rotation=0.000|XOffset=0mil|YOffset=0mil|HoleType=Round|Shape=RoundedRectangle|*
%AMROUNDEDRECTD12*
21,1,0.0291,0.0277,0,0,0.0*
21,1,0.0175,0.0394,0,0,0.0*
1,1,0.0117,0.0087,-0.0139*
1,1,0.0117,-0.0087,-0.0139*
1,1,0.0117,-0.0087,0.0139*
1,1,0.0117,0.0087,0.0139*
%
%ADD12ROUNDEDRECTD12*%
%ADD13R,0.0600X0.0240*%
%ADD14R,0.1970X0.1700*%
%ADD15R,0.0280X0.0560*%
%ADD16R,0.0600X0.0120*%
%ADD17R,0.0120X0.0600*%
G04:AMPARAMS|DCode=18|XSize=11mil|YSize=31.5mil|CornerRadius=4.4mil|HoleSize=0mil|Usage=FLASHONLY|Rotation=180.000|XOffset=0mil|YOffset=0mil|HoleType=Round|Shape=RoundedRectangle|*
%AMROUNDEDRECTD18*
21,1,0.0110,0.0227,0,0,180.0*
21,1,0.0022,0.0315,0,0,180.0*
1,1,0.0088,-0.0011,0.0113*
1,1,0.0088,0.0011,0.0113*
1,1,0.0088,0.0011,-0.0113*
1,1,0.0088,-0.0011,-0.0113*
%
%ADD18ROUNDEDRECTD18*%
G04:AMPARAMS|DCode=19|XSize=11mil|YSize=31.5mil|CornerRadius=4.4mil|HoleSize=0mil|Usage=FLASHONLY|Rotation=270.000|XOffset=0mil|YOffset=0mil|HoleType=Round|Shape=RoundedRectangle|*
%AMROUNDEDRECTD19*
21,1,0.0110,0.0227,0,0,270.0*
21,1,0.0022,0.0315,0,0,270.0*
1,1,0.0088,-0.0113,-0.0011*
1,1,0.0088,-0.0113,0.0011*
1,1,0.0088,0.0113,0.0011*
1,1,0.0088,0.0113,-0.0011*
%
%ADD19ROUNDEDRECTD19*%
%ADD20R,0.1370X0.1370*%
%ADD21R,0.1370X0.1370*%
G04:AMPARAMS|DCode=22|XSize=40mil|YSize=40mil|CornerRadius=20mil|HoleSize=0mil|Usage=FLASHONLY|Rotation=0.000|XOffset=0mil|YOffset=0mil|HoleType=Round|Shape=RoundedRectangle|*
%AMROUNDEDRECTD22*
21,1,0.0400,0.0000,0,0,0.0*
21,1,0.0000,0.0400,0,0,0.0*
1,1,0.0400,0.0000,0.0000*
1,1,0.0400,0.0000,0.0000*
1,1,0.0400,0.0000,0.0000*
1,1,0.0400,0.0000,0.0000*
%
%ADD22ROUNDEDRECTD22*%
%ADD23R,0.0480X0.0480*%
%ADD24R,0.0480X0.0480*%
%ADD25R,0.0420X0.0520*%
%ADD26R,0.0354X0.1299*%
%ADD27R,0.0240X0.0240*%
%ADD28R,0.1260X0.0630*%
%ADD29R,0.0280X0.0200*%
%ADD30R,0.0200X0.0280*%
%ADD31R,0.0790X0.0790*%
%ADD32R,0.0790X0.0790*%
%ADD33R,0.0500X0.0150*%
G04:AMPARAMS|DCode=34|XSize=63mil|YSize=71mil|CornerRadius=15.8mil|HoleSize=0mil|Usage=FLASHONLY|Rotation=270.000|XOffset=0mil|YOffset=0mil|HoleType=Round|Shape=RoundedRectangle|*
%AMROUNDEDRECTD34*
21,1,0.0630,0.0395,0,0,270.0*
21,1,0.0315,0.0710,0,0,270.0*
1,1,0.0315,-0.0198,-0.0158*
1,1,0.0315,-0.0198,0.0158*
1,1,0.0315,0.0198,0.0158*
1,1,0.0315,0.0198,-0.0158*
%
%ADD34ROUNDEDRECTD34*%
G04:AMPARAMS|DCode=35|XSize=22mil|YSize=24mil|CornerRadius=4.4mil|HoleSize=0mil|Usage=FLASHONLY|Rotation=0.000|XOffset=0mil|YOffset=0mil|HoleType=Round|Shape=RoundedRectangle|*
%AMROUNDEDRECTD35*
21,1,0.0220,0.0152,0,0,0.0*
21,1,0.0132,0.0240,0,0,0.0*
1,1,0.0088,0.0066,-0.0076*
1,1,0.0088,-0.0066,-0.0076*
1,1,0.0088,-0.0066,0.0076*
1,1,0.0088,0.0066,0.0076*
%
%ADD35ROUNDEDRECTD35*%
G04:AMPARAMS|DCode=36|XSize=22mil|YSize=24mil|CornerRadius=4.4mil|HoleSize=0mil|Usage=FLASHONLY|Rotation=270.000|XOffset=0mil|YOffset=0mil|HoleType=Round|Shape=RoundedRectangle|*
%AMROUNDEDRECTD36*
21,1,0.0220,0.0152,0,0,270.0*
21,1,0.0132,0.0240,0,0,270.0*
1,1,0.0088,-0.0076,-0.0066*
1,1,0.0088,-0.0076,0.0066*
1,1,0.0088,0.0076,0.0066*
1,1,0.0088,0.0076,-0.0066*
%
%ADD36ROUNDEDRECTD36*%
%ADD37R,0.0543X0.0709*%
%ADD38R,0.0200X0.0260*%
%ADD39R,0.0433X0.0669*%
G04:AMPARAMS|DCode=40|XSize=52mil|YSize=60mil|CornerRadius=13mil|HoleSize=0mil|Usage=FLASHONLY|Rotation=180.000|XOffset=0mil|YOffset=0mil|HoleType=Round|Shape=RoundedRectangle|*
%AMROUNDEDRECTD40*
21,1,0.0520,0.0340,0,0,180.0*
21,1,0.0260,0.0600,0,0,180.0*
1,1,0.0260,-0.0130,0.0170*
1,1,0.0260,0.0130,0.0170*
1,1,0.0260,0.0130,-0.0170*
1,1,0.0260,-0.0130,-0.0170*
%
%ADD40ROUNDEDRECTD40*%
G04:AMPARAMS|DCode=41|XSize=52mil|YSize=60mil|CornerRadius=13mil|HoleSize=0mil|Usage=FLASHONLY|Rotation=270.000|XOffset=0mil|YOffset=0mil|HoleType=Round|Shape=RoundedRectangle|*
%AMROUNDEDRECTD41*
21,1,0.0520,0.0340,0,0,270.0*
21,1,0.0260,0.0600,0,0,270.0*
1,1,0.0260,-0.0170,-0.0130*
1,1,0.0260,-0.0170,0.0130*
1,1,0.0260,0.0170,0.0130*
1,1,0.0260,0.0170,-0.0130*
%
%ADD41ROUNDEDRECTD41*%
%ADD42R,0.1673X0.0465*%
G04:AMPARAMS|DCode=43|XSize=50mil|YSize=50mil|CornerRadius=25mil|HoleSize=0mil|Usage=FLASHONLY|Rotation=90.000|XOffset=0mil|YOffset=0mil|HoleType=Round|Shape=RoundedRectangle|*
%AMROUNDEDRECTD43*
21,1,0.0500,0.0000,0,0,90.0*
21,1,0.0000,0.0500,0,0,90.0*
1,1,0.0500,0.0000,0.0000*
1,1,0.0500,0.0000,0.0000*
1,1,0.0500,0.0000,0.0000*
1,1,0.0500,0.0000,0.0000*
%
%ADD43ROUNDEDRECTD43*%
%ADD44C,0.0600*%
G04:AMPARAMS|DCode=45|XSize=105mil|YSize=105mil|CornerRadius=26.3mil|HoleSize=0mil|Usage=FLASHONLY|Rotation=180.000|XOffset=0mil|YOffset=0mil|HoleType=Round|Shape=RoundedRectangle|*
%AMROUNDEDRECTD45*
21,1,0.1050,0.0525,0,0,180.0*
21,1,0.0525,0.1050,0,0,180.0*
1,1,0.0525,-0.0263,0.0263*
1,1,0.0525,0.0263,0.0263*
1,1,0.0525,0.0263,-0.0263*
1,1,0.0525,-0.0263,-0.0263*
%
%ADD45ROUNDEDRECTD45*%
%ADD46R,0.0402X0.0118*%
G04:AMPARAMS|DCode=62|XSize=133mil|YSize=83mil|CornerRadius=0mil|HoleSize=0mil|Usage=FLASHONLY|Rotation=270.000|XOffset=0mil|YOffset=0mil|HoleType=Round|Shape=Octagon|*
%AMOCTAGOND62*
4,1,8,-0.0208,-0.0665,0.0208,-0.0665,0.0415,-0.0458,0.0415,0.0458,0.0208,0.0665,-0.0208,0.0665,-0.0415,0.0458,-0.0415,-0.0458,-0.0208,-0.0665,0.0*
%
%ADD62OCTAGOND62*%

%ADD63C,0.0591*%
%ADD64R,0.0591X0.0591*%
%ADD65O,0.0600X0.1200*%
%ADD66P,0.0758X8X292.5*%
%ADD67C,0.1000*%
%ADD68O,0.1200X0.0600*%
%ADD69O,0.1024X0.0591*%
%ADD70R,0.0591X0.0591*%
%ADD71C,0.1305*%
%ADD72C,0.0540*%
%ADD73O,0.1650X0.0825*%
%ADD74P,0.0909X8X112.5*%
%ADD75C,0.0840*%
%ADD76P,0.0671X8X22.5*%
%ADD77C,0.0800*%
%ADD78O,0.0825X0.1650*%
D11*
X47254Y13841D02*
D03*
Y13305D02*
D03*
X46673Y13841D02*
D03*
Y13305D02*
D03*
X40295Y18098D02*
D03*
Y18634D02*
D03*
X39360Y18098D02*
D03*
Y18634D02*
D03*
X15450Y26618D02*
D03*
Y26082D02*
D03*
X15450Y27132D02*
D03*
Y27668D02*
D03*
X32008Y28181D02*
D03*
Y27646D02*
D03*
X47008Y36803D02*
D03*
Y36268D02*
D03*
X14390Y30199D02*
D03*
Y29663D02*
D03*
X43858Y26055D02*
D03*
Y25520D02*
D03*
X44449Y26055D02*
D03*
Y25520D02*
D03*
X45748Y26134D02*
D03*
Y25598D02*
D03*
X19095Y18394D02*
D03*
Y18929D02*
D03*
X14843Y18384D02*
D03*
Y18919D02*
D03*
X23858Y18386D02*
D03*
Y18921D02*
D03*
X32776Y18386D02*
D03*
Y18921D02*
D03*
X35069Y26346D02*
D03*
Y26882D02*
D03*
X35020Y28502D02*
D03*
Y29037D02*
D03*
X22205Y23339D02*
D03*
Y22803D02*
D03*
X32008Y26409D02*
D03*
Y25874D02*
D03*
Y25228D02*
D03*
Y24693D02*
D03*
X35059Y25789D02*
D03*
Y25254D02*
D03*
X43540Y34728D02*
D03*
Y34192D02*
D03*
X42805Y35434D02*
D03*
Y35969D02*
D03*
X43376D02*
D03*
Y35434D02*
D03*
X14121Y18921D02*
D03*
Y18386D02*
D03*
X14843Y17163D02*
D03*
Y17699D02*
D03*
X14636Y16439D02*
D03*
Y15904D02*
D03*
X13494Y18921D02*
D03*
Y18386D02*
D03*
X18543Y18929D02*
D03*
Y18394D02*
D03*
X19291Y17163D02*
D03*
Y17699D02*
D03*
X19094Y16449D02*
D03*
Y15913D02*
D03*
X17992Y18929D02*
D03*
Y18394D02*
D03*
X22982Y18919D02*
D03*
Y18384D02*
D03*
X23622Y17163D02*
D03*
Y17699D02*
D03*
X22411Y18919D02*
D03*
Y18384D02*
D03*
X31722Y18921D02*
D03*
Y18386D02*
D03*
X32618Y17163D02*
D03*
Y17699D02*
D03*
Y16439D02*
D03*
Y15904D02*
D03*
X31152Y18921D02*
D03*
Y18386D02*
D03*
X30350Y18382D02*
D03*
Y18918D02*
D03*
X21550Y18382D02*
D03*
Y18918D02*
D03*
X17150Y18382D02*
D03*
Y18918D02*
D03*
X12648Y18394D02*
D03*
Y18929D02*
D03*
X40581Y21695D02*
D03*
Y21159D02*
D03*
X11072Y16430D02*
D03*
Y15895D02*
D03*
X15630Y16439D02*
D03*
Y15904D02*
D03*
X20039Y16449D02*
D03*
Y15913D02*
D03*
X39930Y33222D02*
D03*
Y33758D02*
D03*
X29260Y12872D02*
D03*
Y13408D02*
D03*
X19930Y14138D02*
D03*
Y13602D02*
D03*
X23490Y13498D02*
D03*
Y12962D02*
D03*
X23500Y14838D02*
D03*
Y14302D02*
D03*
X24750Y16208D02*
D03*
Y15672D02*
D03*
X11180Y14748D02*
D03*
Y14212D02*
D03*
X15650Y14138D02*
D03*
Y13602D02*
D03*
X14640Y14138D02*
D03*
Y13602D02*
D03*
X19220Y14138D02*
D03*
Y13602D02*
D03*
D12*
X37833Y17904D02*
D03*
X38368D02*
D03*
X42039Y17923D02*
D03*
X41504D02*
D03*
X12312Y29650D02*
D03*
X12848D02*
D03*
X12312Y28850D02*
D03*
X12848D02*
D03*
X31494Y23258D02*
D03*
X32030D02*
D03*
X46921Y30906D02*
D03*
X46386D02*
D03*
X45323Y30905D02*
D03*
X45858D02*
D03*
X21504Y27835D02*
D03*
X22039D02*
D03*
X35996Y28996D02*
D03*
X35461D02*
D03*
X31921Y28780D02*
D03*
X31386D02*
D03*
X31494Y22559D02*
D03*
X32030D02*
D03*
Y21378D02*
D03*
X31494D02*
D03*
X35996Y28524D02*
D03*
X35461D02*
D03*
X35382Y28002D02*
D03*
X35917D02*
D03*
X23669Y16457D02*
D03*
X24205D02*
D03*
X49535Y21772D02*
D03*
X50071D02*
D03*
X28732Y16378D02*
D03*
X28197D02*
D03*
X34195Y13238D02*
D03*
X33659D02*
D03*
X36376Y30925D02*
D03*
X36911D02*
D03*
X13958Y13000D02*
D03*
X13422D02*
D03*
X29942Y13030D02*
D03*
X30478D02*
D03*
X31608Y13040D02*
D03*
X31072D02*
D03*
X32868Y13930D02*
D03*
X32332D02*
D03*
X17878Y12960D02*
D03*
X17342D02*
D03*
X15085Y13000D02*
D03*
X14550D02*
D03*
X18680Y12960D02*
D03*
X19215D02*
D03*
D13*
X38708Y28807D02*
D03*
Y29307D02*
D03*
Y30307D02*
D03*
X36535Y28807D02*
D03*
Y29307D02*
D03*
Y30307D02*
D03*
X38708Y29807D02*
D03*
X36535D02*
D03*
D14*
X46142Y33196D02*
D03*
X42559Y27605D02*
D03*
D15*
X46892Y31752D02*
D03*
X46392D02*
D03*
X45892D02*
D03*
X45392D02*
D03*
X41809Y26161D02*
D03*
X42309D02*
D03*
X42809D02*
D03*
X43309D02*
D03*
D16*
X29318Y27562D02*
D03*
Y27365D02*
D03*
Y27169D02*
D03*
Y26972D02*
D03*
Y26775D02*
D03*
Y26578D02*
D03*
Y26381D02*
D03*
Y26184D02*
D03*
Y25987D02*
D03*
Y25791D02*
D03*
Y25594D02*
D03*
Y25397D02*
D03*
Y25200D02*
D03*
Y25000D02*
D03*
Y24800D02*
D03*
Y24600D02*
D03*
Y24410D02*
D03*
Y24210D02*
D03*
Y24010D02*
D03*
Y23820D02*
D03*
Y23620D02*
D03*
Y23420D02*
D03*
Y23230D02*
D03*
Y23030D02*
D03*
Y22830D02*
D03*
X23018D02*
D03*
Y23030D02*
D03*
Y23230D02*
D03*
Y23420D02*
D03*
Y23620D02*
D03*
Y23820D02*
D03*
Y24010D02*
D03*
Y24210D02*
D03*
Y24410D02*
D03*
Y24600D02*
D03*
Y24800D02*
D03*
Y25000D02*
D03*
Y25200D02*
D03*
Y25397D02*
D03*
Y25594D02*
D03*
Y25791D02*
D03*
Y25987D02*
D03*
Y26184D02*
D03*
Y26381D02*
D03*
Y26578D02*
D03*
Y26775D02*
D03*
Y26972D02*
D03*
Y27169D02*
D03*
Y27365D02*
D03*
Y27562D02*
D03*
D17*
X28538Y22050D02*
D03*
X28338D02*
D03*
X28138D02*
D03*
X27948D02*
D03*
X27748D02*
D03*
X27548D02*
D03*
X27358D02*
D03*
X27158D02*
D03*
X26958D02*
D03*
X26768D02*
D03*
X26568D02*
D03*
X26368D02*
D03*
X26168D02*
D03*
X25971D02*
D03*
X25774D02*
D03*
X25577D02*
D03*
X25380D02*
D03*
X25184D02*
D03*
X24987D02*
D03*
X24790D02*
D03*
X24593D02*
D03*
X24396D02*
D03*
X24199D02*
D03*
X24003D02*
D03*
X23806D02*
D03*
Y28350D02*
D03*
X24003D02*
D03*
X24199D02*
D03*
X24396D02*
D03*
X24593D02*
D03*
X24790D02*
D03*
X24987D02*
D03*
X25184D02*
D03*
X25380D02*
D03*
X25577D02*
D03*
X25774D02*
D03*
X25971D02*
D03*
X26168D02*
D03*
X26368D02*
D03*
X26568D02*
D03*
X26768D02*
D03*
X26958D02*
D03*
X27158D02*
D03*
X27358D02*
D03*
X27548D02*
D03*
X27748D02*
D03*
X27948D02*
D03*
X28138D02*
D03*
X28338D02*
D03*
X28538D02*
D03*
D18*
X17110Y26155D02*
D03*
X17300D02*
D03*
X17500D02*
D03*
X17700D02*
D03*
X17898D02*
D03*
X18095D02*
D03*
X18292D02*
D03*
X18489D02*
D03*
Y28050D02*
D03*
X18292D02*
D03*
X18095D02*
D03*
X17898D02*
D03*
X17700D02*
D03*
X17500D02*
D03*
X17300D02*
D03*
X17110D02*
D03*
X13563Y17705D02*
D03*
X13366D02*
D03*
X13169D02*
D03*
X12972D02*
D03*
X12774D02*
D03*
X12574D02*
D03*
X12374D02*
D03*
X12184D02*
D03*
Y15810D02*
D03*
X12374D02*
D03*
X12574D02*
D03*
X12774D02*
D03*
X12972D02*
D03*
X13169D02*
D03*
X13366D02*
D03*
X13563D02*
D03*
X18072Y17705D02*
D03*
X17875D02*
D03*
X17678D02*
D03*
X17481D02*
D03*
X17283D02*
D03*
X17083D02*
D03*
X16883D02*
D03*
X16693D02*
D03*
Y15810D02*
D03*
X16883D02*
D03*
X17083D02*
D03*
X17283D02*
D03*
X17481D02*
D03*
X17678D02*
D03*
X17875D02*
D03*
X18072D02*
D03*
X22458Y17705D02*
D03*
X22261D02*
D03*
X22065D02*
D03*
X21868D02*
D03*
X21669D02*
D03*
X21469D02*
D03*
X21269D02*
D03*
X21079D02*
D03*
Y15810D02*
D03*
X21269D02*
D03*
X21469D02*
D03*
X21669D02*
D03*
X21868D02*
D03*
X22065D02*
D03*
X22261D02*
D03*
X22458D02*
D03*
X31339Y17636D02*
D03*
X31142D02*
D03*
X30945D02*
D03*
X30748D02*
D03*
X30550D02*
D03*
X30350D02*
D03*
X30150D02*
D03*
X29960D02*
D03*
Y15741D02*
D03*
X30150D02*
D03*
X30350D02*
D03*
X30550D02*
D03*
X30748D02*
D03*
X30945D02*
D03*
X31142D02*
D03*
X31339D02*
D03*
D19*
X18745Y26411D02*
D03*
Y26608D02*
D03*
Y26805D02*
D03*
Y27002D02*
D03*
Y27200D02*
D03*
Y27400D02*
D03*
Y27600D02*
D03*
Y27790D02*
D03*
X16850D02*
D03*
Y27600D02*
D03*
Y27400D02*
D03*
Y27200D02*
D03*
Y27002D02*
D03*
Y26805D02*
D03*
Y26608D02*
D03*
Y26411D02*
D03*
X13819Y16070D02*
D03*
Y16260D02*
D03*
Y16460D02*
D03*
Y16660D02*
D03*
Y16859D02*
D03*
Y17055D02*
D03*
Y17252D02*
D03*
Y17449D02*
D03*
X11924D02*
D03*
Y17252D02*
D03*
Y17055D02*
D03*
Y16859D02*
D03*
Y16660D02*
D03*
Y16460D02*
D03*
Y16260D02*
D03*
Y16070D02*
D03*
X18328D02*
D03*
Y16260D02*
D03*
Y16460D02*
D03*
Y16660D02*
D03*
Y16859D02*
D03*
Y17055D02*
D03*
Y17252D02*
D03*
Y17449D02*
D03*
X16433D02*
D03*
Y17252D02*
D03*
Y17055D02*
D03*
Y16859D02*
D03*
Y16660D02*
D03*
Y16460D02*
D03*
Y16260D02*
D03*
Y16070D02*
D03*
X22714D02*
D03*
Y16260D02*
D03*
Y16460D02*
D03*
Y16660D02*
D03*
Y16859D02*
D03*
Y17055D02*
D03*
Y17252D02*
D03*
Y17449D02*
D03*
X20819D02*
D03*
Y17252D02*
D03*
Y17055D02*
D03*
Y16859D02*
D03*
Y16660D02*
D03*
Y16460D02*
D03*
Y16260D02*
D03*
Y16070D02*
D03*
X31594Y16001D02*
D03*
Y16191D02*
D03*
Y16391D02*
D03*
Y16591D02*
D03*
Y16790D02*
D03*
Y16986D02*
D03*
Y17183D02*
D03*
Y17380D02*
D03*
X29700D02*
D03*
Y17183D02*
D03*
Y16986D02*
D03*
Y16790D02*
D03*
Y16591D02*
D03*
Y16391D02*
D03*
Y16191D02*
D03*
Y16001D02*
D03*
D20*
X17800Y27100D02*
D03*
D21*
X12874Y16760D02*
D03*
X17383D02*
D03*
X21769D02*
D03*
X30650Y16691D02*
D03*
D22*
X10482Y10522D02*
D03*
Y37126D02*
D03*
X50512Y10482D02*
D03*
D23*
X10630Y28850D02*
D03*
X11463D02*
D03*
X10630Y29650D02*
D03*
X11463D02*
D03*
X35863Y27451D02*
D03*
X35030D02*
D03*
D24*
X19518Y26158D02*
D03*
Y25325D02*
D03*
X19528Y26775D02*
D03*
Y27608D02*
D03*
X47047Y34895D02*
D03*
Y35728D02*
D03*
X45118Y26444D02*
D03*
Y25610D02*
D03*
X35699Y26394D02*
D03*
Y25561D02*
D03*
D25*
X16175Y24494D02*
D03*
Y23581D02*
D03*
X16910D02*
D03*
Y24494D02*
D03*
X21766Y25367D02*
D03*
Y26280D02*
D03*
X21031D02*
D03*
Y25367D02*
D03*
D26*
X42211Y35650D02*
D03*
X39889D02*
D03*
D27*
X13642Y29026D02*
D03*
Y28153D02*
D03*
X31339Y27283D02*
D03*
Y28157D02*
D03*
D28*
X49478Y20679D02*
D03*
Y18308D02*
D03*
D29*
X30315Y26299D02*
D03*
X30866D02*
D03*
X30285Y25433D02*
D03*
X30837D02*
D03*
X21024Y27953D02*
D03*
X20472D02*
D03*
X30315Y24528D02*
D03*
X30866D02*
D03*
D30*
X31339Y26890D02*
D03*
Y26339D02*
D03*
Y25354D02*
D03*
Y25906D02*
D03*
X14892Y30197D02*
D03*
Y29646D02*
D03*
X31339Y24724D02*
D03*
Y24173D02*
D03*
D31*
X45945Y36654D02*
D03*
Y35076D02*
D03*
X46732Y26181D02*
D03*
Y27759D02*
D03*
X33858Y14094D02*
D03*
Y15672D02*
D03*
X41545Y21545D02*
D03*
Y19968D02*
D03*
D32*
X37513Y35650D02*
D03*
X39090D02*
D03*
D33*
X20951Y23975D02*
D03*
Y23725D02*
D03*
X18898Y22220D02*
D03*
X20951Y22470D02*
D03*
X18898D02*
D03*
Y22970D02*
D03*
X20951Y22220D02*
D03*
X18898Y22720D02*
D03*
X20951D02*
D03*
Y22970D02*
D03*
Y23475D02*
D03*
X18898Y23225D02*
D03*
Y23475D02*
D03*
Y23975D02*
D03*
X20951Y23225D02*
D03*
X18898Y23725D02*
D03*
D34*
X13632Y13938D02*
D03*
Y15058D02*
D03*
X12175Y13938D02*
D03*
Y15058D02*
D03*
X18091Y13938D02*
D03*
Y15058D02*
D03*
X16644Y13938D02*
D03*
Y15058D02*
D03*
X22490Y13938D02*
D03*
Y15058D02*
D03*
X21004Y13938D02*
D03*
Y15058D02*
D03*
X31398Y13938D02*
D03*
Y15058D02*
D03*
X29921Y13938D02*
D03*
Y15058D02*
D03*
D35*
X15961Y26600D02*
D03*
X16340D02*
D03*
X15961Y27150D02*
D03*
X16340D02*
D03*
X43451Y33710D02*
D03*
X43830D02*
D03*
X30128Y27106D02*
D03*
X30505D02*
D03*
X22372Y26909D02*
D03*
X21995D02*
D03*
X25679Y21378D02*
D03*
X26056D02*
D03*
X20896Y27441D02*
D03*
X20519D02*
D03*
X16337Y25500D02*
D03*
X15960D02*
D03*
X16337Y25950D02*
D03*
X15960D02*
D03*
X16585Y23071D02*
D03*
X16208D02*
D03*
X17904Y25758D02*
D03*
X17527D02*
D03*
X21486Y24872D02*
D03*
X21109D02*
D03*
X30285Y26693D02*
D03*
X30662D02*
D03*
X30285Y25827D02*
D03*
X30662D02*
D03*
X30128Y27598D02*
D03*
X30505D02*
D03*
X26417Y18848D02*
D03*
X26794D02*
D03*
X26417Y17215D02*
D03*
X26794D02*
D03*
X26014Y18858D02*
D03*
X25637D02*
D03*
X26014Y17224D02*
D03*
X25637D02*
D03*
X25266Y18858D02*
D03*
X24889D02*
D03*
X25236Y17224D02*
D03*
X24859D02*
D03*
X30285Y24961D02*
D03*
X30662D02*
D03*
X43067Y34760D02*
D03*
X42690D02*
D03*
D36*
X14945Y28489D02*
D03*
Y28110D02*
D03*
X30000Y23396D02*
D03*
Y23773D02*
D03*
X22215Y24006D02*
D03*
Y24383D02*
D03*
X16200Y27713D02*
D03*
Y28090D02*
D03*
X15718Y23967D02*
D03*
Y23590D02*
D03*
X20561Y25768D02*
D03*
Y25391D02*
D03*
X26811Y29262D02*
D03*
Y29639D02*
D03*
X18337Y22028D02*
D03*
Y22405D02*
D03*
X21516Y22096D02*
D03*
Y22473D02*
D03*
X21506Y24183D02*
D03*
Y23806D02*
D03*
X18327Y24124D02*
D03*
Y23747D02*
D03*
X14345Y28113D02*
D03*
Y28490D02*
D03*
D37*
X41982Y17185D02*
D03*
X40360D02*
D03*
X37772Y17165D02*
D03*
X39394D02*
D03*
D38*
X19675Y29459D02*
D03*
X19360D02*
D03*
X19043D02*
D03*
X18723D02*
D03*
Y28923D02*
D03*
X19043D02*
D03*
X19360D02*
D03*
X19675D02*
D03*
X26270Y19783D02*
D03*
X25955D02*
D03*
X25637D02*
D03*
X25317D02*
D03*
Y19248D02*
D03*
X25637D02*
D03*
X25955D02*
D03*
X26270D02*
D03*
Y18228D02*
D03*
X25955D02*
D03*
X25637D02*
D03*
X25317D02*
D03*
Y17693D02*
D03*
X25637D02*
D03*
X25955D02*
D03*
X26270D02*
D03*
Y16831D02*
D03*
X25955D02*
D03*
X25637D02*
D03*
X25317D02*
D03*
Y16295D02*
D03*
X25637D02*
D03*
X25955D02*
D03*
X26270D02*
D03*
D39*
X41828Y32590D02*
D03*
X42872D02*
D03*
D40*
X15998Y22096D02*
D03*
X16752D02*
D03*
X40660Y32600D02*
D03*
X39906D02*
D03*
D41*
X30315Y28281D02*
D03*
Y29035D02*
D03*
X43650Y32360D02*
D03*
Y33114D02*
D03*
D42*
X38300Y34202D02*
D03*
Y32898D02*
D03*
D43*
X28957Y19990D02*
D03*
X27028Y16437D02*
D03*
X24547Y17874D02*
D03*
D44*
X49606Y10866D02*
D03*
X48819D02*
D03*
X48268Y11417D02*
D03*
Y12205D02*
D03*
X48819Y12756D02*
D03*
X49606D02*
D03*
X50157Y12205D02*
D03*
Y11417D02*
D03*
X12205Y10866D02*
D03*
X11417D02*
D03*
X10866Y11417D02*
D03*
Y12205D02*
D03*
X11417Y12756D02*
D03*
X12205D02*
D03*
X12756Y12205D02*
D03*
Y11417D02*
D03*
X12205Y34882D02*
D03*
X11417D02*
D03*
X10866Y35433D02*
D03*
Y36220D02*
D03*
X11417Y36772D02*
D03*
X12205D02*
D03*
X12756Y36220D02*
D03*
Y35433D02*
D03*
X49606Y34882D02*
D03*
X48819D02*
D03*
X48268Y35433D02*
D03*
Y36220D02*
D03*
X48819Y36772D02*
D03*
X49606D02*
D03*
X50157Y36220D02*
D03*
Y35433D02*
D03*
X37008Y27913D02*
D03*
X38008D02*
D03*
D45*
X41947Y33766D02*
D03*
D46*
X41002Y34159D02*
D03*
Y33963D02*
D03*
Y33766D02*
D03*
Y33569D02*
D03*
Y33372D02*
D03*
X42892Y34159D02*
D03*
Y33963D02*
D03*
Y33766D02*
D03*
Y33569D02*
D03*
Y33372D02*
D03*
D62*
X36615Y16991D02*
D03*
X35275D02*
D03*
Y11691D02*
D03*
X36615D02*
D03*
X43080Y23841D02*
D03*
X44420D02*
D03*
Y18541D02*
D03*
X43080D02*
D03*
X45984Y18551D02*
D03*
X47324D02*
D03*
Y23851D02*
D03*
X45984D02*
D03*
D63*
X27516Y35457D02*
D03*
Y36457D02*
D03*
X28516Y35457D02*
D03*
Y36457D02*
D03*
X29516Y35457D02*
D03*
Y36457D02*
D03*
X30516Y35457D02*
D03*
Y36457D02*
D03*
X31516Y35457D02*
D03*
X27496Y31785D02*
D03*
Y32785D02*
D03*
X28496Y31785D02*
D03*
Y32785D02*
D03*
X29496Y31785D02*
D03*
Y32785D02*
D03*
X30496Y31785D02*
D03*
Y32785D02*
D03*
X31496Y31785D02*
D03*
X33947Y33057D02*
D03*
Y34057D02*
D03*
Y35057D02*
D03*
Y36057D02*
D03*
D64*
X31516Y36457D02*
D03*
X31496Y32785D02*
D03*
D65*
X24878Y11417D02*
D03*
X25878D02*
D03*
X26878D02*
D03*
X27878D02*
D03*
X24878Y14173D02*
D03*
X25878D02*
D03*
X26878D02*
D03*
X27878D02*
D03*
X22622Y35827D02*
D03*
X23622D02*
D03*
X24622D02*
D03*
X18488D02*
D03*
X19488D02*
D03*
X20488D02*
D03*
X14354D02*
D03*
X15354D02*
D03*
X16354D02*
D03*
X20488Y33465D02*
D03*
X19488D02*
D03*
X18488D02*
D03*
X24622D02*
D03*
X23622D02*
D03*
X22622D02*
D03*
X16354D02*
D03*
X15354D02*
D03*
X14354D02*
D03*
X37059Y25630D02*
D03*
X38059D02*
D03*
X14642Y11417D02*
D03*
X15642D02*
D03*
X16642D02*
D03*
X17642D02*
D03*
X19760D02*
D03*
X20760D02*
D03*
X21760D02*
D03*
X22760D02*
D03*
X29996D02*
D03*
X30996D02*
D03*
X31996D02*
D03*
X32996D02*
D03*
D66*
X10927Y32780D02*
D03*
Y31000D02*
D03*
D67*
X11907Y33270D02*
D03*
Y30510D02*
D03*
X38445Y20945D02*
D03*
X36476D02*
D03*
D68*
X33504Y27217D02*
D03*
Y28217D02*
D03*
Y24106D02*
D03*
Y25106D02*
D03*
X34528Y31366D02*
D03*
Y30366D02*
D03*
X33504Y20996D02*
D03*
Y21996D02*
D03*
D69*
X35163Y33057D02*
D03*
Y34057D02*
D03*
Y35057D02*
D03*
Y36057D02*
D03*
Y37057D02*
D03*
D70*
X33947D02*
D03*
D71*
X12598Y22827D02*
D03*
Y27559D02*
D03*
D72*
X13668Y24697D02*
D03*
Y25689D02*
D03*
X14458D02*
D03*
Y24697D02*
D03*
D73*
X49210Y27000D02*
D03*
Y29000D02*
D03*
Y31000D02*
D03*
Y33000D02*
D03*
D74*
X40640Y24450D02*
D03*
X48484Y14851D02*
D03*
D75*
X40640Y23050D02*
D03*
X48484Y16251D02*
D03*
D76*
X21421Y29676D02*
D03*
Y30676D02*
D03*
X22421Y29676D02*
D03*
Y30676D02*
D03*
X23421Y29676D02*
D03*
Y30676D02*
D03*
X15695Y29676D02*
D03*
Y30676D02*
D03*
X16695Y29676D02*
D03*
Y30676D02*
D03*
X17695Y29676D02*
D03*
Y30676D02*
D03*
D77*
X50207Y14055D02*
D03*
D78*
X38821Y15108D02*
D03*
X40821D02*
D03*
X42821D02*
D03*
X44821D02*
D03*
M02*
