G04 Layer_Color=16711935*
%FSLAX24Y24*%
%MOIN*%
G70*
G01*
G75*
%ADD49C,0.0500*%
%ADD113C,0.0060*%
%ADD220C,0.0010*%
D49*
X18682Y28594D02*
G03*
X18582Y28594I-50J0D01*
G01*
Y28394D02*
G03*
X18682Y28394I50J0D01*
G01*
X39005Y13030D02*
G03*
X39105Y13030I50J0D01*
G01*
Y13230D02*
G03*
X39005Y13230I-50J0D01*
G01*
D113*
X18632Y27894D02*
Y28094D01*
Y28894D02*
Y29094D01*
X39055Y13530D02*
Y13730D01*
Y12530D02*
Y12730D01*
D220*
X32000Y21750D02*
Y22250D01*
X31750Y22000D02*
X32250D01*
X31750Y27000D02*
X32250D01*
X32000Y26750D02*
Y27250D01*
X31750Y24000D02*
X32250D01*
X32000Y23750D02*
Y24250D01*
X30750Y20000D02*
X31250D01*
X31000Y19750D02*
Y20250D01*
X27750Y20000D02*
X28250D01*
X28000Y19750D02*
Y20250D01*
X29750Y20000D02*
X30250D01*
X30000Y19750D02*
Y20250D01*
X28750Y20000D02*
X29250D01*
X29000Y19750D02*
Y20250D01*
X23750Y20000D02*
X24250D01*
X24000Y19750D02*
Y20250D01*
X19750Y20000D02*
X20250D01*
X20000Y19750D02*
Y20250D01*
X21750Y20000D02*
X22250D01*
X22000Y19750D02*
Y20250D01*
X20750Y20000D02*
X21250D01*
X21000Y19750D02*
Y20250D01*
X18750Y20000D02*
X19250D01*
X19000Y19750D02*
Y20250D01*
X15750Y20000D02*
X16250D01*
X16000Y19750D02*
Y20250D01*
X17750Y20000D02*
X18250D01*
X18000Y19750D02*
Y20250D01*
X16750Y20000D02*
X17250D01*
X17000Y19750D02*
Y20250D01*
X14750Y20000D02*
X15250D01*
X15000Y19750D02*
Y20250D01*
X10750Y20000D02*
X11250D01*
X11000Y19750D02*
Y20250D01*
X12750Y20000D02*
X13250D01*
X13000Y19750D02*
Y20250D01*
X47750Y31000D02*
X48250D01*
X48000Y30750D02*
Y31250D01*
X47750Y27000D02*
X48250D01*
X48000Y26750D02*
Y27250D01*
X47750Y33000D02*
X48250D01*
X48000Y32750D02*
Y33250D01*
X47750Y29000D02*
X48250D01*
X48000Y28750D02*
Y29250D01*
X37750Y27000D02*
X38250D01*
X38000Y26750D02*
Y27250D01*
X38750Y25000D02*
X39250D01*
X39000Y24750D02*
Y25250D01*
X17750Y23000D02*
X18250D01*
X18000Y22750D02*
Y23250D01*
X17750Y25000D02*
X18250D01*
X18000Y24750D02*
Y25250D01*
X17750Y26000D02*
X18250D01*
X18000Y25750D02*
Y26250D01*
X14750Y26000D02*
X15250D01*
X15000Y25750D02*
Y26250D01*
X13750Y27000D02*
X14250D01*
X14000Y26750D02*
Y27250D01*
X20750Y24000D02*
X21250D01*
X21000Y23750D02*
Y24250D01*
X21750Y23000D02*
X22250D01*
X22000Y22750D02*
Y23250D01*
X20750Y23000D02*
X21250D01*
X21000Y22750D02*
Y23250D01*
X35000Y31750D02*
Y32250D01*
X34750Y32000D02*
X35250D01*
M02*
