G04 Layer_Physical_Order=1*
G04 Layer_Color=255*
%FSLAX24Y24*%
%MOIN*%
G70*
G01*
G75*
%ADD10C,0.0650*%
G04:AMPARAMS|DCode=11|XSize=29.1mil|YSize=39.4mil|CornerRadius=5.8mil|HoleSize=0mil|Usage=FLASHONLY|Rotation=270.000|XOffset=0mil|YOffset=0mil|HoleType=Round|Shape=RoundedRectangle|*
%AMROUNDEDRECTD11*
21,1,0.0291,0.0277,0,0,270.0*
21,1,0.0175,0.0394,0,0,270.0*
1,1,0.0117,-0.0139,-0.0087*
1,1,0.0117,-0.0139,0.0087*
1,1,0.0117,0.0139,0.0087*
1,1,0.0117,0.0139,-0.0087*
%
%ADD11ROUNDEDRECTD11*%
G04:AMPARAMS|DCode=12|XSize=29.1mil|YSize=39.4mil|CornerRadius=5.8mil|HoleSize=0mil|Usage=FLASHONLY|Rotation=0.000|XOffset=0mil|YOffset=0mil|HoleType=Round|Shape=RoundedRectangle|*
%AMROUNDEDRECTD12*
21,1,0.0291,0.0277,0,0,0.0*
21,1,0.0175,0.0394,0,0,0.0*
1,1,0.0117,0.0087,-0.0139*
1,1,0.0117,-0.0087,-0.0139*
1,1,0.0117,-0.0087,0.0139*
1,1,0.0117,0.0087,0.0139*
%
%ADD12ROUNDEDRECTD12*%
%ADD13R,0.0600X0.0240*%
%ADD14R,0.1970X0.1700*%
%ADD15R,0.0280X0.0560*%
%ADD16R,0.0600X0.0120*%
%ADD17R,0.0120X0.0600*%
G04:AMPARAMS|DCode=18|XSize=11mil|YSize=31.5mil|CornerRadius=4.4mil|HoleSize=0mil|Usage=FLASHONLY|Rotation=180.000|XOffset=0mil|YOffset=0mil|HoleType=Round|Shape=RoundedRectangle|*
%AMROUNDEDRECTD18*
21,1,0.0110,0.0227,0,0,180.0*
21,1,0.0022,0.0315,0,0,180.0*
1,1,0.0088,-0.0011,0.0113*
1,1,0.0088,0.0011,0.0113*
1,1,0.0088,0.0011,-0.0113*
1,1,0.0088,-0.0011,-0.0113*
%
%ADD18ROUNDEDRECTD18*%
G04:AMPARAMS|DCode=19|XSize=11mil|YSize=31.5mil|CornerRadius=4.4mil|HoleSize=0mil|Usage=FLASHONLY|Rotation=270.000|XOffset=0mil|YOffset=0mil|HoleType=Round|Shape=RoundedRectangle|*
%AMROUNDEDRECTD19*
21,1,0.0110,0.0227,0,0,270.0*
21,1,0.0022,0.0315,0,0,270.0*
1,1,0.0088,-0.0113,-0.0011*
1,1,0.0088,-0.0113,0.0011*
1,1,0.0088,0.0113,0.0011*
1,1,0.0088,0.0113,-0.0011*
%
%ADD19ROUNDEDRECTD19*%
%ADD20R,0.1370X0.1370*%
%ADD21R,0.1370X0.1370*%
G04:AMPARAMS|DCode=22|XSize=40mil|YSize=40mil|CornerRadius=20mil|HoleSize=0mil|Usage=FLASHONLY|Rotation=0.000|XOffset=0mil|YOffset=0mil|HoleType=Round|Shape=RoundedRectangle|*
%AMROUNDEDRECTD22*
21,1,0.0400,0.0000,0,0,0.0*
21,1,0.0000,0.0400,0,0,0.0*
1,1,0.0400,0.0000,0.0000*
1,1,0.0400,0.0000,0.0000*
1,1,0.0400,0.0000,0.0000*
1,1,0.0400,0.0000,0.0000*
%
%ADD22ROUNDEDRECTD22*%
%ADD23R,0.0480X0.0480*%
%ADD24R,0.0480X0.0480*%
%ADD25R,0.0420X0.0520*%
%ADD26R,0.0354X0.1299*%
%ADD27R,0.0240X0.0240*%
%ADD28R,0.1260X0.0630*%
%ADD29R,0.0280X0.0200*%
%ADD30R,0.0200X0.0280*%
%ADD31R,0.0790X0.0790*%
%ADD32R,0.0790X0.0790*%
%ADD33R,0.0500X0.0150*%
G04:AMPARAMS|DCode=34|XSize=63mil|YSize=71mil|CornerRadius=15.8mil|HoleSize=0mil|Usage=FLASHONLY|Rotation=270.000|XOffset=0mil|YOffset=0mil|HoleType=Round|Shape=RoundedRectangle|*
%AMROUNDEDRECTD34*
21,1,0.0630,0.0395,0,0,270.0*
21,1,0.0315,0.0710,0,0,270.0*
1,1,0.0315,-0.0198,-0.0158*
1,1,0.0315,-0.0198,0.0158*
1,1,0.0315,0.0198,0.0158*
1,1,0.0315,0.0198,-0.0158*
%
%ADD34ROUNDEDRECTD34*%
G04:AMPARAMS|DCode=35|XSize=22mil|YSize=24mil|CornerRadius=4.4mil|HoleSize=0mil|Usage=FLASHONLY|Rotation=0.000|XOffset=0mil|YOffset=0mil|HoleType=Round|Shape=RoundedRectangle|*
%AMROUNDEDRECTD35*
21,1,0.0220,0.0152,0,0,0.0*
21,1,0.0132,0.0240,0,0,0.0*
1,1,0.0088,0.0066,-0.0076*
1,1,0.0088,-0.0066,-0.0076*
1,1,0.0088,-0.0066,0.0076*
1,1,0.0088,0.0066,0.0076*
%
%ADD35ROUNDEDRECTD35*%
G04:AMPARAMS|DCode=36|XSize=22mil|YSize=24mil|CornerRadius=4.4mil|HoleSize=0mil|Usage=FLASHONLY|Rotation=270.000|XOffset=0mil|YOffset=0mil|HoleType=Round|Shape=RoundedRectangle|*
%AMROUNDEDRECTD36*
21,1,0.0220,0.0152,0,0,270.0*
21,1,0.0132,0.0240,0,0,270.0*
1,1,0.0088,-0.0076,-0.0066*
1,1,0.0088,-0.0076,0.0066*
1,1,0.0088,0.0076,0.0066*
1,1,0.0088,0.0076,-0.0066*
%
%ADD36ROUNDEDRECTD36*%
%ADD37R,0.0543X0.0709*%
%ADD38R,0.0200X0.0260*%
%ADD39R,0.0433X0.0669*%
G04:AMPARAMS|DCode=40|XSize=52mil|YSize=60mil|CornerRadius=13mil|HoleSize=0mil|Usage=FLASHONLY|Rotation=180.000|XOffset=0mil|YOffset=0mil|HoleType=Round|Shape=RoundedRectangle|*
%AMROUNDEDRECTD40*
21,1,0.0520,0.0340,0,0,180.0*
21,1,0.0260,0.0600,0,0,180.0*
1,1,0.0260,-0.0130,0.0170*
1,1,0.0260,0.0130,0.0170*
1,1,0.0260,0.0130,-0.0170*
1,1,0.0260,-0.0130,-0.0170*
%
%ADD40ROUNDEDRECTD40*%
G04:AMPARAMS|DCode=41|XSize=52mil|YSize=60mil|CornerRadius=13mil|HoleSize=0mil|Usage=FLASHONLY|Rotation=270.000|XOffset=0mil|YOffset=0mil|HoleType=Round|Shape=RoundedRectangle|*
%AMROUNDEDRECTD41*
21,1,0.0520,0.0340,0,0,270.0*
21,1,0.0260,0.0600,0,0,270.0*
1,1,0.0260,-0.0170,-0.0130*
1,1,0.0260,-0.0170,0.0130*
1,1,0.0260,0.0170,0.0130*
1,1,0.0260,0.0170,-0.0130*
%
%ADD41ROUNDEDRECTD41*%
%ADD42R,0.1673X0.0465*%
G04:AMPARAMS|DCode=43|XSize=50mil|YSize=50mil|CornerRadius=25mil|HoleSize=0mil|Usage=FLASHONLY|Rotation=90.000|XOffset=0mil|YOffset=0mil|HoleType=Round|Shape=RoundedRectangle|*
%AMROUNDEDRECTD43*
21,1,0.0500,0.0000,0,0,90.0*
21,1,0.0000,0.0500,0,0,90.0*
1,1,0.0500,0.0000,0.0000*
1,1,0.0500,0.0000,0.0000*
1,1,0.0500,0.0000,0.0000*
1,1,0.0500,0.0000,0.0000*
%
%ADD43ROUNDEDRECTD43*%
%ADD44C,0.0600*%
G04:AMPARAMS|DCode=45|XSize=105mil|YSize=105mil|CornerRadius=26.3mil|HoleSize=0mil|Usage=FLASHONLY|Rotation=180.000|XOffset=0mil|YOffset=0mil|HoleType=Round|Shape=RoundedRectangle|*
%AMROUNDEDRECTD45*
21,1,0.1050,0.0525,0,0,180.0*
21,1,0.0525,0.1050,0,0,180.0*
1,1,0.0525,-0.0263,0.0263*
1,1,0.0525,0.0263,0.0263*
1,1,0.0525,0.0263,-0.0263*
1,1,0.0525,-0.0263,-0.0263*
%
%ADD45ROUNDEDRECTD45*%
%ADD46R,0.0402X0.0118*%
%ADD47C,0.0240*%
%ADD48C,0.0320*%
%ADD49C,0.0500*%
%ADD50C,0.0080*%
%ADD51C,0.0400*%
%ADD52C,0.0200*%
%ADD53C,0.0070*%
%ADD54C,0.0100*%
%ADD55C,0.0120*%
%ADD56C,0.0250*%
%ADD57C,0.0160*%
%ADD58R,0.1299X0.1063*%
%ADD59R,0.1575X0.0984*%
%ADD60R,0.1929X0.1457*%
%ADD61R,0.0551X0.0472*%
G04:AMPARAMS|DCode=62|XSize=133mil|YSize=83mil|CornerRadius=0mil|HoleSize=0mil|Usage=FLASHONLY|Rotation=270.000|XOffset=0mil|YOffset=0mil|HoleType=Round|Shape=Octagon|*
%AMOCTAGOND62*
4,1,8,-0.0208,-0.0665,0.0208,-0.0665,0.0415,-0.0458,0.0415,0.0458,0.0208,0.0665,-0.0208,0.0665,-0.0415,0.0458,-0.0415,-0.0458,-0.0208,-0.0665,0.0*
%
%ADD62OCTAGOND62*%

%ADD63C,0.0591*%
%ADD64R,0.0591X0.0591*%
%ADD65O,0.0600X0.1200*%
%ADD66P,0.0758X8X292.5*%
%ADD67C,0.1000*%
%ADD68O,0.1200X0.0600*%
%ADD69O,0.1024X0.0591*%
%ADD70R,0.0591X0.0591*%
%ADD71C,0.1305*%
%ADD72C,0.0540*%
%ADD73O,0.1650X0.0825*%
%ADD74P,0.0909X8X112.5*%
%ADD75C,0.0840*%
%ADD76P,0.0671X8X22.5*%
%ADD77C,0.0800*%
%ADD78O,0.0825X0.1650*%
%ADD79C,0.0300*%
%ADD80C,0.0500*%
%ADD81C,0.0320*%
%ADD82C,0.0450*%
%ADD83C,0.0400*%
G36*
X43110Y26511D02*
X43099D01*
Y25811D01*
X43110D01*
Y25276D01*
X41417D01*
X40866Y25827D01*
Y26378D01*
X41102Y26614D01*
X43110D01*
Y26511D01*
D02*
G37*
G36*
X29635Y14686D02*
X29724Y14668D01*
X30119D01*
X30208Y14686D01*
X30242Y14709D01*
X30292Y14683D01*
Y14342D01*
X30242Y14323D01*
X30186Y14346D01*
X30119Y14355D01*
X29971D01*
Y13938D01*
X29871D01*
Y14355D01*
X29724D01*
X29657Y14346D01*
X29594Y14320D01*
X29574Y14306D01*
X29524Y14330D01*
Y14706D01*
X29574Y14727D01*
X29635Y14686D01*
D02*
G37*
G36*
X13346Y14686D02*
X13434Y14668D01*
X13829D01*
X13918Y14686D01*
X13969Y14720D01*
X14019Y14693D01*
Y14338D01*
X13969Y14313D01*
X13959Y14320D01*
X13897Y14346D01*
X13829Y14355D01*
X13682D01*
Y13938D01*
X13582D01*
Y14355D01*
X13434D01*
X13367Y14346D01*
X13305Y14320D01*
X13276Y14299D01*
X13226Y14324D01*
Y14719D01*
X13276Y14732D01*
X13346Y14686D01*
D02*
G37*
G36*
X12873Y19400D02*
X12869Y19394D01*
X12860Y19351D01*
X12860Y19351D01*
Y19213D01*
X12810Y19173D01*
X12786Y19178D01*
X12698D01*
Y18929D01*
X12598D01*
Y19178D01*
X12509D01*
X12447Y19166D01*
X12395Y19131D01*
X12360Y19078D01*
X12348Y19017D01*
Y18969D01*
X12304Y18945D01*
X12286Y18957D01*
X12200Y18974D01*
X12114Y18957D01*
X12041Y18909D01*
X11993Y18836D01*
X11976Y18750D01*
X11993Y18664D01*
X12041Y18591D01*
X12114Y18543D01*
X12200Y18526D01*
X12255Y18537D01*
X12378Y18413D01*
Y18306D01*
X12388Y18258D01*
Y18146D01*
X12328Y18086D01*
X12224D01*
X12224Y18086D01*
X12181Y18078D01*
X12145Y18053D01*
X12145Y18053D01*
X12105Y18013D01*
X12080Y17977D01*
X12072Y17934D01*
X12072Y17934D01*
Y17872D01*
X12066Y17863D01*
X12057Y17818D01*
Y17624D01*
X12042Y17587D01*
X12009Y17576D01*
X11811D01*
X11766Y17568D01*
X11757Y17561D01*
X11682D01*
X11669Y17575D01*
X11632Y17599D01*
X11601Y17605D01*
X10937Y18269D01*
Y19137D01*
X11148Y19348D01*
X12460D01*
X12460Y19348D01*
X12503Y19356D01*
X12539Y19381D01*
X12609Y19450D01*
X12846D01*
X12873Y19400D01*
D02*
G37*
G36*
X11889Y14686D02*
X11978Y14668D01*
X12373D01*
X12461Y14686D01*
X12485Y14702D01*
X12529Y14678D01*
Y14359D01*
X12479Y14330D01*
X12440Y14346D01*
X12373Y14355D01*
X12225D01*
Y13938D01*
X12125D01*
Y14355D01*
X11978D01*
X11910Y14346D01*
X11848Y14320D01*
X11819Y14298D01*
X11769Y14323D01*
Y14721D01*
X11819Y14733D01*
X11889Y14686D01*
D02*
G37*
G36*
X16357Y14686D02*
X16446Y14668D01*
X16841D01*
X16930Y14686D01*
X16957Y14704D01*
X17001Y14681D01*
Y14356D01*
X16951Y14329D01*
X16908Y14346D01*
X16841Y14355D01*
X16694D01*
Y13938D01*
X16594D01*
Y14355D01*
X16446D01*
X16379Y14346D01*
X16316Y14320D01*
X16297Y14306D01*
X16247Y14330D01*
Y14706D01*
X16297Y14727D01*
X16357Y14686D01*
D02*
G37*
G36*
X13452Y28343D02*
X13452Y28278D01*
X13416Y28243D01*
X13060D01*
X13009Y28233D01*
X12966Y28204D01*
X12952Y28189D01*
X12876Y28230D01*
X12740Y28271D01*
X12598Y28285D01*
X12457Y28271D01*
X12321Y28230D01*
X12195Y28163D01*
X12085Y28072D01*
X11995Y27962D01*
X11928Y27837D01*
X11886Y27701D01*
X11872Y27559D01*
X11886Y27417D01*
X11928Y27281D01*
X11995Y27156D01*
X12085Y27046D01*
X12195Y26955D01*
X12321Y26888D01*
X12405Y26863D01*
Y23523D01*
X12321Y23498D01*
X12195Y23430D01*
X12085Y23340D01*
X11995Y23230D01*
X11928Y23105D01*
X11886Y22968D01*
X11872Y22827D01*
X11886Y22685D01*
X11928Y22549D01*
X11995Y22424D01*
X12085Y22313D01*
X12195Y22223D01*
X12321Y22156D01*
X12457Y22115D01*
X12598Y22101D01*
X12740Y22115D01*
X12876Y22156D01*
X13002Y22223D01*
X13112Y22313D01*
X13202Y22424D01*
X13269Y22549D01*
X13310Y22685D01*
X13324Y22827D01*
X13310Y22968D01*
X13269Y23105D01*
X13202Y23230D01*
X13112Y23340D01*
X13002Y23430D01*
X12876Y23498D01*
X12792Y23523D01*
Y26863D01*
X12876Y26888D01*
X12935Y26919D01*
X12977Y26894D01*
Y25523D01*
X12988Y25473D01*
X13016Y25430D01*
X13343Y25103D01*
X13386Y25074D01*
X13436Y25064D01*
X13461D01*
X13471Y25043D01*
X13474Y25014D01*
X13405Y24961D01*
X13345Y24883D01*
X13308Y24793D01*
X13302Y24747D01*
X14035D01*
X14029Y24793D01*
X13992Y24883D01*
X13932Y24961D01*
X13863Y25014D01*
X13866Y25043D01*
X13876Y25064D01*
X14326D01*
X14336Y25014D01*
X14287Y24994D01*
X14216Y24939D01*
X14161Y24868D01*
X14127Y24786D01*
X14115Y24697D01*
X14127Y24608D01*
X14161Y24525D01*
X14216Y24454D01*
X14265Y24417D01*
Y23049D01*
X14279Y22975D01*
X14321Y22912D01*
X15333Y21900D01*
X15396Y21858D01*
X15470Y21844D01*
X15683D01*
X15724Y21782D01*
X15790Y21738D01*
X15868Y21723D01*
X16128D01*
X16206Y21738D01*
X16272Y21782D01*
X16316Y21848D01*
X16332Y21926D01*
Y22266D01*
X16316Y22344D01*
X16272Y22411D01*
X16206Y22455D01*
X16128Y22470D01*
X15898D01*
X15772Y22596D01*
X15758Y22665D01*
X15710Y22737D01*
X15637Y22786D01*
X15551Y22803D01*
X15465Y22786D01*
X15393Y22737D01*
X15344Y22665D01*
X15327Y22579D01*
X15340Y22512D01*
X15294Y22487D01*
X14652Y23129D01*
Y24417D01*
X14701Y24454D01*
X14755Y24525D01*
X14790Y24608D01*
X14801Y24697D01*
X14790Y24786D01*
X14755Y24868D01*
X14701Y24939D01*
X14630Y24994D01*
X14580Y25014D01*
X14590Y25064D01*
X14961D01*
X15011Y25074D01*
X15054Y25103D01*
X15544Y25592D01*
X15572Y25635D01*
X15583Y25686D01*
Y25864D01*
X15589D01*
X15639Y25874D01*
X15681Y25902D01*
X15697Y25927D01*
X15747Y25911D01*
Y25874D01*
X15758Y25818D01*
X15790Y25770D01*
X15814Y25754D01*
Y25696D01*
X15790Y25680D01*
X15758Y25632D01*
X15747Y25576D01*
Y25550D01*
X15960D01*
Y25500D01*
X16010D01*
Y25277D01*
X16026D01*
X16082Y25288D01*
X16130Y25320D01*
X16136Y25330D01*
X16189Y25342D01*
X16227Y25317D01*
X16271Y25308D01*
X16330D01*
X16337Y25306D01*
X16344Y25308D01*
X16403D01*
X16447Y25317D01*
X16479Y25338D01*
X16498D01*
X16518Y25324D01*
X16602Y25308D01*
X16616Y25288D01*
X16629Y25263D01*
X16457Y25091D01*
X15837D01*
X15809Y25086D01*
X15786Y25070D01*
X15343Y24627D01*
X15328Y24604D01*
X15322Y24577D01*
Y23248D01*
X15328Y23221D01*
X15343Y23198D01*
X15885Y22656D01*
X15908Y22641D01*
X15935Y22635D01*
X17156D01*
X17183Y22641D01*
X17206Y22656D01*
X17393Y22843D01*
X17408Y22866D01*
X17414Y22894D01*
Y23138D01*
X17449Y23169D01*
X17501Y23162D01*
X17502Y23160D01*
X17986Y22676D01*
X17970Y22622D01*
X17955Y22619D01*
X17883Y22570D01*
X17834Y22497D01*
X17817Y22411D01*
X17834Y22326D01*
X17883Y22253D01*
X17955Y22204D01*
X18035Y22188D01*
X18042Y22140D01*
X18041Y22140D01*
X17998Y22131D01*
X17962Y22107D01*
X17938Y22070D01*
X17929Y22028D01*
X17938Y21985D01*
X17962Y21948D01*
X17998Y21924D01*
X18041Y21915D01*
X18123D01*
X18125Y21905D01*
X18157Y21858D01*
X18204Y21826D01*
X18261Y21815D01*
X18287D01*
Y22028D01*
X18387D01*
Y21815D01*
X18413D01*
X18469Y21826D01*
X18516Y21858D01*
X18548Y21905D01*
X18559Y21962D01*
Y22045D01*
X18848D01*
Y22220D01*
X18898D01*
Y22270D01*
X19248D01*
Y22395D01*
X19218D01*
Y22575D01*
Y23050D01*
X19248D01*
Y23091D01*
X19286Y23108D01*
X19331Y23081D01*
Y21998D01*
X18799Y21467D01*
X10226D01*
Y28346D01*
X13403D01*
X13452Y28343D01*
D02*
G37*
G36*
X10841Y16250D02*
X10884Y16222D01*
X10934Y16212D01*
X11211D01*
X11261Y16222D01*
X11303Y16250D01*
X11314Y16266D01*
X11493D01*
X11508Y16216D01*
X11494Y16207D01*
X11438Y16151D01*
X11396Y16088D01*
X11395Y16082D01*
X11342Y16072D01*
X11325Y16096D01*
X11273Y16131D01*
X11211Y16144D01*
X11122D01*
Y15895D01*
Y15646D01*
X11211D01*
X11273Y15658D01*
X11325Y15693D01*
X11331Y15702D01*
X11381Y15687D01*
Y15035D01*
X11331Y14994D01*
X11319Y14996D01*
X11230D01*
Y14748D01*
Y14499D01*
X11300D01*
X11339Y14465D01*
X11340Y14465D01*
X11319Y14430D01*
X11041D01*
X10991Y14421D01*
X10949Y14392D01*
X10912Y14388D01*
X10591Y14709D01*
Y16225D01*
X10630Y16267D01*
X10830D01*
X10841Y16250D01*
D02*
G37*
G36*
X13942Y19400D02*
X13927Y19377D01*
X13910Y19291D01*
X13927Y19205D01*
X13949Y19171D01*
X13932Y19129D01*
X13890Y19101D01*
X13861Y19058D01*
X13851Y19008D01*
Y18834D01*
X13861Y18784D01*
X13890Y18741D01*
X13932Y18713D01*
X13982Y18703D01*
X14259D01*
X14309Y18713D01*
X14352Y18741D01*
X14364Y18759D01*
X14414Y18744D01*
Y18701D01*
X14414Y18701D01*
X14422Y18658D01*
X14446Y18621D01*
X14577Y18491D01*
X14573Y18471D01*
Y18296D01*
X14583Y18246D01*
X14611Y18204D01*
X14654Y18176D01*
X14704Y18166D01*
X14733D01*
X14739Y18134D01*
X14763Y18098D01*
X14898Y17963D01*
X14879Y17917D01*
X14704D01*
X14654Y17907D01*
X14611Y17879D01*
X14583Y17836D01*
X14573Y17786D01*
Y17625D01*
X14570Y17622D01*
X14124D01*
X14124Y17622D01*
X14081Y17613D01*
X14045Y17589D01*
X14045Y17589D01*
X14017Y17561D01*
X13986D01*
X13977Y17568D01*
X13932Y17576D01*
X13738D01*
X13702Y17588D01*
X13690Y17624D01*
Y17818D01*
X13681Y17863D01*
X13675Y17872D01*
Y17916D01*
X13747Y17988D01*
X13835D01*
X13835Y17988D01*
X13878Y17997D01*
X13915Y18021D01*
X14061Y18167D01*
X14259D01*
X14309Y18177D01*
X14352Y18206D01*
X14380Y18248D01*
X14390Y18298D01*
Y18473D01*
X14380Y18523D01*
X14352Y18565D01*
X14309Y18594D01*
X14259Y18604D01*
X13982D01*
X13932Y18594D01*
X13890Y18565D01*
X13861Y18523D01*
X13851Y18473D01*
Y18298D01*
X13854Y18282D01*
X13821Y18247D01*
X13803Y18249D01*
X13764Y18298D01*
Y18473D01*
X13754Y18523D01*
X13725Y18565D01*
X13683Y18594D01*
X13633Y18604D01*
X13356D01*
X13328Y18637D01*
X13337Y18649D01*
X13368Y18672D01*
X13444D01*
Y18921D01*
Y19170D01*
X13356D01*
X13331Y19165D01*
X13281Y19205D01*
Y19261D01*
X13470Y19450D01*
X13915D01*
X13942Y19400D01*
D02*
G37*
G36*
X50394Y29921D02*
Y28150D01*
X50197Y27953D01*
X48425D01*
X47244Y26772D01*
X45768D01*
X45571Y26575D01*
X45458D01*
Y26784D01*
X45368D01*
Y26444D01*
X44868D01*
Y26784D01*
X44778D01*
Y26575D01*
X44685D01*
X44488Y26772D01*
X40650D01*
X40354Y27067D01*
X39272D01*
Y28742D01*
X39281Y28751D01*
X39323Y28814D01*
X39337Y28888D01*
Y29222D01*
X39323Y29297D01*
X39281Y29359D01*
X39272Y29368D01*
Y29528D01*
X40059Y30315D01*
X50000Y30315D01*
X50394Y29921D01*
D02*
G37*
G36*
X17369Y19197D02*
X17319Y19160D01*
X17289Y19166D01*
X17200D01*
Y18918D01*
X17100D01*
Y19166D01*
X17011D01*
X16950Y19154D01*
X16897Y19119D01*
X16862Y19067D01*
X16850Y19005D01*
Y18967D01*
X16806Y18944D01*
X16786Y18957D01*
X16700Y18974D01*
X16614Y18957D01*
X16541Y18909D01*
X16493Y18836D01*
X16476Y18750D01*
X16493Y18664D01*
X16541Y18591D01*
X16614Y18543D01*
X16700Y18526D01*
X16755Y18537D01*
X16881Y18411D01*
Y18295D01*
X16885Y18275D01*
X16837Y18228D01*
X16765D01*
X16765Y18228D01*
X16722Y18219D01*
X16686Y18195D01*
X16686Y18195D01*
X16614Y18122D01*
X16589Y18086D01*
X16581Y18043D01*
X16581Y18043D01*
Y17872D01*
X16575Y17863D01*
X16566Y17818D01*
Y17624D01*
X16551Y17587D01*
X16518Y17576D01*
X16320D01*
X16275Y17568D01*
X16275Y17567D01*
X16233Y17609D01*
X16197Y17633D01*
X16154Y17642D01*
X16154Y17642D01*
X15795D01*
X15782Y17655D01*
Y18072D01*
X15782Y18072D01*
X15773Y18115D01*
X15749Y18151D01*
X15639Y18261D01*
Y19205D01*
X15834Y19400D01*
X17034D01*
X17034Y19400D01*
X17077Y19409D01*
X17114Y19433D01*
X17131Y19450D01*
X17369D01*
Y19197D01*
D02*
G37*
G36*
X45030Y24630D02*
Y21929D01*
X44911Y21811D01*
X44163D01*
X44124Y21850D01*
X43337D01*
X43100Y21614D01*
X42756Y21270D01*
X42756Y20965D01*
X42523Y20731D01*
X41115Y20731D01*
X41080Y20767D01*
Y22357D01*
X41080Y22594D01*
X42519Y24034D01*
X42565Y24015D01*
Y23333D01*
X42822Y23076D01*
X42960D01*
Y23841D01*
X43080D01*
Y23961D01*
X43595D01*
Y24348D01*
X43337Y24606D01*
X43156D01*
X43137Y24652D01*
X43682Y25197D01*
X44462D01*
X45030Y24630D01*
D02*
G37*
G36*
X18507Y14729D02*
Y14310D01*
X18457Y14290D01*
X18418Y14320D01*
X18355Y14346D01*
X18288Y14355D01*
X18141D01*
Y13938D01*
X18041D01*
Y14355D01*
X17893D01*
X17826Y14346D01*
X17763Y14320D01*
X17754Y14313D01*
X17704Y14338D01*
Y14693D01*
X17754Y14720D01*
X17804Y14686D01*
X17893Y14668D01*
X18288D01*
X18377Y14686D01*
X18452Y14736D01*
X18457Y14744D01*
X18507Y14729D01*
D02*
G37*
G36*
X21784Y19400D02*
X21764Y19371D01*
X21756Y19328D01*
X21756Y19328D01*
Y19204D01*
X21706Y19163D01*
X21689Y19166D01*
X21600D01*
Y18918D01*
X21500D01*
Y19166D01*
X21411D01*
X21350Y19154D01*
X21297Y19119D01*
X21262Y19067D01*
X21250Y19005D01*
Y18967D01*
X21206Y18944D01*
X21186Y18957D01*
X21100Y18974D01*
X21014Y18957D01*
X20941Y18909D01*
X20893Y18836D01*
X20876Y18750D01*
X20893Y18664D01*
X20941Y18591D01*
X21014Y18543D01*
X21100Y18526D01*
X21163Y18538D01*
X21281Y18421D01*
Y18295D01*
X21285Y18275D01*
X21223Y18214D01*
X21152D01*
X21152Y18214D01*
X21109Y18205D01*
X21072Y18181D01*
X21072Y18181D01*
X21000Y18109D01*
X20976Y18072D01*
X20967Y18029D01*
X20967Y18029D01*
Y17872D01*
X20961Y17863D01*
X20952Y17818D01*
Y17624D01*
X20937Y17587D01*
X20904Y17576D01*
X20706D01*
X20661Y17568D01*
X20652Y17561D01*
X20629D01*
X20614Y17576D01*
X20577Y17601D01*
X20534Y17609D01*
X20534Y17609D01*
X20246D01*
X20230Y17625D01*
Y18073D01*
X20230Y18073D01*
X20222Y18116D01*
X20198Y18152D01*
X20197Y18152D01*
X20081Y18269D01*
Y19188D01*
X20214Y19321D01*
X20983D01*
X20983Y19321D01*
X21026Y19330D01*
X21063Y19354D01*
X21159Y19450D01*
X21770D01*
X21784Y19400D01*
D02*
G37*
G36*
X16600Y24694D02*
Y24544D01*
X16910D01*
Y24494D01*
X16960D01*
Y24114D01*
X16970Y24088D01*
X16938Y24056D01*
X16914Y24019D01*
X16906Y23977D01*
X16906Y23977D01*
Y23911D01*
X16630D01*
Y23460D01*
X16535Y23366D01*
X16495Y23378D01*
X16485Y23384D01*
Y23531D01*
X16175D01*
Y23581D01*
X16125D01*
Y23941D01*
X15911D01*
Y24000D01*
X16075Y24164D01*
X16455D01*
Y24615D01*
X16553Y24713D01*
X16600Y24694D01*
D02*
G37*
G36*
X35039Y18311D02*
Y17726D01*
X35032D01*
X34790Y17483D01*
Y16498D01*
X35032Y16256D01*
X35039D01*
Y14331D01*
X34494Y13785D01*
X34448Y13805D01*
Y13828D01*
X34437Y13911D01*
X34405Y13989D01*
X34353Y14056D01*
X34323Y14086D01*
Y14559D01*
X33393D01*
Y13629D01*
X33802D01*
Y13567D01*
X33764Y13535D01*
X33747Y13538D01*
X33709D01*
Y13238D01*
X33609D01*
Y13538D01*
X33572D01*
X33510Y13526D01*
X33477Y13504D01*
X32202D01*
Y13630D01*
X32240Y13662D01*
X32245Y13661D01*
X32420D01*
X32470Y13671D01*
X32512Y13699D01*
X32541Y13741D01*
X32550Y13791D01*
Y14069D01*
X32541Y14119D01*
X32512Y14161D01*
X32470Y14189D01*
X32420Y14199D01*
X32245D01*
X32240Y14198D01*
X32202Y14230D01*
Y15866D01*
X32187Y15940D01*
X32145Y16003D01*
X32010Y16138D01*
X31947Y16180D01*
X31873Y16195D01*
X31842Y16189D01*
X31819Y16230D01*
X31849Y16279D01*
X32374D01*
X32387Y16259D01*
X32429Y16231D01*
X32480Y16221D01*
X32757D01*
X32807Y16231D01*
X32847Y16258D01*
X32933D01*
X33059Y16131D01*
X33060Y16125D01*
X33109Y16052D01*
X33182Y16003D01*
X33268Y15986D01*
X33354Y16003D01*
X33426Y16052D01*
X33475Y16125D01*
X33492Y16211D01*
X33475Y16296D01*
X33457Y16323D01*
Y16344D01*
X33475Y16371D01*
X33492Y16457D01*
X33475Y16543D01*
X33426Y16615D01*
X33354Y16664D01*
X33268Y16681D01*
X33182Y16664D01*
X33169Y16656D01*
X32818D01*
X32797Y16706D01*
X33032Y16941D01*
X33032Y16941D01*
X33056Y16977D01*
X33065Y17020D01*
Y18386D01*
X33056Y18428D01*
X33045Y18446D01*
Y18473D01*
X33040Y18498D01*
X33255Y18714D01*
X33278Y18748D01*
X33287Y18789D01*
X33287Y18789D01*
Y19189D01*
X33278Y19230D01*
X33255Y19265D01*
X33255Y19265D01*
X33116Y19404D01*
X33135Y19450D01*
X33900D01*
X35039Y18311D01*
D02*
G37*
G36*
X30754Y19404D02*
X30585Y19235D01*
X30561Y19199D01*
X30551Y19156D01*
X30548Y19156D01*
X30506Y19163D01*
X30489Y19166D01*
X30400D01*
Y18918D01*
X30300D01*
Y19166D01*
X30211D01*
X30150Y19154D01*
X30097Y19119D01*
X30062Y19067D01*
X30053Y19022D01*
X30005Y18994D01*
X29986Y19007D01*
X29900Y19024D01*
X29814Y19007D01*
X29741Y18959D01*
X29693Y18886D01*
X29676Y18800D01*
X29693Y18714D01*
X29741Y18641D01*
X29814Y18593D01*
X29900Y18576D01*
X29982Y18592D01*
X30085Y18489D01*
X30081Y18470D01*
Y18295D01*
X30091Y18245D01*
X30119Y18202D01*
X30127Y18197D01*
X30132Y18147D01*
X30098Y18112D01*
X30010D01*
X30010Y18112D01*
X29967Y18104D01*
X29930Y18079D01*
X29930Y18079D01*
X29880Y18029D01*
X29856Y17993D01*
X29847Y17950D01*
X29847Y17950D01*
Y17803D01*
X29841Y17794D01*
X29832Y17749D01*
Y17555D01*
X29817Y17518D01*
X29784Y17508D01*
X29586D01*
X29542Y17499D01*
X29532Y17492D01*
X29430D01*
X29415Y17507D01*
X29379Y17532D01*
X29336Y17540D01*
X29336Y17540D01*
X28757D01*
X28749Y17548D01*
Y19221D01*
X28839Y19311D01*
X29123D01*
X29123Y19311D01*
X29166Y19319D01*
X29202Y19343D01*
X29309Y19450D01*
X30735D01*
X30754Y19404D01*
D02*
G37*
G36*
X47638Y20276D02*
Y19324D01*
X47592Y19305D01*
X47581Y19316D01*
X47374D01*
Y18551D01*
Y17786D01*
X47581D01*
X47592Y17796D01*
X47638Y17777D01*
X47638Y14783D01*
X46908Y14054D01*
X46874Y14077D01*
X46812Y14089D01*
X46723D01*
Y13841D01*
X46673D01*
Y13791D01*
X46373D01*
Y13753D01*
X46386Y13691D01*
X46421Y13639D01*
X46431Y13632D01*
X46436Y13582D01*
X46073Y13218D01*
X44478Y13218D01*
X43858Y13839D01*
X43858Y16732D01*
X44921Y17795D01*
Y20315D01*
X45276Y20669D01*
X47244D01*
X47638Y20276D01*
D02*
G37*
G36*
X27888Y17341D02*
X27888Y17341D01*
X27896Y17298D01*
X27921Y17262D01*
X28529Y16653D01*
X28534Y16644D01*
X28537Y16586D01*
X28524Y16567D01*
X28514Y16517D01*
Y16320D01*
X28496Y16307D01*
X28454Y16328D01*
X27948D01*
Y16239D01*
X27960Y16178D01*
X27995Y16125D01*
X28048Y16090D01*
X28109Y16078D01*
X28176D01*
X28203Y16028D01*
X28179Y15991D01*
X28162Y15906D01*
X28179Y15820D01*
X28227Y15747D01*
X28300Y15698D01*
X28386Y15681D01*
X28472Y15698D01*
X28498Y15716D01*
X28549D01*
X28576Y15698D01*
X28661Y15681D01*
X28747Y15698D01*
X28820Y15747D01*
X28869Y15820D01*
X28878Y15865D01*
X28878Y15866D01*
X28881Y15872D01*
X28885Y15878D01*
X28886Y15885D01*
X28889Y15892D01*
X28889Y15899D01*
X28890Y15906D01*
Y16132D01*
X28912Y16147D01*
X28941Y16189D01*
X28950Y16239D01*
Y16279D01*
X29445D01*
X29475Y16229D01*
X29470Y16202D01*
Y16180D01*
X29473Y16163D01*
X29472Y16156D01*
X29444Y16112D01*
X29437Y16108D01*
X29423Y16105D01*
X29386Y16080D01*
X29386Y16080D01*
X29360Y16054D01*
X29331Y16060D01*
X29257Y16045D01*
X29194Y16003D01*
X29152Y15940D01*
X29137Y15866D01*
Y13626D01*
X29121D01*
X29071Y13616D01*
X29029Y13588D01*
X29001Y13545D01*
X28992Y13504D01*
X28072D01*
Y13556D01*
X28142Y13609D01*
X28201Y13687D01*
X28238Y13777D01*
X28251Y13873D01*
Y14473D01*
X28238Y14570D01*
X28201Y14660D01*
X28142Y14737D01*
X28072Y14791D01*
Y14907D01*
X28057Y14982D01*
X28015Y15044D01*
X27339Y15720D01*
X27276Y15762D01*
X27202Y15777D01*
X25016D01*
X25009Y15810D01*
X24981Y15852D01*
X24939Y15881D01*
X24889Y15890D01*
X24611D01*
X24561Y15881D01*
X24519Y15852D01*
X24491Y15810D01*
X24484Y15777D01*
X23552D01*
X23247Y16082D01*
X23184Y16124D01*
X23110Y16139D01*
X23081Y16133D01*
X23064Y16149D01*
X23028Y16174D01*
X22998Y16180D01*
X22970Y16219D01*
X22967Y16228D01*
X22977Y16264D01*
X22994Y16271D01*
X23035Y16263D01*
X23464D01*
X23489Y16226D01*
X23511Y16211D01*
Y16024D01*
X23517Y15996D01*
X23532Y15973D01*
X23551Y15955D01*
Y15945D01*
X23556Y15918D01*
X23572Y15894D01*
X23595Y15879D01*
X23622Y15874D01*
X23864D01*
X23891Y15856D01*
X23976Y15839D01*
X24062Y15856D01*
X24135Y15904D01*
X24184Y15977D01*
X24201Y16063D01*
X24192Y16107D01*
X24233Y16157D01*
X24292D01*
X24354Y16169D01*
X24400Y16200D01*
X24426Y16193D01*
X24450Y16180D01*
Y16120D01*
X24462Y16059D01*
X24497Y16006D01*
X24550Y15971D01*
X24611Y15959D01*
X24700D01*
Y16208D01*
Y16456D01*
X24611D01*
X24550Y16444D01*
X24503Y16413D01*
X24477Y16420D01*
X24453Y16434D01*
Y16595D01*
X24441Y16657D01*
X24406Y16709D01*
X24354Y16744D01*
X24292Y16757D01*
X24255D01*
Y16457D01*
X24155D01*
Y16757D01*
X24117D01*
X24056Y16744D01*
X24003Y16709D01*
X23968Y16657D01*
X23956Y16595D01*
Y16481D01*
X23906Y16456D01*
X23887Y16470D01*
Y16595D01*
X23878Y16645D01*
X23849Y16688D01*
X23842Y16692D01*
X23837Y16742D01*
X24018Y16923D01*
X24018Y16923D01*
X24043Y16959D01*
X24051Y17002D01*
X24051Y17002D01*
Y18180D01*
X24089Y18206D01*
X24118Y18248D01*
X24128Y18298D01*
Y18473D01*
X24124Y18492D01*
X24254Y18623D01*
X24279Y18659D01*
X24287Y18702D01*
X24287Y18702D01*
Y18899D01*
X24326Y18930D01*
X24350Y18926D01*
X24436Y18943D01*
X24509Y18991D01*
X24557Y19064D01*
X24574Y19150D01*
X24557Y19236D01*
X24509Y19309D01*
X24436Y19357D01*
X24350Y19374D01*
X24264Y19357D01*
X24191Y19309D01*
X24143Y19236D01*
X24126Y19150D01*
X24130Y19129D01*
X24103Y19110D01*
X24085Y19104D01*
X24047Y19129D01*
X23997Y19139D01*
X23845D01*
X23807Y19173D01*
X23790Y19259D01*
X23741Y19332D01*
X23669Y19380D01*
X23583Y19398D01*
X23497Y19380D01*
X23424Y19332D01*
X23413Y19324D01*
X23369D01*
X23357Y19342D01*
X23285Y19390D01*
X23236Y19400D01*
X23241Y19450D01*
X24730D01*
X24744Y19429D01*
X24817Y19380D01*
X24903Y19363D01*
X24989Y19380D01*
X25061Y19429D01*
X25075Y19450D01*
X25098D01*
X25147Y19448D01*
Y19052D01*
X25114Y19022D01*
X25064Y19030D01*
X25059Y19038D01*
X25011Y19070D01*
X24955Y19081D01*
X24939D01*
Y18858D01*
Y18635D01*
X24955D01*
X25011Y18647D01*
X25059Y18678D01*
X25065Y18688D01*
X25118Y18700D01*
X25155Y18675D01*
X25200Y18666D01*
X25205D01*
Y18428D01*
X25147D01*
Y18081D01*
X25097Y18077D01*
X25089Y18117D01*
X25041Y18190D01*
X24968Y18239D01*
X24882Y18256D01*
X24796Y18239D01*
X24723Y18190D01*
X24701Y18157D01*
X24631Y18186D01*
X24547Y18197D01*
X24464Y18186D01*
X24386Y18154D01*
X24319Y18102D01*
X24268Y18035D01*
X24235Y17958D01*
X24224Y17874D01*
X24235Y17790D01*
X24268Y17713D01*
X24319Y17646D01*
X24386Y17594D01*
X24464Y17562D01*
X24547Y17551D01*
X24631Y17562D01*
X24709Y17594D01*
X24775Y17646D01*
X24827Y17713D01*
X24859Y17790D01*
X24859Y17791D01*
X24882Y17807D01*
X24937Y17818D01*
X25021Y17734D01*
X25021Y17734D01*
X25057Y17709D01*
X25100Y17701D01*
X25147Y17700D01*
Y17493D01*
X25205D01*
Y17417D01*
X25170D01*
X25126Y17408D01*
X25088Y17383D01*
X25036Y17394D01*
X25029Y17404D01*
X24981Y17436D01*
X24925Y17447D01*
X24909D01*
Y17224D01*
Y17002D01*
X24925D01*
X24981Y17013D01*
X25029Y17045D01*
X25036Y17055D01*
X25088Y17066D01*
X25126Y17041D01*
X25147Y17031D01*
Y16631D01*
X25911D01*
X25971Y16571D01*
X25952Y16525D01*
X25687D01*
Y16295D01*
Y16065D01*
X25905D01*
Y16295D01*
X26005D01*
Y16065D01*
X26220D01*
Y16295D01*
X26270D01*
Y16345D01*
X26470D01*
Y16425D01*
X26496Y16463D01*
X26539Y16471D01*
X26575Y16495D01*
X26638Y16558D01*
X26674Y16551D01*
X26699Y16533D01*
X26713Y16500D01*
X26705Y16437D01*
X26716Y16353D01*
X26748Y16276D01*
X26799Y16209D01*
X26866Y16157D01*
X26944Y16125D01*
X27028Y16114D01*
X27111Y16125D01*
X27189Y16157D01*
X27256Y16209D01*
X27307Y16276D01*
X27339Y16353D01*
X27350Y16437D01*
X27339Y16521D01*
X27307Y16598D01*
X27256Y16665D01*
X27189Y16717D01*
X27111Y16749D01*
X27028Y16760D01*
X26964Y16751D01*
X26932Y16765D01*
X26914Y16790D01*
X26900Y16857D01*
X26852Y16930D01*
X26834Y16942D01*
X26850Y16992D01*
X26860D01*
X26917Y17003D01*
X26964Y17035D01*
X26996Y17082D01*
X27007Y17139D01*
Y17165D01*
X26794D01*
Y17215D01*
X26744D01*
Y17437D01*
X26728D01*
X26672Y17426D01*
X26625Y17394D01*
X26618Y17384D01*
X26566Y17373D01*
X26528Y17398D01*
X26483Y17407D01*
X26403D01*
X26382Y17428D01*
Y17493D01*
X26440D01*
Y17698D01*
X26559Y17818D01*
X26614Y17807D01*
X26700Y17824D01*
X26773Y17873D01*
X26821Y17946D01*
X26838Y18031D01*
X26821Y18117D01*
X26773Y18190D01*
X26700Y18239D01*
X26614Y18256D01*
X26528Y18239D01*
X26490Y18213D01*
X26440Y18240D01*
Y18428D01*
X26382D01*
Y18615D01*
X26423Y18656D01*
X26483D01*
X26528Y18665D01*
X26566Y18690D01*
X26618Y18679D01*
X26625Y18669D01*
X26672Y18637D01*
X26728Y18626D01*
X26744D01*
Y18848D01*
X26844D01*
Y18626D01*
X26860D01*
X26917Y18637D01*
X26925Y18643D01*
X26992Y18628D01*
X27017Y18591D01*
X27089Y18543D01*
X27175Y18526D01*
X27261Y18543D01*
X27334Y18591D01*
X27382Y18664D01*
X27400Y18750D01*
X27382Y18836D01*
X27334Y18909D01*
X27287Y18940D01*
Y19450D01*
X27888D01*
Y17341D01*
D02*
G37*
G36*
X15229Y16013D02*
X15315Y15996D01*
X15328Y15954D01*
X15630D01*
Y15904D01*
X15680D01*
Y15655D01*
X15769D01*
X15809Y15663D01*
X15859Y15631D01*
Y14423D01*
X15809Y14382D01*
X15789Y14386D01*
X15700D01*
Y14138D01*
Y13889D01*
X15782D01*
X15798Y13879D01*
X15822Y13854D01*
X15789Y13820D01*
X15511D01*
X15461Y13811D01*
X15419Y13782D01*
X15391Y13740D01*
X15381Y13690D01*
Y13624D01*
X15334Y13605D01*
X15200Y13739D01*
X15137Y13781D01*
X15063Y13796D01*
X14850D01*
X14829Y13811D01*
X14779Y13820D01*
X14574D01*
X14561Y13839D01*
X14586Y13889D01*
X14590D01*
Y14138D01*
Y14386D01*
X14501D01*
X14456Y14378D01*
X14406Y14407D01*
Y15631D01*
X14456Y15663D01*
X14497Y15655D01*
X14586D01*
Y15904D01*
X14636D01*
Y15954D01*
X14936D01*
Y15960D01*
X14981Y16002D01*
X15010Y15996D01*
X15096Y16013D01*
X15122Y16031D01*
X15203D01*
X15229Y16013D01*
D02*
G37*
G36*
X31814Y14729D02*
Y14310D01*
X31764Y14290D01*
X31725Y14320D01*
X31662Y14346D01*
X31595Y14355D01*
X31448D01*
Y13938D01*
X31348D01*
Y14355D01*
X31200D01*
X31133Y14346D01*
X31096Y14331D01*
X31046Y14362D01*
Y14676D01*
X31090Y14700D01*
X31111Y14686D01*
X31200Y14668D01*
X31595D01*
X31684Y14686D01*
X31759Y14736D01*
X31764Y14744D01*
X31814Y14729D01*
D02*
G37*
G36*
X21441Y14760D02*
Y14288D01*
X21391Y14271D01*
X21385Y14279D01*
X21331Y14320D01*
X21269Y14346D01*
X21201Y14355D01*
X21054D01*
Y13938D01*
X20954D01*
Y14355D01*
X20806D01*
X20739Y14346D01*
X20703Y14331D01*
X20653Y14362D01*
Y14676D01*
X20697Y14700D01*
X20718Y14686D01*
X20806Y14668D01*
X21201D01*
X21290Y14686D01*
X21365Y14736D01*
X21391Y14775D01*
X21441Y14760D01*
D02*
G37*
G36*
X23424Y19015D02*
X23497Y18966D01*
X23583Y18949D01*
X23589Y18944D01*
Y18834D01*
X23599Y18784D01*
X23627Y18741D01*
X23670Y18713D01*
X23720Y18703D01*
X23946D01*
X23967Y18653D01*
X23918Y18604D01*
X23720D01*
X23670Y18594D01*
X23627Y18565D01*
X23599Y18523D01*
X23589Y18473D01*
Y18298D01*
X23599Y18248D01*
X23627Y18206D01*
X23670Y18177D01*
X23720Y18167D01*
X23827D01*
Y17952D01*
X23777Y17914D01*
X23761Y17917D01*
X23483D01*
X23433Y17907D01*
X23391Y17879D01*
X23363Y17836D01*
X23353Y17786D01*
Y17611D01*
X23337Y17592D01*
X22947D01*
X22947Y17592D01*
X22904Y17584D01*
X22876Y17565D01*
X22872Y17568D01*
X22828Y17576D01*
X22634D01*
X22597Y17588D01*
X22586Y17624D01*
Y17818D01*
X22577Y17863D01*
X22570Y17872D01*
Y17943D01*
X22615Y17988D01*
X22699D01*
X22699Y17988D01*
X22742Y17997D01*
X22778Y18021D01*
X22923Y18166D01*
X23121D01*
X23171Y18176D01*
X23213Y18204D01*
X23242Y18246D01*
X23252Y18296D01*
Y18471D01*
X23242Y18521D01*
X23213Y18564D01*
X23171Y18592D01*
X23121Y18602D01*
X22844D01*
X22794Y18592D01*
X22751Y18564D01*
X22723Y18521D01*
X22722Y18519D01*
X22671D01*
X22671Y18521D01*
X22642Y18564D01*
X22600Y18592D01*
X22550Y18602D01*
X22273D01*
X22246Y18597D01*
X22200Y18631D01*
X22200Y18642D01*
X22245Y18676D01*
X22273Y18671D01*
X22361D01*
Y18919D01*
X22461D01*
Y18671D01*
X22550D01*
X22612Y18683D01*
X22664Y18718D01*
X22685Y18749D01*
X22743Y18752D01*
X22743Y18752D01*
X22751Y18739D01*
X22794Y18711D01*
X22844Y18701D01*
X23121D01*
X23171Y18711D01*
X23213Y18739D01*
X23242Y18782D01*
X23252Y18832D01*
Y18969D01*
X23285Y18976D01*
X23357Y19024D01*
X23369Y19032D01*
X23412D01*
X23424Y19015D01*
D02*
G37*
G36*
X31456Y19432D02*
X31505Y19359D01*
X31578Y19310D01*
X31663Y19293D01*
X31749Y19310D01*
X31822Y19359D01*
X31856Y19411D01*
X32554D01*
X32580Y19361D01*
X32559Y19328D01*
X32541Y19242D01*
X32559Y19156D01*
X32580Y19124D01*
X32545Y19101D01*
X32516Y19058D01*
X32506Y19008D01*
Y18834D01*
X32516Y18784D01*
X32545Y18741D01*
X32587Y18713D01*
X32637Y18703D01*
X32871D01*
X32891Y18653D01*
X32842Y18604D01*
X32637D01*
X32587Y18594D01*
X32545Y18565D01*
X32516Y18523D01*
X32506Y18473D01*
Y18298D01*
X32516Y18248D01*
X32545Y18206D01*
X32587Y18177D01*
X32637Y18167D01*
X32841D01*
Y17940D01*
X32791Y17910D01*
X32757Y17917D01*
X32480D01*
X32429Y17907D01*
X32387Y17879D01*
X32359Y17836D01*
X32349Y17786D01*
Y17611D01*
X32305Y17573D01*
X31969D01*
X31969Y17573D01*
X31926Y17564D01*
X31889Y17540D01*
X31842Y17492D01*
X31762D01*
X31752Y17499D01*
X31708Y17508D01*
X31514D01*
X31477Y17519D01*
X31466Y17555D01*
Y17749D01*
X31457Y17794D01*
X31451Y17803D01*
Y17955D01*
X31663Y18167D01*
X31861D01*
X31911Y18177D01*
X31953Y18206D01*
X31982Y18248D01*
X31992Y18298D01*
Y18473D01*
X31982Y18523D01*
X31953Y18565D01*
X31911Y18594D01*
X31861Y18604D01*
X31584D01*
X31534Y18594D01*
X31491Y18565D01*
X31463Y18523D01*
X31463Y18520D01*
X31412D01*
X31411Y18523D01*
X31383Y18565D01*
X31340Y18594D01*
X31290Y18604D01*
X31013D01*
X30987Y18638D01*
X30991Y18644D01*
X31027Y18672D01*
X31102D01*
Y18921D01*
X31202D01*
Y18672D01*
X31290D01*
X31352Y18684D01*
X31404Y18719D01*
X31425Y18750D01*
X31483Y18754D01*
X31483Y18754D01*
X31491Y18741D01*
X31534Y18713D01*
X31584Y18703D01*
X31861D01*
X31911Y18713D01*
X31939Y18732D01*
X32001Y18690D01*
X32087Y18673D01*
X32172Y18690D01*
X32245Y18739D01*
X32294Y18812D01*
X32311Y18898D01*
X32294Y18983D01*
X32245Y19056D01*
X32172Y19105D01*
X32087Y19122D01*
X32001Y19105D01*
X31966Y19082D01*
X31953Y19101D01*
X31911Y19129D01*
X31861Y19139D01*
X31584D01*
X31534Y19129D01*
X31491Y19101D01*
X31483Y19088D01*
X31483Y19088D01*
X31425Y19091D01*
X31404Y19122D01*
X31352Y19157D01*
X31290Y19170D01*
X31146D01*
X31127Y19216D01*
X31216Y19305D01*
X31231Y19327D01*
X31354Y19450D01*
X31453D01*
X31456Y19432D01*
D02*
G37*
G36*
X22876Y15950D02*
X22919Y15931D01*
X22931Y15871D01*
X22973Y15808D01*
X23335Y15446D01*
X23398Y15404D01*
X23472Y15390D01*
X24290D01*
X24309Y15343D01*
X23846Y14881D01*
X23800Y14900D01*
Y14925D01*
X23788Y14987D01*
X23753Y15039D01*
X23700Y15074D01*
X23639Y15086D01*
X23550D01*
Y14838D01*
X23500D01*
Y14788D01*
X23200D01*
Y14750D01*
X23212Y14689D01*
X23247Y14636D01*
X23300Y14601D01*
X23361Y14589D01*
X23454D01*
X23479Y14539D01*
X23465Y14520D01*
X23361D01*
X23311Y14511D01*
X23269Y14482D01*
X23241Y14440D01*
X23231Y14390D01*
Y14215D01*
X23241Y14165D01*
X23264Y14131D01*
X22994Y13861D01*
X22947Y13880D01*
Y13888D01*
X22490D01*
Y13938D01*
X22440D01*
Y14355D01*
X22293D01*
X22225Y14346D01*
X22189Y14331D01*
X22139Y14362D01*
Y14676D01*
X22183Y14700D01*
X22204Y14686D01*
X22293Y14668D01*
X22688D01*
X22776Y14686D01*
X22852Y14736D01*
X22902Y14812D01*
X22920Y14900D01*
Y15215D01*
X22902Y15304D01*
X22852Y15379D01*
X22776Y15430D01*
X22688Y15447D01*
X22652D01*
Y15529D01*
X22637Y15603D01*
X22595Y15666D01*
X22581Y15675D01*
X22586Y15697D01*
Y15895D01*
X22596Y15928D01*
X22633Y15943D01*
X22828D01*
X22868Y15951D01*
X22876Y15950D01*
D02*
G37*
G36*
X39995Y18159D02*
Y18011D01*
X40008Y17949D01*
X40043Y17897D01*
X40095Y17862D01*
X40157Y17850D01*
X40175D01*
Y18098D01*
X40415D01*
Y17850D01*
X40434D01*
X40496Y17862D01*
X40548Y17897D01*
X40583Y17949D01*
X40588Y17973D01*
X40642Y17990D01*
X41142Y17490D01*
X41142Y17008D01*
X42126Y16024D01*
Y14331D01*
X41329Y13533D01*
X40344Y13533D01*
X39665Y14213D01*
X39665Y15512D01*
X38642Y16535D01*
X38642Y17470D01*
X39072Y17900D01*
X39108Y17897D01*
X39160Y17862D01*
X39222Y17850D01*
X39240D01*
Y18098D01*
X39480D01*
Y17850D01*
X39499D01*
X39561Y17862D01*
X39613Y17897D01*
X39648Y17949D01*
X39660Y18011D01*
Y18186D01*
X39679Y18209D01*
X39955D01*
X39995Y18159D01*
D02*
G37*
G36*
X46752Y35335D02*
X47343D01*
X47396Y35281D01*
X47395Y35279D01*
X47395Y35279D01*
X47371Y35235D01*
X47344Y35235D01*
X46707D01*
Y35015D01*
X47387D01*
Y35188D01*
X47387Y35219D01*
X47434Y35243D01*
X48622Y34055D01*
X50000D01*
X50394Y33661D01*
Y32382D01*
X50000Y31988D01*
X47539D01*
X47244Y32283D01*
X44882D01*
Y34350D01*
X45079Y34547D01*
Y35433D01*
X45374Y35728D01*
X46358D01*
X46752Y35335D01*
D02*
G37*
G36*
X28819Y16390D02*
Y15906D01*
X28740Y15787D01*
X28425D01*
X28307Y15906D01*
Y15984D01*
X28714Y16391D01*
X28817D01*
X28819Y16390D01*
D02*
G37*
G36*
X27675Y14836D02*
X27673Y14782D01*
X27614Y14737D01*
X27555Y14660D01*
X27517Y14570D01*
X27505Y14473D01*
Y13873D01*
X27517Y13777D01*
X27555Y13687D01*
X27614Y13609D01*
X27684Y13556D01*
Y13504D01*
X27072D01*
Y13556D01*
X27142Y13609D01*
X27201Y13687D01*
X27238Y13777D01*
X27251Y13873D01*
Y14473D01*
X27238Y14570D01*
X27201Y14660D01*
X27142Y14737D01*
X27072Y14791D01*
Y14899D01*
X27057Y14973D01*
X27015Y15036D01*
X26707Y15343D01*
X26727Y15390D01*
X27122D01*
X27675Y14836D01*
D02*
G37*
G36*
X44650Y36670D02*
Y36492D01*
Y31610D01*
X44280Y31240D01*
X36961D01*
Y30925D01*
X36861D01*
Y31240D01*
X36520D01*
X36294Y31466D01*
Y31694D01*
X36307Y31714D01*
X36324Y31800D01*
X36307Y31886D01*
X36290Y31912D01*
Y36760D01*
X36590Y37060D01*
X44260D01*
X44650Y36670D01*
D02*
G37*
G36*
X46693Y32102D02*
X46682D01*
Y31402D01*
X46693D01*
Y31220D01*
X46654Y31181D01*
X45490D01*
X45472Y31193D01*
X45410Y31205D01*
X45373D01*
Y30905D01*
X45273D01*
Y31205D01*
X45235D01*
X45174Y31193D01*
X45156Y31181D01*
X44882D01*
X44724Y31339D01*
Y32087D01*
X44843Y32205D01*
X46693D01*
Y32102D01*
D02*
G37*
G36*
X20709Y24291D02*
X21283D01*
X21314Y24253D01*
X21314Y24249D01*
Y24149D01*
X21310Y24146D01*
X21271Y24120D01*
Y24120D01*
X21271Y24120D01*
X20631D01*
Y23900D01*
X20601D01*
Y23775D01*
X20951D01*
Y23675D01*
X20601D01*
Y23550D01*
X20631D01*
Y23080D01*
Y22825D01*
Y22395D01*
X20601D01*
Y22270D01*
X20951D01*
Y22220D01*
X21001D01*
Y22045D01*
X21293D01*
Y22030D01*
X21304Y21974D01*
X21336Y21927D01*
X21384Y21895D01*
X21440Y21884D01*
X21466D01*
Y22096D01*
X21516D01*
Y22146D01*
X21739D01*
Y22162D01*
X21727Y22219D01*
X21725Y22222D01*
X21755Y22267D01*
X21811Y22256D01*
X21897Y22273D01*
X21970Y22322D01*
X22018Y22394D01*
X22035Y22480D01*
X22023Y22543D01*
X22060Y22585D01*
X22061Y22586D01*
X22066Y22585D01*
X22165D01*
Y21811D01*
X21575Y21220D01*
X19134D01*
X19016Y21339D01*
Y21496D01*
X19449Y21929D01*
Y24488D01*
X19921Y24961D01*
X20039D01*
X20709Y24291D01*
D02*
G37*
G36*
X37008Y14213D02*
Y12385D01*
X36962Y12366D01*
X36872Y12456D01*
X36665D01*
Y11691D01*
X36615D01*
Y11641D01*
X36100D01*
Y11614D01*
X35790D01*
Y11641D01*
X35275D01*
Y11691D01*
X35225D01*
Y12456D01*
X35017D01*
X34903Y12341D01*
X34449Y12795D01*
Y13188D01*
X34195D01*
Y13288D01*
X34449D01*
Y13386D01*
X35197Y14134D01*
X35827D01*
X36102Y14409D01*
X36811D01*
X37008Y14213D01*
D02*
G37*
G36*
X28561Y17179D02*
X28561Y17179D01*
X28597Y17155D01*
X28640Y17146D01*
X28640Y17146D01*
X29219D01*
X29261Y17104D01*
X29261Y17104D01*
X29297Y17080D01*
X29340Y17071D01*
X29407D01*
X29433Y17036D01*
X29700D01*
Y16936D01*
X29433D01*
X29407Y16902D01*
X29337D01*
X29337Y16902D01*
X29294Y16893D01*
X29257Y16869D01*
X29257Y16869D01*
X29229Y16840D01*
X28659D01*
X28328Y17172D01*
X28342Y17220D01*
X28363Y17224D01*
X28436Y17272D01*
X28464Y17275D01*
X28561Y17179D01*
D02*
G37*
G36*
X24094Y16142D02*
Y16024D01*
X24016Y15945D01*
X23622D01*
Y15984D01*
X23583Y16024D01*
Y16299D01*
X23740Y16457D01*
X23780D01*
X24094Y16142D01*
D02*
G37*
G36*
X26668Y14835D02*
X26665Y14776D01*
X26614Y14737D01*
X26555Y14660D01*
X26517Y14570D01*
X26505Y14473D01*
Y13873D01*
X26517Y13777D01*
X26555Y13687D01*
X26614Y13609D01*
X26684Y13556D01*
Y13504D01*
X26072D01*
Y13556D01*
X26142Y13609D01*
X26201Y13687D01*
X26238Y13777D01*
X26251Y13873D01*
Y14473D01*
X26238Y14570D01*
X26201Y14660D01*
X26142Y14737D01*
X26072Y14791D01*
Y14870D01*
X26057Y14944D01*
X26015Y15007D01*
X25989Y15033D01*
X26008Y15080D01*
X26423D01*
X26668Y14835D01*
D02*
G37*
G36*
X25601Y14720D02*
X25555Y14660D01*
X25517Y14570D01*
X25505Y14473D01*
Y13873D01*
X25517Y13777D01*
X25555Y13687D01*
X25614Y13609D01*
X25684Y13556D01*
Y13504D01*
X25072D01*
Y13556D01*
X25142Y13609D01*
X25201Y13687D01*
X25238Y13777D01*
X25251Y13873D01*
Y14473D01*
X25238Y14570D01*
X25201Y14660D01*
X25155Y14720D01*
X25178Y14770D01*
X25578D01*
X25601Y14720D01*
D02*
G37*
G36*
X24194Y14610D02*
Y13510D01*
X24188Y13504D01*
X23790D01*
Y13585D01*
X23778Y13647D01*
X23743Y13699D01*
X23690Y13734D01*
X23629Y13746D01*
X23493D01*
X23474Y13793D01*
X23637Y13956D01*
X23679Y14019D01*
X23694Y14093D01*
Y14097D01*
X23731Y14122D01*
X23759Y14165D01*
X23769Y14215D01*
Y14256D01*
X24144Y14631D01*
X24194Y14610D01*
D02*
G37*
G36*
X28368Y19400D02*
X28364Y19393D01*
X28355Y19350D01*
X28355Y19350D01*
Y17679D01*
X28316Y17648D01*
X28278Y17655D01*
X28192Y17638D01*
X28162Y17619D01*
X28112Y17645D01*
Y19450D01*
X28342D01*
X28368Y19400D01*
D02*
G37*
G36*
X18846Y18239D02*
X18847Y18239D01*
X18863Y18214D01*
X18906Y18185D01*
X18956Y18175D01*
X19148D01*
X19148Y18173D01*
X19173Y18137D01*
X19346Y17963D01*
X19327Y17917D01*
X19153D01*
X19103Y17907D01*
X19060Y17879D01*
X19032Y17836D01*
X19022Y17786D01*
Y17612D01*
X18563D01*
X18563Y17612D01*
X18520Y17604D01*
X18484Y17579D01*
X18474Y17570D01*
X18441Y17576D01*
X18247D01*
X18211Y17588D01*
X18199Y17624D01*
Y17818D01*
X18191Y17863D01*
X18184Y17872D01*
Y17905D01*
X18455Y18176D01*
X18682D01*
X18732Y18185D01*
X18774Y18214D01*
X18791Y18239D01*
X18792Y18239D01*
X18846Y18239D01*
D02*
G37*
G36*
X19743Y16020D02*
X19739Y16001D01*
Y15963D01*
X20039D01*
Y15913D01*
X20089D01*
Y15665D01*
X20178D01*
X20215Y15672D01*
X20265Y15638D01*
Y14321D01*
X20219Y14290D01*
X20215Y14291D01*
X20183Y14339D01*
X20130Y14374D01*
X20069Y14386D01*
X19980D01*
Y14138D01*
Y13889D01*
X20069D01*
X20130Y13901D01*
X20183Y13936D01*
X20215Y13985D01*
X20219Y13985D01*
X20265Y13955D01*
Y13796D01*
X20140D01*
X20119Y13811D01*
X20069Y13820D01*
X19791D01*
X19741Y13811D01*
X19699Y13782D01*
X19671Y13740D01*
X19661Y13690D01*
Y13515D01*
X19652Y13504D01*
X19541D01*
X19489Y13555D01*
Y13690D01*
X19479Y13740D01*
X19451Y13782D01*
X19409Y13811D01*
X19359Y13820D01*
X19245D01*
X19231Y13839D01*
X19256Y13889D01*
X19359D01*
X19420Y13901D01*
X19473Y13936D01*
X19508Y13989D01*
X19520Y14050D01*
Y14088D01*
X19220D01*
Y14138D01*
X19170D01*
Y14386D01*
X19081D01*
X19020Y14374D01*
X18967Y14339D01*
X18945Y14305D01*
X18895Y14320D01*
Y15637D01*
X18933Y15669D01*
X18956Y15665D01*
X19044D01*
Y15913D01*
X19094D01*
Y15963D01*
X19394D01*
Y16001D01*
X19391Y16020D01*
X19432Y16070D01*
X19702D01*
X19743Y16020D01*
D02*
G37*
G36*
X15572Y16497D02*
Y16360D01*
X15315Y16102D01*
X14961D01*
X14724Y16339D01*
Y16535D01*
X14843Y16654D01*
X15415D01*
X15572Y16497D01*
D02*
G37*
G36*
X33386Y16496D02*
Y16181D01*
X33307Y16102D01*
X33189D01*
X32913Y16378D01*
Y16575D01*
X33307D01*
X33386Y16496D01*
D02*
G37*
G36*
X19961Y16535D02*
Y16339D01*
X19764Y16142D01*
X19370D01*
X19173Y16339D01*
Y16535D01*
X19252Y16614D01*
X19882D01*
X19961Y16535D01*
D02*
G37*
G36*
X10945Y16772D02*
Y16339D01*
X10630D01*
X10551Y16417D01*
Y16535D01*
X10827Y16811D01*
X10906D01*
X10945Y16772D01*
D02*
G37*
G36*
X16968Y26273D02*
X16983Y26237D01*
Y26042D01*
X16991Y25997D01*
X16998Y25988D01*
Y25121D01*
X16863Y24986D01*
X16555D01*
X16555Y24986D01*
X16512Y24978D01*
X16476Y24953D01*
X16476Y24953D01*
X16347Y24824D01*
X15895D01*
Y24302D01*
X15742Y24149D01*
X15642D01*
X15598Y24140D01*
X15560Y24115D01*
X15535Y24077D01*
X15526Y24033D01*
Y23901D01*
X15535Y23856D01*
X15560Y23818D01*
X15549Y23766D01*
X15539Y23759D01*
X15507Y23712D01*
X15496Y23656D01*
Y23640D01*
X15718D01*
Y23590D01*
X15769D01*
Y23377D01*
X15795D01*
X15815Y23381D01*
X15865Y23342D01*
Y23221D01*
X15963D01*
X16000Y23171D01*
X15995Y23147D01*
Y23121D01*
X16208D01*
Y23071D01*
X16258D01*
Y22848D01*
X16274D01*
X16330Y22859D01*
X16377Y22891D01*
X16384Y22901D01*
X16436Y22913D01*
X16474Y22887D01*
X16519Y22879D01*
X16651D01*
X16695Y22887D01*
X16733Y22913D01*
X16758Y22950D01*
X16767Y22995D01*
Y23147D01*
X16758Y23191D01*
X16751Y23201D01*
X16778Y23251D01*
X17190D01*
Y23911D01*
X17182D01*
X17161Y23961D01*
X17376Y24176D01*
X17376Y24176D01*
X17400Y24212D01*
X17409Y24255D01*
Y25506D01*
X17447Y25538D01*
X17461Y25535D01*
X17477D01*
Y25758D01*
X17577D01*
Y25535D01*
X17593D01*
X17618Y25514D01*
Y25512D01*
X17797Y25333D01*
X17811Y25311D01*
X17833Y25297D01*
X17894Y25236D01*
X17470Y24813D01*
Y24614D01*
X17470Y24609D01*
X17470Y24609D01*
Y23316D01*
X17343Y23189D01*
Y22894D01*
X17156Y22707D01*
X15935D01*
X15394Y23248D01*
Y24577D01*
X15837Y25020D01*
X16486D01*
X16860Y25394D01*
Y26284D01*
X16935D01*
X16968Y26273D01*
D02*
G37*
G36*
X16434Y31200D02*
X16411Y31185D01*
X16411Y31185D01*
X16186Y30960D01*
X16162Y30923D01*
X16153Y30880D01*
X16153Y30880D01*
Y30659D01*
X16120Y30632D01*
X16075Y30652D01*
Y30866D01*
X15885Y31056D01*
X15505D01*
X15315Y30866D01*
Y30486D01*
X15414Y30386D01*
X15412Y30327D01*
X15409Y30321D01*
X15112Y30024D01*
X15062Y30045D01*
Y30407D01*
X15062Y30407D01*
X15062D01*
X15057Y30457D01*
X15089Y30505D01*
X15106Y30591D01*
X15089Y30676D01*
X15041Y30749D01*
X14968Y30798D01*
X14882Y30815D01*
X14796Y30798D01*
X14723Y30749D01*
X14675Y30676D01*
X14658Y30591D01*
X14675Y30505D01*
X14710Y30452D01*
X14722Y30407D01*
X14722Y30407D01*
X14722D01*
X14722Y30407D01*
Y30309D01*
X14655D01*
X14649Y30336D01*
X14621Y30379D01*
X14578Y30407D01*
X14528Y30417D01*
X14251D01*
X14201Y30407D01*
X14159Y30379D01*
X14130Y30336D01*
X14120Y30286D01*
Y30111D01*
X14130Y30061D01*
X14159Y30019D01*
X14201Y29991D01*
X14251Y29981D01*
X14528D01*
X14578Y29991D01*
X14621Y30019D01*
X14649Y30061D01*
X14654Y30085D01*
X14722D01*
Y29987D01*
X15004D01*
X15024Y29937D01*
X14943Y29856D01*
X14722D01*
Y29758D01*
X14658D01*
X14649Y29801D01*
X14621Y29843D01*
X14578Y29872D01*
X14528Y29882D01*
X14251D01*
X14201Y29872D01*
X14159Y29843D01*
X14130Y29801D01*
X14120Y29751D01*
Y29576D01*
X14130Y29526D01*
X14159Y29484D01*
X14181Y29468D01*
X14173Y29456D01*
X14156Y29370D01*
X14173Y29284D01*
X14221Y29211D01*
X14294Y29163D01*
X14380Y29146D01*
X14466Y29163D01*
X14539Y29211D01*
X14587Y29284D01*
X14604Y29370D01*
X14587Y29456D01*
X14585Y29459D01*
X14621Y29484D01*
X14649Y29526D01*
X14651Y29534D01*
X14722D01*
Y29436D01*
X14943D01*
X15767Y28612D01*
X15767Y28612D01*
X15804Y28587D01*
X15846Y28579D01*
X15846Y28579D01*
X16094D01*
X16330Y28343D01*
X16305Y28297D01*
X16276Y28303D01*
X16250D01*
Y28140D01*
X16423D01*
Y28156D01*
X16412Y28212D01*
X16394Y28239D01*
X16424Y28284D01*
X16438Y28281D01*
X16971D01*
X16998Y28254D01*
Y28217D01*
X16991Y28208D01*
X16983Y28163D01*
Y27964D01*
X16969Y27931D01*
X16935Y27917D01*
X16737D01*
X16692Y27908D01*
X16654Y27883D01*
X16629Y27846D01*
X16620Y27801D01*
Y27779D01*
X16629Y27734D01*
X16653Y27695D01*
X16629Y27656D01*
X16620Y27611D01*
Y27589D01*
X16626Y27562D01*
X16595Y27512D01*
X16479D01*
X16384Y27607D01*
X16392Y27647D01*
Y27779D01*
X16383Y27823D01*
X16358Y27861D01*
X16370Y27914D01*
X16380Y27920D01*
X16412Y27968D01*
X16423Y28024D01*
Y28040D01*
X16200D01*
Y28090D01*
X16150D01*
Y28303D01*
X16124D01*
X16068Y28292D01*
X16023Y28262D01*
X15807D01*
X15764Y28253D01*
X15728Y28229D01*
X15703Y28193D01*
X15695Y28150D01*
X15703Y28107D01*
X15728Y28070D01*
X15764Y28046D01*
X15807Y28037D01*
X15977D01*
Y28024D01*
X15988Y27968D01*
X16020Y27920D01*
X16030Y27914D01*
X16042Y27861D01*
X16017Y27823D01*
X16008Y27779D01*
Y27647D01*
X16017Y27603D01*
X16042Y27565D01*
X16080Y27540D01*
X16124Y27531D01*
X16143D01*
X16287Y27387D01*
X16263Y27340D01*
X16230Y27333D01*
X16192Y27308D01*
X16178Y27288D01*
X16178Y27288D01*
X16123D01*
X16123Y27288D01*
X16109Y27308D01*
X16071Y27333D01*
X16027Y27342D01*
X15895D01*
X15851Y27333D01*
X15813Y27308D01*
X15788Y27270D01*
X15786Y27262D01*
X15711D01*
X15709Y27270D01*
X15681Y27312D01*
X15639Y27340D01*
X15589Y27350D01*
X15311D01*
X15261Y27340D01*
X15219Y27312D01*
X15191Y27270D01*
X15189Y27262D01*
X14910D01*
X14879Y27309D01*
X14806Y27357D01*
X14720Y27374D01*
X14634Y27357D01*
X14561Y27309D01*
X14513Y27236D01*
X14496Y27150D01*
X14513Y27064D01*
X14561Y26991D01*
X14634Y26943D01*
X14720Y26926D01*
X14806Y26943D01*
X14879Y26991D01*
X14910Y27038D01*
X15182D01*
X15191Y26995D01*
X15219Y26952D01*
X15261Y26924D01*
X15311Y26914D01*
X15589D01*
X15639Y26924D01*
X15681Y26952D01*
X15709Y26995D01*
X15718Y27038D01*
X15786D01*
X15788Y27030D01*
X15813Y26992D01*
X15851Y26967D01*
X15895Y26958D01*
X16027D01*
X16071Y26967D01*
X16109Y26992D01*
X16123Y27012D01*
X16123Y27012D01*
X16178D01*
X16178Y27012D01*
X16192Y26992D01*
X16230Y26967D01*
X16274Y26958D01*
X16374D01*
X16409Y26922D01*
X16409Y26922D01*
X16423Y26913D01*
X16434Y26856D01*
X16432Y26851D01*
X16374Y26792D01*
X16274D01*
X16230Y26783D01*
X16192Y26758D01*
X16178Y26738D01*
X16178Y26738D01*
X16123D01*
X16123Y26738D01*
X16109Y26758D01*
X16071Y26783D01*
X16027Y26792D01*
X15895D01*
X15851Y26783D01*
X15813Y26758D01*
X15788Y26720D01*
X15786Y26712D01*
X15718D01*
X15709Y26755D01*
X15681Y26798D01*
X15639Y26826D01*
X15589Y26836D01*
X15311D01*
X15261Y26826D01*
X15219Y26798D01*
X15191Y26755D01*
X15185Y26729D01*
X15145Y26721D01*
X15108Y26697D01*
X15108Y26697D01*
X15055Y26643D01*
X15000Y26654D01*
X14914Y26637D01*
X14841Y26589D01*
X14793Y26516D01*
X14776Y26430D01*
X14793Y26344D01*
X14841Y26271D01*
X14914Y26223D01*
X15000Y26206D01*
X15086Y26223D01*
X15159Y26271D01*
X15207Y26344D01*
X15215Y26381D01*
X15261Y26410D01*
X15311Y26400D01*
X15589D01*
X15639Y26410D01*
X15681Y26438D01*
X15709Y26480D01*
X15711Y26488D01*
X15786D01*
X15788Y26480D01*
X15813Y26442D01*
X15851Y26417D01*
X15895Y26408D01*
X15921D01*
X15926Y26358D01*
X15896Y26352D01*
X15847Y26319D01*
X15813Y26269D01*
X15802Y26211D01*
Y26138D01*
X15790Y26130D01*
X15769Y26099D01*
X15719Y26114D01*
Y26170D01*
X15709Y26220D01*
X15681Y26262D01*
X15639Y26291D01*
X15589Y26300D01*
X15311D01*
X15261Y26291D01*
X15219Y26262D01*
X15191Y26220D01*
X15181Y26170D01*
Y25995D01*
X15191Y25945D01*
X15219Y25902D01*
X15261Y25874D01*
X15311Y25864D01*
X15317D01*
Y25741D01*
X14906Y25329D01*
X14609D01*
X14600Y25379D01*
X14630Y25392D01*
X14701Y25446D01*
X14755Y25517D01*
X14790Y25600D01*
X14801Y25689D01*
X14790Y25778D01*
X14755Y25860D01*
X14701Y25931D01*
X14630Y25986D01*
X14547Y26020D01*
X14458Y26032D01*
X14370Y26020D01*
X14287Y25986D01*
X14216Y25931D01*
X14161Y25860D01*
X14127Y25778D01*
X14115Y25689D01*
X14127Y25600D01*
X14161Y25517D01*
X14216Y25446D01*
X14287Y25392D01*
X14317Y25379D01*
X14307Y25329D01*
X13819D01*
X13810Y25379D01*
X13840Y25392D01*
X13911Y25446D01*
X13965Y25517D01*
X14000Y25600D01*
X14011Y25689D01*
X14000Y25778D01*
X13965Y25860D01*
X13911Y25931D01*
X13840Y25986D01*
X13757Y26020D01*
X13668Y26032D01*
X13580Y26020D01*
X13497Y25986D01*
X13426Y25931D01*
X13371Y25860D01*
X13337Y25778D01*
X13325Y25689D01*
X13337Y25600D01*
X13371Y25517D01*
X13331Y25490D01*
X13243Y25578D01*
Y27002D01*
X13232Y27053D01*
X13204Y27096D01*
X13176Y27124D01*
X13202Y27156D01*
X13269Y27281D01*
X13310Y27417D01*
X13317Y27480D01*
X15231D01*
X15261Y27459D01*
X15311Y27450D01*
X15589D01*
X15639Y27459D01*
X15681Y27488D01*
X15709Y27530D01*
X15719Y27580D01*
Y27755D01*
X15709Y27805D01*
X15681Y27848D01*
X15639Y27876D01*
X15589Y27886D01*
X15311D01*
X15261Y27876D01*
X15219Y27848D01*
X15191Y27805D01*
X15181Y27755D01*
Y27745D01*
X13297D01*
X13269Y27837D01*
X13221Y27928D01*
X13251Y27978D01*
X13452D01*
Y27963D01*
X13832D01*
Y27978D01*
X14179D01*
X14187Y27965D01*
X14225Y27940D01*
X14269Y27931D01*
X14421D01*
X14466Y27940D01*
X14503Y27965D01*
X14512Y27978D01*
X14777D01*
X14787Y27962D01*
X14825Y27937D01*
X14869Y27928D01*
X15021D01*
X15066Y27937D01*
X15103Y27962D01*
X15129Y28000D01*
X15138Y28044D01*
Y28176D01*
X15129Y28221D01*
X15103Y28258D01*
X15114Y28312D01*
X15125Y28319D01*
X15157Y28367D01*
X15168Y28423D01*
Y28439D01*
X14722D01*
Y28423D01*
X14734Y28367D01*
X14765Y28319D01*
X14762Y28267D01*
X14742Y28243D01*
X14547D01*
X14527Y28269D01*
X14525Y28320D01*
X14557Y28368D01*
X14568Y28424D01*
Y28440D01*
X14122D01*
Y28424D01*
X14134Y28368D01*
X14165Y28320D01*
X14164Y28269D01*
X14144Y28243D01*
X13832D01*
Y28343D01*
X13611D01*
X13563Y28346D01*
X13563Y28393D01*
Y28836D01*
X13623D01*
X13642Y28832D01*
X13660Y28836D01*
X13832D01*
Y29007D01*
X13835Y29026D01*
Y29174D01*
X13870Y29201D01*
X13921Y29268D01*
X13953Y29346D01*
X13964Y29429D01*
X13953Y29513D01*
X13921Y29591D01*
X13870Y29657D01*
X13803Y29709D01*
X13725Y29741D01*
X13642Y29752D01*
X13601Y29746D01*
X13563Y29779D01*
Y29970D01*
X13553Y29980D01*
X14823Y31250D01*
X16419D01*
X16434Y31200D01*
D02*
G37*
G36*
X50433Y27480D02*
Y25591D01*
X49173Y24331D01*
Y22087D01*
X49297Y21963D01*
X49287Y21910D01*
Y21822D01*
X49535D01*
Y21772D01*
X49585D01*
Y21472D01*
X49623D01*
X49685Y21484D01*
X49737Y21519D01*
X49741Y21519D01*
X50079Y21181D01*
Y20236D01*
X49764Y19921D01*
X48583D01*
X47126Y21378D01*
Y21811D01*
X45236D01*
X45157Y21890D01*
Y24567D01*
X45748Y25157D01*
X46654D01*
X48150Y26654D01*
Y27441D01*
X48543Y27835D01*
X50079D01*
X50433Y27480D01*
D02*
G37*
G36*
X38297Y30335D02*
Y28543D01*
X38179Y28425D01*
X37018D01*
X36876Y28567D01*
X36897Y28617D01*
X36905D01*
Y28997D01*
X36388D01*
Y29087D01*
X36415D01*
Y29307D01*
Y29527D01*
X36388D01*
Y29617D01*
X36905D01*
Y29997D01*
X36388D01*
Y30087D01*
X36415D01*
Y30307D01*
X36655D01*
Y30087D01*
X36935D01*
Y30425D01*
X38207D01*
X38297Y30335D01*
D02*
G37*
G36*
X19902Y29705D02*
Y25118D01*
X19878Y25099D01*
X19828Y25122D01*
Y25635D01*
X19366D01*
X19330Y25671D01*
X19332Y25673D01*
X19349Y25759D01*
X19341Y25798D01*
X19383Y25848D01*
X19828D01*
Y26465D01*
X19838D01*
Y27085D01*
X19364D01*
X19334Y27135D01*
X19348Y27205D01*
X19340Y27248D01*
X19381Y27298D01*
X19838D01*
Y27918D01*
X19672D01*
X19640Y27953D01*
X19631Y27996D01*
X19607Y28032D01*
X19434Y28205D01*
X19459Y28251D01*
X19477Y28247D01*
X19563Y28264D01*
X19636Y28313D01*
X19684Y28386D01*
X19701Y28472D01*
X19684Y28557D01*
X19636Y28630D01*
X19572Y28673D01*
X19577Y28715D01*
X19580Y28723D01*
X19845D01*
Y29123D01*
X18681D01*
X18596Y29209D01*
X18616Y29259D01*
X19845D01*
Y29659D01*
X18553D01*
Y29655D01*
X18503Y29629D01*
X18462Y29656D01*
X18376Y29673D01*
X18290Y29656D01*
X18217Y29607D01*
X18169Y29535D01*
X18152Y29449D01*
X18155Y29431D01*
X18120Y29396D01*
X18110Y29398D01*
X18045Y29385D01*
X18020Y29431D01*
X18075Y29486D01*
Y29866D01*
X17885Y30056D01*
X17474D01*
X17377Y30152D01*
Y30313D01*
X17424Y30332D01*
X17490Y30266D01*
X17645D01*
Y30676D01*
Y31086D01*
X17490D01*
X17320Y30915D01*
X17249Y30915D01*
X16979Y31185D01*
X16957Y31200D01*
X16972Y31250D01*
X18356D01*
X19902Y29705D01*
D02*
G37*
%LPC*%
G36*
X14035Y24647D02*
X13718D01*
Y24330D01*
X13765Y24336D01*
X13855Y24374D01*
X13932Y24433D01*
X13992Y24510D01*
X14029Y24600D01*
X14035Y24647D01*
D02*
G37*
G36*
X15910Y25450D02*
X15747D01*
Y25446D01*
X15728Y25427D01*
X15718D01*
X15676Y25419D01*
X15639Y25394D01*
X15615Y25358D01*
X15606Y25315D01*
X15615Y25272D01*
X15639Y25236D01*
X15676Y25211D01*
X15718Y25203D01*
X15775D01*
X15775Y25203D01*
X15818Y25211D01*
X15854Y25236D01*
X15896Y25277D01*
X15910D01*
Y25450D01*
D02*
G37*
G36*
X13618Y24647D02*
X13302D01*
X13308Y24600D01*
X13345Y24510D01*
X13405Y24433D01*
X13482Y24374D01*
X13572Y24336D01*
X13618Y24330D01*
Y24647D01*
D02*
G37*
G36*
X16702Y22046D02*
X16387D01*
Y21926D01*
X16405Y21837D01*
X16456Y21761D01*
X16532Y21710D01*
X16622Y21692D01*
X16702D01*
Y22046D01*
D02*
G37*
G36*
X16882Y22501D02*
X16802D01*
Y22096D01*
Y21692D01*
X16882D01*
X16972Y21710D01*
X17048Y21761D01*
X17099Y21837D01*
X17108Y21883D01*
X17254D01*
X17328Y21898D01*
X17391Y21940D01*
X17433Y22003D01*
X17448Y22077D01*
X17433Y22151D01*
X17391Y22214D01*
X17328Y22256D01*
X17254Y22270D01*
X17116D01*
X17099Y22356D01*
X17048Y22432D01*
X16972Y22483D01*
X16882Y22501D01*
D02*
G37*
G36*
X16702D02*
X16622D01*
X16532Y22483D01*
X16456Y22432D01*
X16405Y22356D01*
X16387Y22266D01*
Y22146D01*
X16702D01*
Y22501D01*
D02*
G37*
G36*
X19248Y22170D02*
X18948D01*
Y22045D01*
X19248D01*
Y22170D01*
D02*
G37*
G36*
X11022Y15845D02*
X10772D01*
Y15807D01*
X10785Y15746D01*
X10820Y15693D01*
X10872Y15658D01*
X10934Y15646D01*
X11022D01*
Y15845D01*
D02*
G37*
G36*
Y16144D02*
X10934D01*
X10872Y16131D01*
X10820Y16096D01*
X10785Y16044D01*
X10772Y15982D01*
Y15945D01*
X11022D01*
Y16144D01*
D02*
G37*
G36*
X11130Y14698D02*
X10880D01*
Y14660D01*
X10892Y14599D01*
X10927Y14546D01*
X10980Y14511D01*
X11041Y14499D01*
X11130D01*
Y14698D01*
D02*
G37*
G36*
Y14996D02*
X11041D01*
X10980Y14984D01*
X10927Y14949D01*
X10892Y14897D01*
X10880Y14835D01*
Y14798D01*
X11130D01*
Y14996D01*
D02*
G37*
G36*
X13794Y18871D02*
X13544D01*
Y18672D01*
X13633D01*
X13694Y18684D01*
X13747Y18719D01*
X13782Y18772D01*
X13794Y18834D01*
Y18871D01*
D02*
G37*
G36*
X13633Y19170D02*
X13544D01*
Y18971D01*
X13794D01*
Y19008D01*
X13782Y19070D01*
X13747Y19122D01*
X13694Y19157D01*
X13633Y19170D01*
D02*
G37*
G36*
X48960Y28750D02*
X48346D01*
X48350Y28742D01*
X48432Y28634D01*
X48539Y28552D01*
X48664Y28501D01*
X48797Y28483D01*
X48960D01*
Y28750D01*
D02*
G37*
G36*
X50074D02*
X49460D01*
Y28483D01*
X49623D01*
X49756Y28501D01*
X49881Y28552D01*
X49988Y28634D01*
X50070Y28742D01*
X50074Y28750D01*
D02*
G37*
G36*
X48960Y29517D02*
X48797D01*
X48664Y29499D01*
X48539Y29448D01*
X48432Y29366D01*
X48350Y29258D01*
X48346Y29250D01*
X48960D01*
Y29517D01*
D02*
G37*
G36*
X49623D02*
X49460D01*
Y29250D01*
X50074D01*
X50070Y29258D01*
X49988Y29366D01*
X49881Y29448D01*
X49756Y29499D01*
X49623Y29517D01*
D02*
G37*
G36*
X44300Y24606D02*
X44163D01*
X43905Y24348D01*
Y23961D01*
X44300D01*
Y24606D01*
D02*
G37*
G36*
Y23721D02*
X43905D01*
Y23333D01*
X44163Y23076D01*
X44300D01*
Y23721D01*
D02*
G37*
G36*
X44678Y24606D02*
X44540D01*
Y23841D01*
Y23076D01*
X44678D01*
X44935Y23333D01*
Y24348D01*
X44678Y24606D01*
D02*
G37*
G36*
X43595Y23721D02*
X43200D01*
Y23076D01*
X43337D01*
X43595Y23333D01*
Y23721D01*
D02*
G37*
G36*
X16485Y23941D02*
X16225D01*
Y23631D01*
X16485D01*
Y23941D01*
D02*
G37*
G36*
X16860Y24444D02*
X16600D01*
Y24134D01*
X16860D01*
Y24444D01*
D02*
G37*
G36*
X32757Y16152D02*
X32668D01*
Y15954D01*
X32918D01*
Y15991D01*
X32906Y16053D01*
X32871Y16105D01*
X32818Y16140D01*
X32757Y16152D01*
D02*
G37*
G36*
X32568D02*
X32480D01*
X32418Y16140D01*
X32365Y16105D01*
X32330Y16053D01*
X32318Y15991D01*
Y15954D01*
X32568D01*
Y16152D01*
D02*
G37*
G36*
X32955Y14230D02*
X32918D01*
Y13980D01*
X33116D01*
Y14069D01*
X33104Y14130D01*
X33069Y14183D01*
X33017Y14218D01*
X32955Y14230D01*
D02*
G37*
G36*
X32818D02*
X32780D01*
X32719Y14218D01*
X32666Y14183D01*
X32631Y14130D01*
X32619Y14069D01*
Y13980D01*
X32818D01*
Y14230D01*
D02*
G37*
G36*
Y13880D02*
X32619D01*
Y13791D01*
X32631Y13730D01*
X32666Y13677D01*
X32719Y13642D01*
X32780Y13630D01*
X32818D01*
Y13880D01*
D02*
G37*
G36*
X33116D02*
X32918D01*
Y13630D01*
X32955D01*
X33017Y13642D01*
X33069Y13677D01*
X33104Y13730D01*
X33116Y13791D01*
Y13880D01*
D02*
G37*
G36*
X32568Y15854D02*
X32318D01*
Y15816D01*
X32330Y15754D01*
X32365Y15702D01*
X32418Y15667D01*
X32480Y15655D01*
X32568D01*
Y15854D01*
D02*
G37*
G36*
X32918D02*
X32668D01*
Y15655D01*
X32757D01*
X32818Y15667D01*
X32871Y15702D01*
X32906Y15754D01*
X32918Y15816D01*
Y15854D01*
D02*
G37*
G36*
X44771Y15058D02*
X44304D01*
Y14696D01*
X44322Y14562D01*
X44373Y14437D01*
X44455Y14330D01*
X44562Y14248D01*
X44687Y14196D01*
X44771Y14185D01*
Y15058D01*
D02*
G37*
G36*
X45338D02*
X44871D01*
Y14185D01*
X44955Y14196D01*
X45079Y14248D01*
X45186Y14330D01*
X45269Y14437D01*
X45320Y14562D01*
X45338Y14696D01*
Y15058D01*
D02*
G37*
G36*
X46623Y14089D02*
X46535D01*
X46473Y14077D01*
X46421Y14042D01*
X46386Y13990D01*
X46373Y13928D01*
Y13891D01*
X46623D01*
Y14089D01*
D02*
G37*
G36*
X44871Y16031D02*
Y15158D01*
X45338D01*
Y15521D01*
X45320Y15655D01*
X45269Y15779D01*
X45186Y15886D01*
X45079Y15968D01*
X44955Y16020D01*
X44871Y16031D01*
D02*
G37*
G36*
X44771D02*
X44687Y16020D01*
X44562Y15968D01*
X44455Y15886D01*
X44373Y15779D01*
X44322Y15655D01*
X44304Y15521D01*
Y15158D01*
X44771D01*
Y16031D01*
D02*
G37*
G36*
X47274Y18501D02*
X46809D01*
Y18043D01*
X47066Y17786D01*
X47274D01*
Y18501D01*
D02*
G37*
G36*
X45934Y19316D02*
X45726D01*
X45469Y19058D01*
Y18601D01*
X45934D01*
Y19316D01*
D02*
G37*
G36*
Y18501D02*
X45469D01*
Y18043D01*
X45726Y17786D01*
X45934D01*
Y18501D01*
D02*
G37*
G36*
X46499D02*
X46034D01*
Y17786D01*
X46241D01*
X46499Y18043D01*
Y18501D01*
D02*
G37*
G36*
X46241Y19316D02*
X46034D01*
Y18601D01*
X46499D01*
Y19058D01*
X46241Y19316D01*
D02*
G37*
G36*
X47274D02*
X47066D01*
X46809Y19058D01*
Y18601D01*
X47274D01*
Y19316D01*
D02*
G37*
G36*
X28284Y16678D02*
X28247D01*
Y16428D01*
X28446D01*
Y16517D01*
X28433Y16578D01*
X28398Y16631D01*
X28346Y16666D01*
X28284Y16678D01*
D02*
G37*
G36*
X28147D02*
X28109D01*
X28048Y16666D01*
X27995Y16631D01*
X27960Y16578D01*
X27948Y16517D01*
Y16428D01*
X28147D01*
Y16678D01*
D02*
G37*
G36*
X25267Y16525D02*
X25117D01*
Y16345D01*
X25267D01*
Y16525D01*
D02*
G37*
G36*
Y16245D02*
X25117D01*
Y16065D01*
X25267D01*
Y16245D01*
D02*
G37*
G36*
X25050Y16158D02*
X24800D01*
Y15959D01*
X24889D01*
X24950Y15971D01*
X25003Y16006D01*
X25038Y16059D01*
X25050Y16120D01*
Y16158D01*
D02*
G37*
G36*
X25587Y16525D02*
X25367D01*
Y16295D01*
Y16065D01*
X25587D01*
Y16295D01*
Y16525D01*
D02*
G37*
G36*
X24889Y16456D02*
X24800D01*
Y16258D01*
X25050D01*
Y16295D01*
X25038Y16357D01*
X25003Y16409D01*
X24950Y16444D01*
X24889Y16456D01*
D02*
G37*
G36*
X26470Y16245D02*
X26320D01*
Y16065D01*
X26470D01*
Y16245D01*
D02*
G37*
G36*
X24839Y18808D02*
X24676D01*
Y18782D01*
X24687Y18726D01*
X24719Y18678D01*
X24767Y18647D01*
X24823Y18635D01*
X24839D01*
Y18808D01*
D02*
G37*
G36*
X26860Y17437D02*
X26844D01*
Y17265D01*
X27007D01*
Y17291D01*
X26996Y17347D01*
X26964Y17394D01*
X26917Y17426D01*
X26860Y17437D01*
D02*
G37*
G36*
X24809Y17447D02*
X24793D01*
X24737Y17436D01*
X24689Y17404D01*
X24658Y17357D01*
X24646Y17300D01*
Y17274D01*
X24809D01*
Y17447D01*
D02*
G37*
G36*
Y17174D02*
X24646D01*
Y17148D01*
X24658Y17092D01*
X24689Y17045D01*
X24737Y17013D01*
X24793Y17002D01*
X24809D01*
Y17174D01*
D02*
G37*
G36*
X24839Y19081D02*
X24823D01*
X24767Y19070D01*
X24719Y19038D01*
X24687Y18990D01*
X24676Y18934D01*
Y18908D01*
X24839D01*
Y19081D01*
D02*
G37*
G36*
X14779Y14386D02*
X14690D01*
Y14188D01*
X14940D01*
Y14225D01*
X14928Y14287D01*
X14893Y14339D01*
X14840Y14374D01*
X14779Y14386D01*
D02*
G37*
G36*
X15600D02*
X15511D01*
X15450Y14374D01*
X15397Y14339D01*
X15362Y14287D01*
X15350Y14225D01*
Y14188D01*
X15600D01*
Y14386D01*
D02*
G37*
G36*
X14940Y14088D02*
X14690D01*
Y13889D01*
X14779D01*
X14840Y13901D01*
X14893Y13936D01*
X14928Y13989D01*
X14940Y14050D01*
Y14088D01*
D02*
G37*
G36*
X15600D02*
X15350D01*
Y14050D01*
X15362Y13989D01*
X15397Y13936D01*
X15450Y13901D01*
X15511Y13889D01*
X15600D01*
Y14088D01*
D02*
G37*
G36*
X15580Y15854D02*
X15330D01*
Y15816D01*
X15342Y15754D01*
X15377Y15702D01*
X15430Y15667D01*
X15491Y15655D01*
X15580D01*
Y15854D01*
D02*
G37*
G36*
X14936D02*
X14686D01*
Y15655D01*
X14774D01*
X14836Y15667D01*
X14889Y15702D01*
X14923Y15754D01*
X14936Y15816D01*
Y15854D01*
D02*
G37*
G36*
X22688Y14355D02*
X22540D01*
Y13988D01*
X22947D01*
Y14096D01*
X22939Y14163D01*
X22913Y14225D01*
X22871Y14279D01*
X22818Y14320D01*
X22755Y14346D01*
X22688Y14355D01*
D02*
G37*
G36*
X23450Y15086D02*
X23361D01*
X23300Y15074D01*
X23247Y15039D01*
X23212Y14987D01*
X23200Y14925D01*
Y14888D01*
X23450D01*
Y15086D01*
D02*
G37*
G36*
X39274Y17045D02*
X39022D01*
Y16711D01*
X39274D01*
Y17045D01*
D02*
G37*
G36*
X40240Y17065D02*
X39989D01*
Y16731D01*
X40240D01*
Y17065D01*
D02*
G37*
G36*
X39765Y17045D02*
X39514D01*
Y16711D01*
X39765D01*
Y17045D01*
D02*
G37*
G36*
X40941Y16022D02*
Y15228D01*
X41338D01*
Y15521D01*
X41320Y15655D01*
X41269Y15779D01*
X41186Y15886D01*
X41079Y15968D01*
X40955Y16020D01*
X40941Y16022D01*
D02*
G37*
G36*
X40701Y14988D02*
X40304D01*
Y14696D01*
X40322Y14562D01*
X40373Y14437D01*
X40455Y14330D01*
X40562Y14248D01*
X40687Y14196D01*
X40701Y14195D01*
Y14988D01*
D02*
G37*
G36*
X41338D02*
X40941D01*
Y14195D01*
X40955Y14196D01*
X41079Y14248D01*
X41186Y14330D01*
X41269Y14437D01*
X41320Y14562D01*
X41338Y14696D01*
Y14988D01*
D02*
G37*
G36*
X40701Y16022D02*
X40687Y16020D01*
X40562Y15968D01*
X40455Y15886D01*
X40373Y15779D01*
X40322Y15655D01*
X40304Y15521D01*
Y15228D01*
X40701D01*
Y16022D01*
D02*
G37*
G36*
X40732Y17065D02*
X40480D01*
Y16731D01*
X40732D01*
Y17065D01*
D02*
G37*
G36*
X40240Y17639D02*
X39989D01*
Y17305D01*
X40240D01*
Y17639D01*
D02*
G37*
G36*
X40732D02*
X40480D01*
Y17305D01*
X40732D01*
Y17639D01*
D02*
G37*
G36*
X39274Y17620D02*
X39022D01*
Y17285D01*
X39274D01*
Y17620D01*
D02*
G37*
G36*
X39765D02*
X39514D01*
Y17285D01*
X39765D01*
Y17620D01*
D02*
G37*
G36*
X49090Y32880D02*
X48296D01*
X48298Y32866D01*
X48350Y32742D01*
X48432Y32634D01*
X48539Y32552D01*
X48664Y32501D01*
X48797Y32483D01*
X49090D01*
Y32880D01*
D02*
G37*
G36*
X50124D02*
X49330D01*
Y32483D01*
X49623D01*
X49756Y32501D01*
X49881Y32552D01*
X49988Y32634D01*
X50070Y32742D01*
X50122Y32866D01*
X50124Y32880D01*
D02*
G37*
G36*
X46927Y34775D02*
X46707D01*
Y34555D01*
X46927D01*
Y34775D01*
D02*
G37*
G36*
X47387D02*
X47167D01*
Y34555D01*
X47387D01*
Y34775D01*
D02*
G37*
G36*
X49090Y33517D02*
X48797D01*
X48664Y33499D01*
X48539Y33448D01*
X48432Y33366D01*
X48350Y33258D01*
X48298Y33134D01*
X48296Y33120D01*
X49090D01*
Y33517D01*
D02*
G37*
G36*
X49623D02*
X49330D01*
Y33120D01*
X50124D01*
X50122Y33134D01*
X50070Y33258D01*
X49988Y33366D01*
X49881Y33448D01*
X49756Y33499D01*
X49623Y33517D01*
D02*
G37*
G36*
X42796Y36517D02*
X42710Y36500D01*
X42698Y36492D01*
X37048D01*
X37006Y36450D01*
Y31862D01*
X37048Y31820D01*
X39787D01*
X39807Y31812D01*
X39890Y31801D01*
X39974Y31812D01*
X39994Y31820D01*
X44050D01*
Y36492D01*
X42893D01*
X42881Y36500D01*
X42796Y36517D01*
D02*
G37*
%LPD*%
G36*
X42380Y35060D02*
X41880Y34560D01*
X41000D01*
X40720Y34280D01*
X40620D01*
Y34397D01*
X40621Y34404D01*
Y35310D01*
Y35781D01*
X40640Y35800D01*
X41130Y36290D01*
X42380D01*
Y35060D01*
D02*
G37*
G36*
X38530Y35830D02*
Y35070D01*
X38690Y34910D01*
X38848D01*
X39910Y33848D01*
X40352D01*
X40580Y33620D01*
Y33540D01*
X40550Y33510D01*
X37680D01*
X37570Y33620D01*
X37110Y34080D01*
Y35210D01*
Y36030D01*
X37290Y36210D01*
X38150D01*
X38530Y35830D01*
D02*
G37*
G36*
X40550Y35800D02*
Y35310D01*
Y34404D01*
X40549Y34402D01*
X40539Y34351D01*
Y34047D01*
X40547Y34004D01*
X40529Y33975D01*
X40517Y33960D01*
X40128D01*
X40119Y33966D01*
X40069Y33976D01*
X40044D01*
X39790Y34230D01*
X38980Y35040D01*
X38810D01*
X38690Y35160D01*
Y36050D01*
X38930Y36290D01*
X40060D01*
X40550Y35800D01*
D02*
G37*
%LPC*%
G36*
X20901Y22170D02*
X20601D01*
Y22045D01*
X20901D01*
Y22170D01*
D02*
G37*
G36*
X21739Y22046D02*
X21566D01*
Y21884D01*
X21592D01*
X21648Y21895D01*
X21696Y21927D01*
X21727Y21974D01*
X21739Y22030D01*
Y22046D01*
D02*
G37*
G36*
X35532Y12456D02*
X35325D01*
Y11741D01*
X35790D01*
Y12198D01*
X35532Y12456D01*
D02*
G37*
G36*
X36565D02*
X36357D01*
X36100Y12198D01*
Y11741D01*
X36565D01*
Y12456D01*
D02*
G37*
G36*
X19359Y14386D02*
X19270D01*
Y14188D01*
X19520D01*
Y14225D01*
X19508Y14287D01*
X19473Y14339D01*
X19420Y14374D01*
X19359Y14386D01*
D02*
G37*
G36*
X19880D02*
X19791D01*
X19730Y14374D01*
X19677Y14339D01*
X19642Y14287D01*
X19630Y14225D01*
Y14188D01*
X19880D01*
Y14386D01*
D02*
G37*
G36*
Y14088D02*
X19630D01*
Y14050D01*
X19642Y13989D01*
X19677Y13936D01*
X19730Y13901D01*
X19791Y13889D01*
X19880D01*
Y14088D01*
D02*
G37*
G36*
X19989Y15863D02*
X19739D01*
Y15826D01*
X19752Y15764D01*
X19787Y15712D01*
X19839Y15677D01*
X19901Y15665D01*
X19989D01*
Y15863D01*
D02*
G37*
G36*
X19394D02*
X19144D01*
Y15665D01*
X19233D01*
X19295Y15677D01*
X19347Y15712D01*
X19382Y15764D01*
X19394Y15826D01*
Y15863D01*
D02*
G37*
G36*
X15668Y23540D02*
X15496D01*
Y23524D01*
X15507Y23467D01*
X15539Y23420D01*
X15586Y23388D01*
X15642Y23377D01*
X15668D01*
Y23540D01*
D02*
G37*
G36*
X16158Y23021D02*
X15995D01*
Y22995D01*
X16006Y22939D01*
X16038Y22891D01*
X16085Y22859D01*
X16142Y22848D01*
X16158D01*
Y23021D01*
D02*
G37*
G36*
X14895Y28702D02*
X14869D01*
X14813Y28691D01*
X14765Y28659D01*
X14734Y28611D01*
X14722Y28555D01*
Y28539D01*
X14895D01*
Y28702D01*
D02*
G37*
G36*
X14421Y28703D02*
X14395D01*
Y28540D01*
X14568D01*
Y28556D01*
X14557Y28612D01*
X14525Y28660D01*
X14477Y28692D01*
X14421Y28703D01*
D02*
G37*
G36*
X15021Y28702D02*
X14995D01*
Y28539D01*
X15168D01*
Y28555D01*
X15157Y28611D01*
X15125Y28659D01*
X15077Y28691D01*
X15021Y28702D01*
D02*
G37*
G36*
X14295Y28703D02*
X14269D01*
X14213Y28692D01*
X14165Y28660D01*
X14134Y28612D01*
X14122Y28556D01*
Y28540D01*
X14295D01*
Y28703D01*
D02*
G37*
G36*
X49160Y26950D02*
X48287D01*
X48298Y26866D01*
X48350Y26742D01*
X48432Y26634D01*
X48539Y26552D01*
X48664Y26501D01*
X48797Y26483D01*
X49160D01*
Y26950D01*
D02*
G37*
G36*
X50133D02*
X49260D01*
Y26483D01*
X49623D01*
X49756Y26501D01*
X49881Y26552D01*
X49988Y26634D01*
X50070Y26742D01*
X50122Y26866D01*
X50133Y26950D01*
D02*
G37*
G36*
X49160Y27517D02*
X48797D01*
X48664Y27499D01*
X48539Y27448D01*
X48432Y27366D01*
X48350Y27258D01*
X48298Y27134D01*
X48287Y27050D01*
X49160D01*
Y27517D01*
D02*
G37*
G36*
X49623D02*
X49260D01*
Y27050D01*
X50133D01*
X50122Y27134D01*
X50070Y27258D01*
X49988Y27366D01*
X49881Y27448D01*
X49756Y27499D01*
X49623Y27517D01*
D02*
G37*
G36*
X46241Y24616D02*
X46034D01*
Y23901D01*
X46499D01*
Y24358D01*
X46241Y24616D01*
D02*
G37*
G36*
X47274D02*
X47066D01*
X46809Y24358D01*
Y23901D01*
X47274D01*
Y24616D01*
D02*
G37*
G36*
X45934D02*
X45726D01*
X45469Y24358D01*
Y23901D01*
X45934D01*
Y24616D01*
D02*
G37*
G36*
X47581D02*
X47374D01*
Y23901D01*
X47839D01*
Y24358D01*
X47581Y24616D01*
D02*
G37*
G36*
X47274Y23801D02*
X46809D01*
Y23343D01*
X47066Y23086D01*
X47274D01*
Y23801D01*
D02*
G37*
G36*
X47839D02*
X47374D01*
Y23086D01*
X47581D01*
X47839Y23343D01*
Y23801D01*
D02*
G37*
G36*
X45934D02*
X45469D01*
Y23343D01*
X45726Y23086D01*
X45934D01*
Y23801D01*
D02*
G37*
G36*
X46499D02*
X46034D01*
Y23086D01*
X46241D01*
X46499Y23343D01*
Y23801D01*
D02*
G37*
G36*
X49485Y21722D02*
X49287D01*
Y21633D01*
X49299Y21571D01*
X49334Y21519D01*
X49386Y21484D01*
X49448Y21472D01*
X49485D01*
Y21722D01*
D02*
G37*
G36*
X36935Y29187D02*
X36655D01*
Y29087D01*
X36935D01*
Y29187D01*
D02*
G37*
G36*
Y29527D02*
X36655D01*
Y29427D01*
X36935D01*
Y29527D01*
D02*
G37*
G36*
X17900Y31086D02*
X17745D01*
Y30726D01*
X18105D01*
Y30881D01*
X17900Y31086D01*
D02*
G37*
G36*
X18105Y30626D02*
X17745D01*
Y30266D01*
X17900D01*
X18105Y30471D01*
Y30626D01*
D02*
G37*
%LPD*%
D10*
X50263Y11811D02*
G03*
X50263Y11811I-1050J0D01*
G01*
X12861D02*
G03*
X12861Y11811I-1050J0D01*
G01*
Y35827D02*
G03*
X12861Y35827I-1050J0D01*
G01*
X50263D02*
G03*
X50263Y35827I-1050J0D01*
G01*
D11*
X47254Y13841D02*
D03*
Y13305D02*
D03*
X46673Y13841D02*
D03*
Y13305D02*
D03*
X40295Y18098D02*
D03*
Y18634D02*
D03*
X39360Y18098D02*
D03*
Y18634D02*
D03*
X15450Y26618D02*
D03*
Y26082D02*
D03*
X15450Y27132D02*
D03*
Y27668D02*
D03*
X32008Y28181D02*
D03*
Y27646D02*
D03*
X47008Y36803D02*
D03*
Y36268D02*
D03*
X14390Y30199D02*
D03*
Y29663D02*
D03*
X43858Y26055D02*
D03*
Y25520D02*
D03*
X44449Y26055D02*
D03*
Y25520D02*
D03*
X45748Y26134D02*
D03*
Y25598D02*
D03*
X19095Y18394D02*
D03*
Y18929D02*
D03*
X14843Y18384D02*
D03*
Y18919D02*
D03*
X23858Y18386D02*
D03*
Y18921D02*
D03*
X32776Y18386D02*
D03*
Y18921D02*
D03*
X35069Y26346D02*
D03*
Y26882D02*
D03*
X35020Y28502D02*
D03*
Y29037D02*
D03*
X22205Y23339D02*
D03*
Y22803D02*
D03*
X32008Y26409D02*
D03*
Y25874D02*
D03*
Y25228D02*
D03*
Y24693D02*
D03*
X35059Y25789D02*
D03*
Y25254D02*
D03*
X43540Y34728D02*
D03*
Y34192D02*
D03*
X42805Y35434D02*
D03*
Y35969D02*
D03*
X43376D02*
D03*
Y35434D02*
D03*
X14121Y18921D02*
D03*
Y18386D02*
D03*
X14843Y17163D02*
D03*
Y17699D02*
D03*
X14636Y16439D02*
D03*
Y15904D02*
D03*
X13494Y18921D02*
D03*
Y18386D02*
D03*
X18543Y18929D02*
D03*
Y18394D02*
D03*
X19291Y17163D02*
D03*
Y17699D02*
D03*
X19094Y16449D02*
D03*
Y15913D02*
D03*
X17992Y18929D02*
D03*
Y18394D02*
D03*
X22982Y18919D02*
D03*
Y18384D02*
D03*
X23622Y17163D02*
D03*
Y17699D02*
D03*
X22411Y18919D02*
D03*
Y18384D02*
D03*
X31722Y18921D02*
D03*
Y18386D02*
D03*
X32618Y17163D02*
D03*
Y17699D02*
D03*
Y16439D02*
D03*
Y15904D02*
D03*
X31152Y18921D02*
D03*
Y18386D02*
D03*
X30350Y18382D02*
D03*
Y18918D02*
D03*
X21550Y18382D02*
D03*
Y18918D02*
D03*
X17150Y18382D02*
D03*
Y18918D02*
D03*
X12648Y18394D02*
D03*
Y18929D02*
D03*
X40581Y21695D02*
D03*
Y21159D02*
D03*
X11072Y16430D02*
D03*
Y15895D02*
D03*
X15630Y16439D02*
D03*
Y15904D02*
D03*
X20039Y16449D02*
D03*
Y15913D02*
D03*
X39930Y33222D02*
D03*
Y33758D02*
D03*
X29260Y12872D02*
D03*
Y13408D02*
D03*
X19930Y14138D02*
D03*
Y13602D02*
D03*
X23490Y13498D02*
D03*
Y12962D02*
D03*
X23500Y14838D02*
D03*
Y14302D02*
D03*
X24750Y16208D02*
D03*
Y15672D02*
D03*
X11180Y14748D02*
D03*
Y14212D02*
D03*
X15650Y14138D02*
D03*
Y13602D02*
D03*
X14640Y14138D02*
D03*
Y13602D02*
D03*
X19220Y14138D02*
D03*
Y13602D02*
D03*
D12*
X37833Y17904D02*
D03*
X38368D02*
D03*
X42039Y17923D02*
D03*
X41504D02*
D03*
X12312Y29650D02*
D03*
X12848D02*
D03*
X12312Y28850D02*
D03*
X12848D02*
D03*
X31494Y23258D02*
D03*
X32030D02*
D03*
X46921Y30906D02*
D03*
X46386D02*
D03*
X45323Y30905D02*
D03*
X45858D02*
D03*
X21504Y27835D02*
D03*
X22039D02*
D03*
X35996Y28996D02*
D03*
X35461D02*
D03*
X31921Y28780D02*
D03*
X31386D02*
D03*
X31494Y22559D02*
D03*
X32030D02*
D03*
Y21378D02*
D03*
X31494D02*
D03*
X35996Y28524D02*
D03*
X35461D02*
D03*
X35382Y28002D02*
D03*
X35917D02*
D03*
X23669Y16457D02*
D03*
X24205D02*
D03*
X49535Y21772D02*
D03*
X50071D02*
D03*
X28732Y16378D02*
D03*
X28197D02*
D03*
X34195Y13238D02*
D03*
X33659D02*
D03*
X36376Y30925D02*
D03*
X36911D02*
D03*
X13958Y13000D02*
D03*
X13422D02*
D03*
X29942Y13030D02*
D03*
X30478D02*
D03*
X31608Y13040D02*
D03*
X31072D02*
D03*
X32868Y13930D02*
D03*
X32332D02*
D03*
X17878Y12960D02*
D03*
X17342D02*
D03*
X15085Y13000D02*
D03*
X14550D02*
D03*
X18680Y12960D02*
D03*
X19215D02*
D03*
D13*
X38708Y28807D02*
D03*
Y29307D02*
D03*
Y30307D02*
D03*
X36535Y28807D02*
D03*
Y29307D02*
D03*
Y30307D02*
D03*
X38708Y29807D02*
D03*
X36535D02*
D03*
D14*
X46142Y33196D02*
D03*
X42559Y27605D02*
D03*
D15*
X46892Y31752D02*
D03*
X46392D02*
D03*
X45892D02*
D03*
X45392D02*
D03*
X41809Y26161D02*
D03*
X42309D02*
D03*
X42809D02*
D03*
X43309D02*
D03*
D16*
X29318Y27562D02*
D03*
Y27365D02*
D03*
Y27169D02*
D03*
Y26972D02*
D03*
Y26775D02*
D03*
Y26578D02*
D03*
Y26381D02*
D03*
Y26184D02*
D03*
Y25987D02*
D03*
Y25791D02*
D03*
Y25594D02*
D03*
Y25397D02*
D03*
Y25200D02*
D03*
Y25000D02*
D03*
Y24800D02*
D03*
Y24600D02*
D03*
Y24410D02*
D03*
Y24210D02*
D03*
Y24010D02*
D03*
Y23820D02*
D03*
Y23620D02*
D03*
Y23420D02*
D03*
Y23230D02*
D03*
Y23030D02*
D03*
Y22830D02*
D03*
X23018D02*
D03*
Y23030D02*
D03*
Y23230D02*
D03*
Y23420D02*
D03*
Y23620D02*
D03*
Y23820D02*
D03*
Y24010D02*
D03*
Y24210D02*
D03*
Y24410D02*
D03*
Y24600D02*
D03*
Y24800D02*
D03*
Y25000D02*
D03*
Y25200D02*
D03*
Y25397D02*
D03*
Y25594D02*
D03*
Y25791D02*
D03*
Y25987D02*
D03*
Y26184D02*
D03*
Y26381D02*
D03*
Y26578D02*
D03*
Y26775D02*
D03*
Y26972D02*
D03*
Y27169D02*
D03*
Y27365D02*
D03*
Y27562D02*
D03*
D17*
X28538Y22050D02*
D03*
X28338D02*
D03*
X28138D02*
D03*
X27948D02*
D03*
X27748D02*
D03*
X27548D02*
D03*
X27358D02*
D03*
X27158D02*
D03*
X26958D02*
D03*
X26768D02*
D03*
X26568D02*
D03*
X26368D02*
D03*
X26168D02*
D03*
X25971D02*
D03*
X25774D02*
D03*
X25577D02*
D03*
X25380D02*
D03*
X25184D02*
D03*
X24987D02*
D03*
X24790D02*
D03*
X24593D02*
D03*
X24396D02*
D03*
X24199D02*
D03*
X24003D02*
D03*
X23806D02*
D03*
Y28350D02*
D03*
X24003D02*
D03*
X24199D02*
D03*
X24396D02*
D03*
X24593D02*
D03*
X24790D02*
D03*
X24987D02*
D03*
X25184D02*
D03*
X25380D02*
D03*
X25577D02*
D03*
X25774D02*
D03*
X25971D02*
D03*
X26168D02*
D03*
X26368D02*
D03*
X26568D02*
D03*
X26768D02*
D03*
X26958D02*
D03*
X27158D02*
D03*
X27358D02*
D03*
X27548D02*
D03*
X27748D02*
D03*
X27948D02*
D03*
X28138D02*
D03*
X28338D02*
D03*
X28538D02*
D03*
D18*
X17110Y26155D02*
D03*
X17300D02*
D03*
X17500D02*
D03*
X17700D02*
D03*
X17898D02*
D03*
X18095D02*
D03*
X18292D02*
D03*
X18489D02*
D03*
Y28050D02*
D03*
X18292D02*
D03*
X18095D02*
D03*
X17898D02*
D03*
X17700D02*
D03*
X17500D02*
D03*
X17300D02*
D03*
X17110D02*
D03*
X13563Y17705D02*
D03*
X13366D02*
D03*
X13169D02*
D03*
X12972D02*
D03*
X12774D02*
D03*
X12574D02*
D03*
X12374D02*
D03*
X12184D02*
D03*
Y15810D02*
D03*
X12374D02*
D03*
X12574D02*
D03*
X12774D02*
D03*
X12972D02*
D03*
X13169D02*
D03*
X13366D02*
D03*
X13563D02*
D03*
X18072Y17705D02*
D03*
X17875D02*
D03*
X17678D02*
D03*
X17481D02*
D03*
X17283D02*
D03*
X17083D02*
D03*
X16883D02*
D03*
X16693D02*
D03*
Y15810D02*
D03*
X16883D02*
D03*
X17083D02*
D03*
X17283D02*
D03*
X17481D02*
D03*
X17678D02*
D03*
X17875D02*
D03*
X18072D02*
D03*
X22458Y17705D02*
D03*
X22261D02*
D03*
X22065D02*
D03*
X21868D02*
D03*
X21669D02*
D03*
X21469D02*
D03*
X21269D02*
D03*
X21079D02*
D03*
Y15810D02*
D03*
X21269D02*
D03*
X21469D02*
D03*
X21669D02*
D03*
X21868D02*
D03*
X22065D02*
D03*
X22261D02*
D03*
X22458D02*
D03*
X31339Y17636D02*
D03*
X31142D02*
D03*
X30945D02*
D03*
X30748D02*
D03*
X30550D02*
D03*
X30350D02*
D03*
X30150D02*
D03*
X29960D02*
D03*
Y15741D02*
D03*
X30150D02*
D03*
X30350D02*
D03*
X30550D02*
D03*
X30748D02*
D03*
X30945D02*
D03*
X31142D02*
D03*
X31339D02*
D03*
D19*
X18745Y26411D02*
D03*
Y26608D02*
D03*
Y26805D02*
D03*
Y27002D02*
D03*
Y27200D02*
D03*
Y27400D02*
D03*
Y27600D02*
D03*
Y27790D02*
D03*
X16850D02*
D03*
Y27600D02*
D03*
Y27400D02*
D03*
Y27200D02*
D03*
Y27002D02*
D03*
Y26805D02*
D03*
Y26608D02*
D03*
Y26411D02*
D03*
X13819Y16070D02*
D03*
Y16260D02*
D03*
Y16460D02*
D03*
Y16660D02*
D03*
Y16859D02*
D03*
Y17055D02*
D03*
Y17252D02*
D03*
Y17449D02*
D03*
X11924D02*
D03*
Y17252D02*
D03*
Y17055D02*
D03*
Y16859D02*
D03*
Y16660D02*
D03*
Y16460D02*
D03*
Y16260D02*
D03*
Y16070D02*
D03*
X18328D02*
D03*
Y16260D02*
D03*
Y16460D02*
D03*
Y16660D02*
D03*
Y16859D02*
D03*
Y17055D02*
D03*
Y17252D02*
D03*
Y17449D02*
D03*
X16433D02*
D03*
Y17252D02*
D03*
Y17055D02*
D03*
Y16859D02*
D03*
Y16660D02*
D03*
Y16460D02*
D03*
Y16260D02*
D03*
Y16070D02*
D03*
X22714D02*
D03*
Y16260D02*
D03*
Y16460D02*
D03*
Y16660D02*
D03*
Y16859D02*
D03*
Y17055D02*
D03*
Y17252D02*
D03*
Y17449D02*
D03*
X20819D02*
D03*
Y17252D02*
D03*
Y17055D02*
D03*
Y16859D02*
D03*
Y16660D02*
D03*
Y16460D02*
D03*
Y16260D02*
D03*
Y16070D02*
D03*
X31594Y16001D02*
D03*
Y16191D02*
D03*
Y16391D02*
D03*
Y16591D02*
D03*
Y16790D02*
D03*
Y16986D02*
D03*
Y17183D02*
D03*
Y17380D02*
D03*
X29700D02*
D03*
Y17183D02*
D03*
Y16986D02*
D03*
Y16790D02*
D03*
Y16591D02*
D03*
Y16391D02*
D03*
Y16191D02*
D03*
Y16001D02*
D03*
D20*
X17800Y27100D02*
D03*
D21*
X12874Y16760D02*
D03*
X17383D02*
D03*
X21769D02*
D03*
X30650Y16691D02*
D03*
D22*
X10482Y10522D02*
D03*
Y37126D02*
D03*
X50512Y10482D02*
D03*
D23*
X10630Y28850D02*
D03*
X11463D02*
D03*
X10630Y29650D02*
D03*
X11463D02*
D03*
X35863Y27451D02*
D03*
X35030D02*
D03*
D24*
X19518Y26158D02*
D03*
Y25325D02*
D03*
X19528Y26775D02*
D03*
Y27608D02*
D03*
X47047Y34895D02*
D03*
Y35728D02*
D03*
X45118Y26444D02*
D03*
Y25610D02*
D03*
X35699Y26394D02*
D03*
Y25561D02*
D03*
D25*
X16175Y24494D02*
D03*
Y23581D02*
D03*
X16910D02*
D03*
Y24494D02*
D03*
X21766Y25367D02*
D03*
Y26280D02*
D03*
X21031D02*
D03*
Y25367D02*
D03*
D26*
X42211Y35650D02*
D03*
X39889D02*
D03*
D27*
X13642Y29026D02*
D03*
Y28153D02*
D03*
X31339Y27283D02*
D03*
Y28157D02*
D03*
D28*
X49478Y20679D02*
D03*
Y18308D02*
D03*
D29*
X30315Y26299D02*
D03*
X30866D02*
D03*
X30285Y25433D02*
D03*
X30837D02*
D03*
X21024Y27953D02*
D03*
X20472D02*
D03*
X30315Y24528D02*
D03*
X30866D02*
D03*
D30*
X31339Y26890D02*
D03*
Y26339D02*
D03*
Y25354D02*
D03*
Y25906D02*
D03*
X14892Y30197D02*
D03*
Y29646D02*
D03*
X31339Y24724D02*
D03*
Y24173D02*
D03*
D31*
X45945Y36654D02*
D03*
Y35076D02*
D03*
X46732Y26181D02*
D03*
Y27759D02*
D03*
X33858Y14094D02*
D03*
Y15672D02*
D03*
X41545Y21545D02*
D03*
Y19968D02*
D03*
D32*
X37513Y35650D02*
D03*
X39090D02*
D03*
D33*
X20951Y23975D02*
D03*
Y23725D02*
D03*
X18898Y22220D02*
D03*
X20951Y22470D02*
D03*
X18898D02*
D03*
Y22970D02*
D03*
X20951Y22220D02*
D03*
X18898Y22720D02*
D03*
X20951D02*
D03*
Y22970D02*
D03*
Y23475D02*
D03*
X18898Y23225D02*
D03*
Y23475D02*
D03*
Y23975D02*
D03*
X20951Y23225D02*
D03*
X18898Y23725D02*
D03*
D34*
X13632Y13938D02*
D03*
Y15058D02*
D03*
X12175Y13938D02*
D03*
Y15058D02*
D03*
X18091Y13938D02*
D03*
Y15058D02*
D03*
X16644Y13938D02*
D03*
Y15058D02*
D03*
X22490Y13938D02*
D03*
Y15058D02*
D03*
X21004Y13938D02*
D03*
Y15058D02*
D03*
X31398Y13938D02*
D03*
Y15058D02*
D03*
X29921Y13938D02*
D03*
Y15058D02*
D03*
D35*
X15961Y26600D02*
D03*
X16340D02*
D03*
X15961Y27150D02*
D03*
X16340D02*
D03*
X43451Y33710D02*
D03*
X43830D02*
D03*
X30128Y27106D02*
D03*
X30505D02*
D03*
X22372Y26909D02*
D03*
X21995D02*
D03*
X25679Y21378D02*
D03*
X26056D02*
D03*
X20896Y27441D02*
D03*
X20519D02*
D03*
X16337Y25500D02*
D03*
X15960D02*
D03*
X16337Y25950D02*
D03*
X15960D02*
D03*
X16585Y23071D02*
D03*
X16208D02*
D03*
X17904Y25758D02*
D03*
X17527D02*
D03*
X21486Y24872D02*
D03*
X21109D02*
D03*
X30285Y26693D02*
D03*
X30662D02*
D03*
X30285Y25827D02*
D03*
X30662D02*
D03*
X30128Y27598D02*
D03*
X30505D02*
D03*
X26417Y18848D02*
D03*
X26794D02*
D03*
X26417Y17215D02*
D03*
X26794D02*
D03*
X26014Y18858D02*
D03*
X25637D02*
D03*
X26014Y17224D02*
D03*
X25637D02*
D03*
X25266Y18858D02*
D03*
X24889D02*
D03*
X25236Y17224D02*
D03*
X24859D02*
D03*
X30285Y24961D02*
D03*
X30662D02*
D03*
X43067Y34760D02*
D03*
X42690D02*
D03*
D36*
X14945Y28489D02*
D03*
Y28110D02*
D03*
X30000Y23396D02*
D03*
Y23773D02*
D03*
X22215Y24006D02*
D03*
Y24383D02*
D03*
X16200Y27713D02*
D03*
Y28090D02*
D03*
X15718Y23967D02*
D03*
Y23590D02*
D03*
X20561Y25768D02*
D03*
Y25391D02*
D03*
X26811Y29262D02*
D03*
Y29639D02*
D03*
X18337Y22028D02*
D03*
Y22405D02*
D03*
X21516Y22096D02*
D03*
Y22473D02*
D03*
X21506Y24183D02*
D03*
Y23806D02*
D03*
X18327Y24124D02*
D03*
Y23747D02*
D03*
X14345Y28113D02*
D03*
Y28490D02*
D03*
D37*
X41982Y17185D02*
D03*
X40360D02*
D03*
X37772Y17165D02*
D03*
X39394D02*
D03*
D38*
X19675Y29459D02*
D03*
X19360D02*
D03*
X19043D02*
D03*
X18723D02*
D03*
Y28923D02*
D03*
X19043D02*
D03*
X19360D02*
D03*
X19675D02*
D03*
X26270Y19783D02*
D03*
X25955D02*
D03*
X25637D02*
D03*
X25317D02*
D03*
Y19248D02*
D03*
X25637D02*
D03*
X25955D02*
D03*
X26270D02*
D03*
Y18228D02*
D03*
X25955D02*
D03*
X25637D02*
D03*
X25317D02*
D03*
Y17693D02*
D03*
X25637D02*
D03*
X25955D02*
D03*
X26270D02*
D03*
Y16831D02*
D03*
X25955D02*
D03*
X25637D02*
D03*
X25317D02*
D03*
Y16295D02*
D03*
X25637D02*
D03*
X25955D02*
D03*
X26270D02*
D03*
D39*
X41828Y32590D02*
D03*
X42872D02*
D03*
D40*
X15998Y22096D02*
D03*
X16752D02*
D03*
X40660Y32600D02*
D03*
X39906D02*
D03*
D41*
X30315Y28281D02*
D03*
Y29035D02*
D03*
X43650Y32360D02*
D03*
Y33114D02*
D03*
D42*
X38300Y34202D02*
D03*
Y32898D02*
D03*
D43*
X28957Y19990D02*
D03*
X27028Y16437D02*
D03*
X24547Y17874D02*
D03*
D44*
X49606Y10866D02*
D03*
X48819D02*
D03*
X48268Y11417D02*
D03*
Y12205D02*
D03*
X48819Y12756D02*
D03*
X49606D02*
D03*
X50157Y12205D02*
D03*
Y11417D02*
D03*
X12205Y10866D02*
D03*
X11417D02*
D03*
X10866Y11417D02*
D03*
Y12205D02*
D03*
X11417Y12756D02*
D03*
X12205D02*
D03*
X12756Y12205D02*
D03*
Y11417D02*
D03*
X12205Y34882D02*
D03*
X11417D02*
D03*
X10866Y35433D02*
D03*
Y36220D02*
D03*
X11417Y36772D02*
D03*
X12205D02*
D03*
X12756Y36220D02*
D03*
Y35433D02*
D03*
X49606Y34882D02*
D03*
X48819D02*
D03*
X48268Y35433D02*
D03*
Y36220D02*
D03*
X48819Y36772D02*
D03*
X49606D02*
D03*
X50157Y36220D02*
D03*
Y35433D02*
D03*
X37008Y27913D02*
D03*
X38008D02*
D03*
D45*
X41947Y33766D02*
D03*
D46*
X41002Y34159D02*
D03*
Y33963D02*
D03*
Y33766D02*
D03*
Y33569D02*
D03*
Y33372D02*
D03*
X42892Y34159D02*
D03*
Y33963D02*
D03*
Y33766D02*
D03*
Y33569D02*
D03*
Y33372D02*
D03*
D47*
X39941Y18632D02*
X39943Y18634D01*
X40295D01*
X39350Y18996D02*
X39360Y18986D01*
Y18634D02*
Y18986D01*
X38368Y18191D02*
X38435Y18258D01*
X38368Y17904D02*
Y18191D01*
X33659Y12079D02*
X33888Y11850D01*
X33659Y12079D02*
Y13238D01*
X11575Y14180D02*
Y16014D01*
Y13682D02*
Y13950D01*
X11543Y13982D02*
X11575Y13950D01*
X11543Y13982D02*
Y14212D01*
X47254Y15561D02*
X47362Y15669D01*
X47254Y13841D02*
Y15561D01*
X46673Y13841D02*
X47254D01*
X47512Y13305D02*
X47520Y13297D01*
X47254Y13305D02*
X47512D01*
X46663Y13071D02*
X46673Y13081D01*
Y13305D01*
X37498Y30307D02*
X37569Y30236D01*
X36535Y30307D02*
X37498D01*
X39144Y28888D02*
Y29222D01*
X39063Y28807D02*
X39144Y28888D01*
X38708Y28807D02*
X39063D01*
X39059Y29307D02*
X39144Y29222D01*
X38708Y29307D02*
X39059D01*
X12723Y13555D02*
X14071Y12207D01*
X19990Y12250D02*
X20760Y11480D01*
X19840Y12400D02*
X19990Y12250D01*
X18240D02*
X19990D01*
X14071Y12207D02*
X14943D01*
X12416Y13423D02*
X13600Y12239D01*
Y11912D02*
Y12239D01*
Y11912D02*
X14094Y11417D01*
X43326Y32790D02*
X43650Y33114D01*
X43072Y32790D02*
X43326D01*
X42872Y32590D02*
X43072Y32790D01*
X46095Y36803D02*
X46575D01*
X36100Y31268D02*
Y31800D01*
Y31268D02*
X36300Y31068D01*
X41828Y32590D02*
X41838Y32580D01*
X42220D01*
X43330Y32040D02*
X43650Y32360D01*
X43290Y32040D02*
X43330D01*
X40660Y32600D02*
X41130D01*
X42460Y32160D02*
Y32178D01*
X42872Y32590D01*
X32504Y12614D02*
X32996Y12122D01*
X32008Y13110D02*
X32504Y12614D01*
X24878Y11417D02*
Y12848D01*
X25878Y11417D02*
Y14173D01*
X24878Y13240D02*
Y14173D01*
X16866Y12790D02*
X16891D01*
X12723Y13555D02*
Y15358D01*
X12574Y15507D02*
X12723Y15358D01*
X29960Y15096D02*
Y15433D01*
X29921Y15058D02*
X29960Y15096D01*
X48937Y21772D02*
X49535D01*
X21635Y13508D02*
X22082Y13061D01*
X21945Y13637D02*
X22149Y13433D01*
X30853Y13281D02*
Y15380D01*
X30945Y15472D01*
X32996Y11417D02*
Y12122D01*
X31873Y16001D02*
X32008Y15866D01*
X29996Y11417D02*
X30000Y11421D01*
X30354Y15472D02*
X30486Y15341D01*
X31339Y15117D02*
X31398Y15058D01*
X31339Y15117D02*
Y15433D01*
X27874Y16378D02*
X28197D01*
X11152Y16460D02*
X11614D01*
X11102D02*
X11152D01*
X11072Y16430D02*
X11102Y16460D01*
X14155Y16439D02*
X14636D01*
X15630D02*
X16121D01*
X18661Y16460D02*
X19083D01*
X19094Y16449D01*
X23031Y16460D02*
X23035Y16457D01*
X23669D01*
X20039Y16449D02*
X20504D01*
X20459Y13637D02*
Y15971D01*
X20463Y15974D01*
X11072Y15895D02*
X11191Y15776D01*
Y15581D02*
Y15776D01*
X11575Y16014D02*
X11631Y16070D01*
X15939Y22037D02*
X15998Y22096D01*
X16772Y22077D02*
X17254D01*
X12598Y27514D02*
Y27559D01*
Y22827D02*
Y27514D01*
X16337Y25500D02*
X16368Y25531D01*
X16604D01*
X15551Y22543D02*
Y22579D01*
Y22543D02*
X15998Y22096D01*
X22447Y25309D02*
Y25709D01*
X11575Y13682D02*
X11834Y13423D01*
X12416D01*
X16053Y15906D02*
X16093Y15945D01*
X13033Y13684D02*
Y15355D01*
X23110Y15945D02*
X23472Y15583D01*
X27878Y11417D02*
Y14173D01*
X26878Y11417D02*
Y14173D01*
X27878D02*
Y14907D01*
X27202Y15583D02*
X27878Y14907D01*
X23472Y15583D02*
X27202D01*
X26878Y14173D02*
Y14899D01*
X26504Y15273D02*
X26878Y14899D01*
X25878Y14173D02*
Y14870D01*
X25785Y14963D02*
X25878Y14870D01*
X24675Y14963D02*
X25785D01*
X24388Y14676D02*
X24675Y14963D01*
X20760Y11417D02*
Y11480D01*
X13033Y15355D02*
X13169Y15492D01*
X16644Y15058D02*
X16693Y15107D01*
X16693Y15463D02*
X16693Y15107D01*
X13563Y15127D02*
X13632Y15058D01*
X13563Y15127D02*
Y15482D01*
X14094Y11417D02*
X14642D01*
X12175Y15048D02*
X12184Y15057D01*
Y15481D01*
X20394Y25000D02*
X20832Y24562D01*
X21699D01*
X20394Y25000D02*
Y25000D01*
X20251Y25143D02*
X20394Y25000D01*
X20482Y24911D01*
X20630D01*
X20251Y25143D02*
Y26238D01*
X20942Y26929D01*
X21654D01*
X18071Y15078D02*
X18091Y15058D01*
X18071Y15078D02*
Y15472D01*
X21079Y15133D02*
Y15528D01*
X21004Y15058D02*
X21079Y15133D01*
X22458Y15090D02*
Y15529D01*
Y15090D02*
X22490Y15058D01*
X21699Y24562D02*
X22447Y25309D01*
X21469Y15460D02*
X21635Y15294D01*
X21945Y15370D02*
X22065Y15490D01*
X17083Y15476D02*
X17195Y15364D01*
X17510Y15325D02*
X17678Y15493D01*
X13642Y29026D02*
Y29429D01*
X15470Y22037D02*
X15939D01*
X14458Y23049D02*
Y24697D01*
Y23049D02*
X15470Y22037D01*
X13033Y13684D02*
X13329Y13387D01*
X14163D01*
X14550Y13000D01*
Y12958D02*
Y13000D01*
X16053Y13602D02*
X16866Y12790D01*
X16053Y13602D02*
Y15906D01*
X14213Y13880D02*
X14490Y13602D01*
X14640D01*
X16083Y12827D02*
X16351D01*
X14640Y13602D02*
X15063D01*
X16891Y12790D02*
X17456Y12224D01*
X17342Y12914D02*
Y12960D01*
X17195Y13061D02*
X17319Y12937D01*
X19215Y12960D02*
Y13015D01*
X18797Y13433D02*
X19215Y13015D01*
X13958Y12992D02*
Y13000D01*
Y12992D02*
X14370Y12580D01*
X15063Y13602D02*
X15465Y13200D01*
X15710D01*
X16083Y12827D01*
X28873Y12540D02*
Y13063D01*
X29218Y13408D01*
X29260D01*
X29331Y13478D02*
Y15866D01*
X29260Y13408D02*
X29331Y13478D01*
X24704Y13022D02*
X24878Y12848D01*
X24265Y12627D02*
X24878Y13240D01*
X14213Y13880D02*
Y15974D01*
X15642Y11417D02*
Y11508D01*
X14550Y12958D02*
X14991Y12517D01*
X15071D01*
X16642Y11417D02*
Y11778D01*
X16190Y12230D02*
X16642Y11778D01*
X17642Y11417D02*
Y11537D01*
X16351Y12827D02*
X16750Y12429D01*
X17510Y13610D02*
X17687Y13433D01*
X18797D01*
X18623Y11417D02*
X19760D01*
X17342Y12914D02*
X17722Y12534D01*
X20459Y13637D02*
X20663Y13433D01*
X21272D01*
X21054Y13123D02*
X21279Y12899D01*
X20534Y13123D02*
X21054D01*
X20503Y13154D02*
X20534Y13123D01*
X19616Y13154D02*
X20503D01*
X18701Y14070D02*
X19616Y13154D01*
X20333Y12844D02*
X21760Y11417D01*
X19215Y12960D02*
X19331Y12844D01*
X20333D01*
X22840Y13433D02*
X23500Y14093D01*
Y14302D01*
X22149Y13433D02*
X22840D01*
X23500Y14302D02*
X23542D01*
X24513Y15273D01*
X26504D01*
X22082Y13061D02*
X23391D01*
X23490Y12962D01*
X21279Y12899D02*
X22760Y11417D01*
X21635Y13508D02*
Y15294D01*
X21945Y13637D02*
Y15370D01*
X23490Y12962D02*
X23920D01*
X24388Y13430D01*
Y14676D01*
X21272Y13433D02*
X22078Y12627D01*
X24309D02*
X24704Y13022D01*
X22078Y12627D02*
X24265D01*
X24309D01*
X18132Y11908D02*
Y11920D01*
Y11908D02*
X18623Y11417D01*
X17456Y12224D02*
X17828D01*
X18132Y11920D01*
X17722Y12534D02*
X17956D01*
X17195Y13061D02*
Y15364D01*
X17510Y13610D02*
Y15325D01*
X18701Y14070D02*
Y15935D01*
X16750Y12429D02*
X17642Y11537D01*
X14943Y12207D02*
X15642Y11508D01*
X15071Y12517D02*
X15358Y12230D01*
X16190D01*
X19930Y13602D02*
X20425D01*
X20459Y13637D01*
X11180Y14212D02*
X11543D01*
X11575Y14180D01*
X17956Y12534D02*
X18240Y12250D01*
X30550Y12480D02*
X30996Y12034D01*
Y11850D02*
Y12034D01*
X30486Y12710D02*
X30996Y12200D01*
Y12034D02*
Y12200D01*
X30486Y12710D02*
Y15341D01*
X31996Y11417D02*
Y11894D01*
X31072Y12944D02*
Y13040D01*
X30853Y13281D02*
X31083Y13051D01*
X31072Y12944D02*
X31510Y12506D01*
Y12380D02*
Y12506D01*
Y12380D02*
X31996Y11894D01*
X32018Y13930D02*
X32332D01*
X32008Y13940D02*
X32018Y13930D01*
X32008Y13110D02*
Y13940D01*
Y15866D01*
X28873Y12540D02*
X29996Y11417D01*
X41476Y17854D02*
X41504D01*
X41465Y17894D02*
X41504Y17854D01*
X41211Y17894D02*
X41465D01*
D48*
X37772Y17843D02*
X37833Y17904D01*
X37772Y17165D02*
Y17843D01*
X41982Y17185D02*
X42039Y17242D01*
X38463Y32600D02*
X39906D01*
X38300Y32763D02*
X38463Y32600D01*
X42039Y17242D02*
Y17854D01*
D49*
Y17242D02*
X43080Y18283D01*
Y18541D01*
X34990Y13238D02*
X35128Y13376D01*
X34195Y13238D02*
X34990D01*
X34125Y13508D02*
X34195Y13438D01*
Y13238D02*
Y13438D01*
X34125Y13508D02*
Y13828D01*
X33858Y14094D02*
X34125Y13828D01*
X35128Y13376D02*
X35630Y12874D01*
X35275Y16991D02*
X36615D01*
X37592D01*
X48150Y20787D02*
X49016D01*
X39090Y35650D02*
X39889D01*
X40039D01*
X40291Y35397D01*
Y34350D02*
Y35397D01*
X46732Y26181D02*
X47402Y25512D01*
D50*
X22982Y18919D02*
X23199Y19136D01*
Y19183D01*
X35352Y28031D02*
X35382Y28002D01*
X35020Y28031D02*
X35352D01*
X35020D02*
X35020Y28032D01*
Y28502D01*
X36744Y25945D02*
X37059Y25630D01*
X35197Y25945D02*
X36744D01*
X35059Y26083D02*
X35197Y25945D01*
X38005Y26420D02*
X38059Y26366D01*
X35059Y25254D02*
X35366Y25561D01*
X35699D01*
X35030Y26783D02*
Y27451D01*
X37545D02*
X38008Y27913D01*
X35863Y27451D02*
X37545D01*
X34873Y24920D02*
X39743D01*
X34680Y25114D02*
X34873Y24920D01*
X34680Y25114D02*
Y28159D01*
X41407Y24980D02*
X43174D01*
X41014Y25374D02*
X41407Y24980D01*
X40197Y25374D02*
X41014D01*
X34685Y29331D02*
X35039Y28976D01*
X35235Y28758D02*
X35433Y28560D01*
Y28551D02*
Y28560D01*
Y28551D02*
X35461Y28524D01*
X34628Y28758D02*
X35235D01*
X34449Y28937D02*
X34628Y28758D01*
X45490Y30537D02*
X45858Y30905D01*
X35934Y30537D02*
X45490D01*
X30231Y29591D02*
X33248D01*
X39743Y24920D02*
X40197Y25374D01*
X33248Y29591D02*
X34680Y28159D01*
X28323Y29741D02*
X35138D01*
X35934Y30537D01*
X43174Y24980D02*
X43627Y25433D01*
X43772D01*
X43858Y25520D01*
X21841Y30716D02*
X22461Y31336D01*
X21841Y30096D02*
Y30716D01*
X28189Y31348D02*
X29059D01*
X28100Y31437D02*
X28189Y31348D01*
X30561Y26079D02*
X31079D01*
X30308Y26332D02*
X30561Y26079D01*
X30285Y26309D02*
X30308Y26332D01*
X21001Y31088D02*
Y35019D01*
X20488Y35532D02*
X21001Y35019D01*
X20488Y35532D02*
Y35827D01*
X22177Y22793D02*
X22313D01*
X21897Y23073D02*
X22177Y22793D01*
X21341Y23073D02*
X21897D01*
X26582Y19488D02*
X26654D01*
X26287Y19783D02*
X26582Y19488D01*
X26270Y19783D02*
X26287D01*
X15347Y18154D02*
Y19390D01*
X15170Y19720D02*
X15500Y20050D01*
X15170Y18090D02*
X15329Y17931D01*
X15527Y19251D02*
X15788Y19512D01*
X15527Y18214D02*
Y19251D01*
X15170Y18090D02*
Y19720D01*
X15360Y20360D02*
X17160D01*
X28448Y17450D02*
X28640Y17258D01*
X22667Y26775D02*
X23018D01*
X22598Y26844D02*
X22667Y26775D01*
X22598Y26844D02*
Y27520D01*
X22652Y26578D02*
X23018D01*
X22372Y26858D02*
X22652Y26578D01*
X22372Y26858D02*
Y26909D01*
X22490Y19183D02*
X22559Y19252D01*
X22490Y18998D02*
Y19183D01*
X22411Y18919D02*
X22490Y18998D01*
X22610Y19610D02*
X22860Y19860D01*
X22490Y19610D02*
X22610D01*
X43800Y33630D02*
X43880Y33710D01*
X43800Y33253D02*
Y33630D01*
Y33253D02*
X43832Y33222D01*
X19269Y17699D02*
X19291D01*
X19070Y17500D02*
X19269Y17699D01*
X18563Y17500D02*
X19070D01*
X19237Y17163D02*
X19291D01*
X19073Y17327D02*
X19237Y17163D01*
X18633Y17327D02*
X19073D01*
X43449Y34089D02*
X43522D01*
X43126Y33766D02*
X43449Y34089D01*
X42892Y33766D02*
X43126D01*
X43650Y33222D02*
X43832D01*
X43067Y34760D02*
X43215Y34612D01*
Y34067D02*
Y34612D01*
X32370Y12480D02*
X32504Y12614D01*
X16750Y12429D02*
Y12450D01*
Y12380D02*
Y12429D01*
X17003Y28733D02*
X18304D01*
X17641Y28563D02*
X18228D01*
X17578Y28500D02*
X17641Y28563D01*
X17362Y28500D02*
X17578D01*
X17299Y28563D02*
X17362Y28500D01*
X16808Y28563D02*
X17299D01*
X14380Y29618D02*
X14407Y29646D01*
X19405Y32165D02*
X20285Y31285D01*
X20401Y29227D02*
Y31169D01*
X14764Y32165D02*
X19405D01*
X20551Y29289D02*
Y31387D01*
X19497Y32441D02*
X20551Y31387D01*
X18504Y32441D02*
X19497D01*
X20701Y29351D02*
Y31449D01*
X19395Y32755D02*
X20701Y31449D01*
X18318Y32755D02*
X19395D01*
X16354Y34719D02*
X18318Y32755D01*
X13839Y34242D02*
X14104Y34508D01*
X12592Y29106D02*
Y30230D01*
X13839Y31476D01*
Y34242D01*
X12848Y30249D02*
X14614Y32015D01*
X18489Y28050D02*
Y28302D01*
X18228Y28563D02*
X18489Y28302D01*
X18745Y27790D02*
Y28293D01*
X18304Y28733D02*
X18745Y28293D01*
X18351Y28903D02*
X19025Y28229D01*
Y27708D02*
Y28229D01*
X19043Y28438D02*
X19528Y27953D01*
X19043Y28438D02*
Y28923D01*
X19528Y27608D02*
Y27953D01*
X12574Y15507D02*
Y15810D01*
X23018Y25397D02*
X23409D01*
X23633Y25621D01*
X23741D01*
X23927Y25807D01*
X23681Y25457D02*
X24167D01*
X24419Y25709D01*
X23424Y25200D02*
X23681Y25457D01*
X23018Y25200D02*
X23424D01*
X19291Y23278D02*
Y23661D01*
X19239Y23225D02*
X19291Y23278D01*
X18898Y23225D02*
X19239D01*
X29960Y15433D02*
Y15741D01*
X31579Y27523D02*
Y28549D01*
X31386Y28742D02*
X31579Y28549D01*
X31386Y28742D02*
Y28780D01*
X26614Y16102D02*
Y16122D01*
X26437Y16299D02*
X26614Y16122D01*
X26274Y16299D02*
X26437D01*
X14805Y17699D02*
X14843D01*
X14616Y17510D02*
X14805Y17699D01*
X14124Y17510D02*
X14616D01*
X14756Y17163D02*
X14843D01*
X14594Y17325D02*
X14756Y17163D01*
X14162Y17325D02*
X14594D01*
X26417Y17215D02*
Y17234D01*
X26270Y17382D02*
X26417Y17234D01*
X26270Y17382D02*
Y17693D01*
Y19016D02*
X26447Y18839D01*
X26270Y18661D02*
X26447Y18839D01*
X26270Y18228D02*
Y18661D01*
X18495Y23975D02*
X18898D01*
X18346Y24124D02*
X18495Y23975D01*
X18327Y24124D02*
X18346D01*
X16604Y23276D02*
X16910Y23581D01*
X16604Y23091D02*
Y23276D01*
X16585Y23071D02*
X16604Y23091D01*
X22047Y26962D02*
Y27106D01*
X21909Y27244D02*
X22047Y27106D01*
X21890Y27244D02*
X21909D01*
X32953Y17020D02*
Y18386D01*
X30665Y19156D02*
X30966Y19457D01*
X30835Y19082D02*
X31137Y19385D01*
X25207Y27057D02*
X27503D01*
X23041Y24823D02*
X23583D01*
X23018Y25594D02*
X23327D01*
X23997Y24089D02*
X24331D01*
X23018Y24210D02*
X23876D01*
X23997Y24089D01*
X23864Y24010D02*
X24045Y23829D01*
X23018Y24010D02*
X23864D01*
X23967Y23533D02*
X24488D01*
X23680Y23820D02*
X23967Y23533D01*
X23018Y23820D02*
X23680D01*
X23018Y23620D02*
X23663D01*
X24163Y23120D01*
X23018Y23230D02*
X23681D01*
X24592Y22858D02*
X24596Y22854D01*
X24053Y22858D02*
X24592D01*
X23681Y23230D02*
X24053Y22858D01*
X26168Y22050D02*
Y22917D01*
X26214Y22963D01*
X23638Y27790D02*
X26856D01*
X27165Y27480D01*
X27087D02*
X27165D01*
X26368Y22628D02*
X26811Y23071D01*
X26568Y22434D02*
X26890Y22756D01*
X26568Y22050D02*
Y22434D01*
X26890Y22756D02*
X27283D01*
X27835Y23819D02*
X28824Y22830D01*
X27362Y23819D02*
X27835D01*
X27579Y24331D02*
X28879Y23030D01*
X27362Y24331D02*
X27579D01*
X23700Y27940D02*
X27248D01*
X27361Y27826D01*
X27158Y28120D02*
X27188Y28090D01*
X27158Y28120D02*
Y28350D01*
X23937Y26220D02*
X24055Y26339D01*
X23767Y26220D02*
X23937D01*
X23337Y25791D02*
X23767Y26220D01*
X19360Y28588D02*
X19477Y28472D01*
X19360Y28588D02*
Y28923D01*
X50384Y21772D02*
X50404Y21752D01*
X50071Y21772D02*
X50384D01*
X31494Y22915D02*
X31496Y22913D01*
X31494Y22911D02*
X31496Y22913D01*
X32411Y20996D02*
X33504D01*
X32030Y21378D02*
X32411Y20996D01*
X32360Y21708D02*
Y22229D01*
X32030Y21378D02*
X32360Y21708D01*
X32030Y22559D02*
X32360Y22229D01*
X31236Y21636D02*
Y24071D01*
Y21636D02*
X31494Y21378D01*
X31236Y24071D02*
X31339Y24173D01*
X28824Y22830D02*
X29318D01*
X28879Y23030D02*
X29318D01*
X30677Y20832D02*
X31360Y20149D01*
X29738Y24491D02*
X30677Y23552D01*
Y20832D02*
Y23552D01*
X29908Y24533D02*
X30827Y23614D01*
Y20894D02*
Y23614D01*
Y20894D02*
X31510Y20211D01*
X30665Y18154D02*
Y19156D01*
X29842Y20370D02*
X30630D01*
X29908Y24533D02*
Y24590D01*
X29698Y24800D02*
X29908Y24590D01*
X44449Y26378D02*
X44449Y26378D01*
X44449Y26055D02*
Y26378D01*
X45000Y30906D02*
X45000Y30905D01*
X45323D01*
X47008Y36268D02*
X47047Y36228D01*
Y35728D02*
Y36228D01*
X46685Y26134D02*
X46732Y26181D01*
X45748Y26134D02*
X46685D01*
X45736Y25610D02*
X45748Y25598D01*
X45118Y25610D02*
X45736D01*
X43309Y26161D02*
X43415Y26055D01*
X43858D01*
Y25520D02*
X44449D01*
X46892Y31752D02*
X46921Y31722D01*
Y30906D02*
Y31722D01*
X46386Y30905D02*
X46386Y30906D01*
X45858Y30905D02*
X46386D01*
X43110Y33963D02*
X43215Y34067D01*
X42892Y33963D02*
X43110D01*
X28356Y24439D02*
X28579Y24217D01*
X30016Y25244D02*
X30285Y24974D01*
X30016Y25244D02*
Y25811D01*
X28579Y24217D02*
X29311D01*
X30285Y24961D02*
Y24974D01*
X30945Y15472D02*
Y15741D01*
X32044Y17258D02*
X32523D01*
X31969Y17183D02*
X32044Y17258D01*
X31594Y17183D02*
X31969D01*
X31969Y17461D02*
X32392D01*
X31888Y17380D02*
X31969Y17461D01*
X31594Y17380D02*
X31888D01*
X14121Y19278D02*
X14134Y19291D01*
X14121Y18921D02*
Y19278D01*
X14614Y32015D02*
X19111D01*
X12848Y29650D02*
Y30249D01*
X19111Y32015D02*
X20251Y30875D01*
Y29164D02*
Y30875D01*
X14354Y32575D02*
X14764Y32165D01*
X16354Y34719D02*
Y35827D01*
X22212Y33934D02*
X22781Y34503D01*
X24622Y34976D02*
Y35827D01*
X24149Y34503D02*
X24622Y34976D01*
X22781Y34503D02*
X24149D01*
X31594Y16001D02*
X31873D01*
X29331Y15866D02*
X29466Y16001D01*
X29700D01*
X31339Y15433D02*
Y15741D01*
X30350Y15477D02*
X30354Y15472D01*
X30350Y15477D02*
Y15741D01*
X29700Y16986D02*
X30354D01*
X30650Y16691D02*
X30945Y16986D01*
X31594D01*
X11614Y16460D02*
X11924D01*
X11072Y16380D02*
X11152Y16460D01*
X13819D02*
X14134D01*
X16142D02*
X16433D01*
X18328D02*
X18661D01*
X18729Y17055D02*
X18730Y17057D01*
X22714Y16460D02*
X23031D01*
X23724Y16787D02*
X23939Y17002D01*
X23038Y16787D02*
X23724D01*
X23939Y17002D02*
Y18305D01*
X20808Y16449D02*
X20819Y16460D01*
X20504Y16449D02*
X20808D01*
X20558Y16070D02*
X20819D01*
X20463Y15974D02*
X20558Y16070D01*
X21474Y17055D02*
X21769Y16760D01*
X20819Y17055D02*
X21474D01*
X21769Y16760D02*
X22065Y17055D01*
X22714D01*
X11631Y16070D02*
X11924D01*
X16354Y33465D02*
Y34217D01*
X16063Y34508D02*
X16354Y34217D01*
X14104Y34508D02*
X16063D01*
X12592Y29106D02*
X12848Y28850D01*
X10927Y29947D02*
Y31000D01*
X10630Y29650D02*
X10927Y29947D01*
X10630Y28850D02*
Y29650D01*
X16265Y29471D02*
X17003Y28733D01*
X20758Y28238D02*
X21024Y27972D01*
Y27953D02*
Y27972D01*
Y27953D02*
X21386D01*
X21504Y27835D01*
X20472Y27953D02*
X20976Y27449D01*
Y27441D02*
Y27449D01*
X21210Y28206D02*
X22542D01*
X20251Y29164D02*
X21210Y28206D01*
X21272Y28356D02*
X22605D01*
X20401Y29227D02*
X21272Y28356D01*
X21334Y28506D02*
X22667D01*
X20551Y29289D02*
X21334Y28506D01*
X21396Y28656D02*
X23346D01*
X20701Y29351D02*
X21396Y28656D01*
X21459Y28806D02*
X23865D01*
X20851Y29413D02*
X21459Y28806D01*
X21001Y29475D02*
X21521Y28956D01*
X23927D01*
X21646Y27441D02*
X22039Y27835D01*
X20976Y27441D02*
X21646D01*
X20441Y27089D02*
X20453Y27077D01*
X20441Y27089D02*
Y27441D01*
X15775Y25315D02*
X15960Y25500D01*
X15718Y25315D02*
X15775D01*
X15955Y25955D02*
X15960Y25950D01*
X16752Y22096D02*
X16772Y22077D01*
X15797Y23140D02*
X16175Y23518D01*
Y23581D01*
X15797Y23140D02*
Y23511D01*
X15718Y23590D02*
X15797Y23511D01*
Y23140D02*
X16139D01*
X16208Y23071D01*
X16136D02*
X16208D01*
X15718Y23967D02*
X16175Y24423D01*
Y24494D01*
X17018Y23977D02*
X17297Y24255D01*
X17018Y23809D02*
Y23977D01*
Y23809D02*
X17037Y23789D01*
X16175Y24494D02*
X16555Y24874D01*
X17579Y25463D02*
Y25706D01*
X17527Y25758D02*
X17579Y25706D01*
X17500Y25784D02*
Y26155D01*
Y25784D02*
X17527Y25758D01*
X18022Y24134D02*
X18317D01*
X17904Y25758D02*
X17972Y25689D01*
Y25463D02*
Y25689D01*
X18713Y29449D02*
X18723Y29459D01*
X18376Y29449D02*
X18713D01*
X18472Y29173D02*
X18723Y28923D01*
X18110Y29173D02*
X18472D01*
X26768Y28350D02*
Y29219D01*
X26811Y29262D01*
X23914Y26999D02*
X24115D01*
X25577Y22437D02*
X25710Y22570D01*
X25577Y22050D02*
Y22437D01*
X23018Y24600D02*
X23468D01*
X23018Y24800D02*
X23041Y24823D01*
X25154Y30256D02*
X26247Y31348D01*
X22841Y30256D02*
X25154D01*
X26811Y29262D02*
X26880Y29331D01*
X27126D01*
X22542Y28206D02*
X23018Y27730D01*
X23652Y28350D02*
X23806D01*
X23346Y28656D02*
X23652Y28350D01*
X23018Y27562D02*
Y27730D01*
X22605Y28356D02*
X23175Y27785D01*
X23430D01*
X23237Y27935D02*
X23492D01*
X21766Y25367D02*
Y25410D01*
X22501Y26184D02*
X23018D01*
X22025Y26660D02*
X22501Y26184D01*
X21421Y29676D02*
X21841Y30096D01*
X21001Y30876D02*
X22212Y32087D01*
X21001Y29475D02*
Y30876D01*
X20851Y29413D02*
Y30938D01*
X21001Y31088D01*
X28138Y27904D02*
Y28350D01*
X28338Y27891D02*
Y28350D01*
X25679Y21073D02*
X25679Y21073D01*
Y21378D01*
X24396Y21659D02*
Y22050D01*
X24790Y21473D02*
Y22050D01*
X24199Y21674D02*
Y22050D01*
X24705Y21388D02*
X24790Y21473D01*
X23209Y21132D02*
X23417Y21340D01*
X23584Y21064D02*
Y21074D01*
X23228Y20210D02*
X23465Y19974D01*
X22750Y20210D02*
X23228D01*
X23583Y21063D02*
X23584Y21064D01*
X28072Y20581D02*
X28293Y20360D01*
X25971Y21463D02*
X26056Y21378D01*
X25971Y21463D02*
Y22050D01*
X25679Y21378D02*
X25774Y21473D01*
Y22050D01*
X26358Y21378D02*
X26368Y21388D01*
X26056Y21378D02*
X26358D01*
X22770Y22050D02*
X23806D01*
X22322Y23663D02*
X22323Y23661D01*
X24003Y21731D02*
Y22050D01*
X23911Y21640D02*
X24003Y21731D01*
X22020Y21271D02*
X22412D01*
X22009D02*
X22020D01*
X22782Y21640D02*
X23911D01*
X22412Y21271D02*
X22782Y21640D01*
X22642Y20960D02*
X23172Y21490D01*
X21868Y19328D02*
X22750Y20210D01*
X26368Y22050D02*
Y22628D01*
X31921Y28780D02*
X31941Y28799D01*
X32244D01*
X31240Y27382D02*
X31339Y27283D01*
X31240Y27382D02*
Y27687D01*
X28927Y24410D02*
X29318D01*
X28701Y24636D02*
X28927Y24410D01*
X27175Y20108D02*
X28138Y21071D01*
X27175Y18750D02*
Y20108D01*
X28138Y21071D02*
Y22050D01*
X27948Y21104D02*
Y22050D01*
X29738Y24491D02*
Y24520D01*
X30454Y23407D02*
X30454D01*
X30394Y23346D02*
X30454Y23407D01*
X22667Y28506D02*
X23237Y27935D01*
X23366Y28238D02*
X23402D01*
X29311Y24217D02*
X29318Y24210D01*
Y24420D02*
X29390D01*
X29846Y25981D02*
X30016Y25811D01*
X29318Y24800D02*
X29698D01*
X29658Y24600D02*
X29738Y24520D01*
X29318Y24600D02*
X29658D01*
X30016Y26097D02*
X30285Y25827D01*
X22221Y29256D02*
X24162D01*
X24593Y28824D01*
Y28350D02*
Y28824D01*
X24396Y28350D02*
Y28809D01*
X24100Y29106D02*
X24396Y28809D01*
X24003Y28350D02*
Y28668D01*
X23865Y28806D02*
X24003Y28668D01*
X23927Y28956D02*
X24199Y28684D01*
Y28350D02*
Y28684D01*
X21991Y29106D02*
X24100D01*
X21421Y29676D02*
X21991Y29106D01*
X25637Y16295D02*
X25955D01*
X26270D02*
X26274Y16299D01*
X25197Y17813D02*
X25317Y17693D01*
X25100Y17813D02*
X25197D01*
X24882Y18032D02*
X25100Y17813D01*
X26496Y16575D02*
X26693Y16772D01*
X26126Y16575D02*
X26496D01*
X28613Y16728D02*
X29275D01*
X29337Y16790D01*
X22065Y17705D02*
Y19184D01*
X26270Y17693D02*
X26275D01*
X26614Y18031D01*
X17701Y19230D02*
X17915Y19444D01*
X17701Y19184D02*
Y19230D01*
X17678Y19161D02*
X17701Y19184D01*
X17678Y17705D02*
Y19161D01*
X15527Y18214D02*
X15669Y18072D01*
X13711Y19766D02*
X13944Y20000D01*
X13388Y19766D02*
X13711D01*
X13169Y19307D02*
X13458Y19596D01*
X13169Y17705D02*
Y19307D01*
X19751Y19330D02*
X20051Y19630D01*
X19751Y18198D02*
Y19330D01*
X19095Y18394D02*
X19411Y18711D01*
X19969Y18222D02*
X20118Y18073D01*
X14526Y18701D02*
Y19526D01*
Y18701D02*
X14843Y18384D01*
X25955Y16746D02*
X26126Y16575D01*
X20118Y17579D02*
X20200Y17497D01*
X31972Y16790D02*
X32044Y16718D01*
X31594Y16790D02*
X31972D01*
X25955Y16746D02*
Y16831D01*
X23819Y16102D02*
Y16307D01*
X23669Y16457D02*
X23819Y16307D01*
X15536Y16787D02*
X16116D01*
X15329Y16993D02*
X15536Y16787D01*
X15329Y16993D02*
Y17931D01*
X19393Y16787D02*
X19608Y17002D01*
Y17860D01*
X30835Y18224D02*
Y19082D01*
Y18224D02*
X30945Y18114D01*
Y17636D02*
Y18114D01*
X22280Y26657D02*
X22556Y26381D01*
X22277Y26654D02*
X22280Y26657D01*
X22251Y26654D02*
X22277D01*
X21537Y24214D02*
X21753D01*
X21506Y24183D02*
X21537Y24214D01*
X21995Y26909D02*
X22251Y26654D01*
X21411Y26660D02*
X22025D01*
X22254Y23971D02*
Y24065D01*
X19452Y26158D02*
X19518D01*
X19002Y26608D02*
X19452Y26158D01*
X18745Y26608D02*
X19002D01*
X31339Y25799D02*
Y25906D01*
X31119Y25579D02*
X31339Y25799D01*
X31119Y25305D02*
Y25579D01*
X31026Y25213D02*
X31119Y25305D01*
X31079Y26079D02*
X31339Y26339D01*
X21708Y23806D02*
X21712Y23810D01*
X21506Y23806D02*
X21708D01*
X21519Y22470D02*
X21801D01*
X21516Y22473D02*
X21519Y22470D01*
X19125Y25759D02*
Y25759D01*
X19104Y25738D02*
X19125Y25759D01*
X19104Y25738D02*
X19518Y25325D01*
X19498Y26805D02*
X19528Y26775D01*
X18745Y26805D02*
X19498D01*
X18100Y22720D02*
X18898D01*
X18095Y22970D02*
X18898D01*
X18334Y23711D02*
X18348Y23725D01*
X18032Y23740D02*
X18038Y23747D01*
X18327D01*
X18041Y22028D02*
X18337D01*
X21516Y22096D02*
X21801D01*
X21516Y22096D02*
X21516Y22096D01*
X10580Y19303D02*
X10907Y19630D01*
X10825Y19248D02*
X11036Y19460D01*
X20951Y22720D02*
X21370D01*
X20951Y22470D02*
X21513D01*
X18317Y24134D02*
X18327Y24124D01*
X18330Y22411D02*
X18337Y22405D01*
X18041Y22411D02*
X18330D01*
X18337Y22028D02*
X18337Y22028D01*
X21298Y23975D02*
X21506Y24183D01*
X20951Y23975D02*
X21298D01*
X21513Y22470D02*
X21516Y22473D01*
X21392Y22220D02*
X21516Y22096D01*
X20951Y22220D02*
X21392D01*
X18348Y23725D02*
X18898D01*
X18337Y22028D02*
X18529Y22220D01*
X18898D01*
X18337Y22405D02*
X18402Y22470D01*
X18898D01*
X14390Y30199D02*
X14392Y30197D01*
X14892D01*
X14882Y30207D02*
X14892Y30197D01*
X14882Y30207D02*
Y30591D01*
X17265Y30106D02*
Y30740D01*
Y30106D02*
X17695Y29676D01*
X16900Y31106D02*
X17265Y30740D01*
X16491Y31106D02*
X16900D01*
X16265Y30880D02*
X16491Y31106D01*
X16265Y30611D02*
Y30880D01*
X15900Y30246D02*
X16265Y30611D01*
X14892Y29646D02*
X15492Y30246D01*
X15900D01*
X14407Y29646D02*
X14892D01*
X17018Y28393D02*
X17110Y28301D01*
Y28050D02*
Y28301D01*
X15695Y29676D02*
X16808Y28563D01*
X16265Y29471D02*
Y30246D01*
X17700Y25961D02*
X17904Y25758D01*
X17700Y25961D02*
Y26155D01*
X17297Y26152D02*
X17300Y26155D01*
X17700Y27200D02*
X17800Y27100D01*
X16850Y27200D02*
X17700D01*
X17500Y26800D02*
X17800Y27100D01*
X17500Y26155D02*
Y26800D01*
X19360Y29459D02*
X19675D01*
X19043D02*
X19360D01*
X18723D02*
X19043D01*
X18916Y27600D02*
X19025Y27708D01*
X18745Y27600D02*
X18916D01*
X16265Y30246D02*
X16695Y30676D01*
X19119Y27200D02*
X19124Y27205D01*
X18745Y27200D02*
X19119D01*
X18745Y25517D02*
Y26411D01*
X18484Y26150D02*
X18489Y26155D01*
X18745Y26411D02*
X18748Y26415D01*
X30394Y23346D02*
Y23379D01*
X30000Y23773D02*
X30394Y23379D01*
X30827Y26299D02*
X30945Y26417D01*
Y26693D01*
X30662D02*
X30945D01*
X30827Y25433D02*
X30945Y25551D01*
Y25787D01*
X30662Y25827D02*
X30702Y25787D01*
X30945D01*
X30662Y24961D02*
X30702Y24921D01*
X30866Y24528D02*
X30945Y24606D01*
Y24921D01*
X31691Y25010D02*
X32008Y24693D01*
X31691Y25010D02*
Y25553D01*
X31339Y25906D02*
X31691Y25553D01*
X32638Y24244D02*
X32776Y24106D01*
X32638Y24244D02*
Y24598D01*
X32008Y23339D02*
X32776Y24106D01*
X33504D01*
X32008Y26409D02*
X32480Y26882D01*
X32008Y27646D02*
X32480Y27173D01*
Y26882D02*
Y27173D01*
X30315Y29035D02*
X30335Y29016D01*
X30787D01*
X32008Y28181D02*
X32016Y28189D01*
X32402D01*
X33480Y24130D02*
X33504Y24106D01*
X32008Y25228D02*
X32638Y24598D01*
X31024Y28150D02*
X31031Y28157D01*
X31339D01*
Y27283D02*
X31579Y27523D01*
X21031Y26280D02*
X21411Y26660D01*
X31543Y26339D02*
X31614Y26409D01*
Y26614D01*
X31543Y26339D02*
X32008Y25874D01*
X31339Y26339D02*
X31543D01*
X31339Y24724D02*
Y25039D01*
Y25354D01*
Y26890D02*
Y27283D01*
X29953Y23820D02*
X30000Y23773D01*
X29318Y23820D02*
X29953D01*
X31204Y24308D02*
X31339Y24173D01*
X30535Y24308D02*
X31204D01*
X30315Y24528D02*
X30535Y24308D01*
X30285Y24557D02*
X30315Y24528D01*
X30285Y24557D02*
Y24961D01*
Y25423D02*
Y25827D01*
Y25423D02*
X30496Y25213D01*
X30276Y25433D02*
X30285Y25423D01*
X30496Y25213D02*
X31026D01*
X30285Y26309D02*
Y26693D01*
X25317Y16295D02*
X25637D01*
X25955D02*
X26270D01*
X30092Y28425D02*
X30128Y28390D01*
Y27598D02*
Y28390D01*
X22985Y16070D02*
X23110Y15945D01*
X22714Y16070D02*
X22985D01*
X29318Y27169D02*
X30046D01*
X30128Y27087D01*
X30265Y27358D02*
X30505Y27598D01*
X29325Y27358D02*
X30265D01*
X30092Y27562D02*
X30128Y27598D01*
X29318Y27562D02*
X30092D01*
X29318Y27365D02*
X29325Y27358D01*
X25266Y17224D02*
X25317Y17173D01*
X25266Y17224D02*
X25317Y17276D01*
X26270Y17067D02*
X26417Y17215D01*
X26270Y16831D02*
Y17067D01*
X25955Y17165D02*
X26014Y17224D01*
X25955Y16831D02*
Y17165D01*
X25317Y16831D02*
Y17173D01*
X12972Y19351D02*
X13388Y19766D01*
X10825Y18223D02*
Y19248D01*
X19581Y18127D02*
X19778Y17930D01*
X19751Y18198D02*
X19948Y18001D01*
X19213Y18384D02*
X19252Y18344D01*
Y18216D02*
Y18344D01*
Y18216D02*
X19608Y17860D01*
X18514Y18394D02*
X18583D01*
X18072Y17952D02*
X18514Y18394D01*
X18072Y17705D02*
Y17952D01*
X12972Y17705D02*
Y19351D01*
X24882Y17539D02*
X24889Y17533D01*
Y17224D02*
Y17533D01*
X26794Y17503D02*
X26811Y17520D01*
X26794Y17215D02*
Y17503D01*
X25637Y18858D02*
X25637Y18859D01*
Y19248D01*
X25955Y17283D02*
X26014Y17224D01*
X25955Y17283D02*
Y17693D01*
X25317Y17276D02*
Y17693D01*
X25955Y18799D02*
X26014Y18858D01*
X25955Y18228D02*
Y18799D01*
X25266Y18858D02*
X25317Y18807D01*
Y18228D02*
Y18807D01*
X25637Y18541D02*
X25640Y18543D01*
X25637Y18228D02*
Y18541D01*
X25637Y18546D02*
X25640Y18543D01*
X25637Y18546D02*
Y18858D01*
X25266D02*
X25317Y18910D01*
Y19248D01*
X25955Y18917D02*
X26014Y18858D01*
X25955Y18917D02*
Y19248D01*
X26270Y19016D02*
Y19248D01*
X21766Y26185D02*
Y26280D01*
X21031Y25451D02*
X21766Y26185D01*
X20630Y24911D02*
X21031Y25313D01*
Y25451D01*
X20630Y24911D02*
Y25322D01*
X20561Y25391D02*
X20630Y25322D01*
X21070Y24911D02*
X21109Y24872D01*
X21486D02*
Y25088D01*
X21766Y25367D01*
X20561Y25768D02*
Y25809D01*
X21031Y26280D01*
X28637Y17502D02*
X28711Y17428D01*
X29336D01*
X29384Y17380D01*
X29700D01*
X28640Y17258D02*
X29265D01*
X29340Y17183D01*
X29700D01*
X29337Y16790D02*
X29700D01*
X31339Y18002D02*
X31722Y18386D01*
X31339Y17636D02*
Y18002D01*
X31142Y18376D02*
X31152Y18386D01*
X31142Y17636D02*
Y18376D01*
X32154Y16986D02*
X32156Y16988D01*
X31594Y16986D02*
X32154D01*
X32618Y17687D02*
Y17699D01*
X32392Y17461D02*
X32618Y17687D01*
X32523Y17258D02*
X32618Y17163D01*
X28770Y16439D02*
X28817Y16391D01*
X29700D01*
X32570D02*
X32618Y16439D01*
X30665Y18154D02*
X30748Y18071D01*
Y17636D02*
Y18071D01*
X13169Y15492D02*
Y15810D01*
X16093Y15945D02*
X16142Y15896D01*
X16693Y15463D02*
X16693Y15771D01*
X13563Y15482D02*
Y15810D01*
X23458Y17327D02*
X23622Y17163D01*
X23148Y17055D02*
X23150Y17057D01*
X22714Y17055D02*
X23148D01*
X22966Y16859D02*
X23038Y16787D01*
X23858Y18386D02*
X23939Y18305D01*
X22714Y16859D02*
X22966D01*
X20364Y17057D02*
X20366Y17055D01*
X20819D01*
X22699Y18100D02*
X22982Y18384D01*
X22569Y18100D02*
X22699D01*
X22458Y17990D02*
X22569Y18100D01*
X22458Y17705D02*
Y17990D01*
X22261Y18234D02*
X22411Y18384D01*
X22261Y17705D02*
Y18234D01*
X20118Y17579D02*
Y18073D01*
X19994Y16787D02*
X20506D01*
X19778Y17003D02*
X19994Y16787D01*
X19778Y17003D02*
Y17930D01*
X19948Y17451D02*
Y18001D01*
Y17451D02*
X20072Y17327D01*
X20506Y16787D02*
X20577Y16859D01*
X20819D01*
X15256Y16526D02*
X15543D01*
X15630Y16439D01*
X15551D02*
X15572Y16460D01*
X14162Y16785D02*
X14943D01*
X15159Y17002D01*
X14713Y16516D02*
X15010D01*
X14636Y16439D02*
X14713Y16516D01*
X12579Y17055D02*
X12874Y16760D01*
X11924Y17055D02*
X12579D01*
X12874Y16760D02*
X13169Y17055D01*
X13819D01*
X16433D02*
X17088D01*
X17383Y16760D02*
X17678Y17055D01*
X18328D01*
X18729D01*
X15705Y17333D02*
X16110D01*
X15499Y17538D02*
X15705Y17333D01*
X15499Y17538D02*
Y18001D01*
X16234Y17449D02*
X16433D01*
X15669Y17608D02*
Y18072D01*
Y17608D02*
X15748Y17530D01*
X16154D01*
X16234Y17449D01*
X15347Y18154D02*
X15499Y18001D01*
X16110Y17333D02*
X16191Y17252D01*
X16433D01*
X16116Y16787D02*
X16187Y16859D01*
X16433D01*
X14088Y17252D02*
X14162Y17325D01*
X13819Y17252D02*
X14088D01*
X14843Y18177D02*
X15159Y17861D01*
X14843Y18177D02*
Y18384D01*
X15159Y17002D02*
Y17861D01*
X14088Y16859D02*
X14162Y16785D01*
X13819Y16859D02*
X14088D01*
X13819Y17055D02*
X14273D01*
X11329D02*
X11924D01*
X16142Y15896D02*
Y16014D01*
X16198Y16070D01*
X16433D01*
X18566D02*
X18701Y15935D01*
X18328Y16070D02*
X18566D01*
X10580Y17717D02*
Y19303D01*
X11663Y16859D02*
X11924D01*
X14117Y16070D02*
X14213Y15974D01*
X13819Y16070D02*
X14117D01*
X12312Y28850D02*
X12312Y28850D01*
X11463Y28850D02*
X12312D01*
Y29650D02*
X12312Y29650D01*
X11463Y29650D02*
X12312D01*
X16200Y27632D02*
X16432Y27400D01*
X16850D01*
X16337Y25500D02*
Y25950D01*
Y26187D01*
X16561Y26411D01*
X16850D01*
X16340Y27150D02*
X16488Y27002D01*
X16850D01*
X16340Y26600D02*
X16545Y26805D01*
X16850D01*
X17875Y17705D02*
Y18321D01*
X17954D02*
X18018Y18386D01*
X13494Y18921D02*
Y19232D01*
X13504Y19242D01*
X13366Y17705D02*
Y18258D01*
X13494Y18386D01*
X13563Y17705D02*
Y17963D01*
X13701Y18100D01*
X13835D01*
X14121Y18386D01*
X12184Y15481D02*
Y15810D01*
X23018Y25000D02*
X23024Y24994D01*
X22215Y24383D02*
Y24577D01*
X22264Y27018D02*
Y27274D01*
Y27018D02*
X22372Y26909D01*
X22556Y26381D02*
X23018D01*
X30702Y24921D02*
X30945D01*
X22212Y32087D02*
Y33934D01*
X22001Y30256D02*
X22421Y30676D01*
X22001Y29475D02*
Y30256D01*
X22421Y29676D02*
X22841Y30096D01*
X22421Y30676D02*
X22841Y30256D01*
X14354Y32575D02*
Y33465D01*
X22441Y27677D02*
X22598Y27520D01*
X22039Y27835D02*
X22283D01*
X22441Y27677D01*
X22001Y29475D02*
X22221Y29256D01*
X25955Y19713D02*
Y19783D01*
X24882Y19606D02*
X25140D01*
X25317Y19783D01*
X21764Y22433D02*
X21801Y22470D01*
X21615Y22433D02*
X21764D01*
X25955Y19783D02*
Y19854D01*
X23858Y18386D02*
X24175Y18702D01*
X21794Y22103D02*
X21801Y22096D01*
X20951Y22970D02*
X21238D01*
X21341Y23073D01*
X22323Y23339D02*
Y23661D01*
X22313Y23329D02*
X22323Y23339D01*
X20630Y24911D02*
X21070D01*
X21995Y26909D02*
X22047Y26962D01*
X22559Y19134D02*
Y19252D01*
X25955Y19854D02*
X26133Y20032D01*
X26504D01*
X13458Y19596D02*
X13927D01*
X14331Y20000D01*
X17851Y20360D02*
X18639D01*
X22065Y19184D02*
X22490Y19610D01*
X26504Y20032D02*
X26654Y19882D01*
X21868Y17705D02*
Y19328D01*
X17520Y20440D02*
X17590Y20510D01*
X17340Y20180D02*
X17671D01*
X17160Y20360D02*
X17340Y20180D01*
X17671D02*
X17851Y20360D01*
X17590Y20510D02*
X18540D01*
X17034Y19512D02*
X17522Y20000D01*
X17490Y19600D02*
X17530Y19640D01*
X17470Y19600D02*
X17481D01*
X17490D01*
X17481Y17705D02*
Y19600D01*
X13710Y20710D02*
X18510D01*
X14331Y20000D02*
X14488D01*
X14850Y18927D02*
Y19230D01*
X14843Y18919D02*
X14850Y18927D01*
X24882Y19606D02*
X24901Y19588D01*
X24903D01*
X26794Y18523D02*
Y18848D01*
Y18523D02*
X26802Y18515D01*
X29298Y23440D02*
X29318Y23420D01*
X30787Y29016D02*
X30789Y29014D01*
X32044Y16718D02*
X32651D01*
X32953Y17020D01*
X10580Y17717D02*
X10972Y17325D01*
X11590Y16785D02*
X11663Y16859D01*
X10825Y18223D02*
X11552Y17495D01*
X11589D01*
X11636Y17449D01*
X11924D01*
X10972Y17325D02*
X11079D01*
X11079Y17325D01*
X11484D01*
X11557Y17252D01*
X11924D01*
X10410Y17592D02*
X11217Y16785D01*
X11590D01*
X18071Y15809D02*
X18072Y15810D01*
X18071Y15472D02*
Y15809D01*
X21079Y15528D02*
Y15810D01*
X22458Y15529D02*
Y15810D01*
X32524Y27217D02*
X33504D01*
X32480Y27173D02*
X32524Y27217D01*
X16561Y26411D02*
Y26561D01*
X16608Y26608D01*
X16850D01*
X19969Y19234D02*
X20168Y19433D01*
X19969Y18222D02*
Y19234D01*
X23543Y26653D02*
Y26702D01*
X23867Y26952D02*
X23914Y26999D01*
X23543Y26702D02*
X23580Y26739D01*
X23948Y27360D02*
X23953D01*
X28538Y28350D02*
X28990D01*
X28338Y21150D02*
Y22050D01*
X22314Y23663D02*
X22322D01*
X21759Y23475D02*
X22254Y23971D01*
X23018Y27365D02*
X23579D01*
X23583Y27362D01*
X23018Y27169D02*
X23409D01*
X21766Y25410D02*
X22343Y25987D01*
X23018D01*
Y25791D02*
X23337D01*
X22600Y21880D02*
X22770Y22050D01*
X23409Y27169D02*
X23475Y27102D01*
X23690D01*
X23948Y27360D01*
X26133Y27640D02*
X26251Y27521D01*
X23580Y26739D02*
X24223D01*
X24690Y27207D01*
X27441D02*
X28138Y27904D01*
X27503Y27057D02*
X28338Y27891D01*
X24690Y27207D02*
X27441D01*
X23430Y27785D02*
X23576Y27640D01*
X23402Y28238D02*
X23700Y27940D01*
X23492Y27935D02*
X23638Y27790D01*
X23576Y27640D02*
X26133D01*
X28000Y17341D02*
X28613Y16728D01*
X29702Y20510D02*
X29842Y20370D01*
X28338Y21150D02*
X28978Y20510D01*
X29702D01*
X28701Y23957D02*
X28754Y24010D01*
X28514Y23957D02*
X28701D01*
X28754Y24010D02*
X29318D01*
X27548Y21651D02*
Y22050D01*
X27748Y21639D02*
Y22050D01*
X25055Y22605D02*
X25062Y22598D01*
X25055Y22605D02*
Y22824D01*
X25302Y23071D02*
X25551D01*
X25055Y22824D02*
X25302Y23071D01*
X25184Y22050D02*
Y22476D01*
X25062Y22598D02*
X25184Y22476D01*
X29318Y26578D02*
X29721D01*
X29846Y26454D01*
Y25981D02*
Y26454D01*
X29318Y26775D02*
X29737D01*
X30016Y26496D01*
Y26097D02*
Y26496D01*
X29318Y26972D02*
X29761D01*
X30039Y26693D01*
X30285D01*
X23468Y24600D02*
X23482Y24614D01*
X24593Y21644D02*
Y22050D01*
X24015Y21490D02*
X24199Y21674D01*
X23172Y21490D02*
X24015D01*
X23417Y21340D02*
X24077D01*
X24396Y21659D01*
X23583Y21063D02*
X24012D01*
X24593Y21644D01*
X23209Y21073D02*
Y21132D01*
X31594Y16391D02*
X32570D01*
X21469Y15460D02*
Y15810D01*
X22065Y15490D02*
Y15810D01*
X20537Y17252D02*
X20819D01*
X20462Y17327D02*
X20537Y17252D01*
X20072Y17327D02*
X20462D01*
X20200Y17497D02*
X20534D01*
X20582Y17449D01*
X20819D01*
X22714Y17252D02*
X22977D01*
X23052Y17327D01*
X23458D01*
X22714Y17449D02*
X22722Y17441D01*
X22908D01*
X22947Y17480D01*
X23404D01*
X23622Y17699D01*
X17083Y15476D02*
Y15810D01*
X17678Y15493D02*
Y15810D01*
X18328Y16859D02*
X18561D01*
X18633Y16787D01*
X19393D01*
X18328Y17252D02*
X18558D01*
X18633Y17327D01*
X18328Y17449D02*
X18512D01*
X18563Y17500D01*
X13819Y17449D02*
X14063D01*
X14124Y17510D01*
X23018Y26972D02*
X23366D01*
X23386Y26952D01*
X23867D01*
X27358Y28350D02*
Y28775D01*
X18898Y23725D02*
X19227D01*
X19291Y23661D01*
X26707Y20810D02*
X27548Y21651D01*
X26769Y20660D02*
X27748Y21639D01*
X26986Y20510D02*
X27441Y20965D01*
X27204Y20360D02*
X27948Y21104D01*
X16141Y28691D02*
X16438Y28393D01*
X15846Y28691D02*
X16141D01*
X16438Y28393D02*
X17018D01*
X14892Y29646D02*
X15846Y28691D01*
X15807Y28150D02*
X16182D01*
X16200Y28168D01*
X12574Y17060D02*
X12579Y17055D01*
X12574Y17060D02*
Y17705D01*
X17083Y17060D02*
Y17705D01*
Y17060D02*
X17088Y17055D01*
X17383Y16760D01*
X21469Y17060D02*
Y17705D01*
Y17060D02*
X21474Y17055D01*
X12774Y17705D02*
Y18267D01*
X12648Y18394D02*
X12774Y18267D01*
X12374Y17705D02*
Y17974D01*
X12500Y18100D01*
X12184Y17705D02*
Y17934D01*
X12224Y17974D01*
X12374D01*
X11036Y19460D02*
X12460D01*
X10907Y19630D02*
X11380D01*
X11500Y19750D01*
X12556Y18394D02*
X12648D01*
X12500Y18400D02*
X12550D01*
X12500Y18100D02*
Y18400D01*
X12200Y18750D02*
X12550Y18400D01*
X12556Y18394D01*
X17050Y19018D02*
Y19250D01*
Y19018D02*
X17150Y18918D01*
X16700Y18750D02*
X17068Y18382D01*
X17150D01*
X17283Y17705D02*
Y18249D01*
X17150Y18382D02*
X17283Y18249D01*
X16883Y17705D02*
Y18115D01*
X17150Y18382D01*
X16693Y17705D02*
Y18043D01*
X16765Y18115D01*
X16883D01*
X21669Y17705D02*
Y18263D01*
X21550Y18382D02*
X21669Y18263D01*
X21269Y17705D02*
Y18102D01*
X21550Y18382D01*
X21079Y17705D02*
Y18029D01*
X21152Y18102D01*
X21269D01*
X30550Y17636D02*
Y17900D01*
X30350Y18100D02*
X30550Y17900D01*
X30400Y18968D02*
Y19250D01*
X30350Y18918D02*
X30400Y18968D01*
X30150Y17636D02*
Y18000D01*
X30010D02*
X30150D01*
X29960Y17950D02*
X30010Y18000D01*
X29960Y17636D02*
Y17950D01*
X30350Y18100D02*
Y18382D01*
X30250Y18100D02*
Y18282D01*
X30350Y18382D01*
X30150Y18000D02*
X30250Y18100D01*
X30350Y16991D02*
Y17636D01*
Y16991D02*
X30354Y16986D01*
X30650Y16691D01*
X29932Y18800D02*
X30350Y18382D01*
X29900Y18800D02*
X29932D01*
X31494Y21644D02*
X31650Y21800D01*
X31494Y21378D02*
Y21644D01*
X32000Y24400D02*
X32008Y24408D01*
X31700Y26700D02*
Y26750D01*
X31614Y26614D02*
X31700Y26700D01*
X28293Y20360D02*
X29390D01*
X29500Y20250D01*
Y20000D02*
Y20250D01*
Y19800D02*
Y20000D01*
X28637Y17502D02*
Y19267D01*
X28783Y19683D02*
X28800D01*
X28637Y19267D02*
X28793Y19423D01*
X29123D01*
X29500Y19800D01*
X28467Y17431D02*
Y19350D01*
X27500Y20000D02*
X28000Y19500D01*
Y17341D02*
Y19500D01*
X24175Y19000D02*
X24325Y19150D01*
X24350D01*
X24175Y18702D02*
Y19000D01*
X20168Y19433D02*
X20983D01*
X21550Y20000D01*
X20051Y19630D02*
X20630D01*
X20750Y19750D01*
X19581Y19881D02*
X19600Y19900D01*
X19581Y18127D02*
Y19881D01*
X19340Y19371D02*
X19411Y19300D01*
X19692Y20360D02*
X27204D01*
X19411Y18711D02*
Y19300D01*
X19340Y19371D02*
Y20008D01*
X18510Y20710D02*
X18760Y20960D01*
X18540Y20510D02*
X18840Y20810D01*
X18639Y20360D02*
X18939Y20660D01*
X18640Y20149D02*
X19001Y20510D01*
X18760Y20960D02*
X22642D01*
X18840Y20810D02*
X26707D01*
X18939Y20660D02*
X26769D01*
X19001Y20510D02*
X26986D01*
X19450Y20200D02*
X19532D01*
X19400Y20250D02*
X19450Y20200D01*
X19532D02*
X19692Y20360D01*
X18660Y19892D02*
Y20108D01*
X18640Y20128D02*
X18660Y20108D01*
X18640Y20128D02*
Y20149D01*
X18212Y19444D02*
X18660Y19892D01*
X17915Y19444D02*
X18212D01*
X17522Y20000D02*
X18400D01*
X15788Y19512D02*
X17034D01*
X12460Y19460D02*
X13300Y20300D01*
X13710Y20710D01*
X10410Y17592D02*
Y19810D01*
X10600Y20000D01*
X16555Y24874D02*
X16909D01*
X17110Y25075D01*
Y26155D01*
X17297Y24255D02*
Y26152D01*
X18575Y23475D02*
X18898D01*
X18400Y23300D02*
X18575Y23475D01*
X17582Y24609D02*
X18484Y25512D01*
X17582Y23239D02*
X18100Y22720D01*
X17752Y23313D02*
X18095Y22970D01*
X17582Y23239D02*
Y24609D01*
X17752Y23313D02*
Y24523D01*
X21470Y23770D02*
X21506Y23806D01*
X20951Y23725D02*
X20996Y23770D01*
X21470D01*
X21405Y23475D02*
X21759D01*
X17752Y24523D02*
X18060Y24832D01*
X18745Y25517D01*
X17970Y25465D02*
X17972Y25463D01*
X17970Y25465D02*
Y25470D01*
X18484Y25512D02*
Y26150D01*
X15188Y26618D02*
X15450D01*
X15000Y26430D02*
X15188Y26618D01*
X15450Y26600D02*
X15961D01*
X14720Y27150D02*
X15961D01*
X20951Y23475D02*
X21405D01*
X15310Y20400D02*
X15350Y20360D01*
X15360D01*
X14526Y19526D02*
X15360Y20360D01*
X19340Y20008D02*
X19491Y20159D01*
X17578Y29020D02*
X17694Y28903D01*
X18351D01*
X16695Y29676D02*
X16894D01*
X17550Y29020D01*
X17578D01*
X21100Y18750D02*
X21110D01*
X21478Y18382D01*
X21550D01*
X26693Y16772D02*
X27028Y16437D01*
X24547Y17874D02*
X24724D01*
X24882Y18032D01*
X28467Y19350D02*
X28800Y19683D01*
X33937Y29331D02*
X34685D01*
X33158Y35208D02*
X34000Y36050D01*
X33158Y30630D02*
Y35208D01*
X33308Y34358D02*
X34000Y35050D01*
X33308Y30568D02*
Y34358D01*
X29059Y31348D02*
X29496Y31785D01*
X31091Y32191D02*
X31496Y31785D01*
X29901Y31618D02*
Y31764D01*
X30328Y32191D02*
X31091D01*
X29901Y31764D02*
X30328Y32191D01*
X31073Y32362D02*
X31496Y32785D01*
X32387Y30659D02*
X32608D01*
X32825Y30084D02*
X33308Y30568D01*
X32762Y30234D02*
X33158Y30630D01*
X32304Y30577D02*
X32387Y30659D01*
X32242Y30727D02*
X32623Y31107D01*
X31677Y30877D02*
X32606Y31806D01*
X29738Y31027D02*
X30496Y31785D01*
X29461Y31177D02*
X29901Y31618D01*
X26247Y31348D02*
X28100D01*
X26850Y32362D02*
X31073D01*
X32606Y31806D02*
Y34367D01*
X31516Y35457D02*
X32606Y34367D01*
X25824Y31336D02*
X26850Y32362D01*
X22461Y31336D02*
X25824D01*
X26560Y30384D02*
X32700D01*
X24790Y29675D02*
X26292Y31177D01*
X24987Y29659D02*
X26354Y31027D01*
X25184Y29644D02*
X26417Y30877D01*
X25380Y29629D02*
X26479Y30727D01*
X25774Y29810D02*
X26541Y30577D01*
X26148Y28370D02*
X26168Y28350D01*
X25774D02*
Y29810D01*
X26541Y30577D02*
X32304D01*
X25380Y28350D02*
Y29629D01*
X26479Y30727D02*
X32242D01*
X25184Y28350D02*
Y29644D01*
X26417Y30877D02*
X31677D01*
X24987Y28350D02*
Y29659D01*
X26354Y31027D02*
X29738D01*
X26292Y31177D02*
X29461D01*
X26148Y28370D02*
Y29760D01*
X26368Y28350D02*
Y29348D01*
X26298Y29418D02*
X26368Y29348D01*
X26298Y29418D02*
Y29697D01*
X27358Y28775D02*
X28323Y29741D01*
X28990Y28350D02*
X30231Y29591D01*
X26298Y29697D02*
X26684Y30084D01*
X32825D01*
X26148Y29760D02*
X26622Y30234D01*
X32762D01*
X25971Y28350D02*
Y29795D01*
X26560Y30384D01*
X22841Y30096D02*
X24369D01*
X24790Y29675D01*
Y28350D02*
Y29675D01*
X35699Y26394D02*
X35724Y26420D01*
X38005D01*
D51*
X38059Y25630D02*
Y26366D01*
X38708Y27015D01*
Y28807D01*
X41585Y21447D02*
X41782Y21644D01*
D52*
X39089Y29807D02*
X39311Y30030D01*
X38708Y29807D02*
X39089D01*
X39311Y30030D02*
Y30034D01*
X39038Y30307D02*
X39311Y30034D01*
X38708Y30307D02*
X39038D01*
X46575Y36803D02*
X47008D01*
X45945Y36654D02*
X46095Y36803D01*
X14380Y29370D02*
Y29618D01*
X31494Y22915D02*
Y23258D01*
Y22559D02*
Y22911D01*
X32618Y16439D02*
X32636Y16457D01*
X11034Y15856D02*
X11072Y15895D01*
X14636Y15600D02*
Y15904D01*
X15630Y15591D02*
Y15904D01*
X19094Y15591D02*
Y15913D01*
X20039Y15591D02*
Y15913D01*
X32598Y15512D02*
Y15884D01*
X32618Y15904D01*
X32008Y24408D02*
Y24693D01*
X21450Y19018D02*
Y19200D01*
Y19018D02*
X21550Y18918D01*
X15085Y13000D02*
X15225Y12860D01*
X15650Y13602D02*
X16053D01*
X16053Y13602D01*
X24750Y16208D02*
Y16560D01*
X23490Y13498D02*
Y13570D01*
X23740Y13820D01*
X23500Y14838D02*
Y15180D01*
X17878Y12960D02*
X18020D01*
X18380Y12600D01*
X18680Y12960D02*
X18730Y12910D01*
X19220Y14138D02*
Y14245D01*
X19930Y14138D02*
Y14221D01*
X20079Y14370D01*
X11210Y14778D02*
Y15080D01*
X11180Y14748D02*
X11210Y14778D01*
X18730Y12590D02*
Y12910D01*
X19094Y14370D02*
X19220Y14245D01*
X29260Y12790D02*
Y12872D01*
Y12790D02*
X29570Y12480D01*
X31608Y12862D02*
Y13040D01*
Y12862D02*
X31990Y12480D01*
X29942Y12478D02*
Y13030D01*
Y12478D02*
X29950Y12470D01*
X15085Y12995D02*
Y13000D01*
Y12995D02*
X15510Y12570D01*
X28957Y19857D02*
Y19990D01*
X28783Y19683D02*
X28957Y19857D01*
D53*
X37185Y30925D02*
X37205Y30906D01*
X36911Y30925D02*
X37185D01*
X36220Y28681D02*
X36346Y28807D01*
X36214Y28675D02*
X36220Y28681D01*
X36024Y28524D02*
X36181Y28681D01*
X35996Y28524D02*
X36024D01*
X36181Y28681D02*
X36220D01*
X36346Y28807D02*
X36535D01*
X36522Y29793D02*
X36535Y29807D01*
X36132Y29793D02*
X36522D01*
X35996Y29658D02*
X36132Y29793D01*
X35996Y28996D02*
Y29658D01*
X35419Y29037D02*
X35461Y28996D01*
X35020Y29037D02*
X35419D01*
X35461Y28459D02*
X35917Y28002D01*
X35461Y28459D02*
Y28524D01*
X23001Y31062D02*
X23130Y31191D01*
X42730Y35359D02*
X42805Y35434D01*
X42730Y35193D02*
Y35359D01*
X41951Y34414D02*
X42730Y35193D01*
X42805Y35434D02*
X43366D01*
X41448Y34414D02*
X41951D01*
X41298Y34265D02*
X41448Y34414D01*
X41298Y34228D02*
Y34265D01*
X41229Y34159D02*
X41298Y34228D01*
X41002Y34159D02*
X41229D01*
X30000Y23100D02*
Y23396D01*
X29776Y23620D02*
X30000Y23396D01*
X33179Y18789D02*
Y19189D01*
X32776Y18386D02*
X33179Y18789D01*
X31663Y19518D02*
X32851D01*
X33179Y19189D01*
X31510Y19757D02*
Y20211D01*
X31137Y19385D02*
X31510Y19757D01*
X30966Y19457D02*
X31360Y19851D01*
Y20149D01*
X32766Y19242D02*
X32776Y19232D01*
Y18921D02*
Y19232D01*
X29318Y23620D02*
X29776D01*
X24931Y27057D02*
X25207D01*
X24488Y26614D02*
X24931Y27057D01*
X24199Y26122D02*
X24744D01*
X24153Y26075D02*
X24199Y26122D01*
X23503Y24635D02*
X24251D01*
X24449Y24833D01*
X23482Y24614D02*
X23503Y24635D01*
X23583Y24823D02*
X23786D01*
X24298Y25335D02*
X24754D01*
X23786Y24823D02*
X24298Y25335D01*
X23602Y25000D02*
X23799Y25197D01*
X23018Y25000D02*
X23602D01*
X23827Y26075D02*
X24153D01*
X23345Y25594D02*
X23827Y26075D01*
X23327Y25594D02*
X23345D01*
X24453Y24089D02*
X24596Y24232D01*
X24331Y24089D02*
X24453D01*
X27118Y29716D02*
X27126Y29724D01*
X26897D02*
X27126D01*
X26811Y29639D02*
X26897Y29724D01*
X27117Y29716D02*
X27118D01*
X18068Y24832D02*
X18310Y24590D01*
X28077Y32205D02*
X28496Y31785D01*
X32884Y34803D02*
X33008Y34679D01*
X32700Y30384D02*
X33008Y30692D01*
Y34679D01*
X26898Y32205D02*
X28077D01*
X23130Y31191D02*
X25884D01*
X32884Y34803D02*
Y35089D01*
X31516Y36457D02*
X32884Y35089D01*
X25884Y31191D02*
X26898Y32205D01*
X26568Y28350D02*
Y29396D01*
X26811Y29639D01*
X25188Y31596D02*
X27098Y33506D01*
X31890D01*
X26959Y33799D02*
X32185D01*
X24783Y31624D02*
X26959Y33799D01*
D54*
X18290Y25710D02*
X18484D01*
X28296Y17450D02*
X28448D01*
X28278Y17431D02*
X28296Y17450D01*
X21400Y23470D02*
X21405Y23475D01*
X21420Y23490D01*
X18060Y24832D02*
X18068D01*
D55*
X42670Y34740D02*
X42690Y34760D01*
X42670Y34480D02*
Y34740D01*
X43540Y35040D02*
X43600Y35100D01*
X43750D01*
X43540Y34728D02*
Y35040D01*
X43376Y35979D02*
X43380Y35983D01*
Y36280D01*
X42796Y36292D02*
X42805Y36282D01*
Y35969D02*
Y36282D01*
X40152Y33372D02*
X41002D01*
X40092Y33312D02*
X40152Y33372D01*
X39910Y33312D02*
X40092D01*
X38230Y34337D02*
Y34833D01*
X37403Y35660D02*
X38230Y34833D01*
Y34337D02*
X39420D01*
X39910Y33848D01*
X40189Y33569D01*
X41002D01*
X40291Y34158D02*
X40683Y33766D01*
X41002D01*
X40291Y34158D02*
Y34350D01*
X40671Y34047D02*
Y34351D01*
Y34047D02*
X40755Y33963D01*
X41002D01*
X40671Y34351D02*
X41316Y34996D01*
X41826D02*
X42010Y35180D01*
X41316Y34996D02*
X41826D01*
X42341Y34159D02*
X42892D01*
X30505Y27598D02*
X30787D01*
X30505Y27106D02*
X30787D01*
X41002Y33963D02*
X41100D01*
X43333Y33569D02*
X43423Y33659D01*
X42892Y33569D02*
X43333D01*
X43332Y33372D02*
X43423Y33280D01*
X42892Y33372D02*
X43332D01*
X23606Y19173D02*
X23858Y18921D01*
X23583Y19173D02*
X23606D01*
X24889Y18566D02*
X24902Y18553D01*
X24889Y18566D02*
Y18858D01*
X32063Y18921D02*
X32087Y18898D01*
X31722Y18921D02*
X32063D01*
X31152D02*
X31378Y19147D01*
Y19213D01*
X12562Y27612D02*
X15395D01*
X12598Y27514D02*
X13110Y27002D01*
X12500Y27612D02*
X12576Y27536D01*
X15450Y25686D02*
Y26082D01*
X14961Y25197D02*
X15450Y25686D01*
X13436Y25197D02*
X14961D01*
X13110Y25523D02*
X13436Y25197D01*
X12500Y27612D02*
X12562D01*
X13060Y28110D01*
X13110Y25523D02*
Y27002D01*
X13060Y28110D02*
X14945D01*
D56*
X32636Y16457D02*
X33268D01*
D57*
X15955Y25955D02*
Y26211D01*
X40581Y20837D02*
Y21159D01*
X41396Y21695D02*
X41545Y21545D01*
X40581Y21695D02*
X41396D01*
D58*
X33898Y15315D02*
D03*
D59*
X41585Y20089D02*
D03*
D60*
X49035Y18366D02*
D03*
D61*
X12165Y14291D02*
D03*
X13622D02*
D03*
X16654D02*
D03*
X18071Y14213D02*
D03*
X20984D02*
D03*
X22480D02*
D03*
X31417Y14252D02*
D03*
X29921D02*
D03*
D62*
X36615Y16991D02*
D03*
X35275D02*
D03*
Y11691D02*
D03*
X36615D02*
D03*
X43080Y23841D02*
D03*
X44420D02*
D03*
Y18541D02*
D03*
X43080D02*
D03*
X45984Y18551D02*
D03*
X47324D02*
D03*
Y23851D02*
D03*
X45984D02*
D03*
D63*
X27516Y35457D02*
D03*
Y36457D02*
D03*
X28516Y35457D02*
D03*
Y36457D02*
D03*
X29516Y35457D02*
D03*
Y36457D02*
D03*
X30516Y35457D02*
D03*
Y36457D02*
D03*
X31516Y35457D02*
D03*
X27496Y31785D02*
D03*
Y32785D02*
D03*
X28496Y31785D02*
D03*
Y32785D02*
D03*
X29496Y31785D02*
D03*
Y32785D02*
D03*
X30496Y31785D02*
D03*
Y32785D02*
D03*
X31496Y31785D02*
D03*
X33947Y33057D02*
D03*
Y34057D02*
D03*
Y35057D02*
D03*
Y36057D02*
D03*
D64*
X31516Y36457D02*
D03*
X31496Y32785D02*
D03*
D65*
X24878Y11417D02*
D03*
X25878D02*
D03*
X26878D02*
D03*
X27878D02*
D03*
X24878Y14173D02*
D03*
X25878D02*
D03*
X26878D02*
D03*
X27878D02*
D03*
X22622Y35827D02*
D03*
X23622D02*
D03*
X24622D02*
D03*
X18488D02*
D03*
X19488D02*
D03*
X20488D02*
D03*
X14354D02*
D03*
X15354D02*
D03*
X16354D02*
D03*
X20488Y33465D02*
D03*
X19488D02*
D03*
X18488D02*
D03*
X24622D02*
D03*
X23622D02*
D03*
X22622D02*
D03*
X16354D02*
D03*
X15354D02*
D03*
X14354D02*
D03*
X37059Y25630D02*
D03*
X38059D02*
D03*
X14642Y11417D02*
D03*
X15642D02*
D03*
X16642D02*
D03*
X17642D02*
D03*
X19760D02*
D03*
X20760D02*
D03*
X21760D02*
D03*
X22760D02*
D03*
X29996D02*
D03*
X30996D02*
D03*
X31996D02*
D03*
X32996D02*
D03*
D66*
X10927Y32780D02*
D03*
Y31000D02*
D03*
D67*
X11907Y33270D02*
D03*
Y30510D02*
D03*
X38445Y20945D02*
D03*
X36476D02*
D03*
D68*
X33504Y27217D02*
D03*
Y28217D02*
D03*
Y24106D02*
D03*
Y25106D02*
D03*
X34528Y31366D02*
D03*
Y30366D02*
D03*
X33504Y20996D02*
D03*
Y21996D02*
D03*
D69*
X35163Y33057D02*
D03*
Y34057D02*
D03*
Y35057D02*
D03*
Y36057D02*
D03*
Y37057D02*
D03*
D70*
X33947D02*
D03*
D71*
X12598Y22827D02*
D03*
Y27559D02*
D03*
D72*
X13668Y24697D02*
D03*
Y25689D02*
D03*
X14458D02*
D03*
Y24697D02*
D03*
D73*
X49210Y27000D02*
D03*
Y29000D02*
D03*
Y31000D02*
D03*
Y33000D02*
D03*
D74*
X40640Y24450D02*
D03*
X48484Y14851D02*
D03*
D75*
X40640Y23050D02*
D03*
X48484Y16251D02*
D03*
D76*
X21421Y29676D02*
D03*
Y30676D02*
D03*
X22421Y29676D02*
D03*
Y30676D02*
D03*
X23421Y29676D02*
D03*
Y30676D02*
D03*
X15695Y29676D02*
D03*
Y30676D02*
D03*
X16695Y29676D02*
D03*
Y30676D02*
D03*
X17695Y29676D02*
D03*
Y30676D02*
D03*
D77*
X50207Y14055D02*
D03*
D78*
X38821Y15108D02*
D03*
X40821D02*
D03*
X42821D02*
D03*
X44821D02*
D03*
D79*
X38435Y18258D02*
D03*
X39941Y18632D02*
D03*
X39350Y18996D02*
D03*
X33888Y11850D02*
D03*
X33219Y15394D02*
D03*
X33268Y16211D02*
D03*
X34400Y15157D02*
D03*
Y16198D02*
D03*
X42530Y23228D02*
D03*
X42480Y23927D02*
D03*
X34400Y15851D02*
D03*
Y15504D02*
D03*
Y14811D02*
D03*
X48622Y20236D02*
D03*
X45335Y13317D02*
D03*
X44518D02*
D03*
X44163Y15177D02*
D03*
X23001Y31062D02*
D03*
X28100Y31437D02*
D03*
X46142Y33406D02*
D03*
Y33806D02*
D03*
Y33006D02*
D03*
Y32606D02*
D03*
X45742D02*
D03*
X45342D02*
D03*
Y33006D02*
D03*
X45742D02*
D03*
Y33406D02*
D03*
X45342D02*
D03*
Y33806D02*
D03*
X45742D02*
D03*
X46542D02*
D03*
X46942D02*
D03*
Y33406D02*
D03*
X46542D02*
D03*
Y33006D02*
D03*
X46942D02*
D03*
Y32606D02*
D03*
X46542D02*
D03*
X42959Y27015D02*
D03*
X43359D02*
D03*
Y27415D02*
D03*
X42959D02*
D03*
Y27815D02*
D03*
X43359D02*
D03*
Y28215D02*
D03*
X42959D02*
D03*
X42159D02*
D03*
X41759D02*
D03*
Y27815D02*
D03*
X42159D02*
D03*
Y27415D02*
D03*
X41759D02*
D03*
Y27015D02*
D03*
X42159D02*
D03*
X42559D02*
D03*
Y27415D02*
D03*
Y28215D02*
D03*
Y27815D02*
D03*
X17800Y27100D02*
D03*
Y27474D02*
D03*
X17423Y27478D02*
D03*
X17428Y27100D02*
D03*
X17426Y26716D02*
D03*
X17800Y26726D02*
D03*
X18174D02*
D03*
Y27100D02*
D03*
Y27474D02*
D03*
X12874Y16760D02*
D03*
X12500D02*
D03*
X12496Y16383D02*
D03*
X12874Y16388D02*
D03*
X13258Y16386D02*
D03*
X13248Y16760D02*
D03*
Y17134D02*
D03*
X12874D02*
D03*
X12500D02*
D03*
X17383Y16760D02*
D03*
X17009D02*
D03*
X17005Y16383D02*
D03*
X17383Y16388D02*
D03*
X17767Y16386D02*
D03*
X17757Y16760D02*
D03*
Y17134D02*
D03*
X17383D02*
D03*
X17009D02*
D03*
X21769Y16760D02*
D03*
X21395D02*
D03*
X21392Y16383D02*
D03*
X21769Y16388D02*
D03*
X22153Y16386D02*
D03*
X22143Y16760D02*
D03*
Y17134D02*
D03*
X21769D02*
D03*
X21395D02*
D03*
X30650Y16691D02*
D03*
X30276D02*
D03*
X30272Y16314D02*
D03*
X30650Y16319D02*
D03*
X31033Y16317D02*
D03*
X31024Y16691D02*
D03*
Y17065D02*
D03*
X30650D02*
D03*
X30276D02*
D03*
X15430Y19530D02*
D03*
X15500Y20050D02*
D03*
X40370Y31380D02*
D03*
X42220Y32580D02*
D03*
X43290Y32040D02*
D03*
X40820Y34650D02*
D03*
X42670Y34480D02*
D03*
X43886Y35616D02*
D03*
X44140Y31380D02*
D03*
X42255D02*
D03*
X36100Y31800D02*
D03*
X38485Y31380D02*
D03*
X32370Y12480D02*
D03*
X31410D02*
D03*
X30550D02*
D03*
X21470D02*
D03*
X13980Y12180D02*
D03*
X17470Y28760D02*
D03*
X14380Y29370D02*
D03*
X20280Y31280D02*
D03*
X17300Y33750D02*
D03*
X24596Y24232D02*
D03*
X30000Y23100D02*
D03*
X31663Y19518D02*
D03*
X23927Y25807D02*
D03*
X24449Y24833D02*
D03*
X23799Y25197D02*
D03*
X26214Y22963D02*
D03*
X27087Y27480D02*
D03*
X26811Y23071D02*
D03*
X27283Y22756D02*
D03*
X27362Y23819D02*
D03*
X27362Y24331D02*
D03*
X27361Y27826D02*
D03*
X10709Y16496D02*
D03*
X33219Y15034D02*
D03*
Y14675D02*
D03*
X42215Y19715D02*
D03*
Y20069D02*
D03*
Y20423D02*
D03*
X41795Y20423D02*
D03*
X41375D02*
D03*
X40955Y20423D02*
D03*
Y20069D02*
D03*
Y19715D02*
D03*
X49026Y17795D02*
D03*
X48622D02*
D03*
X48218D02*
D03*
X49833D02*
D03*
X49026Y19016D02*
D03*
X31496Y22913D02*
D03*
X30394Y23396D02*
D03*
X48218Y18583D02*
D03*
Y18976D02*
D03*
X48622Y18996D02*
D03*
X49429D02*
D03*
X49833Y18996D02*
D03*
X49429Y17795D02*
D03*
X48218Y18189D02*
D03*
X40581Y20837D02*
D03*
X43750Y35100D02*
D03*
X42047Y25669D02*
D03*
X41024Y25866D02*
D03*
Y26260D02*
D03*
X41378Y25669D02*
D03*
Y26457D02*
D03*
Y26063D02*
D03*
X41811Y25433D02*
D03*
X42323D02*
D03*
X43032Y25669D02*
D03*
X42795Y25433D02*
D03*
X42559Y25669D02*
D03*
X46378Y31339D02*
D03*
X45906D02*
D03*
X45394D02*
D03*
X44921Y31417D02*
D03*
Y31732D02*
D03*
Y32047D02*
D03*
X44449Y26378D02*
D03*
X44670Y16200D02*
D03*
X45512Y16142D02*
D03*
X45748Y15000D02*
D03*
X45659Y14488D02*
D03*
X44163Y14468D02*
D03*
X44055Y16614D02*
D03*
X47362Y15669D02*
D03*
X46520Y17370D02*
D03*
X45890D02*
D03*
X47030Y19440D02*
D03*
X46610Y19300D02*
D03*
X45810D02*
D03*
X45360Y19500D02*
D03*
X47450Y20240D02*
D03*
X45080Y19760D02*
D03*
X50404Y21752D02*
D03*
X48661Y21339D02*
D03*
X49213D02*
D03*
X48150Y20787D02*
D03*
X47500Y24400D02*
D03*
X46000Y24910D02*
D03*
X47323Y22904D02*
D03*
X45965Y22874D02*
D03*
X45354Y23169D02*
D03*
X38525Y36930D02*
D03*
X36640D02*
D03*
X40410D02*
D03*
X42295D02*
D03*
X44180D02*
D03*
X45000Y30906D02*
D03*
X44550Y32520D02*
D03*
X36430Y34120D02*
D03*
Y32660D02*
D03*
X44550Y34115D02*
D03*
X37205Y30906D02*
D03*
X36430Y35580D02*
D03*
X43380Y36280D02*
D03*
X42796Y36292D02*
D03*
X44550Y35710D02*
D03*
X15650Y15157D02*
D03*
X11210Y15080D02*
D03*
X14567Y15157D02*
D03*
X20079D02*
D03*
X19094D02*
D03*
X28937Y15551D02*
D03*
X32850Y14400D02*
D03*
X31890Y17913D02*
D03*
X29600Y17750D02*
D03*
X23031Y17913D02*
D03*
X20750Y17800D02*
D03*
X18701Y17913D02*
D03*
X16350Y17800D02*
D03*
X14173Y17913D02*
D03*
X11850Y17800D02*
D03*
X32766Y19242D02*
D03*
X28701Y24636D02*
D03*
X32156Y16988D02*
D03*
X32598Y15512D02*
D03*
X14636Y15600D02*
D03*
X15630Y15591D02*
D03*
X20039D02*
D03*
X19094D02*
D03*
X14134Y19291D02*
D03*
X11191Y15591D02*
D03*
X28661Y15906D02*
D03*
X33268Y16457D02*
D03*
X15315Y16526D02*
D03*
X19724Y16496D02*
D03*
X31378Y19213D02*
D03*
X32087Y18898D02*
D03*
X31220Y14409D02*
D03*
X30118D02*
D03*
X31575D02*
D03*
X29764D02*
D03*
X18730Y17057D02*
D03*
X18110Y29173D02*
D03*
X20758Y28238D02*
D03*
X20453Y27077D02*
D03*
X15718Y25315D02*
D03*
X15955Y26211D02*
D03*
X17254Y22077D02*
D03*
X16604Y25531D02*
D03*
X15551Y22579D02*
D03*
X25188Y31596D02*
D03*
X24488Y26614D02*
D03*
X24115Y26999D02*
D03*
X28514Y23957D02*
D03*
X32244Y28799D02*
D03*
X23366Y28238D02*
D03*
X24705Y21388D02*
D03*
X23584Y21074D02*
D03*
X27441Y20965D02*
D03*
X28072Y20581D02*
D03*
X28248Y24508D02*
D03*
X23465Y19974D02*
D03*
X31240Y27687D02*
D03*
X22264Y27274D02*
D03*
X18504Y32441D02*
D03*
X27175Y18750D02*
D03*
X18376Y29449D02*
D03*
X26614Y16102D02*
D03*
X24882Y18032D02*
D03*
X24902Y18553D02*
D03*
X26693Y16772D02*
D03*
X28278Y17431D02*
D03*
X26614Y18031D02*
D03*
X18023Y19184D02*
D03*
X11500Y19750D02*
D03*
X19094Y19173D02*
D03*
X18543D02*
D03*
X13484Y14459D02*
D03*
X12333Y14449D02*
D03*
X14850Y19230D02*
D03*
X12008Y14449D02*
D03*
X20827Y14409D02*
D03*
X14273Y17055D02*
D03*
X23976Y16063D02*
D03*
X10827Y16732D02*
D03*
X19449Y16496D02*
D03*
X21753Y24214D02*
D03*
X21614Y26929D02*
D03*
X31339Y25039D02*
D03*
X19125Y25759D02*
D03*
X19477Y28472D02*
D03*
X24892Y17520D02*
D03*
X18041Y22411D02*
D03*
Y22028D02*
D03*
X14882Y30591D02*
D03*
X15807Y28150D02*
D03*
X19124Y27205D02*
D03*
X32402Y28189D02*
D03*
X31024Y28150D02*
D03*
X30945Y25787D02*
D03*
X30787Y27598D02*
D03*
X25640Y17451D02*
D03*
X26811Y17520D02*
D03*
X25640Y18543D02*
D03*
X23150Y17057D02*
D03*
X15010Y16516D02*
D03*
X20364Y17057D02*
D03*
X12700Y19200D02*
D03*
X13504Y19242D02*
D03*
X30945Y24921D02*
D03*
X22441Y27677D02*
D03*
X23199Y19183D02*
D03*
X21811Y22480D02*
D03*
X20630Y24911D02*
D03*
X21890Y27244D02*
D03*
X20832Y24562D02*
D03*
X20315Y25079D02*
D03*
X20251Y26238D02*
D03*
X20942Y26929D02*
D03*
X21500Y22810D02*
D03*
X21794Y22103D02*
D03*
X13944Y20000D02*
D03*
X25679Y21073D02*
D03*
X26368Y21388D02*
D03*
X26654Y19882D02*
D03*
X17520Y20440D02*
D03*
X17530Y19640D02*
D03*
X14488Y20000D02*
D03*
X23169Y21093D02*
D03*
X26802Y18515D02*
D03*
X26654Y19488D02*
D03*
X23583Y19173D02*
D03*
X24903Y19588D02*
D03*
X22009Y21271D02*
D03*
X22580Y19170D02*
D03*
X22920Y19920D02*
D03*
X30789Y29014D02*
D03*
X27874Y16378D02*
D03*
X28386Y15906D02*
D03*
X11329Y17055D02*
D03*
X21450Y19200D02*
D03*
X30945Y26693D02*
D03*
X30787Y27106D02*
D03*
X27117Y29716D02*
D03*
X21712Y23810D02*
D03*
X24045Y23829D02*
D03*
X21772Y24606D02*
D03*
X24754Y25335D02*
D03*
X22447Y25709D02*
D03*
X22314Y23663D02*
D03*
X22600Y21880D02*
D03*
X24163Y23120D02*
D03*
X22314Y24686D02*
D03*
X24488Y23533D02*
D03*
X23583Y27362D02*
D03*
X23543Y26653D02*
D03*
X24055Y26339D02*
D03*
X24596Y22854D02*
D03*
X25710Y22570D02*
D03*
X24744Y26122D02*
D03*
X26251Y27521D02*
D03*
X23953Y27360D02*
D03*
X25689Y23071D02*
D03*
X24419Y25709D02*
D03*
X33937Y29331D02*
D03*
X48337Y26250D02*
D03*
X48911D02*
D03*
X50079Y27677D02*
D03*
X50059Y26250D02*
D03*
X49055Y27677D02*
D03*
X48543D02*
D03*
X49567D02*
D03*
X49485Y26250D02*
D03*
X12200Y18750D02*
D03*
X11600Y18400D02*
D03*
Y18950D02*
D03*
X11100D02*
D03*
Y18400D02*
D03*
X17050Y19250D02*
D03*
X16700Y18750D02*
D03*
X21100D02*
D03*
X15800Y18450D02*
D03*
X16350D02*
D03*
Y19150D02*
D03*
X15800D02*
D03*
X20300Y18400D02*
D03*
X20850D02*
D03*
X20300Y19150D02*
D03*
X20850D02*
D03*
X30400Y19250D02*
D03*
X29900Y18800D02*
D03*
X28950Y19150D02*
D03*
X29600D02*
D03*
Y18300D02*
D03*
X28950D02*
D03*
X33500Y18550D02*
D03*
X33800Y19200D02*
D03*
X33500Y17150D02*
D03*
X34100Y16500D02*
D03*
Y18500D02*
D03*
X31650Y21800D02*
D03*
X32000Y24400D02*
D03*
X31700Y26750D02*
D03*
X30630Y20370D02*
D03*
X29500Y20000D02*
D03*
X28783Y19683D02*
D03*
X27500Y20000D02*
D03*
X24350Y19150D02*
D03*
X21550Y20000D02*
D03*
X20750Y19750D02*
D03*
X19400Y20250D02*
D03*
X18400Y20000D02*
D03*
X13300Y20300D02*
D03*
X10600Y20000D02*
D03*
X17579Y25463D02*
D03*
X18032Y23740D02*
D03*
X18022Y24134D02*
D03*
X18400Y23300D02*
D03*
X21400Y23470D02*
D03*
X18310Y24590D02*
D03*
X17970Y25470D02*
D03*
X18290Y25710D02*
D03*
X15000Y26430D02*
D03*
X14720Y27150D02*
D03*
X15310Y20400D02*
D03*
X19600Y19900D02*
D03*
X32480Y14961D02*
D03*
X14370Y12580D02*
D03*
X29570Y12480D02*
D03*
X13819Y14449D02*
D03*
X14567Y14370D02*
D03*
X11560Y13930D02*
D03*
X21142Y14409D02*
D03*
X20810Y12480D02*
D03*
X29230Y12160D02*
D03*
X23740Y13820D02*
D03*
X22323Y14370D02*
D03*
X22638D02*
D03*
X24230Y16830D02*
D03*
X23150Y14850D02*
D03*
X23080Y14370D02*
D03*
X16750Y12450D02*
D03*
X19910Y12470D02*
D03*
X16850Y14409D02*
D03*
X18228Y14370D02*
D03*
X20079D02*
D03*
X17250Y12480D02*
D03*
X18380Y12600D02*
D03*
X17913Y14370D02*
D03*
X15650D02*
D03*
X16457Y14409D02*
D03*
X14870Y12550D02*
D03*
X24750Y16560D02*
D03*
X23500Y15180D02*
D03*
X18730Y12590D02*
D03*
X19094Y14370D02*
D03*
X15510Y12570D02*
D03*
X29950Y12470D02*
D03*
X31990Y12480D02*
D03*
X15010Y16220D02*
D03*
X15315D02*
D03*
X41553Y33372D02*
D03*
X41947D02*
D03*
X42341D02*
D03*
Y33766D02*
D03*
Y34159D02*
D03*
X41947D02*
D03*
X41553D02*
D03*
Y33766D02*
D03*
X41947D02*
D03*
X34449Y28937D02*
D03*
X32608Y31122D02*
D03*
Y30659D02*
D03*
X27126Y29331D02*
D03*
X32884Y34803D02*
D03*
X24783Y31624D02*
D03*
X31890Y33506D02*
D03*
X32185Y33799D02*
D03*
X41211Y17894D02*
D03*
X48622Y18189D02*
D03*
Y18583D02*
D03*
X49774Y21211D02*
D03*
X46663Y23858D02*
D03*
X47323Y24921D02*
D03*
X48100Y23858D02*
D03*
X45423Y22057D02*
D03*
X47234Y22008D02*
D03*
X48967Y23228D02*
D03*
X49026Y24596D02*
D03*
X47343Y25581D02*
D03*
X40157Y30079D02*
D03*
X39498Y29409D02*
D03*
X39528Y27283D02*
D03*
X40787Y26998D02*
D03*
X45817Y27293D02*
D03*
X46417Y28524D02*
D03*
X46417Y30079D02*
D03*
X41722D02*
D03*
X43287D02*
D03*
X44852D02*
D03*
X39498Y28287D02*
D03*
X16752Y25955D02*
D03*
X18780Y30364D02*
D03*
X14468Y30600D02*
D03*
X14675Y21850D02*
D03*
X10778Y21870D02*
D03*
X11526Y27943D02*
D03*
D80*
X36673Y13917D02*
D03*
X36132Y13346D02*
D03*
X42460Y32160D02*
D03*
X41830Y36140D02*
D03*
X41826Y34996D02*
D03*
X35630Y12874D02*
D03*
X39890Y32123D02*
D03*
X46575Y36811D02*
D03*
X13642Y29429D02*
D03*
D81*
X47520Y13297D02*
D03*
X46663Y13071D02*
D03*
X49498Y20236D02*
D03*
X49026D02*
D03*
X37530Y28789D02*
D03*
X37126D02*
D03*
X37185Y29872D02*
D03*
X38110Y29537D02*
D03*
Y30236D02*
D03*
X37569D02*
D03*
X37126Y29311D02*
D03*
X35020Y28031D02*
D03*
X35059Y26083D02*
D03*
X15797Y23140D02*
D03*
D82*
X39311Y30030D02*
D03*
D83*
X41130Y32600D02*
D03*
M02*
