G04 Layer_Color=32768*
%FSLAX24Y24*%
%MOIN*%
G70*
G01*
G75*
%ADD218C,0.0039*%
%ADD219C,0.0020*%
%ADD296C,0.0020*%
D218*
X40853Y35650D02*
X41247D01*
X41050Y35453D02*
Y35847D01*
X41171Y16988D02*
Y17382D01*
X40974Y17185D02*
X41368D01*
X38583Y16968D02*
Y17362D01*
X38386Y17165D02*
X38780D01*
X42350Y32393D02*
Y32787D01*
X42153Y32590D02*
X42547D01*
X38300Y33353D02*
Y33747D01*
X38103Y33550D02*
X38497D01*
X41947Y33569D02*
Y33963D01*
X41750Y33766D02*
X42144D01*
D219*
X47530Y13071D02*
Y14075D01*
X46978Y13071D02*
X47530D01*
X46978D02*
Y14075D01*
X47530D01*
X46949Y13071D02*
Y14075D01*
X46398Y13071D02*
X46949D01*
X46398D02*
Y14075D01*
X46949D01*
X37598Y18179D02*
X38602D01*
Y17628D02*
Y18179D01*
X37598Y17628D02*
X38602D01*
X37598D02*
Y18179D01*
X40020Y17864D02*
Y18868D01*
X40571D01*
Y17864D02*
Y18868D01*
X40020Y17864D02*
X40571D01*
X41270Y17648D02*
X42274D01*
X41270D02*
Y18199D01*
X42274D01*
Y17648D02*
Y18199D01*
X39085Y17864D02*
Y18868D01*
X39636D01*
Y17864D02*
Y18868D01*
X39085Y17864D02*
X39636D01*
X14022Y13563D02*
Y15433D01*
X13245Y13563D02*
X14022D01*
X13245D02*
Y15433D01*
X14022D01*
X12565Y13563D02*
Y15433D01*
X11788Y13563D02*
X12565D01*
X11788D02*
Y15433D01*
X12565D01*
X18481Y13563D02*
Y15433D01*
X17704Y13563D02*
X18481D01*
X17704D02*
Y15433D01*
X18481D01*
X17034Y13563D02*
Y15433D01*
X16257Y13563D02*
X17034D01*
X16257D02*
Y15433D01*
X17034D01*
X22880Y13563D02*
Y15433D01*
X22103Y13563D02*
X22880D01*
X22103D02*
Y15433D01*
X22880D01*
X21394Y13563D02*
Y15433D01*
X20617Y13563D02*
X21394D01*
X20617D02*
Y15433D01*
X21394D01*
X31788Y13563D02*
Y15433D01*
X31011Y13563D02*
X31788D01*
X31011D02*
Y15433D01*
X31788D01*
X30311Y13563D02*
Y15433D01*
X29534Y13563D02*
X30311D01*
X29534D02*
Y15433D01*
X30311D01*
X15174Y25848D02*
X15726D01*
Y26852D01*
X15174D02*
X15726D01*
X15174Y25848D02*
Y26852D01*
X15174Y27902D02*
X15726D01*
X15174Y26898D02*
Y27902D01*
Y26898D02*
X15726D01*
Y27902D01*
X31732Y27411D02*
X32283D01*
Y28415D01*
X31732D02*
X32283D01*
X31732Y27411D02*
Y28415D01*
X13082Y29374D02*
Y29926D01*
X12078D02*
X13082D01*
X12078Y29374D02*
Y29926D01*
Y29374D02*
X13082D01*
Y28574D02*
Y29126D01*
X12078D02*
X13082D01*
X12078Y28574D02*
Y29126D01*
Y28574D02*
X13082D01*
X32264Y22982D02*
Y23533D01*
X31260D02*
X32264D01*
X31260Y22982D02*
Y23533D01*
Y22982D02*
X32264D01*
X46732Y36033D02*
X47283D01*
Y37037D01*
X46732D02*
X47283D01*
X46732Y36033D02*
Y37037D01*
X46152Y30630D02*
Y31181D01*
Y30630D02*
X47156D01*
Y31181D01*
X46152D02*
X47156D01*
X46092Y30630D02*
Y31181D01*
X45089D02*
X46092D01*
X45089Y30630D02*
Y31181D01*
Y30630D02*
X46092D01*
X22274Y27559D02*
Y28110D01*
X21270D02*
X22274D01*
X21270Y27559D02*
Y28110D01*
Y27559D02*
X22274D01*
X14114Y29429D02*
X14665D01*
Y30433D01*
X14114D02*
X14665D01*
X14114Y29429D02*
Y30433D01*
X43583Y25285D02*
X44134D01*
Y26289D01*
X43583D02*
X44134D01*
X43583Y25285D02*
Y26289D01*
X44173Y25285D02*
X44724D01*
Y26289D01*
X44173D02*
X44724D01*
X44173Y25285D02*
Y26289D01*
X45472Y25364D02*
X46024D01*
Y26368D01*
X45472D02*
X46024D01*
X45472Y25364D02*
Y26368D01*
X18819Y19163D02*
X19370D01*
X18819Y18159D02*
Y19163D01*
Y18159D02*
X19370D01*
Y19163D01*
X14567Y19154D02*
X15118D01*
X14567Y18150D02*
Y19154D01*
Y18150D02*
X15118D01*
Y19154D01*
X23583Y19155D02*
X24134D01*
X23583Y18151D02*
Y19155D01*
Y18151D02*
X24134D01*
Y19155D01*
X32500D02*
X33051D01*
X32500Y18151D02*
Y19155D01*
Y18151D02*
X33051D01*
Y19155D01*
X34793Y27116D02*
X35345D01*
X34793Y26112D02*
Y27116D01*
Y26112D02*
X35345D01*
Y27116D01*
X35226Y28721D02*
Y29272D01*
Y28721D02*
X36230D01*
Y29272D01*
X35226D02*
X36230D01*
X34744Y29272D02*
X35295D01*
X34744Y28268D02*
Y29272D01*
Y28268D02*
X35295D01*
Y29272D01*
X21929Y22569D02*
X22480D01*
Y23573D01*
X21929D02*
X22480D01*
X21929Y22569D02*
Y23573D01*
X31152Y28504D02*
Y29055D01*
Y28504D02*
X32156D01*
Y29055D01*
X31152D02*
X32156D01*
X31732Y25640D02*
X32283D01*
Y26644D01*
X31732D02*
X32283D01*
X31732Y25640D02*
Y26644D01*
Y24459D02*
X32283D01*
Y25463D01*
X31732D02*
X32283D01*
X31732Y24459D02*
Y25463D01*
X32264Y22283D02*
Y22835D01*
X31260D02*
X32264D01*
X31260Y22283D02*
Y22835D01*
Y22283D02*
X32264D01*
X31260Y21102D02*
Y21654D01*
Y21102D02*
X32264D01*
Y21654D01*
X31260D02*
X32264D01*
X34783Y25020D02*
X35335D01*
Y26024D01*
X34783D02*
X35335D01*
X34783Y25020D02*
Y26024D01*
X35226Y28248D02*
Y28799D01*
Y28248D02*
X36230D01*
Y28799D01*
X35226D02*
X36230D01*
X36152Y27726D02*
Y28278D01*
X35148D02*
X36152D01*
X35148Y27726D02*
Y28278D01*
Y27726D02*
X36152D01*
X43264Y33958D02*
X43816D01*
Y34962D01*
X43264D02*
X43816D01*
X43264Y33958D02*
Y34962D01*
X42530Y36204D02*
X43081D01*
X42530Y35200D02*
Y36204D01*
Y35200D02*
X43081D01*
Y36204D01*
X43101Y35200D02*
X43652D01*
Y36204D01*
X43101D02*
X43652D01*
X43101Y35200D02*
Y36204D01*
X15770Y26800D02*
X16530D01*
Y26410D02*
Y26800D01*
X15770Y26410D02*
X16530D01*
X15770D02*
Y26800D01*
Y27350D02*
X16530D01*
Y26960D02*
Y27350D01*
X15770Y26960D02*
X16530D01*
X15770D02*
Y27350D01*
X15145Y27920D02*
Y28680D01*
X14755Y27920D02*
X15145D01*
X14755D02*
Y28680D01*
X15145D01*
X43260Y33910D02*
X44020D01*
Y33520D02*
Y33910D01*
X43260Y33520D02*
X44020D01*
X43260D02*
Y33910D01*
X15598Y21706D02*
Y22483D01*
X17155Y21706D02*
Y22483D01*
X15598D02*
X17155D01*
X15598Y21706D02*
X17155D01*
X29928Y27881D02*
X30705D01*
X29928Y29438D02*
X30705D01*
X29928Y27881D02*
Y29438D01*
X30705Y27881D02*
Y29438D01*
X43263Y31960D02*
X44040D01*
X43263Y33517D02*
X44040D01*
X43263Y31960D02*
Y33517D01*
X44040Y31960D02*
Y33517D01*
X41060Y32213D02*
Y32990D01*
X39503Y32213D02*
Y32990D01*
Y32213D02*
X41060D01*
X39503Y32990D02*
X41060D01*
X14396Y18151D02*
Y19155D01*
X13845Y18151D02*
X14396D01*
X13845D02*
Y19155D01*
X14396D01*
X14567Y16929D02*
Y17933D01*
X15118D01*
Y16929D02*
Y17933D01*
X14567Y16929D02*
X15118D01*
X14911Y15669D02*
Y16673D01*
X14360Y15669D02*
X14911D01*
X14360D02*
Y16673D01*
X14911D01*
X13770Y18151D02*
Y19155D01*
X13219Y18151D02*
X13770D01*
X13219D02*
Y19155D01*
X13770D01*
X18819Y18159D02*
Y19163D01*
X18268Y18159D02*
X18819D01*
X18268D02*
Y19163D01*
X18819D01*
X19016Y16929D02*
Y17933D01*
X19567D01*
Y16929D02*
Y17933D01*
X19016Y16929D02*
X19567D01*
X19370Y15679D02*
Y16683D01*
X18819Y15679D02*
X19370D01*
X18819D02*
Y16683D01*
X19370D01*
X18268Y18159D02*
Y19163D01*
X17717Y18159D02*
X18268D01*
X17717D02*
Y19163D01*
X18268D01*
X23258Y18150D02*
Y19154D01*
X22707Y18150D02*
X23258D01*
X22707D02*
Y19154D01*
X23258D01*
X23346Y16929D02*
Y17933D01*
X23898D01*
Y16929D02*
Y17933D01*
X23346Y16929D02*
X23898D01*
X23435Y16732D02*
X24439D01*
Y16181D02*
Y16732D01*
X23435Y16181D02*
X24439D01*
X23435D02*
Y16732D01*
X22687Y18150D02*
Y19154D01*
X22136Y18150D02*
X22687D01*
X22136D02*
Y19154D01*
X22687D01*
X31998Y18151D02*
Y19155D01*
X31447Y18151D02*
X31998D01*
X31447D02*
Y19155D01*
X31998D01*
X32343Y16929D02*
Y17933D01*
X32894D01*
Y16929D02*
Y17933D01*
X32343Y16929D02*
X32894D01*
Y15669D02*
Y16673D01*
X32343Y15669D02*
X32894D01*
X32343D02*
Y16673D01*
X32894D01*
X31427Y18151D02*
Y19155D01*
X30876Y18151D02*
X31427D01*
X30876D02*
Y19155D01*
X31427D01*
X30074Y18148D02*
Y19152D01*
X30626D01*
Y18148D02*
Y19152D01*
X30074Y18148D02*
X30626D01*
X21274D02*
Y19152D01*
X21826D01*
Y18148D02*
Y19152D01*
X21274Y18148D02*
X21826D01*
X16874D02*
Y19152D01*
X17426D01*
Y18148D02*
Y19152D01*
X16874Y18148D02*
X17426D01*
X12372Y18159D02*
Y19163D01*
X12923D01*
Y18159D02*
Y19163D01*
X12372Y18159D02*
X12923D01*
X40856Y20925D02*
Y21929D01*
X40305Y20925D02*
X40856D01*
X40305D02*
Y21929D01*
X40856D01*
X49301Y22047D02*
X50305D01*
Y21496D02*
Y22047D01*
X49301Y21496D02*
X50305D01*
X49301D02*
Y22047D01*
X11348Y15661D02*
Y16665D01*
X10797Y15661D02*
X11348D01*
X10797D02*
Y16665D01*
X11348D01*
X15906Y15669D02*
Y16673D01*
X15354Y15669D02*
X15906D01*
X15354D02*
Y16673D01*
X15906D01*
X20315Y15679D02*
Y16683D01*
X19764Y15679D02*
X20315D01*
X19764D02*
Y16683D01*
X20315D01*
X27963Y16102D02*
X28967D01*
X27963D02*
Y16654D01*
X28967D01*
Y16102D02*
Y16654D01*
X33425Y12963D02*
X34429D01*
X33425D02*
Y13514D01*
X34429D01*
Y12963D02*
Y13514D01*
X36142Y31201D02*
X37146D01*
Y30650D02*
Y31201D01*
X36142Y30650D02*
X37146D01*
X36142D02*
Y31201D01*
X39654Y32988D02*
Y33992D01*
X40206D01*
Y32988D02*
Y33992D01*
X39654Y32988D02*
X40206D01*
X29935Y27306D02*
X30695D01*
Y26916D02*
Y27306D01*
X29935Y26916D02*
X30695D01*
X29935D02*
Y27306D01*
X21805Y26709D02*
X22565D01*
X21805D02*
Y27100D01*
X22565D01*
Y26709D02*
Y27100D01*
X29800Y23203D02*
Y23963D01*
X30190D01*
Y23203D02*
Y23963D01*
X29800Y23203D02*
X30190D01*
X25486Y21578D02*
X26246D01*
Y21188D02*
Y21578D01*
X25486Y21188D02*
X26246D01*
X25486D02*
Y21578D01*
X20329Y27241D02*
X21089D01*
X20329D02*
Y27631D01*
X21089D01*
Y27241D02*
Y27631D01*
X15770Y25300D02*
X16530D01*
X15770D02*
Y25690D01*
X16530D01*
Y25300D02*
Y25690D01*
X15770Y25750D02*
X16530D01*
X15770D02*
Y26140D01*
X16530D01*
Y25750D02*
Y26140D01*
X22015Y23813D02*
Y24573D01*
X22405D01*
Y23813D02*
Y24573D01*
X22015Y23813D02*
X22405D01*
X16000Y27520D02*
Y28280D01*
X16390D01*
Y27520D02*
Y28280D01*
X16000Y27520D02*
X16390D01*
X15919Y23400D02*
Y24159D01*
X15528Y23400D02*
X15919D01*
X15528D02*
Y24159D01*
X15919D01*
X16018Y22871D02*
X16778D01*
X16018D02*
Y23261D01*
X16778D01*
Y22871D02*
Y23261D01*
X17337Y25558D02*
X18096D01*
X17337D02*
Y25948D01*
X18096D01*
Y25558D02*
Y25948D01*
X20919Y24672D02*
X21679D01*
X20919D02*
Y25062D01*
X21679D01*
Y24672D02*
Y25062D01*
X20761Y25201D02*
Y25961D01*
X20371Y25201D02*
X20761D01*
X20371D02*
Y25961D01*
X20761D01*
X30093Y26893D02*
X30852D01*
Y26503D02*
Y26893D01*
X30093Y26503D02*
X30852D01*
X30093D02*
Y26893D01*
Y26027D02*
X30852D01*
Y25637D02*
Y26027D01*
X30093Y25637D02*
X30852D01*
X30093D02*
Y26027D01*
X29935Y27798D02*
X30695D01*
Y27408D02*
Y27798D01*
X29935Y27408D02*
X30695D01*
X29935D02*
Y27798D01*
X26611Y29069D02*
Y29829D01*
X27001D01*
Y29069D02*
Y29829D01*
X26611Y29069D02*
X27001D01*
X18137Y21835D02*
Y22595D01*
X18527D01*
Y21835D02*
Y22595D01*
X18137Y21835D02*
X18527D01*
X21316Y21904D02*
Y22663D01*
X21706D01*
Y21904D02*
Y22663D01*
X21316Y21904D02*
X21706D01*
Y23616D02*
Y24376D01*
X21316Y23616D02*
X21706D01*
X21316D02*
Y24376D01*
X21706D01*
X18527Y23557D02*
Y24317D01*
X18137Y23557D02*
X18527D01*
X18137D02*
Y24317D01*
X18527D01*
X14145Y27920D02*
Y28680D01*
X14535D01*
Y27920D02*
Y28680D01*
X14145Y27920D02*
X14535D01*
X26224Y19048D02*
X26984D01*
Y18658D02*
Y19048D01*
X26224Y18658D02*
X26984D01*
X26224D02*
Y19048D01*
Y17415D02*
X26984D01*
Y17024D02*
Y17415D01*
X26224Y17024D02*
X26984D01*
X26224D02*
Y17415D01*
X25447Y18658D02*
X26207D01*
X25447D02*
Y19048D01*
X26207D01*
Y18658D02*
Y19048D01*
X25447Y17024D02*
X26207D01*
X25447D02*
Y17415D01*
X26207D01*
Y17024D02*
Y17415D01*
X24699Y18658D02*
X25459D01*
X24699D02*
Y19048D01*
X25459D01*
Y18658D02*
Y19048D01*
X24669Y17024D02*
X25429D01*
X24669D02*
Y17415D01*
X25429D01*
Y17024D02*
Y17415D01*
X30093Y25161D02*
X30852D01*
Y24770D02*
Y25161D01*
X30093Y24770D02*
X30852D01*
X30093D02*
Y25161D01*
X42500Y34560D02*
X43260D01*
X42500D02*
Y34950D01*
X43260D01*
Y34560D02*
Y34950D01*
X13188Y12724D02*
Y13276D01*
Y12724D02*
X14192D01*
Y13276D01*
X13188D02*
X14192D01*
X28984Y13642D02*
X29536D01*
X28984Y12638D02*
Y13642D01*
Y12638D02*
X29536D01*
Y13642D01*
X19654Y13368D02*
X20206D01*
Y14372D01*
X19654D02*
X20206D01*
X19654Y13368D02*
Y14372D01*
X23214Y12728D02*
X23766D01*
Y13732D01*
X23214D02*
X23766D01*
X23214Y12728D02*
Y13732D01*
X30712Y12754D02*
Y13306D01*
X29708D02*
X30712D01*
X29708Y12754D02*
Y13306D01*
Y12754D02*
X30712D01*
X23224Y14068D02*
X23776D01*
Y15072D01*
X23224D02*
X23776D01*
X23224Y14068D02*
Y15072D01*
X30838Y12764D02*
Y13316D01*
Y12764D02*
X31842D01*
Y13316D01*
X30838D02*
X31842D01*
X32098Y13654D02*
Y14206D01*
Y13654D02*
X33102D01*
Y14206D01*
X32098D02*
X33102D01*
X24474Y15438D02*
X25026D01*
Y16442D01*
X24474D02*
X25026D01*
X24474Y15438D02*
Y16442D01*
X10904Y13978D02*
X11456D01*
Y14982D01*
X10904D02*
X11456D01*
X10904Y13978D02*
Y14982D01*
X15374Y13368D02*
X15926D01*
Y14372D01*
X15374D02*
X15926D01*
X15374Y13368D02*
Y14372D01*
X17108Y12684D02*
Y13236D01*
Y12684D02*
X18112D01*
Y13236D01*
X17108D02*
X18112D01*
X14316Y12724D02*
Y13276D01*
Y12724D02*
X15319D01*
Y13276D01*
X14316D02*
X15319D01*
X19450Y12684D02*
Y13236D01*
X18446D02*
X19450D01*
X18446Y12684D02*
Y13236D01*
Y12684D02*
X19450D01*
X14364Y13368D02*
X14916D01*
Y14372D01*
X14364D02*
X14916D01*
X14364Y13368D02*
Y14372D01*
X18944Y13368D02*
X19496D01*
Y14372D01*
X18944D02*
X19496D01*
X18944Y13368D02*
Y14372D01*
D296*
X42428Y34941D02*
Y36359D01*
X39672Y34941D02*
Y36359D01*
Y34941D02*
X42428D01*
X39672Y36359D02*
X42428D01*
X39990Y16732D02*
X42352D01*
X39990Y17638D02*
X42352D01*
Y16732D02*
Y17638D01*
X39990Y16732D02*
Y17638D01*
X37402Y17618D02*
X39764D01*
X37402Y16713D02*
X39764D01*
X37402D02*
Y17618D01*
X39764Y16713D02*
Y17618D01*
X41563Y32984D02*
X43137D01*
X41563Y32196D02*
X43137D01*
X41563D02*
Y32984D01*
X43137Y32196D02*
Y32984D01*
X37139Y34770D02*
X39461D01*
X37139Y32330D02*
X39461D01*
Y34770D01*
X37139Y32330D02*
Y34770D01*
X40835Y34474D02*
X43059D01*
X40835Y33057D02*
X43059D01*
X40835D02*
Y34474D01*
X43059Y33057D02*
Y34474D01*
M02*
