G04 Layer_Color=65535*
%FSLAX24Y24*%
%MOIN*%
G70*
G01*
G75*
%ADD50C,0.0080*%
%ADD53C,0.0070*%
%ADD54C,0.0100*%
%ADD110C,0.0098*%
%ADD111C,0.0050*%
%ADD112C,0.0000*%
%ADD113C,0.0060*%
%ADD114C,0.0079*%
%ADD115C,0.0040*%
%ADD116R,0.9183X0.2710*%
%ADD117R,0.0120X0.0059*%
%ADD118R,0.0120X0.0060*%
%ADD119R,0.0120X0.0119*%
%ADD120R,0.0059X0.0120*%
%ADD121R,0.0060X0.0120*%
%ADD122R,0.0119X0.0120*%
%ADD123R,0.2450X0.0492*%
%ADD124R,0.0879X0.0295*%
%ADD125R,0.0295X0.0879*%
G36*
X49941Y32277D02*
X50060D01*
Y32215D01*
X49941D01*
Y32000D01*
X49885D01*
X49564Y32227D01*
Y32277D01*
X49885D01*
Y32344D01*
X49941D01*
Y32277D01*
D02*
G37*
G36*
X45549Y15570D02*
X45550Y15570D01*
X45553Y15573D01*
X45558Y15577D01*
X45565Y15583D01*
X45573Y15589D01*
X45583Y15596D01*
X45595Y15604D01*
X45607Y15612D01*
X45608D01*
X45609Y15613D01*
X45613Y15616D01*
X45620Y15620D01*
X45629Y15624D01*
X45638Y15629D01*
X45649Y15634D01*
X45660Y15639D01*
X45671Y15644D01*
Y15584D01*
X45670D01*
X45669Y15583D01*
X45666Y15582D01*
X45663Y15580D01*
X45658Y15577D01*
X45653Y15575D01*
X45641Y15568D01*
X45627Y15560D01*
X45612Y15550D01*
X45597Y15539D01*
X45582Y15527D01*
X45582Y15526D01*
X45581Y15525D01*
X45576Y15521D01*
X45570Y15514D01*
X45561Y15505D01*
X45552Y15495D01*
X45543Y15483D01*
X45535Y15471D01*
X45528Y15459D01*
X45488D01*
Y15958D01*
X45549D01*
Y15570D01*
D02*
G37*
G36*
X43820Y15958D02*
Y15954D01*
Y15950D01*
X43819Y15945D01*
X43819Y15939D01*
X43818Y15932D01*
X43816Y15924D01*
X43813Y15917D01*
Y15916D01*
X43813Y15915D01*
X43811Y15911D01*
X43808Y15905D01*
X43803Y15896D01*
X43798Y15886D01*
X43791Y15874D01*
X43783Y15863D01*
X43773Y15851D01*
Y15850D01*
X43772Y15849D01*
X43768Y15845D01*
X43762Y15838D01*
X43753Y15829D01*
X43741Y15818D01*
X43728Y15806D01*
X43711Y15791D01*
X43693Y15775D01*
X43692Y15775D01*
X43689Y15772D01*
X43686Y15769D01*
X43680Y15764D01*
X43673Y15759D01*
X43666Y15752D01*
X43649Y15738D01*
X43631Y15720D01*
X43613Y15703D01*
X43604Y15694D01*
X43596Y15686D01*
X43590Y15678D01*
X43583Y15670D01*
Y15669D01*
X43582Y15669D01*
X43580Y15666D01*
X43579Y15663D01*
X43574Y15656D01*
X43569Y15646D01*
X43564Y15635D01*
X43559Y15623D01*
X43556Y15609D01*
X43555Y15596D01*
Y15595D01*
Y15595D01*
X43556Y15590D01*
X43556Y15583D01*
X43558Y15575D01*
X43562Y15565D01*
X43566Y15555D01*
X43572Y15545D01*
X43581Y15535D01*
X43583Y15534D01*
X43586Y15531D01*
X43592Y15527D01*
X43599Y15522D01*
X43609Y15518D01*
X43621Y15514D01*
X43634Y15511D01*
X43649Y15510D01*
X43654D01*
X43657Y15511D01*
X43664Y15511D01*
X43674Y15513D01*
X43686Y15517D01*
X43698Y15521D01*
X43709Y15528D01*
X43720Y15537D01*
X43720Y15539D01*
X43723Y15542D01*
X43728Y15548D01*
X43732Y15556D01*
X43738Y15567D01*
X43741Y15579D01*
X43745Y15593D01*
X43746Y15610D01*
X43809Y15603D01*
Y15602D01*
Y15600D01*
X43808Y15596D01*
X43807Y15592D01*
X43806Y15586D01*
X43805Y15579D01*
X43800Y15564D01*
X43794Y15546D01*
X43786Y15529D01*
X43775Y15511D01*
X43769Y15504D01*
X43761Y15496D01*
X43760Y15496D01*
X43759Y15495D01*
X43757Y15493D01*
X43754Y15490D01*
X43749Y15488D01*
X43744Y15484D01*
X43738Y15481D01*
X43731Y15477D01*
X43723Y15474D01*
X43715Y15471D01*
X43705Y15468D01*
X43695Y15465D01*
X43673Y15461D01*
X43661Y15460D01*
X43648Y15459D01*
X43641D01*
X43636Y15460D01*
X43630Y15461D01*
X43623Y15462D01*
X43615Y15462D01*
X43607Y15465D01*
X43589Y15469D01*
X43570Y15476D01*
X43560Y15480D01*
X43551Y15486D01*
X43543Y15493D01*
X43534Y15499D01*
X43534Y15500D01*
X43533Y15501D01*
X43531Y15503D01*
X43528Y15506D01*
X43525Y15511D01*
X43521Y15515D01*
X43513Y15527D01*
X43506Y15541D01*
X43499Y15558D01*
X43494Y15576D01*
X43493Y15587D01*
X43492Y15598D01*
Y15599D01*
Y15603D01*
X43493Y15609D01*
X43494Y15617D01*
X43495Y15626D01*
X43497Y15635D01*
X43500Y15646D01*
X43505Y15657D01*
X43506Y15658D01*
X43507Y15662D01*
X43510Y15667D01*
X43515Y15675D01*
X43520Y15684D01*
X43527Y15694D01*
X43536Y15705D01*
X43546Y15717D01*
X43547Y15719D01*
X43551Y15723D01*
X43558Y15730D01*
X43562Y15734D01*
X43568Y15740D01*
X43574Y15746D01*
X43581Y15753D01*
X43589Y15759D01*
X43597Y15768D01*
X43606Y15776D01*
X43617Y15785D01*
X43627Y15794D01*
X43639Y15805D01*
X43640Y15806D01*
X43642Y15807D01*
X43645Y15809D01*
X43649Y15812D01*
X43658Y15820D01*
X43669Y15830D01*
X43680Y15840D01*
X43692Y15851D01*
X43702Y15860D01*
X43706Y15864D01*
X43710Y15868D01*
X43710Y15868D01*
X43712Y15871D01*
X43715Y15874D01*
X43719Y15878D01*
X43727Y15888D01*
X43735Y15900D01*
X43491D01*
Y15958D01*
X43820D01*
Y15958D01*
D02*
G37*
G36*
X41674Y15966D02*
X41680Y15965D01*
X41686Y15964D01*
X41694Y15964D01*
X41701Y15962D01*
X41719Y15958D01*
X41737Y15950D01*
X41746Y15946D01*
X41754Y15941D01*
X41763Y15935D01*
X41772Y15928D01*
X41772Y15927D01*
X41773Y15927D01*
X41776Y15924D01*
X41779Y15921D01*
X41782Y15917D01*
X41785Y15912D01*
X41790Y15907D01*
X41794Y15901D01*
X41803Y15886D01*
X41810Y15868D01*
X41817Y15849D01*
X41819Y15838D01*
X41821Y15827D01*
X41760Y15818D01*
Y15819D01*
X41759Y15821D01*
Y15824D01*
X41757Y15827D01*
X41755Y15836D01*
X41751Y15847D01*
X41747Y15859D01*
X41741Y15872D01*
X41733Y15883D01*
X41725Y15893D01*
X41723Y15894D01*
X41720Y15897D01*
X41715Y15900D01*
X41707Y15905D01*
X41699Y15908D01*
X41689Y15912D01*
X41676Y15915D01*
X41664Y15916D01*
X41659D01*
X41656Y15915D01*
X41649Y15914D01*
X41639Y15912D01*
X41627Y15908D01*
X41614Y15904D01*
X41602Y15896D01*
X41591Y15886D01*
X41590Y15885D01*
X41587Y15881D01*
X41582Y15875D01*
X41576Y15866D01*
X41571Y15855D01*
X41566Y15843D01*
X41563Y15828D01*
X41562Y15812D01*
Y15812D01*
Y15811D01*
Y15809D01*
X41562Y15806D01*
X41563Y15798D01*
X41565Y15788D01*
X41568Y15778D01*
X41574Y15765D01*
X41580Y15754D01*
X41590Y15744D01*
X41591Y15742D01*
X41594Y15739D01*
X41600Y15735D01*
X41608Y15730D01*
X41618Y15725D01*
X41630Y15721D01*
X41643Y15718D01*
X41658Y15716D01*
X41665D01*
X41670Y15717D01*
X41676Y15718D01*
X41684Y15719D01*
X41692Y15720D01*
X41701Y15722D01*
X41695Y15669D01*
X41691D01*
X41688Y15669D01*
X41678D01*
X41671Y15669D01*
X41661Y15667D01*
X41651Y15665D01*
X41639Y15661D01*
X41627Y15657D01*
X41615Y15650D01*
X41614Y15649D01*
X41610Y15646D01*
X41605Y15641D01*
X41599Y15634D01*
X41593Y15626D01*
X41589Y15615D01*
X41585Y15602D01*
X41583Y15587D01*
Y15586D01*
Y15586D01*
Y15582D01*
X41585Y15576D01*
X41587Y15567D01*
X41589Y15559D01*
X41593Y15550D01*
X41599Y15540D01*
X41606Y15532D01*
X41607Y15531D01*
X41610Y15528D01*
X41615Y15524D01*
X41622Y15521D01*
X41630Y15516D01*
X41640Y15513D01*
X41652Y15510D01*
X41664Y15509D01*
X41670D01*
X41677Y15511D01*
X41685Y15512D01*
X41695Y15515D01*
X41704Y15519D01*
X41714Y15524D01*
X41724Y15532D01*
X41725Y15533D01*
X41728Y15536D01*
X41732Y15541D01*
X41736Y15549D01*
X41741Y15558D01*
X41746Y15569D01*
X41751Y15583D01*
X41754Y15598D01*
X41815Y15588D01*
Y15587D01*
X41814Y15585D01*
X41813Y15582D01*
X41813Y15578D01*
X41811Y15573D01*
X41810Y15567D01*
X41804Y15553D01*
X41798Y15538D01*
X41789Y15522D01*
X41779Y15507D01*
X41765Y15493D01*
X41764Y15493D01*
X41763Y15492D01*
X41761Y15490D01*
X41757Y15488D01*
X41754Y15486D01*
X41749Y15483D01*
X41738Y15476D01*
X41723Y15470D01*
X41706Y15465D01*
X41687Y15461D01*
X41676Y15459D01*
X41659D01*
X41652Y15460D01*
X41642Y15462D01*
X41630Y15464D01*
X41617Y15467D01*
X41605Y15471D01*
X41592Y15477D01*
X41591D01*
X41590Y15478D01*
X41586Y15480D01*
X41580Y15484D01*
X41572Y15490D01*
X41564Y15496D01*
X41555Y15505D01*
X41546Y15515D01*
X41539Y15525D01*
X41538Y15527D01*
X41536Y15530D01*
X41533Y15536D01*
X41530Y15544D01*
X41527Y15554D01*
X41524Y15564D01*
X41521Y15576D01*
X41521Y15589D01*
Y15590D01*
Y15594D01*
X41521Y15600D01*
X41523Y15607D01*
X41525Y15617D01*
X41528Y15626D01*
X41532Y15637D01*
X41538Y15647D01*
X41539Y15648D01*
X41541Y15651D01*
X41546Y15656D01*
X41551Y15662D01*
X41559Y15669D01*
X41567Y15676D01*
X41577Y15683D01*
X41590Y15689D01*
X41589D01*
X41587Y15690D01*
X41585D01*
X41582Y15691D01*
X41574Y15694D01*
X41565Y15698D01*
X41554Y15704D01*
X41543Y15711D01*
X41531Y15720D01*
X41521Y15731D01*
X41521Y15733D01*
X41518Y15738D01*
X41514Y15744D01*
X41509Y15753D01*
X41504Y15765D01*
X41500Y15778D01*
X41497Y15794D01*
X41497Y15812D01*
Y15812D01*
Y15815D01*
Y15818D01*
X41497Y15822D01*
X41498Y15828D01*
X41499Y15834D01*
X41500Y15842D01*
X41503Y15849D01*
X41508Y15867D01*
X41512Y15877D01*
X41517Y15886D01*
X41522Y15895D01*
X41528Y15904D01*
X41536Y15913D01*
X41544Y15922D01*
X41545Y15923D01*
X41546Y15924D01*
X41549Y15926D01*
X41552Y15929D01*
X41557Y15933D01*
X41563Y15936D01*
X41570Y15940D01*
X41577Y15944D01*
X41585Y15948D01*
X41594Y15952D01*
X41604Y15956D01*
X41614Y15960D01*
X41626Y15963D01*
X41638Y15964D01*
X41651Y15966D01*
X41664Y15967D01*
X41670D01*
X41674Y15966D01*
D02*
G37*
G36*
X39605Y15840D02*
X39821D01*
Y15784D01*
X39594Y15462D01*
X39544D01*
Y15784D01*
X39477D01*
Y15840D01*
X39544D01*
Y15958D01*
X39605D01*
Y15840D01*
D02*
G37*
G36*
X34701Y20903D02*
X34836D01*
Y20846D01*
X34701D01*
Y20710D01*
X34643D01*
Y20846D01*
X34508D01*
Y20903D01*
X34643D01*
Y21038D01*
X34701D01*
Y20903D01*
D02*
G37*
G36*
X35567D02*
X35702D01*
Y20846D01*
X35567D01*
Y20710D01*
X35509D01*
Y20846D01*
X35374D01*
Y20903D01*
X35509D01*
Y21038D01*
X35567D01*
Y20903D01*
D02*
G37*
G36*
X50060Y26272D02*
X49671D01*
X49672Y26271D01*
X49675Y26268D01*
X49679Y26263D01*
X49684Y26256D01*
X49691Y26248D01*
X49698Y26238D01*
X49706Y26226D01*
X49714Y26214D01*
Y26213D01*
X49715Y26212D01*
X49718Y26207D01*
X49721Y26201D01*
X49726Y26192D01*
X49731Y26183D01*
X49736Y26172D01*
X49741Y26161D01*
X49745Y26150D01*
X49686D01*
Y26151D01*
X49685Y26152D01*
X49684Y26155D01*
X49681Y26158D01*
X49679Y26163D01*
X49677Y26168D01*
X49670Y26180D01*
X49662Y26194D01*
X49652Y26209D01*
X49640Y26224D01*
X49628Y26238D01*
X49628Y26239D01*
X49627Y26240D01*
X49622Y26244D01*
X49615Y26251D01*
X49607Y26260D01*
X49597Y26269D01*
X49585Y26278D01*
X49573Y26286D01*
X49561Y26293D01*
Y26333D01*
X50060D01*
Y26272D01*
D02*
G37*
G36*
X49924Y30324D02*
X49930Y30323D01*
X49936Y30322D01*
X49944Y30321D01*
X49951Y30318D01*
X49969Y30313D01*
X49978Y30309D01*
X49987Y30304D01*
X49997Y30299D01*
X50006Y30293D01*
X50015Y30285D01*
X50024Y30277D01*
X50024Y30276D01*
X50026Y30274D01*
X50027Y30272D01*
X50031Y30268D01*
X50034Y30264D01*
X50038Y30258D01*
X50042Y30251D01*
X50046Y30244D01*
X50050Y30236D01*
X50054Y30227D01*
X50058Y30217D01*
X50062Y30206D01*
X50065Y30195D01*
X50066Y30183D01*
X50068Y30170D01*
X50068Y30157D01*
Y30156D01*
Y30154D01*
Y30151D01*
X50068Y30147D01*
X50067Y30141D01*
X50066Y30135D01*
X50065Y30127D01*
X50064Y30119D01*
X50059Y30102D01*
X50052Y30084D01*
X50048Y30075D01*
X50043Y30067D01*
X50037Y30057D01*
X50030Y30049D01*
X50029Y30048D01*
X50028Y30048D01*
X50026Y30045D01*
X50023Y30042D01*
X50018Y30039D01*
X50014Y30036D01*
X50009Y30031D01*
X50003Y30027D01*
X49987Y30018D01*
X49970Y30011D01*
X49950Y30004D01*
X49940Y30002D01*
X49928Y30000D01*
X49920Y30061D01*
X49921D01*
X49922Y30062D01*
X49925D01*
X49928Y30064D01*
X49938Y30066D01*
X49949Y30070D01*
X49961Y30074D01*
X49974Y30080D01*
X49985Y30088D01*
X49995Y30096D01*
X49996Y30098D01*
X49999Y30101D01*
X50002Y30106D01*
X50006Y30113D01*
X50010Y30122D01*
X50014Y30132D01*
X50017Y30144D01*
X50018Y30157D01*
Y30158D01*
Y30160D01*
Y30162D01*
X50017Y30165D01*
X50016Y30172D01*
X50014Y30182D01*
X50010Y30194D01*
X50006Y30206D01*
X49998Y30218D01*
X49988Y30230D01*
X49987Y30231D01*
X49983Y30234D01*
X49977Y30239D01*
X49968Y30245D01*
X49957Y30250D01*
X49944Y30255D01*
X49930Y30258D01*
X49914Y30259D01*
X49910D01*
X49907Y30259D01*
X49900Y30258D01*
X49890Y30256D01*
X49879Y30252D01*
X49867Y30247D01*
X49856Y30240D01*
X49845Y30231D01*
X49844Y30230D01*
X49841Y30227D01*
X49837Y30221D01*
X49832Y30212D01*
X49826Y30203D01*
X49823Y30191D01*
X49820Y30178D01*
X49818Y30163D01*
Y30162D01*
Y30160D01*
Y30156D01*
X49819Y30150D01*
X49820Y30144D01*
X49820Y30137D01*
X49822Y30129D01*
X49824Y30119D01*
X49770Y30126D01*
Y30127D01*
Y30130D01*
X49771Y30133D01*
Y30136D01*
Y30137D01*
Y30138D01*
Y30140D01*
Y30143D01*
X49770Y30150D01*
X49769Y30160D01*
X49767Y30170D01*
X49763Y30181D01*
X49758Y30194D01*
X49752Y30206D01*
X49751Y30207D01*
X49748Y30211D01*
X49742Y30215D01*
X49736Y30222D01*
X49727Y30228D01*
X49717Y30232D01*
X49704Y30236D01*
X49689Y30237D01*
X49684D01*
X49677Y30236D01*
X49669Y30234D01*
X49661Y30232D01*
X49652Y30228D01*
X49642Y30222D01*
X49634Y30215D01*
X49633Y30214D01*
X49630Y30211D01*
X49626Y30206D01*
X49622Y30199D01*
X49618Y30191D01*
X49615Y30181D01*
X49612Y30169D01*
X49611Y30156D01*
Y30156D01*
Y30155D01*
Y30150D01*
X49612Y30144D01*
X49614Y30136D01*
X49616Y30126D01*
X49621Y30116D01*
X49626Y30107D01*
X49634Y30097D01*
X49634Y30096D01*
X49637Y30093D01*
X49643Y30089D01*
X49650Y30085D01*
X49659Y30079D01*
X49671Y30075D01*
X49684Y30070D01*
X49700Y30067D01*
X49690Y30006D01*
X49689D01*
X49687Y30007D01*
X49684Y30008D01*
X49680Y30008D01*
X49674Y30010D01*
X49668Y30011D01*
X49655Y30017D01*
X49640Y30023D01*
X49624Y30032D01*
X49609Y30042D01*
X49595Y30056D01*
X49594Y30057D01*
X49594Y30057D01*
X49592Y30060D01*
X49590Y30064D01*
X49587Y30067D01*
X49584Y30072D01*
X49578Y30083D01*
X49572Y30098D01*
X49566Y30115D01*
X49563Y30134D01*
X49561Y30144D01*
Y30155D01*
Y30156D01*
Y30156D01*
Y30159D01*
Y30162D01*
X49562Y30169D01*
X49563Y30179D01*
X49566Y30191D01*
X49569Y30203D01*
X49573Y30216D01*
X49579Y30229D01*
Y30230D01*
X49580Y30231D01*
X49582Y30235D01*
X49586Y30241D01*
X49591Y30249D01*
X49598Y30257D01*
X49606Y30266D01*
X49616Y30274D01*
X49627Y30282D01*
X49628Y30283D01*
X49632Y30285D01*
X49638Y30288D01*
X49646Y30291D01*
X49656Y30294D01*
X49666Y30297D01*
X49677Y30299D01*
X49690Y30300D01*
X49696D01*
X49702Y30299D01*
X49709Y30298D01*
X49718Y30296D01*
X49728Y30293D01*
X49739Y30289D01*
X49749Y30283D01*
X49750Y30282D01*
X49753Y30280D01*
X49758Y30275D01*
X49764Y30270D01*
X49770Y30262D01*
X49777Y30254D01*
X49785Y30243D01*
X49791Y30231D01*
Y30232D01*
X49792Y30234D01*
Y30236D01*
X49793Y30239D01*
X49795Y30246D01*
X49800Y30256D01*
X49805Y30267D01*
X49813Y30278D01*
X49822Y30290D01*
X49833Y30299D01*
X49835Y30300D01*
X49839Y30303D01*
X49846Y30307D01*
X49855Y30312D01*
X49866Y30317D01*
X49880Y30321D01*
X49896Y30324D01*
X49913Y30324D01*
X49919D01*
X49924Y30324D01*
D02*
G37*
G36*
X50060Y28001D02*
X50052D01*
X50046Y28002D01*
X50040Y28002D01*
X50034Y28003D01*
X50026Y28005D01*
X50018Y28008D01*
X50018D01*
X50017Y28008D01*
X50012Y28010D01*
X50006Y28013D01*
X49997Y28017D01*
X49987Y28023D01*
X49976Y28030D01*
X49965Y28038D01*
X49953Y28048D01*
X49952D01*
X49951Y28049D01*
X49947Y28053D01*
X49940Y28059D01*
X49931Y28068D01*
X49920Y28079D01*
X49907Y28093D01*
X49893Y28110D01*
X49877Y28128D01*
X49876Y28129D01*
X49874Y28132D01*
X49871Y28135D01*
X49866Y28141D01*
X49860Y28147D01*
X49854Y28155D01*
X49839Y28172D01*
X49822Y28190D01*
X49804Y28208D01*
X49796Y28217D01*
X49788Y28225D01*
X49780Y28231D01*
X49772Y28237D01*
X49771D01*
X49770Y28239D01*
X49768Y28240D01*
X49765Y28242D01*
X49758Y28246D01*
X49748Y28252D01*
X49736Y28257D01*
X49724Y28262D01*
X49711Y28265D01*
X49698Y28266D01*
X49696D01*
X49692Y28265D01*
X49685Y28265D01*
X49677Y28263D01*
X49667Y28259D01*
X49657Y28255D01*
X49646Y28249D01*
X49637Y28240D01*
X49636Y28238D01*
X49633Y28235D01*
X49629Y28229D01*
X49624Y28222D01*
X49619Y28212D01*
X49615Y28200D01*
X49612Y28187D01*
X49612Y28172D01*
Y28171D01*
Y28169D01*
Y28167D01*
X49612Y28164D01*
X49613Y28156D01*
X49615Y28147D01*
X49619Y28135D01*
X49623Y28123D01*
X49630Y28112D01*
X49639Y28101D01*
X49640Y28101D01*
X49643Y28098D01*
X49649Y28093D01*
X49658Y28088D01*
X49668Y28083D01*
X49680Y28079D01*
X49695Y28076D01*
X49711Y28075D01*
X49705Y28012D01*
X49702D01*
X49698Y28013D01*
X49693Y28014D01*
X49687Y28015D01*
X49680Y28016D01*
X49665Y28020D01*
X49648Y28026D01*
X49631Y28035D01*
X49613Y28046D01*
X49606Y28052D01*
X49598Y28060D01*
X49597Y28060D01*
X49597Y28062D01*
X49594Y28064D01*
X49592Y28067D01*
X49590Y28072D01*
X49586Y28077D01*
X49583Y28083D01*
X49579Y28090D01*
X49576Y28098D01*
X49572Y28106D01*
X49569Y28116D01*
X49567Y28126D01*
X49563Y28148D01*
X49562Y28160D01*
X49561Y28173D01*
Y28174D01*
Y28176D01*
Y28180D01*
X49562Y28185D01*
X49563Y28191D01*
X49563Y28198D01*
X49564Y28206D01*
X49566Y28214D01*
X49571Y28232D01*
X49578Y28251D01*
X49582Y28261D01*
X49587Y28270D01*
X49594Y28278D01*
X49601Y28287D01*
X49602Y28287D01*
X49603Y28288D01*
X49605Y28290D01*
X49608Y28293D01*
X49612Y28296D01*
X49617Y28300D01*
X49628Y28308D01*
X49643Y28315D01*
X49659Y28322D01*
X49678Y28327D01*
X49689Y28328D01*
X49699Y28329D01*
X49705D01*
X49711Y28328D01*
X49718Y28327D01*
X49727Y28326D01*
X49737Y28324D01*
X49748Y28321D01*
X49758Y28316D01*
X49760Y28315D01*
X49764Y28314D01*
X49769Y28311D01*
X49777Y28306D01*
X49786Y28301D01*
X49796Y28294D01*
X49807Y28285D01*
X49819Y28275D01*
X49820Y28274D01*
X49825Y28270D01*
X49832Y28263D01*
X49836Y28259D01*
X49842Y28253D01*
X49848Y28247D01*
X49854Y28240D01*
X49861Y28232D01*
X49869Y28224D01*
X49878Y28215D01*
X49887Y28204D01*
X49896Y28194D01*
X49907Y28181D01*
X49907Y28181D01*
X49909Y28179D01*
X49911Y28176D01*
X49914Y28172D01*
X49922Y28163D01*
X49931Y28152D01*
X49942Y28141D01*
X49953Y28129D01*
X49962Y28119D01*
X49966Y28115D01*
X49969Y28111D01*
X49970Y28110D01*
X49972Y28109D01*
X49975Y28106D01*
X49980Y28102D01*
X49990Y28094D01*
X50002Y28085D01*
Y28330D01*
X50060D01*
Y28001D01*
D02*
G37*
%LPC*%
G36*
X49885Y32215D02*
X49663D01*
X49885Y32060D01*
Y32215D01*
D02*
G37*
G36*
X39761Y15784D02*
X39605D01*
Y15561D01*
X39761Y15784D01*
D02*
G37*
%LPD*%
D50*
X37077Y30699D02*
G03*
X37077Y30699I-79J0D01*
G01*
X20150Y30606D02*
G03*
X20230Y30806I-535J330D01*
G01*
X20240Y31086D02*
G03*
X20150Y31266I-561J-168D01*
G01*
X19940Y31466D02*
G03*
X19760Y31546I-346J-535D01*
G01*
X19470Y31536D02*
G03*
X19300Y31466I142J-587D01*
G01*
X19090Y31266D02*
G03*
X19010Y31086I505J-332D01*
G01*
Y30786D02*
G03*
X19090Y30606I596J157D01*
G01*
X19740Y30696D02*
G03*
X19500Y30696I-120J245D01*
G01*
X37067Y28607D02*
Y30502D01*
X38368D01*
X36870D02*
X37067D01*
X36870Y28607D02*
X37067D01*
X38368D01*
X47092Y31988D02*
Y32274D01*
X45197Y31988D02*
Y32274D01*
X41614Y26398D02*
Y26683D01*
X43509Y26398D02*
Y26683D01*
X19740Y30696D02*
X19880Y30356D01*
X19960Y30396D01*
X20140Y30276D01*
X20280Y30416D01*
X20150Y30596D02*
X20280Y30416D01*
X20230Y30796D02*
X20450Y30836D01*
Y31036D01*
X20230Y31076D02*
X20450Y31036D01*
X20140Y31266D02*
X20280Y31456D01*
X20140Y31596D02*
X20280Y31456D01*
X19940Y31466D02*
X20140Y31596D01*
X19710Y31776D02*
X19760Y31536D01*
X19520Y31776D02*
X19710D01*
X19470Y31536D02*
X19520Y31776D01*
X19100Y31596D02*
X19290Y31466D01*
X18960Y31456D02*
X19100Y31596D01*
X18960Y31456D02*
X19090Y31266D01*
X18780Y31036D02*
X19010Y31076D01*
X18780Y30836D02*
Y31036D01*
Y30836D02*
X19000Y30796D01*
X18960Y30416D02*
X19080Y30596D01*
X18960Y30416D02*
X19100Y30276D01*
X19280Y30396D01*
X19350Y30356D01*
X19500Y30696D01*
X49478Y19825D02*
X49878Y19278D01*
X49085D02*
X49478Y19825D01*
X49085Y19278D02*
X49878D01*
X36758Y28413D02*
X37258D01*
X37508Y28163D01*
X37258Y27413D02*
X37508Y27663D01*
Y28163D02*
X37758Y28413D01*
X38258D01*
X38508Y28163D01*
X38258Y27413D02*
X38508Y27663D01*
X37758Y27413D02*
X38258D01*
X37508Y27663D02*
X37758Y27413D01*
X36508Y27663D02*
Y28163D01*
X36758Y28413D01*
X36508Y27663D02*
X36758Y27413D01*
X37258D01*
X38508Y27663D02*
Y28163D01*
X49136Y23138D02*
Y22805D01*
X49386D01*
Y22972D01*
Y22805D01*
X49636D01*
X49219Y23305D02*
X49136Y23388D01*
Y23555D01*
X49219Y23638D01*
X49303D01*
X49386Y23555D01*
Y23472D01*
Y23555D01*
X49469Y23638D01*
X49553D01*
X49636Y23555D01*
Y23388D01*
X49553Y23305D01*
X48319Y23138D02*
Y22805D01*
X48569D01*
Y22972D01*
Y22805D01*
X48819D01*
Y23638D02*
Y23305D01*
X48486Y23638D01*
X48402D01*
X48319Y23555D01*
Y23388D01*
X48402Y23305D01*
X34044Y18098D02*
X33711D01*
Y17848D01*
X33877D01*
X33711D01*
Y17598D01*
X34210D02*
X34377D01*
X34294D01*
Y18098D01*
X34210Y18015D01*
X38943Y10980D02*
Y11480D01*
X39193D01*
X39277Y11396D01*
Y11230D01*
X39193Y11147D01*
X38943D01*
X39526Y10980D02*
X39693D01*
X39776Y11063D01*
Y11230D01*
X39693Y11313D01*
X39526D01*
X39443Y11230D01*
Y11063D01*
X39526Y10980D01*
X39943Y11313D02*
Y11063D01*
X40026Y10980D01*
X40110Y11063D01*
X40193Y10980D01*
X40276Y11063D01*
Y11313D01*
X40693Y10980D02*
X40526D01*
X40443Y11063D01*
Y11230D01*
X40526Y11313D01*
X40693D01*
X40776Y11230D01*
Y11147D01*
X40443D01*
X40943Y11313D02*
Y10980D01*
Y11147D01*
X41026Y11230D01*
X41109Y11313D01*
X41193D01*
X41942Y11480D02*
X42109D01*
X42026D01*
Y10980D01*
X41942D01*
X42109D01*
X42359D02*
Y11313D01*
X42609D01*
X42692Y11230D01*
Y10980D01*
X42859Y10813D02*
Y11313D01*
X43109D01*
X43192Y11230D01*
Y11063D01*
X43109Y10980D01*
X42859D01*
X43359Y11313D02*
Y11063D01*
X43442Y10980D01*
X43692D01*
Y11313D01*
X43942Y11396D02*
Y11313D01*
X43858D01*
X44025D01*
X43942D01*
Y11063D01*
X44025Y10980D01*
X26063Y35069D02*
X26230D01*
X26146D01*
Y35569D01*
X26063Y35485D01*
X26480D02*
X26563Y35569D01*
X26729D01*
X26813Y35485D01*
Y35152D01*
X26729Y35069D01*
X26563D01*
X26480Y35152D01*
Y35485D01*
X26526Y36205D02*
X26609Y36122D01*
X26776D01*
X26859Y36205D01*
Y36539D01*
X26776Y36622D01*
X26609D01*
X26526Y36539D01*
Y36455D01*
X26609Y36372D01*
X26859D01*
X32254Y36299D02*
X32421D01*
X32337D01*
Y36799D01*
X32254Y36716D01*
X32538Y35197D02*
X32205D01*
X32538Y35530D01*
Y35613D01*
X32455Y35697D01*
X32288D01*
X32205Y35613D01*
X26083Y31545D02*
X26249D01*
X26166D01*
Y32045D01*
X26083Y31962D01*
X26499D02*
X26583Y32045D01*
X26749D01*
X26832Y31962D01*
Y31629D01*
X26749Y31545D01*
X26583D01*
X26499Y31629D01*
Y31962D01*
X26496Y32672D02*
X26579Y32589D01*
X26746D01*
X26829Y32672D01*
Y33005D01*
X26746Y33088D01*
X26579D01*
X26496Y33005D01*
Y32922D01*
X26579Y32838D01*
X26829D01*
X32195Y32549D02*
X32361D01*
X32278D01*
Y33049D01*
X32195Y32966D01*
X32489Y31545D02*
X32156D01*
X32489Y31878D01*
Y31962D01*
X32405Y32045D01*
X32239D01*
X32156Y31962D01*
X34747Y32457D02*
Y32290D01*
Y32374D01*
X35247D01*
X35163Y32457D01*
Y32041D02*
X35247Y31957D01*
Y31791D01*
X35163Y31707D01*
X34830D01*
X34747Y31791D01*
Y31957D01*
X34830Y32041D01*
X35163D01*
X33830Y32457D02*
X33747Y32374D01*
Y32207D01*
X33830Y32124D01*
X34163D01*
X34247Y32207D01*
Y32374D01*
X34163Y32457D01*
X34080D01*
X33997Y32374D01*
Y32124D01*
X32732Y37271D02*
Y37104D01*
Y37188D01*
X33232D01*
X33149Y37271D01*
X35783Y36997D02*
Y37330D01*
X36117Y36997D01*
X36200D01*
X36283Y37080D01*
Y37247D01*
X36200Y37330D01*
X39723Y27016D02*
X39390D01*
Y26766D01*
X39556D01*
X39390D01*
Y26516D01*
X39973Y26849D02*
X40140D01*
X40223Y26766D01*
Y26516D01*
X39973D01*
X39890Y26599D01*
X39973Y26682D01*
X40223D01*
X40389Y26516D02*
Y26849D01*
X40639D01*
X40723Y26766D01*
Y26516D01*
X40889D02*
X41056D01*
X40973D01*
Y27016D01*
X40889Y26932D01*
X39231Y28177D02*
X38898D01*
Y27927D01*
X39064D01*
X38898D01*
Y27677D01*
X39481Y28010D02*
X39647D01*
X39731Y27927D01*
Y27677D01*
X39481D01*
X39397Y27760D01*
X39481Y27844D01*
X39731D01*
X39897Y27677D02*
Y28010D01*
X40147D01*
X40231Y27927D01*
Y27677D01*
X40730D02*
X40397D01*
X40730Y28010D01*
Y28094D01*
X40647Y28177D01*
X40480D01*
X40397Y28094D01*
X42589Y13325D02*
Y12825D01*
X42839D01*
X42922Y12908D01*
Y12991D01*
X42839Y13075D01*
X42589D01*
X42839D01*
X42922Y13158D01*
Y13241D01*
X42839Y13325D01*
X42589D01*
X43422D02*
X43088D01*
Y12825D01*
X43422D01*
X43088Y13075D02*
X43255D01*
X43588Y13325D02*
Y12825D01*
X43838D01*
X43921Y12908D01*
Y13241D01*
X43838Y13325D01*
X43588D01*
X44588D02*
X44755D01*
X44671D01*
Y12825D01*
X44588D01*
X44755D01*
X45004D02*
Y13325D01*
X45338Y12825D01*
Y13325D01*
X38327Y12825D02*
Y13325D01*
X38577D01*
X38660Y13241D01*
Y13075D01*
X38577Y12991D01*
X38327D01*
X38827Y13325D02*
Y12825D01*
X38993Y12991D01*
X39160Y12825D01*
Y13325D01*
X39326Y12825D02*
Y13325D01*
X39576D01*
X39660Y13241D01*
Y13075D01*
X39576Y12991D01*
X39326D01*
X39493D02*
X39660Y12825D01*
X40326Y13325D02*
X40493D01*
X40409D01*
Y12825D01*
X40326D01*
X40493D01*
X40743D02*
Y13325D01*
X41076Y12825D01*
Y13325D01*
X13260Y20630D02*
Y21030D01*
X13393Y20897D01*
X13527Y21030D01*
Y20630D01*
X13660D02*
X13793D01*
X13727D01*
Y20897D01*
X13660D01*
X13993Y20630D02*
Y20897D01*
X14193D01*
X14260Y20830D01*
Y20630D01*
X14393D02*
X14526D01*
X14460D01*
Y20897D01*
X14393D01*
X14726Y20830D02*
X14993D01*
X15126Y20630D02*
Y21030D01*
X15326D01*
X15393Y20963D01*
Y20830D01*
X15326Y20763D01*
X15126D01*
X15259D02*
X15393Y20630D01*
X15593Y20897D02*
X15726D01*
X15793Y20830D01*
Y20630D01*
X15593D01*
X15526Y20697D01*
X15593Y20763D01*
X15793D01*
X15926Y20630D02*
Y20897D01*
X15992D01*
X16059Y20830D01*
Y20630D01*
Y20830D01*
X16126Y20897D01*
X16192Y20830D01*
Y20630D01*
X16326Y21030D02*
Y20630D01*
X16526D01*
X16592Y20697D01*
Y20763D01*
Y20830D01*
X16526Y20897D01*
X16326D01*
X16792Y20630D02*
X16925D01*
X16992Y20697D01*
Y20830D01*
X16925Y20897D01*
X16792D01*
X16726Y20830D01*
Y20697D01*
X16792Y20630D01*
X17525D02*
X17659D01*
X17592D01*
Y21030D01*
X17525Y20963D01*
X17859Y20630D02*
Y20697D01*
X17925D01*
Y20630D01*
X17859D01*
X18192Y20963D02*
X18258Y21030D01*
X18392D01*
X18458Y20963D01*
Y20897D01*
X18392Y20830D01*
X18325D01*
X18392D01*
X18458Y20763D01*
Y20697D01*
X18392Y20630D01*
X18258D01*
X18192Y20697D01*
X18658Y20897D02*
X18792D01*
X18858Y20830D01*
Y20630D01*
X18658D01*
X18592Y20697D01*
X18658Y20763D01*
X18858D01*
X43906Y30431D02*
X43573D01*
Y29931D01*
X43906D01*
X43573Y30181D02*
X43739D01*
X44073Y30264D02*
X44406Y29931D01*
X44239Y30098D01*
X44406Y30264D01*
X44073Y29931D01*
X44656Y30348D02*
Y30264D01*
X44573D01*
X44739D01*
X44656D01*
Y30014D01*
X44739Y29931D01*
X44989Y30264D02*
Y29931D01*
Y30098D01*
X45072Y30181D01*
X45156Y30264D01*
X45239D01*
X45489D02*
Y30014D01*
X45572Y29931D01*
X45822D01*
Y30264D01*
X46322Y30431D02*
Y29931D01*
X46072D01*
X45989Y30014D01*
Y30181D01*
X46072Y30264D01*
X46322D01*
X46738Y29931D02*
X46572D01*
X46489Y30014D01*
Y30181D01*
X46572Y30264D01*
X46738D01*
X46822Y30181D01*
Y30098D01*
X46489D01*
X46988Y30264D02*
Y29931D01*
Y30098D01*
X47072Y30181D01*
X47155Y30264D01*
X47238D01*
X45787Y29397D02*
Y28898D01*
X46037D01*
X46121Y28981D01*
Y29064D01*
X46037Y29148D01*
X45787D01*
X46037D01*
X46121Y29231D01*
Y29314D01*
X46037Y29397D01*
X45787D01*
X46537Y28898D02*
X46371D01*
X46287Y28981D01*
Y29148D01*
X46371Y29231D01*
X46537D01*
X46620Y29148D01*
Y29064D01*
X46287D01*
X47120Y29397D02*
Y28898D01*
X46870D01*
X46787Y28981D01*
Y29148D01*
X46870Y29231D01*
X47120D01*
X30571Y29831D02*
X30904D01*
X30737D01*
Y29331D01*
X31071Y29747D02*
X31154Y29831D01*
X31321D01*
X31404Y29747D01*
Y29414D01*
X31321Y29331D01*
X31154D01*
X31071Y29414D01*
Y29747D01*
X30571Y23925D02*
X30904D01*
X30737D01*
Y23425D01*
X31071D02*
X31237D01*
X31154D01*
Y23925D01*
X31071Y23842D01*
X30571Y22311D02*
X30904D01*
X30737D01*
Y21811D01*
X31404D02*
X31071D01*
X31404Y22144D01*
Y22228D01*
X31321Y22311D01*
X31154D01*
X31071Y22228D01*
X37805Y13045D02*
X38138D01*
X41304D02*
X41637D01*
X41471Y13212D02*
Y12879D01*
X42037Y13055D02*
X42371D01*
X45536D02*
X45869D01*
X45703Y13222D02*
Y12888D01*
X40270Y29950D02*
X40070D01*
X39970Y29850D01*
Y29450D01*
X40070Y29350D01*
X40270D01*
X40370Y29450D01*
Y29850D01*
X40270Y29950D01*
X40570Y29750D02*
Y29450D01*
X40670Y29350D01*
X40970D01*
Y29750D01*
X41270Y29850D02*
Y29750D01*
X41170D01*
X41370D01*
X41270D01*
Y29450D01*
X41370Y29350D01*
X41670Y29150D02*
Y29750D01*
X41970D01*
X42070Y29650D01*
Y29450D01*
X41970Y29350D01*
X41670D01*
X42270Y29750D02*
Y29450D01*
X42370Y29350D01*
X42670D01*
Y29750D01*
X42969Y29850D02*
Y29750D01*
X42870D01*
X43069D01*
X42969D01*
Y29450D01*
X43069Y29350D01*
X19970Y19833D02*
Y20333D01*
X20137Y20166D01*
X20304Y20333D01*
Y19833D01*
X20554D02*
X20720D01*
X20804Y19916D01*
Y20083D01*
X20720Y20166D01*
X20554D01*
X20470Y20083D01*
Y19916D01*
X20554Y19833D01*
X21053Y20249D02*
Y20166D01*
X20970D01*
X21137D01*
X21053D01*
Y19916D01*
X21137Y19833D01*
X21470D02*
X21637D01*
X21720Y19916D01*
Y20083D01*
X21637Y20166D01*
X21470D01*
X21387Y20083D01*
Y19916D01*
X21470Y19833D01*
X21887Y20166D02*
Y19833D01*
Y19999D01*
X21970Y20083D01*
X22053Y20166D01*
X22136D01*
X22386Y19833D02*
X22636D01*
X22720Y19916D01*
X22636Y19999D01*
X22470D01*
X22386Y20083D01*
X22470Y20166D01*
X22720D01*
X21347Y31878D02*
X21014D01*
Y31378D01*
X21347D01*
X21014Y31628D02*
X21180D01*
X21514Y31378D02*
Y31711D01*
X21764D01*
X21847Y31628D01*
Y31378D01*
X22347Y31878D02*
Y31378D01*
X22097D01*
X22013Y31461D01*
Y31628D01*
X22097Y31711D01*
X22347D01*
X22513Y31378D02*
X22763D01*
X22847Y31461D01*
X22763Y31545D01*
X22597D01*
X22513Y31628D01*
X22597Y31711D01*
X22847D01*
X23096Y31794D02*
Y31711D01*
X23013D01*
X23180D01*
X23096D01*
Y31461D01*
X23180Y31378D01*
X23513D02*
X23680D01*
X23763Y31461D01*
Y31628D01*
X23680Y31711D01*
X23513D01*
X23430Y31628D01*
Y31461D01*
X23513Y31378D01*
X23930Y31211D02*
Y31711D01*
X24179D01*
X24263Y31628D01*
Y31461D01*
X24179Y31378D01*
X23930D01*
X24429D02*
X24679D01*
X24763Y31461D01*
X24679Y31545D01*
X24513D01*
X24429Y31628D01*
X24513Y31711D01*
X24763D01*
X29537Y21405D02*
X29871D01*
X29704D01*
Y20906D01*
X30037Y21405D02*
Y20906D01*
Y21155D01*
X30121Y21239D01*
X30287D01*
X30370Y21155D01*
Y20906D01*
X30787D02*
X30620D01*
X30537Y20989D01*
Y21155D01*
X30620Y21239D01*
X30787D01*
X30870Y21155D01*
Y21072D01*
X30537D01*
X31037Y21239D02*
Y20906D01*
Y21072D01*
X31120Y21155D01*
X31204Y21239D01*
X31287D01*
X31537Y20906D02*
Y21239D01*
X31620D01*
X31703Y21155D01*
Y20906D01*
Y21155D01*
X31787Y21239D01*
X31870Y21155D01*
Y20906D01*
X28522Y34201D02*
X28189D01*
Y33701D01*
X28522D01*
X28189Y33951D02*
X28356D01*
X28689Y34034D02*
X29022Y33701D01*
X28855Y33867D01*
X29022Y34034D01*
X28689Y33701D01*
X29272Y34117D02*
Y34034D01*
X29189D01*
X29355D01*
X29272D01*
Y33784D01*
X29355Y33701D01*
X29855D02*
X29688D01*
X29605Y33784D01*
Y33951D01*
X29688Y34034D01*
X29855D01*
X29938Y33951D01*
Y33867D01*
X29605D01*
X30105Y33701D02*
Y34034D01*
X30355D01*
X30438Y33951D01*
Y33701D01*
X30605D02*
X30855D01*
X30938Y33784D01*
X30855Y33867D01*
X30688D01*
X30605Y33951D01*
X30688Y34034D01*
X30938D01*
X31105Y33701D02*
X31271D01*
X31188D01*
Y34034D01*
X31105D01*
X31605Y33701D02*
X31771D01*
X31854Y33784D01*
Y33951D01*
X31771Y34034D01*
X31605D01*
X31521Y33951D01*
Y33784D01*
X31605Y33701D01*
X32021D02*
Y34034D01*
X32271D01*
X32354Y33951D01*
Y33701D01*
X32521D02*
X32771D01*
X32854Y33784D01*
X32771Y33867D01*
X32604D01*
X32521Y33951D01*
X32604Y34034D01*
X32854D01*
D53*
X10990Y21378D02*
X10690D01*
X10630Y21318D01*
Y21198D01*
X10690Y21138D01*
X10990D01*
X10630Y21018D02*
Y20898D01*
Y20958D01*
X10990D01*
Y21018D01*
X10930Y20658D02*
X10870D01*
Y20718D01*
Y20598D01*
Y20658D01*
X10690D01*
X10630Y20598D01*
Y20418D02*
Y20298D01*
Y20358D01*
X10870D01*
Y20418D01*
X10630Y20118D02*
X10990D01*
X10870Y19998D01*
X10990Y19878D01*
X10630D01*
X10870Y19698D02*
Y19579D01*
X10810Y19519D01*
X10630D01*
Y19698D01*
X10690Y19758D01*
X10750Y19698D01*
Y19519D01*
X10870Y19159D02*
Y19339D01*
X10810Y19399D01*
X10690D01*
X10630Y19339D01*
Y19159D01*
X10990Y19039D02*
X10630D01*
X10810D01*
X10870Y18979D01*
Y18859D01*
X10810Y18799D01*
X10630D01*
Y18679D02*
Y18559D01*
Y18619D01*
X10870D01*
Y18679D01*
X10630Y18379D02*
X10870D01*
Y18199D01*
X10810Y18139D01*
X10630D01*
Y17839D02*
Y17959D01*
X10690Y18019D01*
X10810D01*
X10870Y17959D01*
Y17839D01*
X10810Y17779D01*
X10750D01*
Y18019D01*
D54*
X28638Y27562D02*
G03*
X28638Y27562I-100J0D01*
G01*
X28514Y30768D02*
Y31270D01*
Y30768D02*
X30502D01*
Y31240D01*
X28494Y34429D02*
Y34931D01*
Y34429D02*
X30482D01*
Y34902D01*
X23510Y27956D02*
X28638D01*
X23412Y27857D02*
X23510Y27956D01*
X23412Y22540D02*
Y27857D01*
Y22540D02*
X23510Y22440D01*
X28828D01*
X28928Y22540D01*
Y27661D01*
X28638Y27956D02*
X28928Y27661D01*
X23878Y12542D02*
X24998D01*
X27753D02*
X28878D01*
Y10287D02*
Y12542D01*
X23878Y10287D02*
X28878D01*
X23878D02*
Y12542D01*
X28429Y10837D02*
Y11988D01*
X24318Y10837D02*
X28429D01*
X24318D02*
Y11988D01*
X28429D01*
X23878Y15298D02*
X24998D01*
X27753D02*
X28878D01*
Y13043D02*
Y15298D01*
X23878Y13043D02*
X28878D01*
X23878D02*
Y15298D01*
X28429Y13593D02*
Y14744D01*
X24318Y13593D02*
X28429D01*
X24318D02*
Y14744D01*
X28429D01*
X21622Y34697D02*
Y36952D01*
Y34697D02*
X25622D01*
Y36952D01*
X24997D02*
X25622D01*
X24997D02*
Y37327D01*
X22242D02*
X24997D01*
X22242Y36952D02*
Y37327D01*
X21622Y36952D02*
X22242D01*
X17488Y34697D02*
Y36952D01*
Y34697D02*
X21488D01*
Y36952D01*
X20863D02*
X21488D01*
X20863D02*
Y37327D01*
X18108D02*
X20863D01*
X18108Y36952D02*
Y37327D01*
X17488Y36952D02*
X18108D01*
X13354Y34697D02*
Y36952D01*
Y34697D02*
X17354D01*
Y36952D01*
X16729D02*
X17354D01*
X16729D02*
Y37327D01*
X13974D02*
X16729D01*
X13974Y36952D02*
Y37327D01*
X13354Y36952D02*
X13974D01*
X21488Y32340D02*
Y34595D01*
X17488D02*
X21488D01*
X17488Y32340D02*
Y34595D01*
Y32340D02*
X18113D01*
Y31965D02*
Y32340D01*
Y31965D02*
X20868D01*
Y32340D01*
X21488D01*
X25622D02*
Y34595D01*
X21622D02*
X25622D01*
X21622Y32340D02*
Y34595D01*
Y32340D02*
X22247D01*
Y31965D02*
Y32340D01*
Y31965D02*
X25002D01*
Y32340D01*
X25622D01*
X17354D02*
Y34595D01*
X13354D02*
X17354D01*
X13354Y32340D02*
Y34595D01*
Y32340D02*
X13979D01*
Y31965D02*
Y32340D01*
Y31965D02*
X16734D01*
Y32340D01*
X17354D01*
X32379Y26217D02*
X34634D01*
Y29217D01*
X32379D02*
X34634D01*
X32379Y29092D02*
Y29217D01*
X32004Y29092D02*
X32379D01*
X32004Y26337D02*
Y29092D01*
Y26337D02*
X32379D01*
Y26217D02*
Y26337D01*
Y23106D02*
X34634D01*
Y26106D01*
X32379D02*
X34634D01*
X32379Y25981D02*
Y26106D01*
X32004Y25981D02*
X32379D01*
X32004Y23226D02*
Y25981D01*
Y23226D02*
X32379D01*
Y23106D02*
Y23226D01*
X33398Y32366D02*
X35653D01*
X33398Y29366D02*
Y32366D01*
Y29366D02*
X35653D01*
Y29491D01*
X36028D01*
Y32246D01*
X35653D02*
X36028D01*
X35653D02*
Y32366D01*
X36059Y24500D02*
Y26755D01*
Y24500D02*
X39059D01*
Y26755D01*
X38934D02*
X39059D01*
X38934D02*
Y27130D01*
X36179D02*
X38934D01*
X36179Y26755D02*
Y27130D01*
X36059Y26755D02*
X36179D01*
X32379Y19996D02*
X34634D01*
Y22996D01*
X32379D02*
X34634D01*
X32379Y22871D02*
Y22996D01*
X32004Y22871D02*
X32379D01*
X32004Y20116D02*
Y22871D01*
Y20116D02*
X32379D01*
Y19996D02*
Y20116D01*
X13642Y12542D02*
X14762D01*
Y12917D01*
X17517Y12542D02*
X18642D01*
Y10287D02*
Y12542D01*
X13642Y10287D02*
X18642D01*
X13642D02*
Y12542D01*
X18193Y10837D02*
Y11988D01*
X14082Y10837D02*
X18193D01*
X14082D02*
Y11988D01*
X18193D01*
X14754Y12540D02*
X17509D01*
X14762Y12917D02*
X17517D01*
Y12542D02*
Y12917D01*
X18760Y12542D02*
X19880D01*
Y12917D01*
X22635Y12542D02*
X23760D01*
Y10287D02*
Y12542D01*
X18760Y10287D02*
X23760D01*
X18760D02*
Y12542D01*
X23311Y10837D02*
Y11988D01*
X19200Y10837D02*
X23311D01*
X19200D02*
Y11988D01*
X23311D01*
X19872Y12540D02*
X22627D01*
X19880Y12917D02*
X22635D01*
Y12542D02*
Y12917D01*
X28996Y12542D02*
X30116D01*
Y12917D01*
X32871Y12542D02*
X33996D01*
Y10287D02*
Y12542D01*
X28996Y10287D02*
X33996D01*
X28996D02*
Y12542D01*
X33547Y10837D02*
Y11988D01*
X29436Y10837D02*
X33547D01*
X29436D02*
Y11988D01*
X33547D01*
X30109Y12540D02*
X32864D01*
X30116Y12917D02*
X32871D01*
Y12542D02*
Y12917D01*
X46445Y34976D02*
Y36752D01*
X45453Y34976D02*
Y36752D01*
X46232Y26083D02*
Y27859D01*
X47224Y26083D02*
Y27859D01*
X33358Y13996D02*
Y15772D01*
X34350Y13996D02*
Y15772D01*
X42045Y19868D02*
Y21644D01*
X41053Y19868D02*
Y21644D01*
X37414Y36150D02*
X39190D01*
X37414Y35158D02*
X39190D01*
X39715Y30640D02*
X47410D01*
X39715Y28671D02*
Y30640D01*
Y28671D02*
X47410D01*
X43346Y29656D02*
X47431D01*
X43346Y28671D02*
Y29656D01*
Y28671D02*
Y30640D01*
X25896Y33406D02*
Y34005D01*
X26196D01*
X26296Y33905D01*
Y33705D01*
X26196Y33605D01*
X25896D01*
X26895Y33406D02*
X26495D01*
X26895Y33805D01*
Y33905D01*
X26795Y34005D01*
X26595D01*
X26495Y33905D01*
X25984Y36850D02*
Y37450D01*
X26284D01*
X26384Y37350D01*
Y37150D01*
X26284Y37050D01*
X25984D01*
X26584Y36850D02*
X26784D01*
X26684D01*
Y37450D01*
X26584Y37350D01*
D110*
X16855Y25801D02*
G03*
X16855Y25801I-39J0D01*
G01*
X14213Y15776D02*
G03*
X14213Y15776I-39J0D01*
G01*
X18722D02*
G03*
X18722Y15776I-39J0D01*
G01*
X23108D02*
G03*
X23108Y15776I-39J0D01*
G01*
X31988Y15707D02*
G03*
X31988Y15707I-39J0D01*
G01*
X42744Y33096D02*
G03*
X42744Y33096I-49J0D01*
G01*
D111*
X39981Y20945D02*
G03*
X39981Y20945I-2520J0D01*
G01*
X11140Y13630D02*
G03*
X11140Y13630I-420J0D01*
G01*
X34570Y18241D02*
X37320D01*
Y10441D02*
Y18241D01*
X34570Y10441D02*
X37320D01*
X34570D02*
Y18241D01*
X45125Y17291D02*
Y25091D01*
X42375D02*
X45125D01*
X42375Y17291D02*
Y25091D01*
Y17291D02*
X45125D01*
X45279Y17301D02*
X48029D01*
X45279D02*
Y25101D01*
X48029D01*
Y17301D02*
Y25101D01*
X16800Y26100D02*
Y26218D01*
Y27982D02*
Y28100D01*
X18682Y26100D02*
X18800D01*
X16800D02*
X16918D01*
X18800D02*
Y26218D01*
Y27982D02*
Y28100D01*
X18682D02*
X18800D01*
X16800D02*
X16918D01*
X13756Y15760D02*
X13874D01*
X11874D02*
X11992D01*
X13874Y17642D02*
Y17760D01*
Y15760D02*
Y15878D01*
X13756Y17760D02*
X13874D01*
X11874D02*
X11992D01*
X11874Y17642D02*
Y17760D01*
Y15760D02*
Y15878D01*
X18265Y15760D02*
X18383D01*
X16383D02*
X16501D01*
X18383Y17642D02*
Y17760D01*
Y15760D02*
Y15878D01*
X18265Y17760D02*
X18383D01*
X16383D02*
X16501D01*
X16383Y17642D02*
Y17760D01*
Y15760D02*
Y15878D01*
X22651Y15760D02*
X22769D01*
X20769D02*
X20887D01*
X22769Y17642D02*
Y17760D01*
Y15760D02*
Y15878D01*
X22651Y17760D02*
X22769D01*
X20769D02*
X20887D01*
X20769Y17642D02*
Y17760D01*
Y15760D02*
Y15878D01*
X31532Y15691D02*
X31650D01*
X29650D02*
X29768D01*
X31650Y17573D02*
Y17691D01*
Y15691D02*
Y15809D01*
X31532Y17691D02*
X31650D01*
X29650D02*
X29768D01*
X29650Y17573D02*
Y17691D01*
Y15691D02*
Y15809D01*
X16047Y23411D02*
X17040D01*
X16047D02*
Y24671D01*
X17040D01*
Y23411D02*
Y24671D01*
X20901Y26450D02*
X21894D01*
Y25190D02*
Y26450D01*
X20901Y25190D02*
X21894D01*
X20901D02*
Y26450D01*
D112*
X19601Y23770D02*
G03*
X19601Y23770I-120J0D01*
G01*
D113*
X50190Y26160D02*
G03*
X50610Y27000I-630J840D01*
G01*
D02*
G03*
X50190Y27840I-1050J0D01*
G01*
Y30160D02*
G03*
X50610Y31000I-630J840D01*
G01*
Y33000D02*
G03*
X50190Y33840I-1050J0D01*
G01*
Y28160D02*
G03*
X50610Y29000I-630J840D01*
G01*
D02*
G03*
X50190Y29840I-1050J0D01*
G01*
Y32160D02*
G03*
X50610Y33000I-630J840D01*
G01*
Y31000D02*
G03*
X50190Y31840I-1050J0D01*
G01*
X42240Y23750D02*
G03*
X42240Y23750I-1600J0D01*
G01*
X50084Y15551D02*
G03*
X50084Y15551I-1600J0D01*
G01*
X40821Y16508D02*
G03*
X39981Y16088I0J-1050D01*
G01*
X39661D02*
G03*
X38821Y16508I-840J-630D01*
G01*
X42821D02*
G03*
X41981Y16088I0J-1050D01*
G01*
X43661D02*
G03*
X42821Y16508I-840J-630D01*
G01*
X38821D02*
G03*
X37981Y16088I0J-1050D01*
G01*
X41661D02*
G03*
X40821Y16508I-840J-630D01*
G01*
X44821D02*
G03*
X43981Y16088I0J-1050D01*
G01*
X45661D02*
G03*
X44821Y16508I-840J-630D01*
G01*
X24368Y10977D02*
X28386D01*
X24368Y13733D02*
X28386D01*
X10017Y30440D02*
X11417D01*
X10017D02*
Y30890D01*
Y33340D02*
X11417D01*
X10117Y32140D02*
Y33240D01*
X9917Y32890D02*
X10017D01*
X9917Y32390D02*
Y32890D01*
Y30890D02*
X10017D01*
Y33340D01*
X9917Y31390D02*
Y32390D01*
Y30890D02*
Y31390D01*
X10117Y32140D02*
X10517D01*
X10117Y31640D02*
Y32140D01*
X10517Y31640D02*
Y32140D01*
X10117Y31640D02*
X10517D01*
X10117Y30540D02*
Y31640D01*
X11417Y32940D02*
Y33240D01*
Y32940D02*
X11517D01*
Y32640D02*
Y32940D01*
X11417Y32640D02*
X11517D01*
X11417Y32190D02*
Y32640D01*
X11317Y32190D02*
X11417D01*
X11317Y31590D02*
Y32190D01*
Y31590D02*
X11417D01*
Y31190D02*
Y31590D01*
Y31190D02*
X11517D01*
Y30840D02*
Y31190D01*
X11417Y30840D02*
X11517D01*
X11417Y30540D02*
Y30840D01*
X11217Y33240D02*
X11417D01*
X10117D02*
X10617D01*
X10117Y30540D02*
X10617D01*
X11217D02*
X11417D01*
X14132Y10977D02*
X18150D01*
X19250D02*
X23268D01*
X29486D02*
X33504D01*
X47410Y33200D02*
Y34250D01*
X47610D01*
X50710Y25750D02*
Y34250D01*
X47610D02*
X50710D01*
X47410Y25750D02*
X47610D01*
X50710D01*
X48110Y26000D02*
X50210D01*
X48010D02*
X48110D01*
Y34000D02*
X50210D01*
Y27850D02*
Y28150D01*
Y26000D02*
Y26170D01*
Y33830D02*
Y34000D01*
X48110Y26000D02*
Y26800D01*
Y27200D01*
Y28800D01*
Y29200D01*
Y30800D01*
Y31200D01*
Y32800D01*
Y33200D01*
Y34000D01*
X47410Y25750D02*
Y26800D01*
Y27200D01*
Y28800D01*
Y29200D01*
Y30800D01*
Y31200D01*
Y32800D01*
Y33200D01*
Y30800D02*
X48110D01*
X47410Y31200D02*
X48110D01*
X47610Y25750D02*
Y26700D01*
Y27300D02*
Y28700D01*
Y29300D02*
Y30700D01*
X47410Y30800D02*
X47610Y30700D01*
X48010D01*
X48110Y30800D01*
X48010Y29300D02*
Y30700D01*
Y27300D02*
Y28700D01*
Y26000D02*
Y26700D01*
X47410Y31200D02*
X47610Y31300D01*
Y32700D01*
Y33300D02*
Y34250D01*
Y31300D02*
X48010D01*
X48110Y31200D01*
X48010Y31300D02*
Y32700D01*
Y33300D02*
Y34000D01*
X47410Y27200D02*
X48110D01*
X47410Y26800D02*
X48110D01*
X47610Y26700D02*
X48010D01*
X47610Y27300D02*
X48010D01*
X47410Y27200D02*
X47610Y27300D01*
X47410Y26800D02*
X47610Y26700D01*
X48010D02*
X48110Y26800D01*
X48010Y27300D02*
X48110Y27200D01*
X50210Y29850D02*
Y30150D01*
X47410Y28800D02*
X48110D01*
X47410Y29200D02*
X48110D01*
X47610Y29300D02*
X48010D01*
X47410Y29200D02*
X47610Y29300D01*
X48010D02*
X48110Y29200D01*
X47410Y28800D02*
X47610Y28700D01*
X48010D01*
X48110Y28800D01*
X50210Y31850D02*
Y32150D01*
X47410Y33200D02*
X48110D01*
X47610Y33300D02*
X48010D01*
X47410Y33200D02*
X47610Y33300D01*
X48010D02*
X48110Y33200D01*
X47410Y32800D02*
X48110D01*
X47610Y32700D02*
X48010D01*
X47410Y32800D02*
X47610Y32700D01*
X48010D02*
X48110Y32800D01*
X48010Y34000D02*
X48110D01*
X40190Y22400D02*
Y22700D01*
X40040Y22550D02*
X40340D01*
X48934Y16601D02*
Y16901D01*
X48784Y16751D02*
X49084D01*
X20921Y29426D02*
X21171Y29176D01*
X21671D02*
X21921Y29426D01*
X22171Y29176D01*
X22671D02*
X22921Y29426D01*
X20921D02*
Y30926D01*
X21171Y31176D01*
X21671D01*
X21921Y30926D01*
X22171Y31176D01*
X22671D01*
X22921Y30926D01*
X21921Y29426D02*
Y30926D01*
X22921Y29426D02*
Y30926D01*
X22171Y29176D02*
X22671D01*
X21171D02*
X21671D01*
X22921Y29426D02*
X23171Y29176D01*
X23671D02*
X23921Y29426D01*
X22921Y30926D02*
X23171Y31176D01*
X23671D01*
X23921Y30926D01*
Y29426D02*
Y30926D01*
X23171Y29176D02*
X23671D01*
X15195Y29426D02*
X15445Y29176D01*
X15945D02*
X16195Y29426D01*
X16445Y29176D01*
X16945D02*
X17195Y29426D01*
X15195D02*
Y30926D01*
X15445Y31176D01*
X15945D01*
X16195Y30926D01*
X16445Y31176D01*
X16945D01*
X17195Y30926D01*
X16195Y29426D02*
Y30926D01*
X17195Y29426D02*
Y30926D01*
X16445Y29176D02*
X16945D01*
X15445D02*
X15945D01*
X17195Y29426D02*
X17445Y29176D01*
X17945D02*
X18195Y29426D01*
X17195Y30926D02*
X17445Y31176D01*
X17945D01*
X18195Y30926D01*
Y29426D02*
Y30926D01*
X17445Y29176D02*
X17945D01*
X41831Y11703D02*
Y13553D01*
X37567Y11703D02*
X41831D01*
X37567D02*
Y13603D01*
X41831Y11703D02*
X46067D01*
Y13550D01*
X37821Y13908D02*
Y14008D01*
X39021D02*
X39121Y13908D01*
Y13508D02*
Y13908D01*
X38521D02*
X38621Y14008D01*
X38521Y13508D02*
Y13908D01*
X39671Y16108D02*
X39971D01*
X43021Y14008D02*
X43121Y13908D01*
Y13508D02*
Y13908D01*
X42521D02*
X42621Y14008D01*
X42521Y13508D02*
Y13908D01*
X41671Y16108D02*
X41971D01*
X44521Y13908D02*
X44621Y14008D01*
X45021D02*
X45121Y13908D01*
X44521Y13508D02*
Y13908D01*
X45121Y13508D02*
Y13908D01*
X37821D02*
X38521D01*
X39121D02*
X40521D01*
X40621Y14008D01*
X40521Y13508D02*
Y13908D01*
X37571Y13508D02*
X38521D01*
X39121D02*
X40521D01*
X45121Y13908D02*
X45821D01*
X43121D02*
X44521D01*
X41121D02*
X42521D01*
X41021Y14008D02*
X41121Y13908D01*
Y13508D02*
Y13908D01*
Y13508D02*
X42521D01*
X43121D02*
X44521D01*
X45121D02*
X46071D01*
X37821Y14008D02*
X38621D01*
X39021D01*
X40621D01*
X41021D01*
X42621D01*
X43021D01*
X44621D01*
X45021D01*
X45821D01*
X37821Y16108D02*
X37991D01*
X45651D02*
X45821D01*
X43671D02*
X43971D01*
X37821Y14008D02*
Y16108D01*
X45821Y13908D02*
Y14008D01*
Y16108D01*
X46071Y13508D02*
Y16608D01*
Y13308D02*
Y13508D01*
X37571D02*
Y16608D01*
X46071D01*
X37571Y13308D02*
Y13508D01*
X47342Y12320D02*
X47288Y12266D01*
Y12160D01*
X47342Y12106D01*
X47555D01*
X47608Y12160D01*
Y12266D01*
X47555Y12320D01*
X47342Y12426D02*
X47288Y12480D01*
Y12586D01*
X47342Y12639D01*
X47395D01*
X47448Y12586D01*
X47502Y12639D01*
X47555D01*
X47608Y12586D01*
Y12480D01*
X47555Y12426D01*
X47502D01*
X47448Y12480D01*
X47395Y12426D01*
X47342D01*
X47448Y12480D02*
Y12586D01*
X47555Y12746D02*
X47608Y12799D01*
Y12906D01*
X47555Y12959D01*
X47342D01*
X47288Y12906D01*
Y12799D01*
X47342Y12746D01*
X47395D01*
X47448Y12799D01*
Y12959D01*
X46810Y12320D02*
X46757Y12266D01*
Y12160D01*
X46810Y12106D01*
X47023D01*
X47077Y12160D01*
Y12266D01*
X47023Y12320D01*
X46810Y12426D02*
X46757Y12480D01*
Y12586D01*
X46810Y12639D01*
X46864D01*
X46917Y12586D01*
X46970Y12639D01*
X47023D01*
X47077Y12586D01*
Y12480D01*
X47023Y12426D01*
X46970D01*
X46917Y12480D01*
X46864Y12426D01*
X46810D01*
X46917Y12480D02*
Y12586D01*
X46810Y12746D02*
X46757Y12799D01*
Y12906D01*
X46810Y12959D01*
X46864D01*
X46917Y12906D01*
X46970Y12959D01*
X47023D01*
X47077Y12906D01*
Y12799D01*
X47023Y12746D01*
X46970D01*
X46917Y12799D01*
X46864Y12746D01*
X46810D01*
X46917Y12799D02*
Y12906D01*
X40725Y18003D02*
X40672Y18056D01*
X40565D01*
X40512Y18003D01*
Y17790D01*
X40565Y17736D01*
X40672D01*
X40725Y17790D01*
X40832Y18003D02*
X40885Y18056D01*
X40992D01*
X41045Y18003D01*
Y17949D01*
X40992Y17896D01*
X41045Y17843D01*
Y17790D01*
X40992Y17736D01*
X40885D01*
X40832Y17790D01*
Y17843D01*
X40885Y17896D01*
X40832Y17949D01*
Y18003D01*
X40885Y17896D02*
X40992D01*
X41152Y18056D02*
X41365D01*
Y18003D01*
X41152Y17790D01*
Y17736D01*
X39655Y17930D02*
X39601Y17876D01*
Y17770D01*
X39655Y17717D01*
X39868D01*
X39921Y17770D01*
Y17876D01*
X39868Y17930D01*
X39655Y18036D02*
X39601Y18090D01*
Y18196D01*
X39655Y18250D01*
X39708D01*
X39761Y18196D01*
X39815Y18250D01*
X39868D01*
X39921Y18196D01*
Y18090D01*
X39868Y18036D01*
X39815D01*
X39761Y18090D01*
X39708Y18036D01*
X39655D01*
X39761Y18090D02*
Y18196D01*
X39601Y18570D02*
X39655Y18463D01*
X39761Y18356D01*
X39868D01*
X39921Y18410D01*
Y18516D01*
X39868Y18570D01*
X39815D01*
X39761Y18516D01*
Y18356D01*
X35528Y18574D02*
X35475Y18627D01*
X35368D01*
X35315Y18574D01*
Y18360D01*
X35368Y18307D01*
X35475D01*
X35528Y18360D01*
X35635Y18574D02*
X35688Y18627D01*
X35795D01*
X35848Y18574D01*
Y18520D01*
X35795Y18467D01*
X35848Y18414D01*
Y18360D01*
X35795Y18307D01*
X35688D01*
X35635Y18360D01*
Y18414D01*
X35688Y18467D01*
X35635Y18520D01*
Y18574D01*
X35688Y18467D02*
X35795D01*
X36168Y18627D02*
X35955D01*
Y18467D01*
X36061Y18520D01*
X36115D01*
X36168Y18467D01*
Y18360D01*
X36115Y18307D01*
X36008D01*
X35955Y18360D01*
X40085Y19095D02*
X40032Y19149D01*
X39925D01*
X39872Y19095D01*
Y18882D01*
X39925Y18829D01*
X40032D01*
X40085Y18882D01*
X40192Y19095D02*
X40245Y19149D01*
X40352D01*
X40405Y19095D01*
Y19042D01*
X40352Y18989D01*
X40405Y18935D01*
Y18882D01*
X40352Y18829D01*
X40245D01*
X40192Y18882D01*
Y18935D01*
X40245Y18989D01*
X40192Y19042D01*
Y19095D01*
X40245Y18989D02*
X40352D01*
X40672Y18829D02*
Y19149D01*
X40512Y18989D01*
X40725D01*
X36097Y34407D02*
X35777D01*
Y34567D01*
X35830Y34620D01*
X35937D01*
X35990Y34567D01*
Y34407D01*
X35830Y34727D02*
X35777Y34780D01*
Y34887D01*
X35830Y34940D01*
X35884D01*
X35937Y34887D01*
Y34834D01*
Y34887D01*
X35990Y34940D01*
X36044D01*
X36097Y34887D01*
Y34780D01*
X36044Y34727D01*
X41650Y34900D02*
Y34633D01*
X41703Y34580D01*
X41810D01*
X41863Y34633D01*
Y34900D01*
X41970Y34847D02*
X42023Y34900D01*
X42130D01*
X42183Y34847D01*
Y34793D01*
X42130Y34740D01*
X42077D01*
X42130D01*
X42183Y34687D01*
Y34633D01*
X42130Y34580D01*
X42023D01*
X41970Y34633D01*
X43950Y35350D02*
X43630D01*
Y35510D01*
X43683Y35563D01*
X43790D01*
X43843Y35510D01*
Y35350D01*
Y35457D02*
X43950Y35563D01*
Y35883D02*
Y35670D01*
X43737Y35883D01*
X43683D01*
X43630Y35830D01*
Y35723D01*
X43683Y35670D01*
X43950Y36150D02*
X43630D01*
X43790Y35990D01*
Y36203D01*
X42700Y36950D02*
Y37270D01*
X42860D01*
X42913Y37217D01*
Y37110D01*
X42860Y37057D01*
X42700D01*
X42807D02*
X42913Y36950D01*
X43233D02*
X43020D01*
X43233Y37163D01*
Y37217D01*
X43180Y37270D01*
X43073D01*
X43020Y37217D01*
X43340D02*
X43393Y37270D01*
X43500D01*
X43553Y37217D01*
Y37163D01*
X43500Y37110D01*
X43446D01*
X43500D01*
X43553Y37057D01*
Y37003D01*
X43500Y36950D01*
X43393D01*
X43340Y37003D01*
X44630Y34130D02*
Y34450D01*
X44790D01*
X44843Y34397D01*
Y34290D01*
X44790Y34237D01*
X44630D01*
X44737D02*
X44843Y34130D01*
X44950D02*
X45057D01*
X45003D01*
Y34450D01*
X44950Y34397D01*
X45216Y34130D02*
X45323D01*
X45270D01*
Y34450D01*
X45216Y34397D01*
X44920Y33220D02*
X44600D01*
Y33380D01*
X44653Y33433D01*
X44760D01*
X44813Y33380D01*
Y33220D01*
Y33327D02*
X44920Y33433D01*
X44653Y33540D02*
X44600Y33593D01*
Y33700D01*
X44653Y33753D01*
X44707D01*
X44760Y33700D01*
Y33647D01*
Y33700D01*
X44813Y33753D01*
X44867D01*
X44920Y33700D01*
Y33593D01*
X44867Y33540D01*
X39700Y34378D02*
Y34058D01*
X39913D01*
X40020D02*
X40127D01*
X40073D01*
Y34378D01*
X40020Y34324D01*
X39650Y34870D02*
Y34550D01*
X39810D01*
X39863Y34603D01*
Y34817D01*
X39810Y34870D01*
X39650D01*
X39970Y34603D02*
X40023Y34550D01*
X40130D01*
X40183Y34603D01*
Y34817D01*
X40130Y34870D01*
X40023D01*
X39970Y34817D01*
Y34763D01*
X40023Y34710D01*
X40183D01*
X44743Y34867D02*
X44690Y34920D01*
X44583D01*
X44530Y34867D01*
Y34653D01*
X44583Y34600D01*
X44690D01*
X44743Y34653D01*
X45010Y34600D02*
Y34920D01*
X44850Y34760D01*
X45063D01*
X45170Y34653D02*
X45223Y34600D01*
X45330D01*
X45383Y34653D01*
Y34867D01*
X45330Y34920D01*
X45223D01*
X45170Y34867D01*
Y34813D01*
X45223Y34760D01*
X45383D01*
X40463Y32167D02*
X40410Y32220D01*
X40303D01*
X40250Y32167D01*
Y31953D01*
X40303Y31900D01*
X40410D01*
X40463Y31953D01*
X40730Y31900D02*
Y32220D01*
X40570Y32060D01*
X40783D01*
X41103Y32220D02*
X40890D01*
Y32060D01*
X40996Y32113D01*
X41050D01*
X41103Y32060D01*
Y31953D01*
X41050Y31900D01*
X40943D01*
X40890Y31953D01*
X40333Y33313D02*
X40280Y33260D01*
Y33153D01*
X40333Y33100D01*
X40547D01*
X40600Y33153D01*
Y33260D01*
X40547Y33313D01*
X40600Y33580D02*
X40280D01*
X40440Y33420D01*
Y33633D01*
X40333Y33740D02*
X40280Y33793D01*
Y33900D01*
X40333Y33953D01*
X40547D01*
X40600Y33900D01*
Y33793D01*
X40547Y33740D01*
X40333D01*
X44655Y32261D02*
X44601Y32207D01*
Y32101D01*
X44655Y32047D01*
X44868D01*
X44921Y32101D01*
Y32207D01*
X44868Y32261D01*
X44655Y32367D02*
X44601Y32420D01*
Y32527D01*
X44655Y32580D01*
X44708D01*
X44761Y32527D01*
Y32474D01*
Y32527D01*
X44815Y32580D01*
X44868D01*
X44921Y32527D01*
Y32420D01*
X44868Y32367D01*
X44601Y32900D02*
Y32687D01*
X44761D01*
X44708Y32794D01*
Y32847D01*
X44761Y32900D01*
X44868D01*
X44921Y32847D01*
Y32740D01*
X44868Y32687D01*
X41233Y32263D02*
X41180Y32210D01*
Y32103D01*
X41233Y32050D01*
X41447D01*
X41500Y32103D01*
Y32210D01*
X41447Y32263D01*
X41233Y32370D02*
X41180Y32423D01*
Y32530D01*
X41233Y32583D01*
X41287D01*
X41340Y32530D01*
Y32477D01*
Y32530D01*
X41393Y32583D01*
X41447D01*
X41500Y32530D01*
Y32423D01*
X41447Y32370D01*
X41233Y32690D02*
X41180Y32743D01*
Y32850D01*
X41233Y32903D01*
X41447D01*
X41500Y32850D01*
Y32743D01*
X41447Y32690D01*
X41233D01*
X37605Y31024D02*
X37552Y31078D01*
X37445D01*
X37392Y31024D01*
Y30811D01*
X37445Y30758D01*
X37552D01*
X37605Y30811D01*
X37925Y30758D02*
X37712D01*
X37925Y30971D01*
Y31024D01*
X37872Y31078D01*
X37765D01*
X37712Y31024D01*
X38245Y31078D02*
X38032D01*
Y30918D01*
X38138Y30971D01*
X38191D01*
X38245Y30918D01*
Y30811D01*
X38191Y30758D01*
X38085D01*
X38032Y30811D01*
X38725Y17881D02*
Y17667D01*
X38885D01*
Y17774D01*
Y17667D01*
X39045D01*
X38725Y17987D02*
X39045D01*
Y18147D01*
X38992Y18200D01*
X38939D01*
X38885Y18147D01*
Y17987D01*
Y18147D01*
X38832Y18200D01*
X38779D01*
X38725Y18147D01*
Y17987D01*
X39045Y18307D02*
Y18414D01*
Y18360D01*
X38725D01*
X38779Y18307D01*
X42635Y17062D02*
X42421D01*
Y16902D01*
X42528D01*
X42421D01*
Y16742D01*
X42741Y17062D02*
Y16742D01*
X42901D01*
X42954Y16795D01*
Y16849D01*
X42901Y16902D01*
X42741D01*
X42901D01*
X42954Y16955D01*
Y17009D01*
X42901Y17062D01*
X42741D01*
X43274Y16742D02*
X43061D01*
X43274Y16955D01*
Y17009D01*
X43221Y17062D01*
X43114D01*
X43061Y17009D01*
X34182Y12625D02*
X34129Y12571D01*
Y12465D01*
X34182Y12411D01*
X34395D01*
X34449Y12465D01*
Y12571D01*
X34395Y12625D01*
X34182Y12731D02*
X34129Y12785D01*
Y12891D01*
X34182Y12945D01*
X34236D01*
X34289Y12891D01*
Y12838D01*
Y12891D01*
X34342Y12945D01*
X34395D01*
X34449Y12891D01*
Y12785D01*
X34395Y12731D01*
X38012Y26644D02*
Y26964D01*
X38172D01*
X38225Y26910D01*
Y26804D01*
X38172Y26750D01*
X38012D01*
X38118D02*
X38225Y26644D01*
X38545D02*
X38332D01*
X38545Y26857D01*
Y26910D01*
X38492Y26964D01*
X38385D01*
X38332Y26910D01*
X38652Y26644D02*
X38758D01*
X38705D01*
Y26964D01*
X38652Y26910D01*
X35551Y29537D02*
X35231D01*
Y29697D01*
X35285Y29751D01*
X35391D01*
X35445Y29697D01*
Y29537D01*
Y29644D02*
X35551Y29751D01*
X35231Y29857D02*
Y30071D01*
X35285D01*
X35498Y29857D01*
X35551D01*
Y30177D02*
Y30284D01*
Y30231D01*
X35231D01*
X35285Y30177D01*
X34823Y24262D02*
Y24582D01*
X34983D01*
X35036Y24528D01*
Y24422D01*
X34983Y24368D01*
X34823D01*
X34929D02*
X35036Y24262D01*
X35143Y24582D02*
X35356D01*
Y24528D01*
X35143Y24315D01*
Y24262D01*
X35463Y24528D02*
X35516Y24582D01*
X35623D01*
X35676Y24528D01*
Y24315D01*
X35623Y24262D01*
X35516D01*
X35463Y24315D01*
Y24528D01*
X34783Y25034D02*
Y24715D01*
X34997D01*
X35317Y25034D02*
X35103D01*
Y24715D01*
X35317D01*
X35103Y24875D02*
X35210D01*
X35423Y25034D02*
Y24715D01*
X35583D01*
X35637Y24768D01*
Y24981D01*
X35583Y25034D01*
X35423D01*
X35743Y24981D02*
X35796Y25034D01*
X35903D01*
X35956Y24981D01*
Y24928D01*
X35903Y24875D01*
X35850D01*
X35903D01*
X35956Y24821D01*
Y24768D01*
X35903Y24715D01*
X35796D01*
X35743Y24768D01*
X34188Y22047D02*
X34508Y22261D01*
X34188D02*
X34508Y22047D01*
Y22367D02*
Y22474D01*
Y22420D01*
X34188D01*
X34241Y22367D01*
X34508Y22847D02*
Y22634D01*
X34295Y22847D01*
X34241D01*
X34188Y22794D01*
Y22687D01*
X34241Y22634D01*
X16845Y33701D02*
X17165Y33914D01*
X16845D02*
X17165Y33701D01*
Y34021D02*
Y34127D01*
Y34074D01*
X16845D01*
X16899Y34021D01*
X17165Y34287D02*
Y34394D01*
Y34341D01*
X16845D01*
X16899Y34287D01*
X25113Y33858D02*
X25433Y34072D01*
X25113D02*
X25433Y33858D01*
X25113Y34178D02*
Y34391D01*
X25166D01*
X25380Y34178D01*
X25433D01*
X20979Y33858D02*
X21299Y34072D01*
X20979D02*
X21299Y33858D01*
X20979Y34391D02*
Y34178D01*
X21139D01*
X21086Y34285D01*
Y34338D01*
X21139Y34391D01*
X21246D01*
X21299Y34338D01*
Y34231D01*
X21246Y34178D01*
X32805Y20876D02*
X32485D01*
Y21036D01*
X32539Y21089D01*
X32645D01*
X32698Y21036D01*
Y20876D01*
Y20983D02*
X32805Y21089D01*
X32485Y21409D02*
X32539Y21303D01*
X32645Y21196D01*
X32752D01*
X32805Y21249D01*
Y21356D01*
X32752Y21409D01*
X32698D01*
X32645Y21356D01*
Y21196D01*
X32766Y21949D02*
X32446D01*
Y22109D01*
X32499Y22162D01*
X32606D01*
X32659Y22109D01*
Y21949D01*
Y22055D02*
X32766Y22162D01*
X32446Y22482D02*
Y22269D01*
X32606D01*
X32552Y22375D01*
Y22429D01*
X32606Y22482D01*
X32712D01*
X32766Y22429D01*
Y22322D01*
X32712Y22269D01*
X29798Y23976D02*
X30118D01*
Y24136D01*
X30065Y24190D01*
X29852D01*
X29798Y24136D01*
Y23976D01*
Y24510D02*
Y24296D01*
X29958D01*
X29905Y24403D01*
Y24456D01*
X29958Y24510D01*
X30065D01*
X30118Y24456D01*
Y24350D01*
X30065Y24296D01*
X33110Y24769D02*
Y24449D01*
X33270D01*
X33324Y24502D01*
Y24715D01*
X33270Y24769D01*
X33110D01*
X33430Y24449D02*
X33537D01*
X33483D01*
Y24769D01*
X33430Y24715D01*
X29773Y24898D02*
X29719Y24845D01*
Y24738D01*
X29773Y24685D01*
X29986D01*
X30039Y24738D01*
Y24845D01*
X29986Y24898D01*
X30039Y25165D02*
X29719D01*
X29879Y25005D01*
Y25218D01*
X24475Y16999D02*
X24422Y17052D01*
X24315D01*
X24262Y16999D01*
Y16786D01*
X24315Y16732D01*
X24422D01*
X24475Y16786D01*
X24742Y16732D02*
Y17052D01*
X24582Y16892D01*
X24795D01*
X24902Y16999D02*
X24955Y17052D01*
X25062D01*
X25115Y16999D01*
Y16946D01*
X25062Y16892D01*
X25115Y16839D01*
Y16786D01*
X25062Y16732D01*
X24955D01*
X24902Y16786D01*
Y16839D01*
X24955Y16892D01*
X24902Y16946D01*
Y16999D01*
X24955Y16892D02*
X25062D01*
X24340Y19367D02*
X24286Y19313D01*
Y19207D01*
X24340Y19154D01*
X24553D01*
X24606Y19207D01*
Y19313D01*
X24553Y19367D01*
X24606Y19633D02*
X24286D01*
X24446Y19473D01*
Y19687D01*
X24286Y19793D02*
Y20007D01*
X24340D01*
X24553Y19793D01*
X24606D01*
X26739Y17776D02*
X26686Y17830D01*
X26579D01*
X26526Y17776D01*
Y17563D01*
X26579Y17510D01*
X26686D01*
X26739Y17563D01*
X27059Y17510D02*
X26845D01*
X27059Y17723D01*
Y17776D01*
X27005Y17830D01*
X26899D01*
X26845Y17776D01*
X27379Y17510D02*
X27165D01*
X27379Y17723D01*
Y17776D01*
X27325Y17830D01*
X27219D01*
X27165Y17776D01*
X24802Y19367D02*
X24749Y19313D01*
Y19207D01*
X24802Y19154D01*
X25016D01*
X25069Y19207D01*
Y19313D01*
X25016Y19367D01*
X25069Y19687D02*
Y19473D01*
X24856Y19687D01*
X24802D01*
X24749Y19633D01*
Y19527D01*
X24802Y19473D01*
X25069Y19793D02*
Y19900D01*
Y19847D01*
X24749D01*
X24802Y19793D01*
X27028Y17096D02*
Y17416D01*
X27188D01*
X27241Y17363D01*
Y17256D01*
X27188Y17203D01*
X27028D01*
X27134D02*
X27241Y17096D01*
X27347D02*
Y17416D01*
X27561Y17096D01*
Y17416D01*
X27667Y17363D02*
X27721Y17416D01*
X27827D01*
X27881Y17363D01*
Y17310D01*
X27827Y17256D01*
X27774D01*
X27827D01*
X27881Y17203D01*
Y17150D01*
X27827Y17096D01*
X27721D01*
X27667Y17150D01*
X26516Y18150D02*
Y18470D01*
X26676D01*
X26729Y18416D01*
Y18310D01*
X26676Y18256D01*
X26516D01*
X26622D02*
X26729Y18150D01*
X26836D02*
Y18470D01*
X27049Y18150D01*
Y18470D01*
X27369Y18150D02*
X27156D01*
X27369Y18363D01*
Y18416D01*
X27315Y18470D01*
X27209D01*
X27156Y18416D01*
X27762Y17776D02*
X27709Y17830D01*
X27603D01*
X27549Y17776D01*
Y17563D01*
X27603Y17510D01*
X27709D01*
X27762Y17563D01*
X28082Y17510D02*
X27869D01*
X28082Y17723D01*
Y17776D01*
X28029Y17830D01*
X27922D01*
X27869Y17776D01*
X28189D02*
X28242Y17830D01*
X28349D01*
X28402Y17776D01*
Y17563D01*
X28349Y17510D01*
X28242D01*
X28189Y17563D01*
Y17776D01*
X27280Y18967D02*
X27227Y19021D01*
X27120D01*
X27067Y18967D01*
Y18754D01*
X27120Y18701D01*
X27227D01*
X27280Y18754D01*
X27387Y18701D02*
X27493D01*
X27440D01*
Y19021D01*
X27387Y18967D01*
X27653Y18754D02*
X27707Y18701D01*
X27813D01*
X27867Y18754D01*
Y18967D01*
X27813Y19021D01*
X27707D01*
X27653Y18967D01*
Y18914D01*
X27707Y18861D01*
X27867D01*
X25492Y20079D02*
Y20399D01*
X25652D01*
X25705Y20345D01*
Y20239D01*
X25652Y20185D01*
X25492D01*
X25599D02*
X25705Y20079D01*
X25812D02*
Y20399D01*
X26025Y20079D01*
Y20399D01*
X26132Y20079D02*
X26239D01*
X26185D01*
Y20399D01*
X26132Y20345D01*
X50204Y34729D02*
X50417Y34409D01*
Y34729D02*
X50204Y34409D01*
X50524Y34676D02*
X50577Y34729D01*
X50684D01*
X50737Y34676D01*
Y34623D01*
X50684Y34569D01*
X50631D01*
X50684D01*
X50737Y34516D01*
Y34463D01*
X50684Y34409D01*
X50577D01*
X50524Y34463D01*
X14680Y30748D02*
X15000D01*
Y30908D01*
X14947Y30961D01*
X14733D01*
X14680Y30908D01*
Y30748D01*
X15000Y31228D02*
X14680D01*
X14840Y31068D01*
Y31281D01*
X20433Y28548D02*
Y28228D01*
X20593D01*
X20646Y28282D01*
Y28495D01*
X20593Y28548D01*
X20433D01*
X20753Y28495D02*
X20806Y28548D01*
X20913D01*
X20966Y28495D01*
Y28442D01*
X20913Y28388D01*
X20860D01*
X20913D01*
X20966Y28335D01*
Y28282D01*
X20913Y28228D01*
X20806D01*
X20753Y28282D01*
X14373Y27787D02*
X14320Y27840D01*
X14213D01*
X14160Y27787D01*
Y27573D01*
X14213Y27520D01*
X14320D01*
X14373Y27573D01*
X14693Y27840D02*
X14587Y27787D01*
X14480Y27680D01*
Y27573D01*
X14533Y27520D01*
X14640D01*
X14693Y27573D01*
Y27627D01*
X14640Y27680D01*
X14480D01*
X14800Y27787D02*
X14853Y27840D01*
X14960D01*
X15013Y27787D01*
Y27733D01*
X14960Y27680D01*
X14906D01*
X14960D01*
X15013Y27627D01*
Y27573D01*
X14960Y27520D01*
X14853D01*
X14800Y27573D01*
X41191Y22544D02*
Y22224D01*
X41351D01*
X41404Y22278D01*
Y22491D01*
X41351Y22544D01*
X41191D01*
X41511Y22491D02*
X41564Y22544D01*
X41671D01*
X41724Y22491D01*
Y22438D01*
X41671Y22384D01*
X41724Y22331D01*
Y22278D01*
X41671Y22224D01*
X41564D01*
X41511Y22278D01*
Y22331D01*
X41564Y22384D01*
X41511Y22438D01*
Y22491D01*
X41564Y22384D02*
X41671D01*
X33445Y16550D02*
Y16230D01*
X33605D01*
X33658Y16284D01*
Y16497D01*
X33605Y16550D01*
X33445D01*
X33978Y16230D02*
X33765D01*
X33978Y16444D01*
Y16497D01*
X33925Y16550D01*
X33818D01*
X33765Y16497D01*
X35095Y19263D02*
X35042Y19316D01*
X34935D01*
X34882Y19263D01*
Y19049D01*
X34935Y18996D01*
X35042D01*
X35095Y19049D01*
X35415Y19316D02*
X35202D01*
Y19156D01*
X35308Y19209D01*
X35362D01*
X35415Y19156D01*
Y19049D01*
X35362Y18996D01*
X35255D01*
X35202Y19049D01*
X29281Y29779D02*
Y29459D01*
X29495D01*
X29815D02*
X29601D01*
X29815Y29672D01*
Y29725D01*
X29761Y29779D01*
X29655D01*
X29601Y29725D01*
X32697Y24085D02*
X32377D01*
Y24245D01*
X32430Y24298D01*
X32537D01*
X32590Y24245D01*
Y24085D01*
Y24191D02*
X32697Y24298D01*
X32430Y24405D02*
X32377Y24458D01*
Y24564D01*
X32430Y24618D01*
X32484D01*
X32537Y24564D01*
Y24511D01*
Y24564D01*
X32590Y24618D01*
X32644D01*
X32697Y24564D01*
Y24458D01*
X32644Y24405D01*
X32377Y24724D02*
Y24938D01*
X32430D01*
X32644Y24724D01*
X32697D01*
X32406Y25128D02*
X32726D01*
Y25288D01*
X32673Y25341D01*
X32460D01*
X32406Y25288D01*
Y25128D01*
X32726Y25448D02*
Y25554D01*
Y25501D01*
X32406D01*
X32460Y25448D01*
X32406Y25928D02*
Y25714D01*
X32566D01*
X32513Y25821D01*
Y25874D01*
X32566Y25928D01*
X32673D01*
X32726Y25874D01*
Y25768D01*
X32673Y25714D01*
X33346Y25910D02*
Y25591D01*
X33506D01*
X33560Y25644D01*
Y25857D01*
X33506Y25910D01*
X33346D01*
X33666Y25591D02*
X33773D01*
X33720D01*
Y25910D01*
X33666Y25857D01*
X34093Y25591D02*
Y25910D01*
X33933Y25751D01*
X34146D01*
X32756Y26417D02*
X32436D01*
Y26577D01*
X32489Y26631D01*
X32596D01*
X32649Y26577D01*
Y26417D01*
Y26524D02*
X32756Y26631D01*
X32489Y26737D02*
X32436Y26791D01*
Y26897D01*
X32489Y26950D01*
X32543D01*
X32596Y26897D01*
Y26844D01*
Y26897D01*
X32649Y26950D01*
X32703D01*
X32756Y26897D01*
Y26791D01*
X32703Y26737D01*
X32756Y27270D02*
Y27057D01*
X32543Y27270D01*
X32489D01*
X32436Y27217D01*
Y27110D01*
X32489Y27057D01*
X33150Y27879D02*
Y27559D01*
X33310D01*
X33363Y27612D01*
Y27826D01*
X33310Y27879D01*
X33150D01*
X33470Y27559D02*
X33576D01*
X33523D01*
Y27879D01*
X33470Y27826D01*
X33736Y27559D02*
X33843D01*
X33789D01*
Y27879D01*
X33736Y27826D01*
X32283Y29370D02*
Y29690D01*
X32443D01*
X32497Y29637D01*
Y29530D01*
X32443Y29477D01*
X32283D01*
X32390D02*
X32497Y29370D01*
X32603Y29690D02*
X32817D01*
Y29637D01*
X32603Y29423D01*
Y29370D01*
X32923Y29637D02*
X32977Y29690D01*
X33083D01*
X33137Y29637D01*
Y29583D01*
X33083Y29530D01*
X33030D01*
X33083D01*
X33137Y29477D01*
Y29423D01*
X33083Y29370D01*
X32977D01*
X32923Y29423D01*
X33110Y26737D02*
Y26417D01*
X33270D01*
X33324Y26471D01*
Y26684D01*
X33270Y26737D01*
X33110D01*
X33430Y26417D02*
X33537D01*
X33483D01*
Y26737D01*
X33430Y26684D01*
X33697D02*
X33750Y26737D01*
X33857D01*
X33910Y26684D01*
Y26631D01*
X33857Y26577D01*
X33803D01*
X33857D01*
X33910Y26524D01*
Y26471D01*
X33857Y26417D01*
X33750D01*
X33697Y26471D01*
X30782Y28307D02*
X31102D01*
Y28467D01*
X31049Y28520D01*
X30836D01*
X30782Y28467D01*
Y28307D01*
X31102Y28627D02*
Y28734D01*
Y28680D01*
X30782D01*
X30836Y28627D01*
X31102Y29107D02*
Y28894D01*
X30889Y29107D01*
X30836D01*
X30782Y29054D01*
Y28947D01*
X30836Y28894D01*
X28264Y16015D02*
X28211Y16068D01*
X28105D01*
X28051Y16015D01*
Y15801D01*
X28105Y15748D01*
X28211D01*
X28264Y15801D01*
X28371Y16068D02*
X28584D01*
Y16015D01*
X28371Y15801D01*
Y15748D01*
X28851D02*
Y16068D01*
X28691Y15908D01*
X28904D01*
X19832Y15046D02*
X19779Y14993D01*
Y14886D01*
X19832Y14833D01*
X20045D01*
X20098Y14886D01*
Y14993D01*
X20045Y15046D01*
X19779Y15153D02*
Y15366D01*
X19832D01*
X20045Y15153D01*
X20098D01*
X19832Y15472D02*
X19779Y15526D01*
Y15632D01*
X19832Y15686D01*
X19885D01*
X19938Y15632D01*
Y15579D01*
Y15632D01*
X19992Y15686D01*
X20045D01*
X20098Y15632D01*
Y15526D01*
X20045Y15472D01*
X15265Y15036D02*
X15212Y14983D01*
Y14876D01*
X15265Y14823D01*
X15478D01*
X15532Y14876D01*
Y14983D01*
X15478Y15036D01*
X15212Y15143D02*
Y15356D01*
X15265D01*
X15478Y15143D01*
X15532D01*
Y15676D02*
Y15463D01*
X15318Y15676D01*
X15265D01*
X15212Y15623D01*
Y15516D01*
X15265Y15463D01*
X10486Y16006D02*
X10433Y15953D01*
Y15846D01*
X10486Y15793D01*
X10699D01*
X10752Y15846D01*
Y15953D01*
X10699Y16006D01*
X10433Y16113D02*
Y16326D01*
X10486D01*
X10699Y16113D01*
X10752D01*
Y16432D02*
Y16539D01*
Y16486D01*
X10433D01*
X10486Y16432D01*
X22362Y22126D02*
Y22446D01*
X22522D01*
X22575Y22393D01*
Y22286D01*
X22522Y22233D01*
X22362D01*
X22469D02*
X22575Y22126D01*
X22682Y22393D02*
X22735Y22446D01*
X22842D01*
X22895Y22393D01*
Y22339D01*
X22842Y22286D01*
X22789D01*
X22842D01*
X22895Y22233D01*
Y22179D01*
X22842Y22126D01*
X22735D01*
X22682Y22179D01*
X23162Y22126D02*
Y22446D01*
X23002Y22286D01*
X23215D01*
X17726Y23796D02*
X17672Y23743D01*
Y23636D01*
X17726Y23583D01*
X17939D01*
X17992Y23636D01*
Y23743D01*
X17939Y23796D01*
X17672Y23903D02*
Y24116D01*
X17726D01*
X17939Y23903D01*
X17992D01*
X17726Y24222D02*
X17672Y24276D01*
Y24382D01*
X17726Y24436D01*
X17939D01*
X17992Y24382D01*
Y24276D01*
X17939Y24222D01*
X17726D01*
X20528Y24400D02*
X20475Y24454D01*
X20368D01*
X20315Y24400D01*
Y24187D01*
X20368Y24134D01*
X20475D01*
X20528Y24187D01*
X20848Y24454D02*
X20741Y24400D01*
X20635Y24294D01*
Y24187D01*
X20688Y24134D01*
X20795D01*
X20848Y24187D01*
Y24240D01*
X20795Y24294D01*
X20635D01*
X20955Y24187D02*
X21008Y24134D01*
X21115D01*
X21168Y24187D01*
Y24400D01*
X21115Y24454D01*
X21008D01*
X20955Y24400D01*
Y24347D01*
X21008Y24294D01*
X21168D01*
X21859Y21906D02*
X21806Y21853D01*
Y21746D01*
X21859Y21693D01*
X22073D01*
X22126Y21746D01*
Y21853D01*
X22073Y21906D01*
X21806Y22226D02*
X21859Y22119D01*
X21966Y22013D01*
X22073D01*
X22126Y22066D01*
Y22173D01*
X22073Y22226D01*
X22019D01*
X21966Y22173D01*
Y22013D01*
X21859Y22333D02*
X21806Y22386D01*
Y22493D01*
X21859Y22546D01*
X21913D01*
X21966Y22493D01*
X22019Y22546D01*
X22073D01*
X22126Y22493D01*
Y22386D01*
X22073Y22333D01*
X22019D01*
X21966Y22386D01*
X21913Y22333D01*
X21859D01*
X21966Y22386D02*
Y22493D01*
X17750Y21958D02*
X17697Y21905D01*
Y21798D01*
X17750Y21745D01*
X17963D01*
X18017Y21798D01*
Y21905D01*
X17963Y21958D01*
X17697Y22278D02*
X17750Y22171D01*
X17857Y22064D01*
X17963D01*
X18017Y22118D01*
Y22224D01*
X17963Y22278D01*
X17910D01*
X17857Y22224D01*
Y22064D01*
X17697Y22384D02*
Y22598D01*
X17750D01*
X17963Y22384D01*
X18017D01*
X14380Y28840D02*
Y29160D01*
X14540D01*
X14593Y29107D01*
Y29000D01*
X14540Y28947D01*
X14380D01*
X14487D02*
X14593Y28840D01*
X14700Y29160D02*
X14913D01*
Y29107D01*
X14700Y28893D01*
Y28840D01*
X15233D02*
X15020D01*
X15233Y29053D01*
Y29107D01*
X15180Y29160D01*
X15073D01*
X15020Y29107D01*
X18799Y24532D02*
Y24266D01*
X18853Y24213D01*
X18959D01*
X19012Y24266D01*
Y24532D01*
X19119Y24213D02*
X19226D01*
X19172D01*
Y24532D01*
X19119Y24479D01*
X19386D02*
X19439Y24532D01*
X19546D01*
X19599Y24479D01*
Y24266D01*
X19546Y24213D01*
X19439D01*
X19386Y24266D01*
Y24479D01*
X48465Y27997D02*
Y27677D01*
X48625D01*
X48678Y27730D01*
Y27944D01*
X48625Y27997D01*
X48465D01*
X48784Y27677D02*
X48891D01*
X48838D01*
Y27997D01*
X48784Y27944D01*
X49051D02*
X49104Y27997D01*
X49211D01*
X49264Y27944D01*
Y27730D01*
X49211Y27677D01*
X49104D01*
X49051Y27730D01*
Y27944D01*
X45740Y37510D02*
Y37190D01*
X45900D01*
X45953Y37243D01*
Y37457D01*
X45900Y37510D01*
X45740D01*
X46273D02*
X46167Y37457D01*
X46060Y37350D01*
Y37243D01*
X46113Y37190D01*
X46220D01*
X46273Y37243D01*
Y37297D01*
X46220Y37350D01*
X46060D01*
X34291Y29537D02*
Y29857D01*
X34451D01*
X34505Y29804D01*
Y29697D01*
X34451Y29644D01*
X34291D01*
X34398D02*
X34505Y29537D01*
X34611D02*
X34718D01*
X34665D01*
Y29857D01*
X34611Y29804D01*
X35091Y29857D02*
X34984Y29804D01*
X34878Y29697D01*
Y29591D01*
X34931Y29537D01*
X35038D01*
X35091Y29591D01*
Y29644D01*
X35038Y29697D01*
X34878D01*
X35256Y30443D02*
Y30763D01*
X35416D01*
X35469Y30709D01*
Y30603D01*
X35416Y30550D01*
X35256D01*
X35363D02*
X35469Y30443D01*
X35576Y30496D02*
X35629Y30443D01*
X35736D01*
X35789Y30496D01*
Y30709D01*
X35736Y30763D01*
X35629D01*
X35576Y30709D01*
Y30656D01*
X35629Y30603D01*
X35789D01*
X34685Y26201D02*
X34365D01*
Y26361D01*
X34418Y26414D01*
X34525D01*
X34578Y26361D01*
Y26201D01*
Y26307D02*
X34685Y26414D01*
X34365Y26734D02*
X34418Y26627D01*
X34525Y26521D01*
X34632D01*
X34685Y26574D01*
Y26681D01*
X34632Y26734D01*
X34578D01*
X34525Y26681D01*
Y26521D01*
X34632Y26841D02*
X34685Y26894D01*
Y27001D01*
X34632Y27054D01*
X34418D01*
X34365Y27001D01*
Y26894D01*
X34418Y26841D01*
X34472D01*
X34525Y26894D01*
Y27054D01*
X36378Y26983D02*
Y26663D01*
X36591D01*
X36911Y26983D02*
X36698D01*
Y26663D01*
X36911D01*
X36698Y26823D02*
X36804D01*
X37018Y26983D02*
Y26663D01*
X37178D01*
X37231Y26717D01*
Y26930D01*
X37178Y26983D01*
X37018D01*
X37338Y26930D02*
X37391Y26983D01*
X37498D01*
X37551Y26930D01*
Y26877D01*
X37498Y26823D01*
X37551Y26770D01*
Y26717D01*
X37498Y26663D01*
X37391D01*
X37338Y26717D01*
Y26770D01*
X37391Y26823D01*
X37338Y26877D01*
Y26930D01*
X37391Y26823D02*
X37498D01*
X38816Y30664D02*
Y30877D01*
X38762Y30930D01*
X38656D01*
X38602Y30877D01*
Y30664D01*
X38656Y30610D01*
X38762D01*
X38709Y30717D02*
X38816Y30610D01*
X38762D02*
X38816Y30664D01*
X38922Y30877D02*
X38976Y30930D01*
X39082D01*
X39136Y30877D01*
Y30824D01*
X39082Y30770D01*
X39136Y30717D01*
Y30664D01*
X39082Y30610D01*
X38976D01*
X38922Y30664D01*
Y30717D01*
X38976Y30770D01*
X38922Y30824D01*
Y30877D01*
X38976Y30770D02*
X39082D01*
X39252Y25655D02*
X39465Y25335D01*
Y25655D02*
X39252Y25335D01*
X39572Y25388D02*
X39625Y25335D01*
X39732D01*
X39785Y25388D01*
Y25601D01*
X39732Y25655D01*
X39625D01*
X39572Y25601D01*
Y25548D01*
X39625Y25495D01*
X39785D01*
X48481Y21999D02*
X48428Y22052D01*
X48321D01*
X48268Y21999D01*
Y21786D01*
X48321Y21732D01*
X48428D01*
X48481Y21786D01*
X48801Y22052D02*
X48694Y21999D01*
X48588Y21892D01*
Y21786D01*
X48641Y21732D01*
X48748D01*
X48801Y21786D01*
Y21839D01*
X48748Y21892D01*
X48588D01*
X49121Y21732D02*
X48908D01*
X49121Y21946D01*
Y21999D01*
X49067Y22052D01*
X48961D01*
X48908Y21999D01*
X40029Y21207D02*
X39975Y21154D01*
Y21047D01*
X40029Y20994D01*
X40242D01*
X40295Y21047D01*
Y21154D01*
X40242Y21207D01*
X39975Y21527D02*
X40029Y21421D01*
X40135Y21314D01*
X40242D01*
X40295Y21367D01*
Y21474D01*
X40242Y21527D01*
X40189D01*
X40135Y21474D01*
Y21314D01*
X40029Y21634D02*
X39975Y21687D01*
Y21794D01*
X40029Y21847D01*
X40242D01*
X40295Y21794D01*
Y21687D01*
X40242Y21634D01*
X40029D01*
X26333Y29263D02*
X26280Y29210D01*
Y29103D01*
X26333Y29050D01*
X26547D01*
X26600Y29103D01*
Y29210D01*
X26547Y29263D01*
X26280Y29583D02*
Y29370D01*
X26440D01*
X26387Y29477D01*
Y29530D01*
X26440Y29583D01*
X26547D01*
X26600Y29530D01*
Y29423D01*
X26547Y29370D01*
X26600Y29903D02*
Y29690D01*
X26387Y29903D01*
X26333D01*
X26280Y29850D01*
Y29743D01*
X26333Y29690D01*
X29072Y29282D02*
X29018Y29336D01*
X28912D01*
X28858Y29282D01*
Y29069D01*
X28912Y29016D01*
X29018D01*
X29072Y29069D01*
X29391Y29016D02*
X29178D01*
X29391Y29229D01*
Y29282D01*
X29338Y29336D01*
X29231D01*
X29178Y29282D01*
X29711Y29336D02*
X29605Y29282D01*
X29498Y29176D01*
Y29069D01*
X29551Y29016D01*
X29658D01*
X29711Y29069D01*
Y29122D01*
X29658Y29176D01*
X29498D01*
X28839Y17544D02*
Y17278D01*
X28892Y17224D01*
X28999D01*
X29052Y17278D01*
Y17544D01*
X29158Y17491D02*
X29212Y17544D01*
X29318D01*
X29372Y17491D01*
Y17438D01*
X29318Y17384D01*
X29372Y17331D01*
Y17278D01*
X29318Y17224D01*
X29212D01*
X29158Y17278D01*
Y17331D01*
X29212Y17384D01*
X29158Y17438D01*
Y17491D01*
X29212Y17384D02*
X29318D01*
X19980Y17643D02*
Y17376D01*
X20034Y17323D01*
X20140D01*
X20194Y17376D01*
Y17643D01*
X20300D02*
X20513D01*
Y17589D01*
X20300Y17376D01*
Y17323D01*
X15551Y17544D02*
Y17278D01*
X15604Y17224D01*
X15711D01*
X15764Y17278D01*
Y17544D01*
X16084D02*
X15978Y17491D01*
X15871Y17384D01*
Y17278D01*
X15924Y17224D01*
X16031D01*
X16084Y17278D01*
Y17331D01*
X16031Y17384D01*
X15871D01*
X11122Y17544D02*
Y17278D01*
X11175Y17224D01*
X11282D01*
X11335Y17278D01*
Y17544D01*
X11655D02*
X11442D01*
Y17384D01*
X11549Y17438D01*
X11602D01*
X11655Y17384D01*
Y17278D01*
X11602Y17224D01*
X11495D01*
X11442Y17278D01*
X48140Y21471D02*
Y21152D01*
X48300D01*
X48353Y21205D01*
Y21418D01*
X48300Y21471D01*
X48140D01*
X48460D02*
X48673D01*
Y21418D01*
X48460Y21205D01*
Y21152D01*
X36100Y24390D02*
X36313Y24070D01*
Y24390D02*
X36100Y24070D01*
X36420Y24337D02*
X36473Y24390D01*
X36580D01*
X36633Y24337D01*
Y24283D01*
X36580Y24230D01*
X36527D01*
X36580D01*
X36633Y24177D01*
Y24123D01*
X36580Y24070D01*
X36473D01*
X36420Y24123D01*
X36953Y24390D02*
X36740D01*
Y24230D01*
X36846Y24283D01*
X36900D01*
X36953Y24230D01*
Y24123D01*
X36900Y24070D01*
X36793D01*
X36740Y24123D01*
X11663Y18517D02*
X11610Y18570D01*
X11503D01*
X11450Y18517D01*
Y18303D01*
X11503Y18250D01*
X11610D01*
X11663Y18303D01*
X11983Y18250D02*
X11770D01*
X11983Y18463D01*
Y18517D01*
X11930Y18570D01*
X11823D01*
X11770Y18517D01*
X12250Y18250D02*
Y18570D01*
X12090Y18410D01*
X12303D01*
X16213Y18517D02*
X16160Y18570D01*
X16053D01*
X16000Y18517D01*
Y18303D01*
X16053Y18250D01*
X16160D01*
X16213Y18303D01*
X16533Y18250D02*
X16320D01*
X16533Y18463D01*
Y18517D01*
X16480Y18570D01*
X16373D01*
X16320Y18517D01*
X16640D02*
X16693Y18570D01*
X16800D01*
X16853Y18517D01*
Y18463D01*
X16800Y18410D01*
X16746D01*
X16800D01*
X16853Y18357D01*
Y18303D01*
X16800Y18250D01*
X16693D01*
X16640Y18303D01*
X20956Y18427D02*
X20903Y18374D01*
Y18267D01*
X20956Y18214D01*
X21170D01*
X21223Y18267D01*
Y18374D01*
X21170Y18427D01*
X21223Y18534D02*
Y18640D01*
Y18587D01*
X20903D01*
X20956Y18534D01*
Y18800D02*
X20903Y18854D01*
Y18960D01*
X20956Y19013D01*
X21010D01*
X21063Y18960D01*
X21116Y19013D01*
X21170D01*
X21223Y18960D01*
Y18854D01*
X21170Y18800D01*
X21116D01*
X21063Y18854D01*
X21010Y18800D01*
X20956D01*
X21063Y18854D02*
Y18960D01*
X29824Y18458D02*
X29771Y18405D01*
Y18298D01*
X29824Y18245D01*
X30037D01*
X30091Y18298D01*
Y18405D01*
X30037Y18458D01*
X30091Y18565D02*
Y18671D01*
Y18618D01*
X29771D01*
X29824Y18565D01*
X29771Y18831D02*
Y19045D01*
X29824D01*
X30037Y18831D01*
X30091D01*
X29030Y14695D02*
X29350Y14908D01*
X29030D02*
X29350Y14695D01*
Y15015D02*
Y15121D01*
Y15068D01*
X29030D01*
X29084Y15015D01*
X29030Y15495D02*
Y15281D01*
X29190D01*
X29137Y15388D01*
Y15441D01*
X29190Y15495D01*
X29297D01*
X29350Y15441D01*
Y15335D01*
X29297Y15281D01*
X16553Y22817D02*
X16500Y22870D01*
X16393D01*
X16340Y22817D01*
Y22603D01*
X16393Y22550D01*
X16500D01*
X16553Y22603D01*
X16873Y22550D02*
X16660D01*
X16873Y22763D01*
Y22817D01*
X16820Y22870D01*
X16713D01*
X16660Y22817D01*
X14540Y27040D02*
Y27360D01*
X14700D01*
X14753Y27307D01*
Y27200D01*
X14700Y27147D01*
X14540D01*
X14647D02*
X14753Y27040D01*
X15073D02*
X14860D01*
X15073Y27253D01*
Y27307D01*
X15020Y27360D01*
X14913D01*
X14860Y27307D01*
X14570Y26580D02*
Y26900D01*
X14730D01*
X14783Y26847D01*
Y26740D01*
X14730Y26687D01*
X14570D01*
X14677D02*
X14783Y26580D01*
X14890D02*
X14997D01*
X14943D01*
Y26900D01*
X14890Y26847D01*
X32756Y30330D02*
X32969Y30010D01*
Y30330D02*
X32756Y30010D01*
X33076D02*
X33182D01*
X33129D01*
Y30330D01*
X33076Y30276D01*
X32441Y18228D02*
X32121D01*
Y18388D01*
X32174Y18442D01*
X32281D01*
X32334Y18388D01*
Y18228D01*
Y18335D02*
X32441Y18442D01*
X32121Y18762D02*
X32174Y18655D01*
X32281Y18548D01*
X32388D01*
X32441Y18602D01*
Y18708D01*
X32388Y18762D01*
X32334D01*
X32281Y18708D01*
Y18548D01*
X32441Y19081D02*
Y18868D01*
X32228Y19081D01*
X32174D01*
X32121Y19028D01*
Y18921D01*
X32174Y18868D01*
X23988Y19293D02*
X23668D01*
Y19453D01*
X23722Y19507D01*
X23828D01*
X23882Y19453D01*
Y19293D01*
Y19400D02*
X23988Y19507D01*
X23668Y19826D02*
X23722Y19720D01*
X23828Y19613D01*
X23935D01*
X23988Y19667D01*
Y19773D01*
X23935Y19826D01*
X23882D01*
X23828Y19773D01*
Y19613D01*
X23988Y19933D02*
Y20040D01*
Y19986D01*
X23668D01*
X23722Y19933D01*
X15453Y18307D02*
X15133D01*
Y18467D01*
X15186Y18520D01*
X15293D01*
X15346Y18467D01*
Y18307D01*
Y18414D02*
X15453Y18520D01*
X15133Y18840D02*
X15186Y18734D01*
X15293Y18627D01*
X15399D01*
X15453Y18680D01*
Y18787D01*
X15399Y18840D01*
X15346D01*
X15293Y18787D01*
Y18627D01*
X15186Y18947D02*
X15133Y19000D01*
Y19107D01*
X15186Y19160D01*
X15399D01*
X15453Y19107D01*
Y19000D01*
X15399Y18947D01*
X15186D01*
X18734Y19301D02*
Y19621D01*
X18894D01*
X18948Y19568D01*
Y19461D01*
X18894Y19408D01*
X18734D01*
X18841D02*
X18948Y19301D01*
X19268Y19621D02*
X19054D01*
Y19461D01*
X19161Y19515D01*
X19214D01*
X19268Y19461D01*
Y19355D01*
X19214Y19301D01*
X19108D01*
X19054Y19355D01*
X19374D02*
X19428Y19301D01*
X19534D01*
X19588Y19355D01*
Y19568D01*
X19534Y19621D01*
X19428D01*
X19374Y19568D01*
Y19515D01*
X19428Y19461D01*
X19588D01*
X21102Y27013D02*
Y26959D01*
X21209Y26853D01*
X21316Y26959D01*
Y27013D01*
X21209Y26853D02*
Y26693D01*
X21422D02*
X21529D01*
X21476D01*
Y27013D01*
X21422Y26959D01*
X49977Y16979D02*
X49924Y17032D01*
X49817D01*
X49764Y16979D01*
Y16766D01*
X49817Y16713D01*
X49924D01*
X49977Y16766D01*
X50297Y17032D02*
X50084D01*
Y16873D01*
X50190Y16926D01*
X50244D01*
X50297Y16873D01*
Y16766D01*
X50244Y16713D01*
X50137D01*
X50084Y16766D01*
X50564Y16713D02*
Y17032D01*
X50404Y16873D01*
X50617D01*
X38255Y23820D02*
X38201Y23873D01*
X38095D01*
X38041Y23820D01*
Y23606D01*
X38095Y23553D01*
X38201D01*
X38255Y23606D01*
X38575Y23873D02*
X38361D01*
Y23713D01*
X38468Y23766D01*
X38521D01*
X38575Y23713D01*
Y23606D01*
X38521Y23553D01*
X38415D01*
X38361Y23606D01*
X38681Y23820D02*
X38734Y23873D01*
X38841D01*
X38894Y23820D01*
Y23766D01*
X38841Y23713D01*
X38788D01*
X38841D01*
X38894Y23660D01*
Y23606D01*
X38841Y23553D01*
X38734D01*
X38681Y23606D01*
X46220Y25354D02*
Y25674D01*
X46380D01*
X46434Y25621D01*
Y25514D01*
X46380Y25461D01*
X46220D01*
X46327D02*
X46434Y25354D01*
X46754Y25674D02*
X46540D01*
Y25514D01*
X46647Y25568D01*
X46700D01*
X46754Y25514D01*
Y25408D01*
X46700Y25354D01*
X46594D01*
X46540Y25408D01*
X46860Y25621D02*
X46914Y25674D01*
X47020D01*
X47074Y25621D01*
Y25568D01*
X47020Y25514D01*
X47074Y25461D01*
Y25408D01*
X47020Y25354D01*
X46914D01*
X46860Y25408D01*
Y25461D01*
X46914Y25514D01*
X46860Y25568D01*
Y25621D01*
X46914Y25514D02*
X47020D01*
X44843Y27190D02*
Y26870D01*
X45056D01*
X45376Y27190D02*
X45162D01*
Y26870D01*
X45376D01*
X45162Y27030D02*
X45269D01*
X45482Y27190D02*
Y26870D01*
X45642D01*
X45696Y26923D01*
Y27137D01*
X45642Y27190D01*
X45482D01*
X46015D02*
X45909Y27137D01*
X45802Y27030D01*
Y26923D01*
X45856Y26870D01*
X45962D01*
X46015Y26923D01*
Y26977D01*
X45962Y27030D01*
X45802D01*
X44646Y26378D02*
X44326D01*
Y26538D01*
X44379Y26591D01*
X44486D01*
X44539Y26538D01*
Y26378D01*
Y26485D02*
X44646Y26591D01*
X44326Y26911D02*
Y26698D01*
X44486D01*
X44432Y26804D01*
Y26858D01*
X44486Y26911D01*
X44592D01*
X44646Y26858D01*
Y26751D01*
X44592Y26698D01*
X44326Y27018D02*
Y27231D01*
X44379D01*
X44592Y27018D01*
X44646D01*
X44134Y26378D02*
X43814D01*
Y26538D01*
X43867Y26591D01*
X43974D01*
X44027Y26538D01*
Y26378D01*
Y26485D02*
X44134Y26591D01*
X43814Y26911D02*
Y26698D01*
X43974D01*
X43921Y26804D01*
Y26858D01*
X43974Y26911D01*
X44081D01*
X44134Y26858D01*
Y26751D01*
X44081Y26698D01*
X43814Y27231D02*
X43867Y27124D01*
X43974Y27018D01*
X44081D01*
X44134Y27071D01*
Y27178D01*
X44081Y27231D01*
X44027D01*
X43974Y27178D01*
Y27018D01*
X14502Y30706D02*
X14182D01*
Y30866D01*
X14235Y30919D01*
X14342D01*
X14395Y30866D01*
Y30706D01*
Y30813D02*
X14502Y30919D01*
Y31186D02*
X14182D01*
X14342Y31026D01*
Y31239D01*
X14182Y31346D02*
Y31559D01*
X14235D01*
X14448Y31346D01*
X14502D01*
X21496Y28189D02*
Y28509D01*
X21656D01*
X21709Y28456D01*
Y28349D01*
X21656Y28296D01*
X21496D01*
X21603D02*
X21709Y28189D01*
X21976D02*
Y28509D01*
X21816Y28349D01*
X22029D01*
X22349Y28509D02*
X22242Y28456D01*
X22136Y28349D01*
Y28242D01*
X22189Y28189D01*
X22296D01*
X22349Y28242D01*
Y28296D01*
X22296Y28349D01*
X22136D01*
X44120Y30970D02*
Y31290D01*
X44280D01*
X44333Y31237D01*
Y31130D01*
X44280Y31077D01*
X44120D01*
X44227D02*
X44333Y30970D01*
X44600D02*
Y31290D01*
X44440Y31130D01*
X44653D01*
X44760Y31237D02*
X44813Y31290D01*
X44920D01*
X44973Y31237D01*
Y31183D01*
X44920Y31130D01*
X44866D01*
X44920D01*
X44973Y31077D01*
Y31023D01*
X44920Y30970D01*
X44813D01*
X44760Y31023D01*
X48701Y30157D02*
Y30477D01*
X48861D01*
X48914Y30424D01*
Y30317D01*
X48861Y30264D01*
X48701D01*
X48807D02*
X48914Y30157D01*
X49181D02*
Y30477D01*
X49021Y30317D01*
X49234D01*
X49554Y30157D02*
X49341D01*
X49554Y30371D01*
Y30424D01*
X49501Y30477D01*
X49394D01*
X49341Y30424D01*
X47657Y36132D02*
X47338D01*
Y36292D01*
X47391Y36345D01*
X47498D01*
X47551Y36292D01*
Y36132D01*
Y36239D02*
X47657Y36345D01*
Y36612D02*
X47338D01*
X47498Y36452D01*
Y36665D01*
X47391Y36772D02*
X47338Y36825D01*
Y36932D01*
X47391Y36985D01*
X47604D01*
X47657Y36932D01*
Y36825D01*
X47604Y36772D01*
X47391D01*
X47367Y34508D02*
X47687D01*
Y34721D01*
X47367Y35041D02*
Y34828D01*
X47687D01*
Y35041D01*
X47527Y34828D02*
Y34934D01*
X47367Y35148D02*
X47687D01*
Y35308D01*
X47634Y35361D01*
X47420D01*
X47367Y35308D01*
Y35148D01*
X47687Y35681D02*
Y35468D01*
X47474Y35681D01*
X47420D01*
X47367Y35628D01*
Y35521D01*
X47420Y35468D01*
X29812Y25686D02*
X29759Y25632D01*
Y25526D01*
X29812Y25472D01*
X30025D01*
X30079Y25526D01*
Y25632D01*
X30025Y25686D01*
X29759Y26006D02*
Y25792D01*
X29919D01*
X29865Y25899D01*
Y25952D01*
X29919Y26006D01*
X30025D01*
X30079Y25952D01*
Y25846D01*
X30025Y25792D01*
X29759Y26326D02*
X29812Y26219D01*
X29919Y26112D01*
X30025D01*
X30079Y26166D01*
Y26272D01*
X30025Y26326D01*
X29972D01*
X29919Y26272D01*
Y26112D01*
X32805Y22638D02*
Y22958D01*
X32965D01*
X33018Y22904D01*
Y22798D01*
X32965Y22744D01*
X32805D01*
X32912D02*
X33018Y22638D01*
X33125Y22904D02*
X33178Y22958D01*
X33285D01*
X33338Y22904D01*
Y22851D01*
X33285Y22798D01*
X33232D01*
X33285D01*
X33338Y22744D01*
Y22691D01*
X33285Y22638D01*
X33178D01*
X33125Y22691D01*
X33658Y22958D02*
X33552Y22904D01*
X33445Y22798D01*
Y22691D01*
X33498Y22638D01*
X33605D01*
X33658Y22691D01*
Y22744D01*
X33605Y22798D01*
X33445D01*
X12200Y28250D02*
Y28570D01*
X12360D01*
X12413Y28517D01*
Y28410D01*
X12360Y28357D01*
X12200D01*
X12307D02*
X12413Y28250D01*
X12520Y28517D02*
X12573Y28570D01*
X12680D01*
X12733Y28517D01*
Y28463D01*
X12680Y28410D01*
X12627D01*
X12680D01*
X12733Y28357D01*
Y28303D01*
X12680Y28250D01*
X12573D01*
X12520Y28303D01*
X13053Y28570D02*
X12840D01*
Y28410D01*
X12946Y28463D01*
X13000D01*
X13053Y28410D01*
Y28303D01*
X13000Y28250D01*
X12893D01*
X12840Y28303D01*
X12638Y30039D02*
Y30359D01*
X12798D01*
X12851Y30306D01*
Y30199D01*
X12798Y30146D01*
X12638D01*
X12744D02*
X12851Y30039D01*
X12958Y30306D02*
X13011Y30359D01*
X13118D01*
X13171Y30306D01*
Y30253D01*
X13118Y30199D01*
X13064D01*
X13118D01*
X13171Y30146D01*
Y30093D01*
X13118Y30039D01*
X13011D01*
X12958Y30093D01*
X13278Y30306D02*
X13331Y30359D01*
X13438D01*
X13491Y30306D01*
Y30253D01*
X13438Y30199D01*
X13384D01*
X13438D01*
X13491Y30146D01*
Y30093D01*
X13438Y30039D01*
X13331D01*
X13278Y30093D01*
X29072Y28377D02*
X29018Y28430D01*
X28912D01*
X28858Y28377D01*
Y28164D01*
X28912Y28110D01*
X29018D01*
X29072Y28164D01*
X29391Y28430D02*
X29178D01*
Y28270D01*
X29285Y28324D01*
X29338D01*
X29391Y28270D01*
Y28164D01*
X29338Y28110D01*
X29231D01*
X29178Y28164D01*
X29498D02*
X29551Y28110D01*
X29658D01*
X29711Y28164D01*
Y28377D01*
X29658Y28430D01*
X29551D01*
X29498Y28377D01*
Y28324D01*
X29551Y28270D01*
X29711D01*
X19970Y25331D02*
X19916Y25278D01*
Y25171D01*
X19970Y25118D01*
X20183D01*
X20236Y25171D01*
Y25278D01*
X20183Y25331D01*
X19916Y25651D02*
Y25438D01*
X20076D01*
X20023Y25545D01*
Y25598D01*
X20076Y25651D01*
X20183D01*
X20236Y25598D01*
Y25491D01*
X20183Y25438D01*
X19970Y25758D02*
X19916Y25811D01*
Y25918D01*
X19970Y25971D01*
X20023D01*
X20076Y25918D01*
X20130Y25971D01*
X20183D01*
X20236Y25918D01*
Y25811D01*
X20183Y25758D01*
X20130D01*
X20076Y25811D01*
X20023Y25758D01*
X19970D01*
X20076Y25811D02*
Y25918D01*
X20213Y24873D02*
X20160Y24926D01*
X20053D01*
X20000Y24873D01*
Y24660D01*
X20053Y24606D01*
X20160D01*
X20213Y24660D01*
X20533Y24926D02*
X20320D01*
Y24766D01*
X20427Y24820D01*
X20480D01*
X20533Y24766D01*
Y24660D01*
X20480Y24606D01*
X20373D01*
X20320Y24660D01*
X20640Y24926D02*
X20853D01*
Y24873D01*
X20640Y24660D01*
Y24606D01*
X32717Y27520D02*
X32397D01*
Y27680D01*
X32450Y27733D01*
X32557D01*
X32610Y27680D01*
Y27520D01*
Y27626D02*
X32717Y27733D01*
X32450Y27840D02*
X32397Y27893D01*
Y28000D01*
X32450Y28053D01*
X32503D01*
X32557Y28000D01*
Y27946D01*
Y28000D01*
X32610Y28053D01*
X32663D01*
X32717Y28000D01*
Y27893D01*
X32663Y27840D01*
X32717Y28159D02*
Y28266D01*
Y28213D01*
X32397D01*
X32450Y28159D01*
X34168Y24803D02*
X34488Y25016D01*
X34168D02*
X34488Y24803D01*
Y25336D02*
Y25123D01*
X34275Y25336D01*
X34222D01*
X34168Y25283D01*
Y25176D01*
X34222Y25123D01*
Y25443D02*
X34168Y25496D01*
Y25603D01*
X34222Y25656D01*
X34275D01*
X34328Y25603D01*
X34382Y25656D01*
X34435D01*
X34488Y25603D01*
Y25496D01*
X34435Y25443D01*
X34382D01*
X34328Y25496D01*
X34275Y25443D01*
X34222D01*
X34328Y25496D02*
Y25603D01*
X34168Y28268D02*
X34488Y28481D01*
X34168D02*
X34488Y28268D01*
Y28801D02*
Y28588D01*
X34275Y28801D01*
X34222D01*
X34168Y28748D01*
Y28641D01*
X34222Y28588D01*
X34168Y28908D02*
Y29121D01*
X34222D01*
X34435Y28908D01*
X34488D01*
X43914Y27917D02*
Y28131D01*
X43861Y28184D01*
X43754D01*
X43701Y28131D01*
Y27917D01*
X43754Y27864D01*
X43861D01*
X43807Y27971D02*
X43914Y27864D01*
X43861D02*
X43914Y27917D01*
X44234Y28184D02*
X44021D01*
Y28024D01*
X44127Y28077D01*
X44181D01*
X44234Y28024D01*
Y27917D01*
X44181Y27864D01*
X44074D01*
X44021Y27917D01*
X46373Y34273D02*
Y34487D01*
X46320Y34540D01*
X46213D01*
X46160Y34487D01*
Y34273D01*
X46213Y34220D01*
X46320D01*
X46267Y34327D02*
X46373Y34220D01*
X46320D02*
X46373Y34273D01*
X46480Y34220D02*
X46587D01*
X46533D01*
Y34540D01*
X46480Y34487D01*
X16885Y34882D02*
X17205Y35095D01*
X16885D02*
X17205Y34882D01*
Y35415D02*
Y35202D01*
X16991Y35415D01*
X16938D01*
X16885Y35362D01*
Y35255D01*
X16938Y35202D01*
Y35522D02*
X16885Y35575D01*
Y35682D01*
X16938Y35735D01*
X16991D01*
X17045Y35682D01*
Y35628D01*
Y35682D01*
X17098Y35735D01*
X17151D01*
X17205Y35682D01*
Y35575D01*
X17151Y35522D01*
X20979Y34882D02*
X21299Y35095D01*
X20979D02*
X21299Y34882D01*
Y35415D02*
Y35202D01*
X21086Y35415D01*
X21033D01*
X20979Y35362D01*
Y35255D01*
X21033Y35202D01*
X21299Y35735D02*
Y35522D01*
X21086Y35735D01*
X21033D01*
X20979Y35682D01*
Y35575D01*
X21033Y35522D01*
X25113Y34921D02*
X25433Y35135D01*
X25113D02*
X25433Y34921D01*
Y35454D02*
Y35241D01*
X25220Y35454D01*
X25166D01*
X25113Y35401D01*
Y35294D01*
X25166Y35241D01*
X25433Y35561D02*
Y35668D01*
Y35614D01*
X25113D01*
X25166Y35561D01*
X30541Y18422D02*
X30487Y18369D01*
Y18262D01*
X30541Y18209D01*
X30754D01*
X30807Y18262D01*
Y18369D01*
X30754Y18422D01*
X30807Y18689D02*
X30487D01*
X30647Y18529D01*
Y18742D01*
X30487Y19062D02*
X30541Y18955D01*
X30647Y18848D01*
X30754D01*
X30807Y18902D01*
Y19008D01*
X30754Y19062D01*
X30700D01*
X30647Y19008D01*
Y18848D01*
X32953Y15789D02*
X32900Y15736D01*
Y15629D01*
X32953Y15576D01*
X33167D01*
X33220Y15629D01*
Y15736D01*
X33167Y15789D01*
X33220Y16056D02*
X32900D01*
X33060Y15896D01*
Y16109D01*
X33220Y16376D02*
X32900D01*
X33060Y16216D01*
Y16429D01*
X32017Y17142D02*
X31964Y17089D01*
Y16982D01*
X32017Y16929D01*
X32230D01*
X32283Y16982D01*
Y17089D01*
X32230Y17142D01*
X32283Y17409D02*
X31964D01*
X32124Y17249D01*
Y17462D01*
X32017Y17569D02*
X31964Y17622D01*
Y17729D01*
X32017Y17782D01*
X32070D01*
X32124Y17729D01*
Y17676D01*
Y17729D01*
X32177Y17782D01*
X32230D01*
X32283Y17729D01*
Y17622D01*
X32230Y17569D01*
X31591Y19479D02*
X31538Y19532D01*
X31431D01*
X31378Y19479D01*
Y19266D01*
X31431Y19213D01*
X31538D01*
X31591Y19266D01*
X31858Y19213D02*
Y19532D01*
X31698Y19373D01*
X31911D01*
X32231Y19213D02*
X32018D01*
X32231Y19426D01*
Y19479D01*
X32178Y19532D01*
X32071D01*
X32018Y19479D01*
X30643Y14323D02*
X30323D01*
Y14483D01*
X30377Y14536D01*
X30483D01*
X30537Y14483D01*
Y14323D01*
Y14430D02*
X30643Y14536D01*
Y14856D02*
Y14643D01*
X30430Y14856D01*
X30377D01*
X30323Y14803D01*
Y14696D01*
X30377Y14643D01*
Y14963D02*
X30323Y15016D01*
Y15123D01*
X30377Y15176D01*
X30590D01*
X30643Y15123D01*
Y15016D01*
X30590Y14963D01*
X30377D01*
X32156Y14626D02*
X31836D01*
Y14786D01*
X31889Y14839D01*
X31996D01*
X32049Y14786D01*
Y14626D01*
Y14733D02*
X32156Y14839D01*
Y14946D02*
Y15053D01*
Y14999D01*
X31836D01*
X31889Y14946D01*
X32102Y15212D02*
X32156Y15266D01*
Y15372D01*
X32102Y15426D01*
X31889D01*
X31836Y15372D01*
Y15266D01*
X31889Y15212D01*
X31942D01*
X31996Y15266D01*
Y15426D01*
X34129Y10433D02*
X34449Y10646D01*
X34129D02*
X34449Y10433D01*
X34129Y10966D02*
X34182Y10860D01*
X34289Y10753D01*
X34395D01*
X34449Y10806D01*
Y10913D01*
X34395Y10966D01*
X34342D01*
X34289Y10913D01*
Y10753D01*
X21883Y18463D02*
X21830Y18410D01*
Y18303D01*
X21883Y18250D01*
X22097D01*
X22150Y18303D01*
Y18410D01*
X22097Y18463D01*
X22150Y18730D02*
X21830D01*
X21990Y18570D01*
Y18783D01*
X22150Y18890D02*
Y18996D01*
Y18943D01*
X21830D01*
X21883Y18890D01*
X23599Y16143D02*
X23546Y16196D01*
X23439D01*
X23386Y16143D01*
Y15929D01*
X23439Y15876D01*
X23546D01*
X23599Y15929D01*
X23706Y16143D02*
X23759Y16196D01*
X23866D01*
X23919Y16143D01*
Y16089D01*
X23866Y16036D01*
X23812D01*
X23866D01*
X23919Y15983D01*
Y15929D01*
X23866Y15876D01*
X23759D01*
X23706Y15929D01*
X24026D02*
X24079Y15876D01*
X24186D01*
X24239Y15929D01*
Y16143D01*
X24186Y16196D01*
X24079D01*
X24026Y16143D01*
Y16089D01*
X24079Y16036D01*
X24239D01*
X23953Y17223D02*
X23900Y17170D01*
Y17063D01*
X23953Y17010D01*
X24167D01*
X24220Y17063D01*
Y17170D01*
X24167Y17223D01*
X23953Y17330D02*
X23900Y17383D01*
Y17490D01*
X23953Y17543D01*
X24007D01*
X24060Y17490D01*
Y17437D01*
Y17490D01*
X24113Y17543D01*
X24167D01*
X24220Y17490D01*
Y17383D01*
X24167Y17330D01*
X23953Y17650D02*
X23900Y17703D01*
Y17810D01*
X23953Y17863D01*
X24007D01*
X24060Y17810D01*
X24113Y17863D01*
X24167D01*
X24220Y17810D01*
Y17703D01*
X24167Y17650D01*
X24113D01*
X24060Y17703D01*
X24007Y17650D01*
X23953D01*
X24060Y17703D02*
Y17810D01*
X22654Y19558D02*
X22601Y19611D01*
X22494D01*
X22441Y19558D01*
Y19345D01*
X22494Y19291D01*
X22601D01*
X22654Y19345D01*
X22761Y19558D02*
X22814Y19611D01*
X22921D01*
X22974Y19558D01*
Y19505D01*
X22921Y19451D01*
X22867D01*
X22921D01*
X22974Y19398D01*
Y19345D01*
X22921Y19291D01*
X22814D01*
X22761Y19345D01*
X23081Y19611D02*
X23294D01*
Y19558D01*
X23081Y19345D01*
Y19291D01*
X21726Y14368D02*
X21406D01*
Y14528D01*
X21459Y14582D01*
X21566D01*
X21619Y14528D01*
Y14368D01*
Y14475D02*
X21726Y14582D01*
Y14688D02*
Y14795D01*
Y14741D01*
X21406D01*
X21459Y14688D01*
X21406Y15168D02*
Y14955D01*
X21566D01*
X21513Y15061D01*
Y15115D01*
X21566Y15168D01*
X21673D01*
X21726Y15115D01*
Y15008D01*
X21673Y14955D01*
X23248Y13730D02*
X22928D01*
Y13890D01*
X22981Y13944D01*
X23088D01*
X23141Y13890D01*
Y13730D01*
Y13837D02*
X23248Y13944D01*
Y14050D02*
Y14157D01*
Y14104D01*
X22928D01*
X22981Y14050D01*
X23248Y14477D02*
X22928D01*
X23088Y14317D01*
Y14530D01*
X24114Y10753D02*
X24327Y10433D01*
Y10753D02*
X24114Y10433D01*
X24434D02*
X24541D01*
X24487D01*
Y10753D01*
X24434Y10700D01*
X24861Y10433D02*
Y10753D01*
X24701Y10593D01*
X24914D01*
X17352Y18422D02*
X17298Y18369D01*
Y18262D01*
X17352Y18209D01*
X17565D01*
X17618Y18262D01*
Y18369D01*
X17565Y18422D01*
X17352Y18529D02*
X17298Y18582D01*
Y18689D01*
X17352Y18742D01*
X17405D01*
X17458Y18689D01*
Y18635D01*
Y18689D01*
X17511Y18742D01*
X17565D01*
X17618Y18689D01*
Y18582D01*
X17565Y18529D01*
X17298Y19062D02*
X17352Y18955D01*
X17458Y18848D01*
X17565D01*
X17618Y18902D01*
Y19008D01*
X17565Y19062D01*
X17511D01*
X17458Y19008D01*
Y18848D01*
X19399Y15459D02*
X19345Y15406D01*
Y15299D01*
X19399Y15246D01*
X19612D01*
X19665Y15299D01*
Y15406D01*
X19612Y15459D01*
X19399Y15566D02*
X19345Y15619D01*
Y15726D01*
X19399Y15779D01*
X19452D01*
X19505Y15726D01*
Y15673D01*
Y15726D01*
X19559Y15779D01*
X19612D01*
X19665Y15726D01*
Y15619D01*
X19612Y15566D01*
X19665Y16046D02*
X19345D01*
X19505Y15886D01*
Y16099D01*
X18729Y17241D02*
X18676Y17188D01*
Y17081D01*
X18729Y17028D01*
X18943D01*
X18996Y17081D01*
Y17188D01*
X18943Y17241D01*
X18729Y17347D02*
X18676Y17401D01*
Y17507D01*
X18729Y17561D01*
X18783D01*
X18836Y17507D01*
Y17454D01*
Y17507D01*
X18889Y17561D01*
X18943D01*
X18996Y17507D01*
Y17401D01*
X18943Y17347D01*
X18729Y17667D02*
X18676Y17721D01*
Y17827D01*
X18729Y17881D01*
X18783D01*
X18836Y17827D01*
Y17774D01*
Y17827D01*
X18889Y17881D01*
X18943D01*
X18996Y17827D01*
Y17721D01*
X18943Y17667D01*
X17930Y19558D02*
X17876Y19611D01*
X17770D01*
X17717Y19558D01*
Y19345D01*
X17770Y19291D01*
X17876D01*
X17930Y19345D01*
X18036Y19558D02*
X18090Y19611D01*
X18196D01*
X18250Y19558D01*
Y19505D01*
X18196Y19451D01*
X18143D01*
X18196D01*
X18250Y19398D01*
Y19345D01*
X18196Y19291D01*
X18090D01*
X18036Y19345D01*
X18570Y19291D02*
X18356D01*
X18570Y19505D01*
Y19558D01*
X18516Y19611D01*
X18410D01*
X18356Y19558D01*
X17366Y14368D02*
X17046D01*
Y14528D01*
X17099Y14582D01*
X17206D01*
X17259Y14528D01*
Y14368D01*
Y14475D02*
X17366Y14582D01*
Y14688D02*
Y14795D01*
Y14741D01*
X17046D01*
X17099Y14688D01*
Y14955D02*
X17046Y15008D01*
Y15115D01*
X17099Y15168D01*
X17312D01*
X17366Y15115D01*
Y15008D01*
X17312Y14955D01*
X17099D01*
X18858Y14892D02*
X18538D01*
Y15052D01*
X18592Y15105D01*
X18698D01*
X18752Y15052D01*
Y14892D01*
Y14998D02*
X18858Y15105D01*
X18592Y15212D02*
X18538Y15265D01*
Y15372D01*
X18592Y15425D01*
X18645D01*
X18698Y15372D01*
X18752Y15425D01*
X18805D01*
X18858Y15372D01*
Y15265D01*
X18805Y15212D01*
X18752D01*
X18698Y15265D01*
X18645Y15212D01*
X18592D01*
X18698Y15265D02*
Y15372D01*
X18898Y10753D02*
X19111Y10433D01*
Y10753D02*
X18898Y10433D01*
X19377D02*
Y10753D01*
X19218Y10593D01*
X19431D01*
X13304Y19558D02*
X13250Y19611D01*
X13144D01*
X13091Y19558D01*
Y19345D01*
X13144Y19291D01*
X13250D01*
X13304Y19345D01*
X13410Y19558D02*
X13464Y19611D01*
X13570D01*
X13624Y19558D01*
Y19505D01*
X13570Y19451D01*
X13517D01*
X13570D01*
X13624Y19398D01*
Y19345D01*
X13570Y19291D01*
X13464D01*
X13410Y19345D01*
X13730Y19291D02*
X13837D01*
X13784D01*
Y19611D01*
X13730Y19558D01*
X14596Y15016D02*
X14542Y14963D01*
Y14856D01*
X14596Y14803D01*
X14809D01*
X14862Y14856D01*
Y14963D01*
X14809Y15016D01*
X14862Y15336D02*
Y15123D01*
X14649Y15336D01*
X14596D01*
X14542Y15283D01*
Y15176D01*
X14596Y15123D01*
X14809Y15443D02*
X14862Y15496D01*
Y15603D01*
X14809Y15656D01*
X14596D01*
X14542Y15603D01*
Y15496D01*
X14596Y15443D01*
X14649D01*
X14702Y15496D01*
Y15656D01*
X14202Y17142D02*
X14149Y17089D01*
Y16982D01*
X14202Y16929D01*
X14415D01*
X14468Y16982D01*
Y17089D01*
X14415Y17142D01*
X14468Y17462D02*
Y17249D01*
X14255Y17462D01*
X14202D01*
X14149Y17409D01*
Y17302D01*
X14202Y17249D01*
Y17569D02*
X14149Y17622D01*
Y17729D01*
X14202Y17782D01*
X14255D01*
X14309Y17729D01*
X14362Y17782D01*
X14415D01*
X14468Y17729D01*
Y17622D01*
X14415Y17569D01*
X14362D01*
X14309Y17622D01*
X14255Y17569D01*
X14202D01*
X14309Y17622D02*
Y17729D01*
X14103Y19406D02*
X14050Y19353D01*
Y19246D01*
X14103Y19193D01*
X14317D01*
X14370Y19246D01*
Y19353D01*
X14317Y19406D01*
X14370Y19726D02*
Y19513D01*
X14157Y19726D01*
X14103D01*
X14050Y19673D01*
Y19566D01*
X14103Y19513D01*
X14050Y19833D02*
Y20046D01*
X14103D01*
X14317Y19833D01*
X14370D01*
X12897Y14595D02*
X12577D01*
Y14755D01*
X12631Y14808D01*
X12737D01*
X12790Y14755D01*
Y14595D01*
Y14701D02*
X12897Y14808D01*
X12577Y14915D02*
Y15128D01*
X12631D01*
X12844Y14915D01*
X12897D01*
X14400Y14800D02*
X14080D01*
Y14960D01*
X14133Y15013D01*
X14240D01*
X14293Y14960D01*
Y14800D01*
Y14907D02*
X14400Y15013D01*
Y15280D02*
X14080D01*
X14240Y15120D01*
Y15333D01*
X12992Y10950D02*
X13205Y10630D01*
Y10950D02*
X12992Y10630D01*
X13312Y10897D02*
X13365Y10950D01*
X13472D01*
X13525Y10897D01*
Y10843D01*
X13472Y10790D01*
X13525Y10737D01*
Y10683D01*
X13472Y10630D01*
X13365D01*
X13312Y10683D01*
Y10737D01*
X13365Y10790D01*
X13312Y10843D01*
Y10897D01*
X13365Y10790D02*
X13472D01*
X17155Y23336D02*
Y23282D01*
X17261Y23176D01*
X17368Y23282D01*
Y23336D01*
X17261Y23176D02*
Y23016D01*
X17688D02*
X17475D01*
X17688Y23229D01*
Y23282D01*
X17635Y23336D01*
X17528D01*
X17475Y23282D01*
X17615Y25424D02*
X17562Y25477D01*
X17455D01*
X17402Y25424D01*
Y25211D01*
X17455Y25157D01*
X17562D01*
X17615Y25211D01*
X17721Y25157D02*
X17828D01*
X17775D01*
Y25477D01*
X17721Y25424D01*
X18148Y25157D02*
Y25477D01*
X17988Y25317D01*
X18201D01*
X15363Y23177D02*
X15310Y23230D01*
X15203D01*
X15150Y23177D01*
Y22963D01*
X15203Y22910D01*
X15310D01*
X15363Y22963D01*
X15470Y22910D02*
X15577D01*
X15523D01*
Y23230D01*
X15470Y23177D01*
X15950Y22910D02*
X15736D01*
X15950Y23123D01*
Y23177D01*
X15896Y23230D01*
X15790D01*
X15736Y23177D01*
X15127Y23599D02*
X15074Y23546D01*
Y23439D01*
X15127Y23386D01*
X15340D01*
X15394Y23439D01*
Y23546D01*
X15340Y23599D01*
X15394Y23706D02*
Y23812D01*
Y23759D01*
X15074D01*
X15127Y23706D01*
Y23972D02*
X15074Y24026D01*
Y24132D01*
X15127Y24186D01*
X15180D01*
X15234Y24132D01*
Y24079D01*
Y24132D01*
X15287Y24186D01*
X15340D01*
X15394Y24132D01*
Y24026D01*
X15340Y23972D01*
X18740Y29803D02*
Y30123D01*
X18900D01*
X18953Y30070D01*
Y29963D01*
X18900Y29910D01*
X18740D01*
X18847D02*
X18953Y29803D01*
X19060D02*
Y30123D01*
X19273Y29803D01*
Y30123D01*
X19593D02*
X19380D01*
Y29963D01*
X19487Y30016D01*
X19540D01*
X19593Y29963D01*
Y29856D01*
X19540Y29803D01*
X19433D01*
X19380Y29856D01*
X15730Y28020D02*
X15410D01*
Y28180D01*
X15463Y28233D01*
X15570D01*
X15623Y28180D01*
Y28020D01*
Y28127D02*
X15730Y28233D01*
X15410Y28340D02*
X15623D01*
X15730Y28447D01*
X15623Y28553D01*
X15410D01*
X15730Y28873D02*
Y28660D01*
X15517Y28873D01*
X15463D01*
X15410Y28820D01*
Y28713D01*
X15463Y28660D01*
X15512Y25039D02*
X15192D01*
Y25199D01*
X15245Y25253D01*
X15352D01*
X15405Y25199D01*
Y25039D01*
Y25146D02*
X15512Y25253D01*
X15192Y25359D02*
X15405D01*
X15512Y25466D01*
X15405Y25573D01*
X15192D01*
X15512Y25679D02*
Y25786D01*
Y25732D01*
X15192D01*
X15245Y25679D01*
X15235Y31555D02*
X15449Y31236D01*
Y31555D02*
X15235Y31236D01*
X15555D02*
X15662D01*
X15608D01*
Y31555D01*
X15555Y31502D01*
X15822Y31555D02*
X16035D01*
Y31502D01*
X15822Y31289D01*
Y31236D01*
X16890Y28706D02*
Y28439D01*
X16943Y28386D01*
X17050D01*
X17103Y28439D01*
Y28706D01*
X17210Y28386D02*
X17316D01*
X17263D01*
Y28706D01*
X17210Y28652D01*
X16111Y28520D02*
X16058Y28467D01*
Y28360D01*
X16111Y28307D01*
X16325D01*
X16378Y28360D01*
Y28467D01*
X16325Y28520D01*
X16378Y28627D02*
Y28734D01*
Y28680D01*
X16058D01*
X16111Y28627D01*
X16058Y29107D02*
X16111Y29000D01*
X16218Y28894D01*
X16325D01*
X16378Y28947D01*
Y29054D01*
X16325Y29107D01*
X16271D01*
X16218Y29054D01*
Y28894D01*
X22174Y24977D02*
X22121Y24924D01*
Y24817D01*
X22174Y24764D01*
X22388D01*
X22441Y24817D01*
Y24924D01*
X22388Y24977D01*
X22441Y25084D02*
Y25190D01*
Y25137D01*
X22121D01*
X22174Y25084D01*
Y25350D02*
X22121Y25404D01*
Y25510D01*
X22174Y25564D01*
X22388D01*
X22441Y25510D01*
Y25404D01*
X22388Y25350D01*
X22174D01*
X10197Y30281D02*
Y29961D01*
X10410D01*
X10730Y30281D02*
X10517D01*
Y29961D01*
X10730D01*
X10517Y30121D02*
X10623D01*
X10837Y30281D02*
Y29961D01*
X10997D01*
X11050Y30014D01*
Y30227D01*
X10997Y30281D01*
X10837D01*
X11157Y29961D02*
X11263D01*
X11210D01*
Y30281D01*
X11157Y30227D01*
X13933Y26437D02*
X13880Y26490D01*
X13773D01*
X13720Y26437D01*
Y26223D01*
X13773Y26170D01*
X13880D01*
X13933Y26223D01*
X14040Y26170D02*
X14147D01*
X14093D01*
Y26490D01*
X14040Y26437D01*
X14520Y26490D02*
X14306D01*
Y26330D01*
X14413Y26383D01*
X14466D01*
X14520Y26330D01*
Y26223D01*
X14466Y26170D01*
X14360D01*
X14306Y26223D01*
X16158Y25148D02*
X16105Y25202D01*
X15998D01*
X15945Y25148D01*
Y24935D01*
X15998Y24882D01*
X16105D01*
X16158Y24935D01*
X16265Y24882D02*
X16371D01*
X16318D01*
Y25202D01*
X16265Y25148D01*
X16531Y24882D02*
X16638D01*
X16585D01*
Y25202D01*
X16531Y25148D01*
X19970Y28009D02*
X19916Y27955D01*
Y27849D01*
X19970Y27795D01*
X20183D01*
X20236Y27849D01*
Y27955D01*
X20183Y28009D01*
X20236Y28115D02*
Y28222D01*
Y28168D01*
X19916D01*
X19970Y28115D01*
X26788Y21428D02*
X26735Y21481D01*
X26628D01*
X26575Y21428D01*
Y21215D01*
X26628Y21161D01*
X26735D01*
X26788Y21215D01*
X26895Y21481D02*
X27108D01*
Y21428D01*
X26895Y21215D01*
Y21161D01*
X29891Y22733D02*
X29838Y22680D01*
Y22573D01*
X29891Y22520D01*
X30104D01*
X30157Y22573D01*
Y22680D01*
X30104Y22733D01*
X29891Y22840D02*
X29838Y22893D01*
Y23000D01*
X29891Y23053D01*
X29944D01*
X29998Y23000D01*
X30051Y23053D01*
X30104D01*
X30157Y23000D01*
Y22893D01*
X30104Y22840D01*
X30051D01*
X29998Y22893D01*
X29944Y22840D01*
X29891D01*
X29998Y22893D02*
Y23000D01*
X21788Y27471D02*
X21735Y27525D01*
X21628D01*
X21575Y27471D01*
Y27258D01*
X21628Y27205D01*
X21735D01*
X21788Y27258D01*
X21895D02*
X21948Y27205D01*
X22055D01*
X22108Y27258D01*
Y27471D01*
X22055Y27525D01*
X21948D01*
X21895Y27471D01*
Y27418D01*
X21948Y27365D01*
X22108D01*
X29072Y28849D02*
X29018Y28903D01*
X28912D01*
X28858Y28849D01*
Y28636D01*
X28912Y28583D01*
X29018D01*
X29072Y28636D01*
X29391Y28903D02*
X29285Y28849D01*
X29178Y28743D01*
Y28636D01*
X29231Y28583D01*
X29338D01*
X29391Y28636D01*
Y28689D01*
X29338Y28743D01*
X29178D01*
X10394Y28509D02*
Y28189D01*
X10607D01*
X10927Y28509D02*
X10714D01*
Y28189D01*
X10927D01*
X10714Y28349D02*
X10820D01*
X11034Y28509D02*
Y28189D01*
X11193D01*
X11247Y28242D01*
Y28456D01*
X11193Y28509D01*
X11034D01*
X11353D02*
X11567D01*
Y28456D01*
X11353Y28242D01*
Y28189D01*
X23991Y30085D02*
X24205Y29766D01*
Y30085D02*
X23991Y29766D01*
X24311D02*
X24418D01*
X24364D01*
Y30085D01*
X24311Y30032D01*
X24578D02*
X24631Y30085D01*
X24738D01*
X24791Y30032D01*
Y29979D01*
X24738Y29926D01*
X24791Y29872D01*
Y29819D01*
X24738Y29766D01*
X24631D01*
X24578Y29819D01*
Y29872D01*
X24631Y29926D01*
X24578Y29979D01*
Y30032D01*
X24631Y29926D02*
X24738D01*
X24409Y29257D02*
Y28990D01*
X24463Y28937D01*
X24569D01*
X24623Y28990D01*
Y29257D01*
X24943Y28937D02*
X24729D01*
X24943Y29150D01*
Y29204D01*
X24889Y29257D01*
X24783D01*
X24729Y29204D01*
X10698Y28107D02*
X10912Y27787D01*
Y28107D02*
X10698Y27787D01*
X11232D02*
X11018D01*
X11232Y28000D01*
Y28053D01*
X11178Y28107D01*
X11072D01*
X11018Y28053D01*
X11923Y32240D02*
X11869Y32187D01*
Y32081D01*
X11923Y32027D01*
X11976D01*
X12029Y32081D01*
Y32187D01*
X12083Y32240D01*
X12136D01*
X12189Y32187D01*
Y32081D01*
X12136Y32027D01*
X12189Y32347D02*
Y32454D01*
Y32400D01*
X11869D01*
X11923Y32347D01*
X13540Y26930D02*
X13860D01*
Y27090D01*
X13807Y27143D01*
X13593D01*
X13540Y27090D01*
Y26930D01*
X13860Y27250D02*
Y27357D01*
Y27303D01*
X13540D01*
X13593Y27250D01*
X13540Y27730D02*
X13593Y27623D01*
X13700Y27516D01*
X13807D01*
X13860Y27570D01*
Y27676D01*
X13807Y27730D01*
X13753D01*
X13700Y27676D01*
Y27516D01*
X40650Y34550D02*
Y34870D01*
X40810D01*
X40863Y34817D01*
Y34710D01*
X40810Y34657D01*
X40650D01*
X40757D02*
X40863Y34550D01*
X40970D02*
X41077D01*
X41023D01*
Y34870D01*
X40970Y34817D01*
X41236D02*
X41290Y34870D01*
X41396D01*
X41450Y34817D01*
Y34763D01*
X41396Y34710D01*
X41343D01*
X41396D01*
X41450Y34657D01*
Y34603D01*
X41396Y34550D01*
X41290D01*
X41236Y34603D01*
X19035Y14603D02*
X18981Y14550D01*
Y14443D01*
X19035Y14390D01*
X19248D01*
X19301Y14443D01*
Y14550D01*
X19248Y14603D01*
X18981Y14923D02*
Y14710D01*
X19141D01*
X19088Y14816D01*
Y14870D01*
X19141Y14923D01*
X19248D01*
X19301Y14870D01*
Y14763D01*
X19248Y14710D01*
X19035Y15030D02*
X18981Y15083D01*
Y15190D01*
X19035Y15243D01*
X19248D01*
X19301Y15190D01*
Y15083D01*
X19248Y15030D01*
X19035D01*
X14544Y14617D02*
X14491Y14670D01*
X14384D01*
X14331Y14617D01*
Y14404D01*
X14384Y14350D01*
X14491D01*
X14544Y14404D01*
X14864Y14670D02*
X14651D01*
Y14510D01*
X14757Y14564D01*
X14811D01*
X14864Y14510D01*
Y14404D01*
X14811Y14350D01*
X14704D01*
X14651Y14404D01*
X14971Y14350D02*
X15077D01*
X15024D01*
Y14670D01*
X14971Y14617D01*
X18592Y13461D02*
X18538Y13408D01*
Y13301D01*
X18592Y13248D01*
X18805D01*
X18858Y13301D01*
Y13408D01*
X18805Y13461D01*
X18538Y13781D02*
Y13568D01*
X18698D01*
X18645Y13675D01*
Y13728D01*
X18698Y13781D01*
X18805D01*
X18858Y13728D01*
Y13621D01*
X18805Y13568D01*
X18538Y14101D02*
Y13888D01*
X18698D01*
X18645Y13994D01*
Y14048D01*
X18698Y14101D01*
X18805D01*
X18858Y14048D01*
Y13941D01*
X18805Y13888D01*
X13894Y13515D02*
X13841Y13568D01*
X13734D01*
X13681Y13515D01*
Y13301D01*
X13734Y13248D01*
X13841D01*
X13894Y13301D01*
X14214Y13568D02*
X14108Y13515D01*
X14001Y13408D01*
Y13301D01*
X14054Y13248D01*
X14161D01*
X14214Y13301D01*
Y13355D01*
X14161Y13408D01*
X14001D01*
X14321Y13248D02*
X14428D01*
X14374D01*
Y13568D01*
X14321Y13515D01*
X17477Y13505D02*
X17424Y13558D01*
X17317D01*
X17264Y13505D01*
Y13291D01*
X17317Y13238D01*
X17424D01*
X17477Y13291D01*
X17797Y13558D02*
X17690Y13505D01*
X17584Y13398D01*
Y13291D01*
X17637Y13238D01*
X17744D01*
X17797Y13291D01*
Y13345D01*
X17744Y13398D01*
X17584D01*
X18064Y13238D02*
Y13558D01*
X17904Y13398D01*
X18117D01*
X12566Y13436D02*
X12512Y13489D01*
X12406D01*
X12352Y13436D01*
Y13223D01*
X12406Y13169D01*
X12512D01*
X12566Y13223D01*
X12886Y13489D02*
X12779Y13436D01*
X12672Y13329D01*
Y13223D01*
X12726Y13169D01*
X12832D01*
X12886Y13223D01*
Y13276D01*
X12832Y13329D01*
X12672D01*
X13205Y13489D02*
X12992D01*
Y13329D01*
X13099Y13383D01*
X13152D01*
X13205Y13329D01*
Y13223D01*
X13152Y13169D01*
X13045D01*
X12992Y13223D01*
X10590Y14593D02*
X10536Y14540D01*
Y14433D01*
X10590Y14380D01*
X10803D01*
X10856Y14433D01*
Y14540D01*
X10803Y14593D01*
X10536Y14913D02*
X10590Y14806D01*
X10696Y14700D01*
X10803D01*
X10856Y14753D01*
Y14860D01*
X10803Y14913D01*
X10750D01*
X10696Y14860D01*
Y14700D01*
X10536Y15233D02*
X10590Y15126D01*
X10696Y15020D01*
X10803D01*
X10856Y15073D01*
Y15180D01*
X10803Y15233D01*
X10750D01*
X10696Y15180D01*
Y15020D01*
X15548Y14617D02*
X15495Y14670D01*
X15388D01*
X15335Y14617D01*
Y14404D01*
X15388Y14350D01*
X15495D01*
X15548Y14404D01*
X15655Y14670D02*
X15868D01*
Y14617D01*
X15655Y14404D01*
Y14350D01*
X16188Y14670D02*
X15974D01*
Y14510D01*
X16081Y14564D01*
X16134D01*
X16188Y14510D01*
Y14404D01*
X16134Y14350D01*
X16028D01*
X15974Y14404D01*
X23796Y15670D02*
X23743Y15723D01*
X23636D01*
X23583Y15670D01*
Y15457D01*
X23636Y15404D01*
X23743D01*
X23796Y15457D01*
X23903Y15723D02*
X24116D01*
Y15670D01*
X23903Y15457D01*
Y15404D01*
X24436Y15723D02*
X24329Y15670D01*
X24222Y15563D01*
Y15457D01*
X24276Y15404D01*
X24382D01*
X24436Y15457D01*
Y15510D01*
X24382Y15563D01*
X24222D01*
X32556Y14558D02*
X32502Y14611D01*
X32396D01*
X32343Y14558D01*
Y14345D01*
X32396Y14291D01*
X32502D01*
X32556Y14345D01*
X32662Y14611D02*
X32876D01*
Y14558D01*
X32662Y14345D01*
Y14291D01*
X32982Y14611D02*
X33196D01*
Y14558D01*
X32982Y14345D01*
Y14291D01*
X22962Y14898D02*
X22908Y14845D01*
Y14738D01*
X22962Y14685D01*
X23175D01*
X23228Y14738D01*
Y14845D01*
X23175Y14898D01*
X22908Y15005D02*
Y15218D01*
X22962D01*
X23175Y15005D01*
X23228D01*
X22962Y15325D02*
X22908Y15378D01*
Y15485D01*
X22962Y15538D01*
X23015D01*
X23068Y15485D01*
X23122Y15538D01*
X23175D01*
X23228Y15485D01*
Y15378D01*
X23175Y15325D01*
X23122D01*
X23068Y15378D01*
X23015Y15325D01*
X22962D01*
X23068Y15378D02*
Y15485D01*
X33264Y12895D02*
X33211Y12948D01*
X33105D01*
X33051Y12895D01*
Y12681D01*
X33105Y12628D01*
X33211D01*
X33264Y12681D01*
X33371Y12948D02*
X33584D01*
Y12895D01*
X33371Y12681D01*
Y12628D01*
X33691Y12681D02*
X33744Y12628D01*
X33851D01*
X33904Y12681D01*
Y12895D01*
X33851Y12948D01*
X33744D01*
X33691Y12895D01*
Y12841D01*
X33744Y12788D01*
X33904D01*
X22942Y12871D02*
X22889Y12817D01*
Y12711D01*
X22942Y12657D01*
X23155D01*
X23209Y12711D01*
Y12817D01*
X23155Y12871D01*
X22942Y12977D02*
X22889Y13031D01*
Y13137D01*
X22942Y13191D01*
X22995D01*
X23049Y13137D01*
X23102Y13191D01*
X23155D01*
X23209Y13137D01*
Y13031D01*
X23155Y12977D01*
X23102D01*
X23049Y13031D01*
X22995Y12977D01*
X22942D01*
X23049Y13031D02*
Y13137D01*
X22942Y13297D02*
X22889Y13351D01*
Y13457D01*
X22942Y13511D01*
X23155D01*
X23209Y13457D01*
Y13351D01*
X23155Y13297D01*
X22942D01*
X30422Y13520D02*
X30369Y13467D01*
Y13360D01*
X30422Y13307D01*
X30636D01*
X30689Y13360D01*
Y13467D01*
X30636Y13520D01*
X30422Y13627D02*
X30369Y13680D01*
Y13787D01*
X30422Y13840D01*
X30476D01*
X30529Y13787D01*
X30582Y13840D01*
X30636D01*
X30689Y13787D01*
Y13680D01*
X30636Y13627D01*
X30582D01*
X30529Y13680D01*
X30476Y13627D01*
X30422D01*
X30529Y13680D02*
Y13787D01*
X30689Y13947D02*
Y14054D01*
Y14000D01*
X30369D01*
X30422Y13947D01*
X20265Y14514D02*
X20212Y14461D01*
Y14354D01*
X20265Y14301D01*
X20478D01*
X20531Y14354D01*
Y14461D01*
X20478Y14514D01*
X20265Y14621D02*
X20212Y14674D01*
Y14781D01*
X20265Y14834D01*
X20318D01*
X20372Y14781D01*
X20425Y14834D01*
X20478D01*
X20531Y14781D01*
Y14674D01*
X20478Y14621D01*
X20425D01*
X20372Y14674D01*
X20318Y14621D01*
X20265D01*
X20372Y14674D02*
Y14781D01*
X20531Y15154D02*
Y14941D01*
X20318Y15154D01*
X20265D01*
X20212Y15101D01*
Y14994D01*
X20265Y14941D01*
X29163Y13835D02*
X29109Y13782D01*
Y13675D01*
X29163Y13622D01*
X29376D01*
X29429Y13675D01*
Y13782D01*
X29376Y13835D01*
X29163Y13942D02*
X29109Y13995D01*
Y14102D01*
X29163Y14155D01*
X29216D01*
X29269Y14102D01*
X29323Y14155D01*
X29376D01*
X29429Y14102D01*
Y13995D01*
X29376Y13942D01*
X29323D01*
X29269Y13995D01*
X29216Y13942D01*
X29163D01*
X29269Y13995D02*
Y14102D01*
X29163Y14262D02*
X29109Y14315D01*
Y14422D01*
X29163Y14475D01*
X29216D01*
X29269Y14422D01*
Y14368D01*
Y14422D01*
X29323Y14475D01*
X29376D01*
X29429Y14422D01*
Y14315D01*
X29376Y14262D01*
X46280Y14611D02*
X46493Y14291D01*
Y14611D02*
X46280Y14291D01*
X46599D02*
X46706D01*
X46653D01*
Y14611D01*
X46599Y14558D01*
X46866D02*
X46919Y14611D01*
X47026D01*
X47079Y14558D01*
Y14345D01*
X47026Y14291D01*
X46919D01*
X46866Y14345D01*
Y14558D01*
X31168Y13607D02*
X30955D01*
Y13287D01*
X31168D01*
X30955Y13447D02*
X31061D01*
X31595Y13287D02*
Y13607D01*
X31701Y13501D01*
X31808Y13607D01*
Y13287D01*
X32074Y13607D02*
X31968D01*
X31914Y13554D01*
Y13341D01*
X31968Y13287D01*
X32074D01*
X32128Y13341D01*
Y13554D01*
X32074Y13607D01*
X32234D02*
X32448D01*
X32341D01*
Y13287D01*
X32714Y13607D02*
X32608D01*
X32554Y13554D01*
Y13341D01*
X32608Y13287D01*
X32714D01*
X32767Y13341D01*
Y13554D01*
X32714Y13607D01*
X32874Y13287D02*
Y13607D01*
X33034D01*
X33087Y13554D01*
Y13447D01*
X33034Y13394D01*
X32874D01*
X32981D02*
X33087Y13287D01*
X12131Y22143D02*
Y22250D01*
X12078Y22303D01*
X11864D01*
X11811Y22250D01*
Y22143D01*
X11864Y22090D01*
X12078D01*
X12131Y22143D01*
X11704Y21983D02*
X12024D01*
Y21823D01*
X11971Y21770D01*
X11864D01*
X11811Y21823D01*
Y21983D01*
Y21503D02*
Y21610D01*
X11864Y21663D01*
X11971D01*
X12024Y21610D01*
Y21503D01*
X11971Y21450D01*
X11918D01*
Y21663D01*
X11811Y21343D02*
X12024D01*
Y21184D01*
X11971Y21130D01*
X11811D01*
X12078Y20490D02*
X12131Y20544D01*
Y20650D01*
X12078Y20704D01*
X12024D01*
X11971Y20650D01*
Y20544D01*
X11918Y20490D01*
X11864D01*
X11811Y20544D01*
Y20650D01*
X11864Y20704D01*
X11811Y20330D02*
Y20224D01*
X11864Y20171D01*
X11971D01*
X12024Y20224D01*
Y20330D01*
X11971Y20384D01*
X11864D01*
X11811Y20330D01*
X12024Y20064D02*
X11864D01*
X11811Y20011D01*
Y19851D01*
X12024D01*
Y19744D02*
X11811D01*
X11918D01*
X11971Y19691D01*
X12024Y19637D01*
Y19584D01*
Y19211D02*
Y19371D01*
X11971Y19424D01*
X11864D01*
X11811Y19371D01*
Y19211D01*
Y18944D02*
Y19051D01*
X11864Y19104D01*
X11971D01*
X12024Y19051D01*
Y18944D01*
X11971Y18891D01*
X11918D01*
Y19104D01*
X11639Y22303D02*
X11319D01*
X11479D01*
Y22090D01*
X11639D01*
X11319D01*
X11532Y21930D02*
Y21823D01*
X11479Y21770D01*
X11319D01*
Y21930D01*
X11372Y21983D01*
X11426Y21930D01*
Y21770D01*
X11532Y21663D02*
X11319D01*
X11426D01*
X11479Y21610D01*
X11532Y21557D01*
Y21503D01*
X11639Y21130D02*
X11319D01*
Y21290D01*
X11372Y21343D01*
X11479D01*
X11532Y21290D01*
Y21130D01*
Y21024D02*
X11372D01*
X11319Y20970D01*
X11372Y20917D01*
X11319Y20864D01*
X11372Y20810D01*
X11532D01*
Y20650D02*
Y20544D01*
X11479Y20490D01*
X11319D01*
Y20650D01*
X11372Y20704D01*
X11426Y20650D01*
Y20490D01*
X11532Y20384D02*
X11319D01*
X11426D01*
X11479Y20330D01*
X11532Y20277D01*
Y20224D01*
X11319Y19904D02*
Y20011D01*
X11372Y20064D01*
X11479D01*
X11532Y20011D01*
Y19904D01*
X11479Y19851D01*
X11426D01*
Y20064D01*
X20177Y13410D02*
Y13357D01*
X20284Y13250D01*
X20390Y13357D01*
Y13410D01*
X20284Y13250D02*
Y13091D01*
X20817D02*
Y13410D01*
X20924Y13304D01*
X21030Y13410D01*
Y13091D01*
X21297Y13410D02*
X21190D01*
X21137Y13357D01*
Y13144D01*
X21190Y13091D01*
X21297D01*
X21350Y13144D01*
Y13357D01*
X21297Y13410D01*
X21457D02*
X21670D01*
X21563D01*
Y13091D01*
X21937Y13410D02*
X21830D01*
X21777Y13357D01*
Y13144D01*
X21830Y13091D01*
X21937D01*
X21990Y13144D01*
Y13357D01*
X21937Y13410D01*
X22097Y13091D02*
Y13410D01*
X22256D01*
X22310Y13357D01*
Y13250D01*
X22256Y13197D01*
X22097D01*
X22203D02*
X22310Y13091D01*
X12190Y22920D02*
X12403D01*
X25100Y15770D02*
X25313D01*
Y15717D01*
X25100Y15503D01*
Y15450D01*
X25313D01*
X25740D02*
Y15770D01*
X25846Y15663D01*
X25953Y15770D01*
Y15450D01*
X26220Y15770D02*
X26113D01*
X26060Y15717D01*
Y15503D01*
X26113Y15450D01*
X26220D01*
X26273Y15503D01*
Y15717D01*
X26220Y15770D01*
X26380D02*
X26593D01*
X26486D01*
Y15450D01*
X26859Y15770D02*
X26753D01*
X26699Y15717D01*
Y15503D01*
X26753Y15450D01*
X26859D01*
X26913Y15503D01*
Y15717D01*
X26859Y15770D01*
X27019Y15450D02*
Y15770D01*
X27179D01*
X27233Y15717D01*
Y15610D01*
X27179Y15557D01*
X27019D01*
X27126D02*
X27233Y15450D01*
X27659D02*
X27766D01*
X27712D01*
Y15770D01*
X27659Y15717D01*
X25000Y12918D02*
X25213D01*
Y12865D01*
X25000Y12652D01*
Y12598D01*
X25213D01*
X25640D02*
Y12918D01*
X25746Y12812D01*
X25853Y12918D01*
Y12598D01*
X26120Y12918D02*
X26013D01*
X25960Y12865D01*
Y12652D01*
X26013Y12598D01*
X26120D01*
X26173Y12652D01*
Y12865D01*
X26120Y12918D01*
X26280D02*
X26493D01*
X26386D01*
Y12598D01*
X26759Y12918D02*
X26653D01*
X26599Y12865D01*
Y12652D01*
X26653Y12598D01*
X26759D01*
X26813Y12652D01*
Y12865D01*
X26759Y12918D01*
X26919Y12598D02*
Y12918D01*
X27079D01*
X27133Y12865D01*
Y12758D01*
X27079Y12705D01*
X26919D01*
X27026D02*
X27133Y12598D01*
X27772D02*
X27559D01*
X27772Y12812D01*
Y12865D01*
X27719Y12918D01*
X27612D01*
X27559Y12865D01*
X12790Y22870D02*
X12950D01*
X13003Y22923D01*
X12950Y22977D01*
X12843D01*
X12790Y23030D01*
X12843Y23083D01*
X13003D01*
X15400Y13370D02*
X15613Y13050D01*
Y13370D02*
X15400Y13050D01*
X16040D02*
Y13370D01*
X16146Y13263D01*
X16253Y13370D01*
Y13050D01*
X16520Y13370D02*
X16413D01*
X16360Y13317D01*
Y13103D01*
X16413Y13050D01*
X16520D01*
X16573Y13103D01*
Y13317D01*
X16520Y13370D01*
X16680D02*
X16893D01*
X16786D01*
Y13050D01*
X11530Y22910D02*
X11743D01*
X11637Y23017D02*
Y22803D01*
X10510Y13910D02*
Y13410D01*
X10610Y13310D01*
X10810D01*
X10910Y13410D01*
Y13910D01*
X19961Y27013D02*
X20174D01*
X20067D01*
Y26693D01*
X20281Y27013D02*
X20494Y26693D01*
Y27013D02*
X20281Y26693D01*
X20000Y26142D02*
Y26462D01*
X20160D01*
X20213Y26408D01*
Y26302D01*
X20160Y26248D01*
X20000D01*
X20107D02*
X20213Y26142D01*
X20320Y26462D02*
X20533Y26142D01*
Y26462D02*
X20320Y26142D01*
X14724Y37210D02*
X14938Y36890D01*
Y37210D02*
X14724Y36890D01*
X15044Y37050D02*
X15258D01*
X15364Y36890D02*
Y37210D01*
X15471Y37103D01*
X15577Y37210D01*
Y36890D01*
X15684Y37210D02*
X15791D01*
X15737D01*
Y36890D01*
X15684D01*
X15791D01*
X15951D02*
Y37210D01*
X16164Y36890D01*
Y37210D01*
X18858D02*
Y37156D01*
X18965Y37050D01*
X19072Y37156D01*
Y37210D01*
X18965Y37050D02*
Y36890D01*
X19178Y37050D02*
X19391D01*
X19498Y36890D02*
Y37210D01*
X19605Y37103D01*
X19711Y37210D01*
Y36890D01*
X19818Y37210D02*
X19925D01*
X19871D01*
Y36890D01*
X19818D01*
X19925D01*
X20085D02*
Y37210D01*
X20298Y36890D01*
Y37210D01*
X22953D02*
X23166D01*
Y37156D01*
X22953Y36943D01*
Y36890D01*
X23166D01*
X23273Y37050D02*
X23486D01*
X23593Y36890D02*
Y37210D01*
X23699Y37103D01*
X23806Y37210D01*
Y36890D01*
X23912Y37210D02*
X24019D01*
X23966D01*
Y36890D01*
X23912D01*
X24019D01*
X24179D02*
Y37210D01*
X24392Y36890D01*
Y37210D01*
X14646Y32367D02*
X14859Y32047D01*
Y32367D02*
X14646Y32047D01*
X14966Y32207D02*
X15179D01*
X15285Y32047D02*
Y32367D01*
X15392Y32261D01*
X15499Y32367D01*
Y32047D01*
X15605D02*
Y32261D01*
X15712Y32367D01*
X15819Y32261D01*
Y32047D01*
Y32207D01*
X15605D01*
X15925Y32367D02*
X16139Y32047D01*
Y32367D02*
X15925Y32047D01*
X18740Y32367D02*
Y32314D01*
X18847Y32207D01*
X18953Y32314D01*
Y32367D01*
X18847Y32207D02*
Y32047D01*
X19060Y32207D02*
X19273D01*
X19380Y32047D02*
Y32367D01*
X19487Y32261D01*
X19593Y32367D01*
Y32047D01*
X19700D02*
Y32261D01*
X19806Y32367D01*
X19913Y32261D01*
Y32047D01*
Y32207D01*
X19700D01*
X20020Y32367D02*
X20233Y32047D01*
Y32367D02*
X20020Y32047D01*
X22874Y32367D02*
X23087D01*
Y32314D01*
X22874Y32101D01*
Y32047D01*
X23087D01*
X23194Y32207D02*
X23407D01*
X23514Y32047D02*
Y32367D01*
X23620Y32261D01*
X23727Y32367D01*
Y32047D01*
X23834D02*
Y32261D01*
X23940Y32367D01*
X24047Y32261D01*
Y32047D01*
Y32207D01*
X23834D01*
X24154Y32367D02*
X24367Y32047D01*
Y32367D02*
X24154Y32047D01*
X22283Y29080D02*
X22390D01*
X22337D01*
Y28760D01*
X22283D01*
X22390D01*
X22763Y29026D02*
X22710Y29080D01*
X22603D01*
X22550Y29026D01*
Y28813D01*
X22603Y28760D01*
X22710D01*
X22763Y28813D01*
X23083Y29026D02*
X23030Y29080D01*
X22923D01*
X22870Y29026D01*
Y28973D01*
X22923Y28920D01*
X23030D01*
X23083Y28866D01*
Y28813D01*
X23030Y28760D01*
X22923D01*
X22870Y28813D01*
X23190Y28760D02*
Y29080D01*
X23350D01*
X23403Y29026D01*
Y28920D01*
X23350Y28866D01*
X23190D01*
X16378Y31658D02*
X16485D01*
X16431D01*
Y31339D01*
X16378D01*
X16485D01*
X16858Y31605D02*
X16804Y31658D01*
X16698D01*
X16645Y31605D01*
Y31392D01*
X16698Y31339D01*
X16804D01*
X16858Y31392D01*
X17178Y31605D02*
X17124Y31658D01*
X17018D01*
X16964Y31605D01*
Y31552D01*
X17018Y31499D01*
X17124D01*
X17178Y31445D01*
Y31392D01*
X17124Y31339D01*
X17018D01*
X16964Y31392D01*
X17284Y31339D02*
Y31658D01*
X17444D01*
X17498Y31605D01*
Y31499D01*
X17444Y31445D01*
X17284D01*
X17604Y31499D02*
X17817D01*
X17924Y31339D02*
X18031D01*
X17977D01*
Y31658D01*
X17924Y31605D01*
X36230Y31813D02*
Y31600D01*
X36390D01*
X36337Y31707D01*
Y31760D01*
X36390Y31813D01*
X36497D01*
X36550Y31760D01*
Y31653D01*
X36497Y31600D01*
X36230Y31920D02*
X36443D01*
X36550Y32027D01*
X36443Y32133D01*
X36230D01*
X24104Y18558D02*
X24318Y18238D01*
Y18558D02*
X24104Y18238D01*
X24424D02*
Y18558D01*
X24584D01*
X24637Y18505D01*
Y18398D01*
X24584Y18345D01*
X24424D01*
X24531D02*
X24637Y18238D01*
X24957Y18558D02*
X24744D01*
Y18238D01*
X24957D01*
X24744Y18398D02*
X24851D01*
X25277Y18558D02*
X25064D01*
Y18398D01*
X25171D01*
X25064D01*
Y18238D01*
X27333Y16973D02*
X27546D01*
Y16920D01*
X27333Y16707D01*
Y16654D01*
X27546D01*
X27653D02*
Y16973D01*
X27813D01*
X27866Y16920D01*
Y16813D01*
X27813Y16760D01*
X27653D01*
X27759D02*
X27866Y16654D01*
X28186Y16973D02*
X27972D01*
Y16654D01*
X28186D01*
X27972Y16813D02*
X28079D01*
X28506Y16973D02*
X28292D01*
Y16813D01*
X28399D01*
X28292D01*
Y16654D01*
X28619Y19670D02*
X28406D01*
Y19350D01*
X28619D01*
X28406Y19510D02*
X28512D01*
X28725Y19350D02*
Y19670D01*
X28885D01*
X28939Y19617D01*
Y19510D01*
X28885Y19457D01*
X28725D01*
X28832D02*
X28939Y19350D01*
X29259Y19670D02*
X29045D01*
Y19350D01*
X29259D01*
X29045Y19510D02*
X29152D01*
X29578Y19670D02*
X29365D01*
Y19510D01*
X29472D01*
X29365D01*
Y19350D01*
D114*
X27016Y34957D02*
X32016D01*
X27016Y36957D02*
X32016D01*
Y34957D02*
Y36957D01*
X27016Y34957D02*
Y36957D01*
X26996Y33285D02*
X31996D01*
X26996Y31285D02*
X31996D01*
Y33285D01*
X26996Y31285D02*
Y33285D01*
X40223Y35040D02*
X41877D01*
X40223Y36260D02*
X41877D01*
X33447Y32557D02*
Y37557D01*
X35447Y32557D02*
Y37557D01*
X33447D02*
X35447D01*
X33447Y32557D02*
X35447D01*
X40778Y16870D02*
X41565D01*
X40778Y17500D02*
X41565D01*
X38189Y17480D02*
X38976D01*
X38189Y16850D02*
X38976D01*
X42193Y32885D02*
X42507D01*
X42193Y32295D02*
X42507D01*
X39422Y32467D02*
Y34633D01*
X37178Y32467D02*
Y34633D01*
X39284D02*
X39422D01*
X39284Y32467D02*
X39422D01*
X37178Y34633D02*
X37316D01*
X37178Y32467D02*
X37316D01*
X41691Y34435D02*
X42203D01*
X41691Y33096D02*
X42203D01*
D115*
X50758Y18118D02*
Y20876D01*
X48199Y18118D02*
Y20876D01*
D116*
X41924Y11296D02*
D03*
D117*
X10990Y28614D02*
D03*
Y29414D02*
D03*
X35503Y27687D02*
D03*
D118*
X10990Y29090D02*
D03*
Y29890D02*
D03*
X35503Y27211D02*
D03*
D119*
X10990Y28850D02*
D03*
Y29650D02*
D03*
X35503Y27450D02*
D03*
D120*
X19282Y25798D02*
D03*
X19764Y27135D02*
D03*
X47284Y35255D02*
D03*
X44882Y26084D02*
D03*
X35463Y26034D02*
D03*
D121*
X19758Y25798D02*
D03*
X19288Y27135D02*
D03*
X46807Y35255D02*
D03*
X45358Y26084D02*
D03*
X35939Y26034D02*
D03*
D122*
X19518Y25798D02*
D03*
X19527Y27135D02*
D03*
X47047Y35255D02*
D03*
X45119Y26084D02*
D03*
X35699Y26034D02*
D03*
D123*
X49483Y20079D02*
D03*
D124*
X45945Y36059D02*
D03*
X46732Y26776D02*
D03*
X33858Y14689D02*
D03*
X41546Y20951D02*
D03*
D125*
X38107Y35651D02*
D03*
M02*
