G04 Layer_Color=32896*
%FSLAX24Y24*%
%MOIN*%
G70*
G01*
G75*
%ADD113C,0.0060*%
D113*
X18232Y27944D02*
G03*
X18332Y27844I100J0D01*
G01*
Y29144D02*
G03*
X18232Y29044I0J-100D01*
G01*
X19032D02*
G03*
X18932Y29144I-100J0D01*
G01*
Y27844D02*
G03*
X19032Y27944I0J100D01*
G01*
X39455Y13680D02*
G03*
X39355Y13780I-100J0D01*
G01*
Y12480D02*
G03*
X39455Y12580I0J100D01*
G01*
X38655D02*
G03*
X38755Y12480I100J0D01*
G01*
Y13780D02*
G03*
X38655Y13680I0J-100D01*
G01*
X19032Y27944D02*
Y29044D01*
X18332Y27844D02*
X18932D01*
X18332Y29144D02*
X18932D01*
X18232Y27944D02*
Y29044D01*
X38655Y12580D02*
Y13680D01*
X38755Y13780D02*
X39355D01*
X38755Y12480D02*
X39355D01*
X39455Y12580D02*
Y13680D01*
X11170Y18300D02*
X10850Y18513D01*
X11170D02*
X10850Y18300D01*
X11170Y18620D02*
X10850D01*
Y18780D01*
X10903Y18833D01*
X11117D01*
X11170Y18780D01*
Y18620D01*
Y18940D02*
Y19046D01*
Y18993D01*
X10850D01*
Y18940D01*
Y19046D01*
Y19206D02*
X11170D01*
Y19366D01*
X11117Y19420D01*
X11010D01*
X10957Y19366D01*
Y19206D01*
Y19313D02*
X10850Y19420D01*
X13170Y18000D02*
X12850Y18213D01*
X13170D02*
X12850Y18000D01*
X13117Y18533D02*
X13170Y18480D01*
Y18373D01*
X13117Y18320D01*
X13063D01*
X13010Y18373D01*
Y18480D01*
X12957Y18533D01*
X12903D01*
X12850Y18480D01*
Y18373D01*
X12903Y18320D01*
X13170Y18640D02*
Y18853D01*
Y18746D01*
X12850D01*
X13170Y19173D02*
Y18960D01*
X12850D01*
Y19173D01*
X13010Y18960D02*
Y19066D01*
X12850Y19280D02*
X13170D01*
Y19440D01*
X13117Y19493D01*
X13010D01*
X12957Y19440D01*
Y19280D01*
X15170Y18550D02*
X14850Y18763D01*
X15170D02*
X14850Y18550D01*
X15170Y19083D02*
Y18870D01*
X14850D01*
Y19083D01*
X15010Y18870D02*
Y18977D01*
X14850Y19190D02*
X15170D01*
X14850Y19403D01*
X15170D01*
X16170Y18300D02*
X16117D01*
X16010Y18407D01*
X16117Y18513D01*
X16170D01*
X16010Y18407D02*
X15850D01*
X16170Y18620D02*
X15850D01*
Y18780D01*
X15903Y18833D01*
X16117D01*
X16170Y18780D01*
Y18620D01*
Y18940D02*
Y19046D01*
Y18993D01*
X15850D01*
Y18940D01*
Y19046D01*
Y19206D02*
X16170D01*
Y19366D01*
X16117Y19420D01*
X16010D01*
X15957Y19366D01*
Y19206D01*
Y19313D02*
X15850Y19420D01*
X17170Y18000D02*
X16850Y18213D01*
X17170D02*
X16850Y18000D01*
X17170Y18320D02*
X17117D01*
X17010Y18427D01*
X17117Y18533D01*
X17170D01*
X17010Y18427D02*
X16850D01*
Y18640D02*
X17170D01*
Y18800D01*
X17117Y18853D01*
X17010D01*
X16957Y18800D01*
Y18640D01*
Y18746D02*
X16850Y18853D01*
X17170Y19173D02*
Y18960D01*
X16850D01*
Y19173D01*
X17010Y18960D02*
Y19066D01*
X17170Y19493D02*
Y19280D01*
X17010D01*
Y19386D01*
Y19280D01*
X16850D01*
X18170Y18000D02*
X18117D01*
X18010Y18107D01*
X18117Y18213D01*
X18170D01*
X18010Y18107D02*
X17850D01*
X18117Y18533D02*
X18170Y18480D01*
Y18373D01*
X18117Y18320D01*
X18063D01*
X18010Y18373D01*
Y18480D01*
X17957Y18533D01*
X17903D01*
X17850Y18480D01*
Y18373D01*
X17903Y18320D01*
X18170Y18640D02*
Y18853D01*
Y18746D01*
X17850D01*
X18170Y19173D02*
Y18960D01*
X17850D01*
Y19173D01*
X18010Y18960D02*
Y19066D01*
X17850Y19280D02*
X18170D01*
Y19440D01*
X18117Y19493D01*
X18010D01*
X17957Y19440D01*
Y19280D01*
X19170Y18550D02*
X19117D01*
X19010Y18657D01*
X19117Y18763D01*
X19170D01*
X19010Y18657D02*
X18850D01*
X19170Y19083D02*
Y18870D01*
X18850D01*
Y19083D01*
X19010Y18870D02*
Y18977D01*
X18850Y19190D02*
X19170D01*
X18850Y19403D01*
X19170D01*
X20170Y18300D02*
Y18513D01*
X20117D01*
X19903Y18300D01*
X19850D01*
Y18513D01*
X20170Y18620D02*
X19850D01*
Y18780D01*
X19903Y18833D01*
X20117D01*
X20170Y18780D01*
Y18620D01*
Y18940D02*
Y19046D01*
Y18993D01*
X19850D01*
Y18940D01*
Y19046D01*
Y19206D02*
X20170D01*
Y19366D01*
X20117Y19420D01*
X20010D01*
X19957Y19366D01*
Y19206D01*
Y19313D02*
X19850Y19420D01*
X21170Y18300D02*
Y18513D01*
X21117D01*
X20903Y18300D01*
X20850D01*
Y18513D01*
Y18620D02*
X21170D01*
Y18780D01*
X21117Y18833D01*
X21010D01*
X20957Y18780D01*
Y18620D01*
Y18727D02*
X20850Y18833D01*
X21170Y19153D02*
Y18940D01*
X20850D01*
Y19153D01*
X21010Y18940D02*
Y19046D01*
X21170Y19473D02*
Y19260D01*
X21010D01*
Y19366D01*
Y19260D01*
X20850D01*
X22170Y18000D02*
Y18213D01*
X22117D01*
X21903Y18000D01*
X21850D01*
Y18213D01*
X22117Y18533D02*
X22170Y18480D01*
Y18373D01*
X22117Y18320D01*
X22063D01*
X22010Y18373D01*
Y18480D01*
X21957Y18533D01*
X21903D01*
X21850Y18480D01*
Y18373D01*
X21903Y18320D01*
X22170Y18640D02*
Y18853D01*
Y18746D01*
X21850D01*
X22170Y19173D02*
Y18960D01*
X21850D01*
Y19173D01*
X22010Y18960D02*
Y19066D01*
X21850Y19280D02*
X22170D01*
Y19440D01*
X22117Y19493D01*
X22010D01*
X21957Y19440D01*
Y19280D01*
X24170Y18550D02*
Y18763D01*
X24117D01*
X23903Y18550D01*
X23850D01*
Y18763D01*
X24170Y19083D02*
Y18870D01*
X23850D01*
Y19083D01*
X24010Y18870D02*
Y18977D01*
X23850Y19190D02*
X24170D01*
X23850Y19403D01*
X24170D01*
X28170Y18213D02*
Y18000D01*
X27850D01*
Y18213D01*
X28010Y18000D02*
Y18107D01*
X28117Y18320D02*
X28170Y18373D01*
Y18480D01*
X28117Y18533D01*
X27903D01*
X27850Y18480D01*
Y18373D01*
X27903Y18320D01*
X28117D01*
X28170Y18640D02*
X27850D01*
Y18800D01*
X27903Y18853D01*
X28117D01*
X28170Y18800D01*
Y18640D01*
Y18960D02*
Y19066D01*
Y19013D01*
X27850D01*
Y18960D01*
Y19066D01*
Y19226D02*
X28170D01*
Y19386D01*
X28117Y19440D01*
X28010D01*
X27957Y19386D01*
Y19226D01*
Y19333D02*
X27850Y19440D01*
X29170Y18513D02*
Y18300D01*
X28850D01*
Y18513D01*
X29010Y18300D02*
Y18407D01*
X28850Y18620D02*
X29170D01*
Y18780D01*
X29117Y18833D01*
X29010D01*
X28957Y18780D01*
Y18620D01*
Y18727D02*
X28850Y18833D01*
X29170Y19153D02*
Y18940D01*
X28850D01*
Y19153D01*
X29010Y18940D02*
Y19046D01*
X29170Y19473D02*
Y19260D01*
X29010D01*
Y19366D01*
Y19260D01*
X28850D01*
X30170Y18213D02*
Y18000D01*
X29850D01*
Y18213D01*
X30010Y18000D02*
Y18107D01*
X30117Y18533D02*
X30170Y18480D01*
Y18373D01*
X30117Y18320D01*
X30063D01*
X30010Y18373D01*
Y18480D01*
X29957Y18533D01*
X29903D01*
X29850Y18480D01*
Y18373D01*
X29903Y18320D01*
X30170Y18640D02*
Y18853D01*
Y18746D01*
X29850D01*
X30170Y19173D02*
Y18960D01*
X29850D01*
Y19173D01*
X30010Y18960D02*
Y19066D01*
X29850Y19280D02*
X30170D01*
Y19440D01*
X30117Y19493D01*
X30010D01*
X29957Y19440D01*
Y19280D01*
X31170Y18763D02*
Y18550D01*
X30850D01*
Y18763D01*
X31010Y18550D02*
Y18657D01*
X31170Y19083D02*
Y18870D01*
X30850D01*
Y19083D01*
X31010Y18870D02*
Y18977D01*
X30850Y19190D02*
X31170D01*
X30850Y19403D01*
X31170D01*
X11170Y14500D02*
X10850Y14713D01*
X11170D02*
X10850Y14500D01*
Y14820D02*
Y14927D01*
Y14873D01*
X11170D01*
X11117Y14820D01*
X11170Y15086D02*
X10850D01*
Y15246D01*
X10903Y15300D01*
X10957D01*
X11010Y15246D01*
Y15086D01*
Y15246D01*
X11063Y15300D01*
X11117D01*
X11170Y15246D01*
Y15086D01*
X14170Y13500D02*
X13850Y13713D01*
X14170D02*
X13850Y13500D01*
Y13820D02*
Y13927D01*
Y13873D01*
X14170D01*
X14117Y13820D01*
X13850Y14086D02*
X14063D01*
X14170Y14193D01*
X14063Y14300D01*
X13850D01*
X14010D01*
Y14086D01*
X15170Y13500D02*
X14850Y13713D01*
X15170D02*
X14850Y13500D01*
Y14033D02*
Y13820D01*
X15063Y14033D01*
X15117D01*
X15170Y13980D01*
Y13873D01*
X15117Y13820D01*
X14850Y14140D02*
X15063D01*
X15170Y14246D01*
X15063Y14353D01*
X14850D01*
X15010D01*
Y14140D01*
X16170Y13500D02*
X15850Y13713D01*
X16170D02*
X15850Y13500D01*
Y14033D02*
Y13820D01*
X16063Y14033D01*
X16117D01*
X16170Y13980D01*
Y13873D01*
X16117Y13820D01*
X16170Y14140D02*
X15850D01*
Y14300D01*
X15903Y14353D01*
X15957D01*
X16010Y14300D01*
Y14140D01*
Y14300D01*
X16063Y14353D01*
X16117D01*
X16170Y14300D01*
Y14140D01*
X17170Y13500D02*
X17117D01*
X17010Y13607D01*
X17117Y13713D01*
X17170D01*
X17010Y13607D02*
X16850D01*
Y13820D02*
Y13927D01*
Y13873D01*
X17170D01*
X17117Y13820D01*
X17170Y14086D02*
X16850D01*
Y14246D01*
X16903Y14300D01*
X16957D01*
X17010Y14246D01*
Y14086D01*
Y14246D01*
X17063Y14300D01*
X17117D01*
X17170Y14246D01*
Y14086D01*
X20170Y13500D02*
X20117D01*
X20010Y13607D01*
X20117Y13713D01*
X20170D01*
X20010Y13607D02*
X19850D01*
Y13820D02*
Y13927D01*
Y13873D01*
X20170D01*
X20117Y13820D01*
X19850Y14086D02*
X20063D01*
X20170Y14193D01*
X20063Y14300D01*
X19850D01*
X20010D01*
Y14086D01*
X21170Y13500D02*
X21117D01*
X21010Y13607D01*
X21117Y13713D01*
X21170D01*
X21010Y13607D02*
X20850D01*
Y14033D02*
Y13820D01*
X21063Y14033D01*
X21117D01*
X21170Y13980D01*
Y13873D01*
X21117Y13820D01*
X20850Y14140D02*
X21063D01*
X21170Y14246D01*
X21063Y14353D01*
X20850D01*
X21010D01*
Y14140D01*
X22170Y13500D02*
X22117D01*
X22010Y13607D01*
X22117Y13713D01*
X22170D01*
X22010Y13607D02*
X21850D01*
Y14033D02*
Y13820D01*
X22063Y14033D01*
X22117D01*
X22170Y13980D01*
Y13873D01*
X22117Y13820D01*
X22170Y14140D02*
X21850D01*
Y14300D01*
X21903Y14353D01*
X21957D01*
X22010Y14300D01*
Y14140D01*
Y14300D01*
X22063Y14353D01*
X22117D01*
X22170Y14300D01*
Y14140D01*
X25070Y15300D02*
Y15513D01*
X25017D01*
X24803Y15300D01*
X24750D01*
Y15513D01*
Y15620D02*
Y15727D01*
Y15673D01*
X25070D01*
X25017Y15620D01*
X25070Y15886D02*
X24750D01*
Y16046D01*
X24803Y16100D01*
X24857D01*
X24910Y16046D01*
Y15886D01*
Y16046D01*
X24963Y16100D01*
X25017D01*
X25070Y16046D01*
Y15886D01*
X26070Y15300D02*
Y15513D01*
X26017D01*
X25803Y15300D01*
X25750D01*
Y15513D01*
Y15620D02*
Y15727D01*
Y15673D01*
X26070D01*
X26017Y15620D01*
X25750Y15886D02*
X25963D01*
X26070Y15993D01*
X25963Y16100D01*
X25750D01*
X25910D01*
Y15886D01*
X27070Y15300D02*
Y15513D01*
X27017D01*
X26803Y15300D01*
X26750D01*
Y15513D01*
Y15833D02*
Y15620D01*
X26963Y15833D01*
X27017D01*
X27070Y15780D01*
Y15673D01*
X27017Y15620D01*
X26750Y15940D02*
X26963D01*
X27070Y16046D01*
X26963Y16153D01*
X26750D01*
X26910D01*
Y15940D01*
X28070Y15300D02*
Y15513D01*
X28017D01*
X27803Y15300D01*
X27750D01*
Y15513D01*
Y15833D02*
Y15620D01*
X27963Y15833D01*
X28017D01*
X28070Y15780D01*
Y15673D01*
X28017Y15620D01*
X28070Y15940D02*
X27750D01*
Y16100D01*
X27803Y16153D01*
X27857D01*
X27910Y16100D01*
Y15940D01*
Y16100D01*
X27963Y16153D01*
X28017D01*
X28070Y16100D01*
Y15940D01*
X29170Y13713D02*
Y13500D01*
X28850D01*
Y13713D01*
X29010Y13500D02*
Y13607D01*
X28850Y14033D02*
Y13820D01*
X29063Y14033D01*
X29117D01*
X29170Y13980D01*
Y13873D01*
X29117Y13820D01*
X29170Y14140D02*
X28850D01*
Y14300D01*
X28903Y14353D01*
X28957D01*
X29010Y14300D01*
Y14140D01*
Y14300D01*
X29063Y14353D01*
X29117D01*
X29170Y14300D01*
Y14140D01*
X30170Y13713D02*
Y13500D01*
X29850D01*
Y13713D01*
X30010Y13500D02*
Y13607D01*
X29850Y14033D02*
Y13820D01*
X30063Y14033D01*
X30117D01*
X30170Y13980D01*
Y13873D01*
X30117Y13820D01*
X29850Y14140D02*
X30063D01*
X30170Y14246D01*
X30063Y14353D01*
X29850D01*
X30010D01*
Y14140D01*
X31170Y13713D02*
Y13500D01*
X30850D01*
Y13713D01*
X31010Y13500D02*
Y13607D01*
X30850Y13820D02*
Y13927D01*
Y13873D01*
X31170D01*
X31117Y13820D01*
X30850Y14086D02*
X31063D01*
X31170Y14193D01*
X31063Y14300D01*
X30850D01*
X31010D01*
Y14086D01*
X32170Y13713D02*
Y13500D01*
X31850D01*
Y13713D01*
X32010Y13500D02*
Y13607D01*
X31850Y13820D02*
Y13927D01*
Y13873D01*
X32170D01*
X32117Y13820D01*
X32170Y14086D02*
X31850D01*
Y14246D01*
X31903Y14300D01*
X31957D01*
X32010Y14246D01*
Y14086D01*
Y14246D01*
X32063Y14300D01*
X32117D01*
X32170Y14246D01*
Y14086D01*
X39220Y11213D02*
Y11000D01*
X39060D01*
Y11107D01*
Y11000D01*
X38900D01*
X39167Y11533D02*
X39220Y11480D01*
Y11373D01*
X39167Y11320D01*
X38953D01*
X38900Y11373D01*
Y11480D01*
X38953Y11533D01*
X39060D01*
Y11427D01*
X38900Y11640D02*
X39220D01*
X38900Y11853D01*
X39220D01*
Y11960D02*
X38900D01*
Y12120D01*
X38953Y12173D01*
X39167D01*
X39220Y12120D01*
Y11960D01*
X39867Y13013D02*
X39920Y12960D01*
Y12853D01*
X39867Y12800D01*
X39653D01*
X39600Y12853D01*
Y12960D01*
X39653Y13013D01*
X39760D01*
Y12907D01*
X39600Y13120D02*
X39920D01*
X39600Y13333D01*
X39920D01*
Y13440D02*
X39600D01*
Y13600D01*
X39653Y13653D01*
X39867D01*
X39920Y13600D01*
Y13440D01*
X40850Y11750D02*
X41170D01*
Y11910D01*
X41117Y11963D01*
X41010D01*
X40957Y11910D01*
Y11750D01*
X41170Y12070D02*
X40850D01*
X40957Y12177D01*
X40850Y12283D01*
X41170D01*
X40850Y12390D02*
X41170D01*
Y12550D01*
X41117Y12603D01*
X41010D01*
X40957Y12550D01*
Y12390D01*
Y12496D02*
X40850Y12603D01*
X41010Y12710D02*
Y12923D01*
X41170Y13030D02*
Y13136D01*
Y13083D01*
X40850D01*
Y13030D01*
Y13136D01*
Y13296D02*
X41170D01*
X40850Y13509D01*
X41170D01*
X43117Y12963D02*
X43170Y12910D01*
Y12803D01*
X43117Y12750D01*
X42903D01*
X42850Y12803D01*
Y12910D01*
X42903Y12963D01*
X43010D01*
Y12857D01*
X42850Y13070D02*
X43170D01*
X42850Y13283D01*
X43170D01*
Y13390D02*
X42850D01*
Y13550D01*
X42903Y13603D01*
X43117D01*
X43170Y13550D01*
Y13390D01*
X45170Y11750D02*
X44850D01*
Y11910D01*
X44903Y11963D01*
X44957D01*
X45010Y11910D01*
Y11750D01*
Y11910D01*
X45063Y11963D01*
X45117D01*
X45170Y11910D01*
Y11750D01*
Y12283D02*
Y12070D01*
X44850D01*
Y12283D01*
X45010Y12070D02*
Y12177D01*
X45170Y12390D02*
X44850D01*
Y12550D01*
X44903Y12603D01*
X45117D01*
X45170Y12550D01*
Y12390D01*
X45010Y12710D02*
Y12923D01*
X45170Y13030D02*
Y13136D01*
Y13083D01*
X44850D01*
Y13030D01*
Y13136D01*
Y13296D02*
X45170D01*
X44850Y13509D01*
X45170D01*
X39800Y20250D02*
Y20357D01*
Y20303D01*
X40120D01*
X40067Y20250D01*
X39800Y20730D02*
Y20517D01*
X40013Y20730D01*
X40067D01*
X40120Y20677D01*
Y20570D01*
X40067Y20517D01*
X40120Y20836D02*
X39907D01*
X39800Y20943D01*
X39907Y21050D01*
X40120D01*
X39800Y21370D02*
Y21156D01*
X40013Y21370D01*
X40067D01*
X40120Y21316D01*
Y21210D01*
X40067Y21156D01*
X39820Y24763D02*
Y24550D01*
X39660D01*
Y24657D01*
Y24550D01*
X39500D01*
Y24870D02*
X39713D01*
X39820Y24977D01*
X39713Y25083D01*
X39500D01*
X39660D01*
Y24870D01*
X39500Y25190D02*
X39820D01*
X39500Y25403D01*
X39820D01*
X39767Y25510D02*
X39820Y25563D01*
Y25670D01*
X39767Y25723D01*
X39553D01*
X39500Y25670D01*
Y25563D01*
X39553Y25510D01*
X39767D01*
X39120Y26813D02*
Y26600D01*
X38960D01*
Y26707D01*
Y26600D01*
X38800D01*
Y26920D02*
X39013D01*
X39120Y27027D01*
X39013Y27133D01*
X38800D01*
X38960D01*
Y26920D01*
X38800Y27240D02*
X39120D01*
X38800Y27453D01*
X39120D01*
X38800Y27560D02*
Y27666D01*
Y27613D01*
X39120D01*
X39067Y27560D01*
X32170Y27450D02*
Y27663D01*
Y27557D01*
X31850D01*
X32117Y27770D02*
X32170Y27823D01*
Y27930D01*
X32117Y27983D01*
X31903D01*
X31850Y27930D01*
Y27823D01*
X31903Y27770D01*
X32117D01*
X32170Y24750D02*
Y24963D01*
Y24857D01*
X31850D01*
Y25070D02*
Y25177D01*
Y25123D01*
X32170D01*
X32117Y25070D01*
X32170Y22550D02*
Y22763D01*
Y22657D01*
X31850D01*
Y23083D02*
Y22870D01*
X32063Y23083D01*
X32117D01*
X32170Y23030D01*
Y22923D01*
X32117Y22870D01*
X21800Y21500D02*
X22120D01*
Y21660D01*
X22067Y21713D01*
X21960D01*
X21907Y21660D01*
Y21500D01*
Y21607D02*
X21800Y21713D01*
X22120Y21820D02*
X21800Y22033D01*
X22120D02*
X21800Y21820D01*
X22067Y22140D02*
X22120Y22193D01*
Y22300D01*
X22067Y22353D01*
X21853D01*
X21800Y22300D01*
Y22193D01*
X21853Y22140D01*
X22067D01*
X21120Y21500D02*
Y21713D01*
Y21607D01*
X20800D01*
X21120Y21820D02*
X20800Y22033D01*
X21120D02*
X20800Y21820D01*
X21067Y22140D02*
X21120Y22193D01*
Y22300D01*
X21067Y22353D01*
X20853D01*
X20800Y22300D01*
Y22193D01*
X20853Y22140D01*
X21067D01*
X20800Y24500D02*
X21120D01*
Y24660D01*
X21067Y24713D01*
X20960D01*
X20907Y24660D01*
Y24500D01*
Y24607D02*
X20800Y24713D01*
X21067Y25033D02*
X21120Y24980D01*
Y24873D01*
X21067Y24820D01*
X21013D01*
X20960Y24873D01*
Y24980D01*
X20907Y25033D01*
X20853D01*
X20800Y24980D01*
Y24873D01*
X20853Y24820D01*
X21120Y25140D02*
Y25353D01*
Y25246D01*
X20800D01*
X17850Y21400D02*
X18170D01*
Y21560D01*
X18117Y21613D01*
X18010D01*
X17957Y21560D01*
Y21400D01*
Y21507D02*
X17850Y21613D01*
X18117Y21933D02*
X18170Y21880D01*
Y21773D01*
X18117Y21720D01*
X18063D01*
X18010Y21773D01*
Y21880D01*
X17957Y21933D01*
X17903D01*
X17850Y21880D01*
Y21773D01*
X17903Y21720D01*
X18170Y22040D02*
Y22253D01*
Y22146D01*
X17850D01*
Y22360D02*
Y22466D01*
Y22413D01*
X18170D01*
X18117Y22360D01*
X17250Y24500D02*
X17570D01*
Y24660D01*
X17517Y24713D01*
X17410D01*
X17357Y24660D01*
Y24500D01*
Y24607D02*
X17250Y24713D01*
X17570Y24820D02*
X17250Y25033D01*
X17570D02*
X17250Y24820D01*
Y25140D02*
Y25246D01*
Y25193D01*
X17570D01*
X17517Y25140D01*
X17570Y25750D02*
Y25963D01*
Y25857D01*
X17250D01*
X17570Y26070D02*
X17250Y26283D01*
X17570D02*
X17250Y26070D01*
Y26390D02*
Y26496D01*
Y26443D01*
X17570D01*
X17517Y26390D01*
X16250Y26500D02*
X16570D01*
X16463Y26607D01*
X16570Y26713D01*
X16250D01*
X16570Y26980D02*
Y26873D01*
X16517Y26820D01*
X16303D01*
X16250Y26873D01*
Y26980D01*
X16303Y27033D01*
X16517D01*
X16570Y26980D01*
X16517Y27353D02*
X16570Y27300D01*
Y27193D01*
X16517Y27140D01*
X16463D01*
X16410Y27193D01*
Y27300D01*
X16357Y27353D01*
X16303D01*
X16250Y27300D01*
Y27193D01*
X16303Y27140D01*
X16570Y27460D02*
Y27566D01*
Y27513D01*
X16250D01*
Y27460D01*
Y27566D01*
Y27940D02*
Y27726D01*
X16463Y27940D01*
X16517D01*
X16570Y27886D01*
Y27780D01*
X16517Y27726D01*
X17767Y27963D02*
X17820Y27910D01*
Y27803D01*
X17767Y27750D01*
X17713D01*
X17660Y27803D01*
Y27910D01*
X17607Y27963D01*
X17553D01*
X17500Y27910D01*
Y27803D01*
X17553Y27750D01*
X17767Y28283D02*
X17820Y28230D01*
Y28123D01*
X17767Y28070D01*
X17553D01*
X17500Y28123D01*
Y28230D01*
X17553Y28283D01*
X17820Y28390D02*
X17500D01*
X17607D01*
X17820Y28603D01*
X17660Y28443D01*
X17500Y28603D01*
Y28923D02*
Y28710D01*
X17713Y28923D01*
X17767D01*
X17820Y28870D01*
Y28763D01*
X17767Y28710D01*
X15250Y27500D02*
X15570D01*
X15463Y27607D01*
X15570Y27713D01*
X15250D01*
X15570Y27820D02*
Y27927D01*
Y27873D01*
X15250D01*
Y27820D01*
Y27927D01*
X15517Y28300D02*
X15570Y28246D01*
Y28140D01*
X15517Y28086D01*
X15463D01*
X15410Y28140D01*
Y28246D01*
X15357Y28300D01*
X15303D01*
X15250Y28246D01*
Y28140D01*
X15303Y28086D01*
X15570Y28566D02*
Y28460D01*
X15517Y28406D01*
X15303D01*
X15250Y28460D01*
Y28566D01*
X15303Y28620D01*
X15517D01*
X15570Y28566D01*
X15250Y28940D02*
Y28726D01*
X15463Y28940D01*
X15517D01*
X15570Y28886D01*
Y28780D01*
X15517Y28726D01*
X19250Y28000D02*
X19570D01*
Y28160D01*
X19517Y28213D01*
X19410D01*
X19357Y28160D01*
Y28000D01*
Y28107D02*
X19250Y28213D01*
X19517Y28533D02*
X19570Y28480D01*
Y28373D01*
X19517Y28320D01*
X19463D01*
X19410Y28373D01*
Y28480D01*
X19357Y28533D01*
X19303D01*
X19250Y28480D01*
Y28373D01*
X19303Y28320D01*
X19570Y28640D02*
Y28853D01*
Y28746D01*
X19250D01*
X14250Y28500D02*
X14570D01*
Y28660D01*
X14517Y28713D01*
X14410D01*
X14357Y28660D01*
Y28500D01*
Y28607D02*
X14250Y28713D01*
X14517Y29033D02*
X14570Y28980D01*
Y28873D01*
X14517Y28820D01*
X14463D01*
X14410Y28873D01*
Y28980D01*
X14357Y29033D01*
X14303D01*
X14250Y28980D01*
Y28873D01*
X14303Y28820D01*
X14570Y29140D02*
Y29353D01*
Y29246D01*
X14250D01*
Y29673D02*
Y29460D01*
X14463Y29673D01*
X14517D01*
X14570Y29620D01*
Y29513D01*
X14517Y29460D01*
X17320Y34500D02*
X17000Y34713D01*
X17320D02*
X17000Y34500D01*
Y34820D02*
X17320D01*
X17213Y34927D01*
X17320Y35033D01*
X17000D01*
X17320Y35140D02*
Y35246D01*
Y35193D01*
X17000D01*
Y35140D01*
Y35246D01*
Y35406D02*
X17320D01*
X17000Y35620D01*
X17320D01*
X17820Y34500D02*
X17500Y34713D01*
X17820D02*
X17500Y34500D01*
Y34820D02*
X17820D01*
X17713Y34927D01*
X17820Y35033D01*
X17500D01*
Y35140D02*
X17713D01*
X17820Y35246D01*
X17713Y35353D01*
X17500D01*
X17660D01*
Y35140D01*
X17820Y35460D02*
X17500Y35673D01*
X17820D02*
X17500Y35460D01*
X21570Y35500D02*
X21517D01*
X21410Y35607D01*
X21517Y35713D01*
X21570D01*
X21410Y35607D02*
X21250D01*
Y35820D02*
X21570D01*
X21463Y35927D01*
X21570Y36033D01*
X21250D01*
X21570Y36140D02*
Y36246D01*
Y36193D01*
X21250D01*
Y36140D01*
Y36246D01*
Y36406D02*
X21570D01*
X21250Y36620D01*
X21570D01*
X21820Y32500D02*
X21767D01*
X21660Y32607D01*
X21767Y32713D01*
X21820D01*
X21660Y32607D02*
X21500D01*
Y32820D02*
X21820D01*
X21713Y32927D01*
X21820Y33033D01*
X21500D01*
Y33140D02*
X21713D01*
X21820Y33246D01*
X21713Y33353D01*
X21500D01*
X21660D01*
Y33140D01*
X21820Y33460D02*
X21500Y33673D01*
X21820D02*
X21500Y33460D01*
X25820Y36000D02*
Y36213D01*
X25767D01*
X25553Y36000D01*
X25500D01*
Y36213D01*
Y36320D02*
X25820D01*
X25713Y36427D01*
X25820Y36533D01*
X25500D01*
X25820Y36640D02*
Y36746D01*
Y36693D01*
X25500D01*
Y36640D01*
Y36746D01*
Y36906D02*
X25820D01*
X25500Y37120D01*
X25820D01*
X19570Y30500D02*
Y30713D01*
X19517D01*
X19303Y30500D01*
X19250D01*
Y30713D01*
Y30820D02*
X19570D01*
X19463Y30927D01*
X19570Y31033D01*
X19250D01*
Y31140D02*
X19463D01*
X19570Y31246D01*
X19463Y31353D01*
X19250D01*
X19410D01*
Y31140D01*
X19570Y31460D02*
X19250Y31673D01*
X19570D02*
X19250Y31460D01*
X20850Y27250D02*
X21170D01*
X21063Y27357D01*
X21170Y27463D01*
X20850D01*
X21170Y27570D02*
Y27677D01*
Y27623D01*
X20850D01*
Y27570D01*
Y27677D01*
X21117Y28050D02*
X21170Y27996D01*
Y27890D01*
X21117Y27836D01*
X21063D01*
X21010Y27890D01*
Y27996D01*
X20957Y28050D01*
X20903D01*
X20850Y27996D01*
Y27890D01*
X20903Y27836D01*
X21170Y28316D02*
Y28210D01*
X21117Y28156D01*
X20903D01*
X20850Y28210D01*
Y28316D01*
X20903Y28370D01*
X21117D01*
X21170Y28316D01*
X22117Y27713D02*
X22170Y27660D01*
Y27553D01*
X22117Y27500D01*
X22063D01*
X22010Y27553D01*
Y27660D01*
X21957Y27713D01*
X21903D01*
X21850Y27660D01*
Y27553D01*
X21903Y27500D01*
X22117Y28033D02*
X22170Y27980D01*
Y27873D01*
X22117Y27820D01*
X21903D01*
X21850Y27873D01*
Y27980D01*
X21903Y28033D01*
X22170Y28140D02*
X21850D01*
X21957D01*
X22170Y28353D01*
X22010Y28193D01*
X21850Y28353D01*
X22850Y27500D02*
X23170D01*
Y27660D01*
X23117Y27713D01*
X23010D01*
X22957Y27660D01*
Y27500D01*
Y27607D02*
X22850Y27713D01*
X23117Y28033D02*
X23170Y27980D01*
Y27873D01*
X23117Y27820D01*
X23063D01*
X23010Y27873D01*
Y27980D01*
X22957Y28033D01*
X22903D01*
X22850Y27980D01*
Y27873D01*
X22903Y27820D01*
X23170Y28140D02*
Y28353D01*
Y28246D01*
X22850D01*
X27150Y29900D02*
X27470D01*
X27363Y30007D01*
X27470Y30113D01*
X27150D01*
X27470Y30380D02*
Y30273D01*
X27417Y30220D01*
X27203D01*
X27150Y30273D01*
Y30380D01*
X27203Y30433D01*
X27417D01*
X27470Y30380D01*
X27417Y30753D02*
X27470Y30700D01*
Y30593D01*
X27417Y30540D01*
X27363D01*
X27310Y30593D01*
Y30700D01*
X27257Y30753D01*
X27203D01*
X27150Y30700D01*
Y30593D01*
X27203Y30540D01*
X27470Y30860D02*
Y30966D01*
Y30913D01*
X27150D01*
Y30860D01*
Y30966D01*
X36070Y31713D02*
Y31500D01*
X35910D01*
X35963Y31607D01*
Y31660D01*
X35910Y31713D01*
X35803D01*
X35750Y31660D01*
Y31553D01*
X35803Y31500D01*
X36070Y31820D02*
X35857D01*
X35750Y31927D01*
X35857Y32033D01*
X36070D01*
X14170Y27500D02*
X13850D01*
Y27660D01*
X13903Y27713D01*
X14117D01*
X14170Y27660D01*
Y27500D01*
X14010Y27820D02*
Y28033D01*
X14117Y27927D02*
X13903D01*
X15820Y25750D02*
X15500D01*
Y25910D01*
X15553Y25963D01*
X15767D01*
X15820Y25910D01*
Y25750D01*
X15660Y26070D02*
Y26283D01*
X12287Y25117D02*
X12340Y25170D01*
X12447D01*
X12500Y25117D01*
Y24903D01*
X12447Y24850D01*
X12340D01*
X12287Y24903D01*
Y25010D01*
X12393D01*
X12180Y24850D02*
Y25170D01*
X11967Y24850D01*
Y25170D01*
X11860D02*
Y24850D01*
X11700D01*
X11647Y24903D01*
Y25117D01*
X11700Y25170D01*
X11860D01*
X11540Y24850D02*
X11434D01*
X11487D01*
Y25170D01*
X11540Y25117D01*
X14570Y21850D02*
X14303D01*
X14250Y21903D01*
Y22010D01*
X14303Y22063D01*
X14570D01*
X14517Y22383D02*
X14570Y22330D01*
Y22223D01*
X14517Y22170D01*
X14463D01*
X14410Y22223D01*
Y22330D01*
X14357Y22383D01*
X14303D01*
X14250Y22330D01*
Y22223D01*
X14303Y22170D01*
X14570Y22490D02*
X14250D01*
Y22650D01*
X14303Y22703D01*
X14357D01*
X14410Y22650D01*
Y22490D01*
Y22650D01*
X14463Y22703D01*
X14517D01*
X14570Y22650D01*
Y22490D01*
Y22810D02*
X14357D01*
X14250Y22916D01*
X14357Y23023D01*
X14570D01*
X14517Y23343D02*
X14570Y23290D01*
Y23183D01*
X14517Y23130D01*
X14303D01*
X14250Y23183D01*
Y23290D01*
X14303Y23343D01*
X14517Y23663D02*
X14570Y23609D01*
Y23503D01*
X14517Y23449D01*
X14303D01*
X14250Y23503D01*
Y23609D01*
X14303Y23663D01*
X47500Y27170D02*
Y26850D01*
X47340D01*
X47287Y26903D01*
Y26957D01*
X47340Y27010D01*
X47500D01*
X47340D01*
X47287Y27063D01*
Y27117D01*
X47340Y27170D01*
X47500D01*
X46967D02*
X47180D01*
Y26850D01*
X46967D01*
X47180Y27010D02*
X47073D01*
X46860Y27170D02*
Y26850D01*
X46700D01*
X46647Y26903D01*
Y27117D01*
X46700Y27170D01*
X46860D01*
X46540Y27010D02*
X46327D01*
X46434Y27117D02*
Y26903D01*
X47500Y29170D02*
Y28850D01*
X47340D01*
X47287Y28903D01*
Y28957D01*
X47340Y29010D01*
X47500D01*
X47340D01*
X47287Y29063D01*
Y29117D01*
X47340Y29170D01*
X47500D01*
X46967D02*
X47180D01*
Y28850D01*
X46967D01*
X47180Y29010D02*
X47073D01*
X46860Y29170D02*
Y28850D01*
X46700D01*
X46647Y28903D01*
Y29117D01*
X46700Y29170D01*
X46860D01*
X46540Y29010D02*
X46327D01*
X47287Y31170D02*
X47500D01*
Y30850D01*
X47287D01*
X47500Y31010D02*
X47393D01*
X47180Y31170D02*
X46967Y30850D01*
Y31170D02*
X47180Y30850D01*
X46860Y31170D02*
X46647D01*
X46754D01*
Y30850D01*
X46540Y31010D02*
X46327D01*
X46434Y31117D02*
Y30903D01*
X47287Y33170D02*
X47500D01*
Y32850D01*
X47287D01*
X47500Y33010D02*
X47393D01*
X47180Y33170D02*
X46967Y32850D01*
Y33170D02*
X47180Y32850D01*
X46860Y33170D02*
X46647D01*
X46754D01*
Y32850D01*
X46540Y33010D02*
X46327D01*
M02*
